<svg width="206" height="206" viewBox="0 0 206 206" fill="none" xmlns="http://www.w3.org/2000/svg">
<mask id="path-1-outside-1_500_3138" maskUnits="userSpaceOnUse" x="10" y="87" width="184" height="39" fill="black">
<rect fill="white" x="10" y="87" width="184" height="39"/>
<path d="M15.2131 102.032H26.5731C27.1065 102.032 27.5865 102.096 28.0131 102.224C28.4611 102.331 28.8131 102.565 29.0691 102.928C29.3251 103.291 29.4531 103.845 29.4531 104.592C29.4531 105.915 29.1118 107.216 28.4291 108.496C27.7678 109.776 26.6478 110.864 25.0691 111.76H38.1571C38.1571 112.677 37.9225 113.285 37.4531 113.584C36.9838 113.861 36.4718 114 35.9171 114H14.2531C13.7838 114 13.3465 113.883 12.9411 113.648C12.5358 113.392 12.3331 112.869 12.3331 112.08V111.76H14.3491C16.4825 111.76 18.2745 111.6 19.7251 111.28C21.1758 110.96 22.3491 110.533 23.2451 110C24.1625 109.467 24.8558 108.88 25.3251 108.24C25.8158 107.579 26.1465 106.917 26.3171 106.256C26.4878 105.595 26.5731 104.987 26.5731 104.432H15.2131C14.4238 104.432 13.7411 104.261 13.1651 103.92C12.6105 103.557 12.3331 102.821 12.3331 101.712C12.3331 100.773 12.4611 99.8027 12.7171 98.8C12.9731 97.7973 13.4105 96.8373 14.0291 95.92C14.6478 94.9813 15.4905 94.1387 16.5571 93.392C17.6451 92.6453 19.0105 92.0587 20.6531 91.632C22.2958 91.184 24.2691 90.96 26.5731 90.96C27.0638 90.96 27.5011 91.0773 27.8851 91.312C28.2905 91.5467 28.4931 92.0693 28.4931 92.88V93.52H26.1571C24.0878 93.52 22.3811 93.7227 21.0371 94.128C19.6931 94.5333 18.6265 95.0667 17.8371 95.728C17.0478 96.368 16.4611 97.072 16.0771 97.84C15.7145 98.5867 15.4798 99.3333 15.3731 100.08C15.2665 100.827 15.2131 101.477 15.2131 102.032ZM38.1581 112.784V97.36C38.1581 97.1893 38.2221 97.04 38.3501 96.912C38.4781 96.784 38.6275 96.72 38.7981 96.72H40.3661C40.5368 96.72 40.6861 96.784 40.8141 96.912C40.9635 97.04 41.0381 97.1893 41.0381 97.36V103.152C41.8488 101.723 42.7768 100.485 43.8221 99.44C44.8888 98.3733 45.9981 97.552 47.1501 96.976C48.3235 96.3787 49.4541 96.08 50.5421 96.08C51.6728 96.08 52.4301 96.3573 52.8141 96.912C53.2195 97.4667 53.4221 98.1493 53.4221 98.96V106.992C53.4221 107.888 53.2515 108.763 52.9101 109.616C52.5688 110.469 51.9181 111.184 50.9581 111.76H63.3421C63.3421 112.677 63.1075 113.285 62.6381 113.584C62.1688 113.861 61.6568 114 61.1021 114H44.9421C44.4728 114 44.0355 113.883 43.6301 113.648C43.2248 113.392 43.0221 112.869 43.0221 112.08V111.76H45.9341C46.7661 111.76 47.4701 111.6 48.0461 111.28C48.6435 110.96 49.1235 110.555 49.4861 110.064C49.8488 109.552 50.1155 109.029 50.2861 108.496C50.4568 107.941 50.5421 107.44 50.5421 106.992V98.64C49.9448 98.64 49.2301 98.8213 48.3981 99.184C47.5875 99.5253 46.7448 100.059 45.8701 100.784C45.0168 101.488 44.2275 102.373 43.5021 103.44C42.7768 104.507 42.1795 105.755 41.7101 107.184C41.2621 108.592 41.0381 110.192 41.0381 111.984V123.6H40.4941C39.3208 123.6 38.4675 123.397 37.9341 122.992C37.4008 122.587 37.1341 121.883 37.1341 120.88C37.1341 119.749 37.2301 118.469 37.4221 117.04C37.6355 115.632 37.8808 114.213 38.1581 112.784ZM73.1376 96.976C73.1376 96.336 73.3296 95.792 73.7136 95.344C74.0976 94.8747 74.6736 94.64 75.4416 94.64C76.167 94.64 76.7216 94.8427 77.1056 95.248C77.511 95.6533 77.735 96.144 77.7776 96.72H89.2336C89.2336 97.6373 88.999 98.2987 88.5296 98.704C88.0603 99.088 87.5483 99.28 86.9936 99.28H78.3216V102.48C78.3216 106.341 77.3296 109.232 75.3456 111.152C73.3616 113.051 70.3216 114 66.2256 114C65.4363 114 64.8283 113.872 64.4016 113.616C63.9963 113.36 63.719 113.019 63.5696 112.592C63.4203 112.144 63.3456 111.653 63.3456 111.12V103.408C63.3456 100.997 63.8896 99.2267 64.9776 98.096C66.087 96.9653 67.9643 96.4 70.6096 96.4C71.207 96.4 71.6656 96.5707 71.9856 96.912C72.327 97.2533 72.4976 97.8293 72.4976 98.64V98.96H70.6096C69.607 98.96 68.775 99.0773 68.1136 99.312C67.4736 99.5467 66.9936 99.984 66.6736 100.624C66.375 101.243 66.2256 102.171 66.2256 103.408V111.44C68.359 111.44 70.0976 111.173 71.4416 110.64C72.807 110.085 73.8096 109.157 74.4496 107.856C75.111 106.533 75.4416 104.741 75.4416 102.48V99.28C74.6736 99.28 74.0976 99.056 73.7136 98.608C73.3296 98.16 73.1376 97.616 73.1376 96.976ZM93.1139 99.28H89.9139V111.76H101.114C101.114 112.677 100.879 113.285 100.41 113.584C99.9405 113.861 99.4285 114 98.8739 114H88.9539C88.4845 114 88.0365 113.883 87.6099 113.648C87.2045 113.392 87.0019 112.869 87.0019 112.08V99.28H82.8419C82.8419 98.3413 83.0765 97.68 83.5459 97.296C84.0152 96.912 84.5272 96.72 85.0819 96.72H87.0019V92.24C87.0019 92.0693 87.0659 91.92 87.1939 91.792C87.3219 91.664 87.4712 91.6 87.6419 91.6H89.2419C89.4125 91.6 89.5619 91.664 89.6899 91.792C89.8179 91.92 89.8925 92.0693 89.9139 92.24V96.72H95.3539C95.3539 97.6373 95.1192 98.2987 94.6499 98.704C94.1805 99.088 93.6685 99.28 93.1139 99.28ZM104.007 100.496V111.76H114.279C114.279 112.677 114.044 113.285 113.575 113.584C113.106 113.861 112.594 114 112.039 114H103.079C102.61 114 102.162 113.883 101.735 113.648C101.33 113.392 101.127 112.869 101.127 112.08V89.68H101.671C102.866 89.68 103.719 89.8827 104.231 90.288C104.764 90.6933 105.031 91.3973 105.031 92.4C105.031 93.5093 104.935 94.7787 104.743 96.208C104.551 97.616 104.306 99.0453 104.007 100.496ZM117.163 111.76H127.435C127.435 112.677 127.2 113.285 126.731 113.584C126.262 113.861 125.75 114 125.195 114H116.235C115.766 114 115.318 113.883 114.891 113.648C114.486 113.392 114.283 112.869 114.283 112.08V97.36C114.283 97.1893 114.347 97.04 114.475 96.912C114.603 96.784 114.752 96.72 114.923 96.72H116.491C116.662 96.72 116.811 96.784 116.939 96.912C117.088 97.04 117.163 97.1893 117.163 97.36V111.76ZM113.771 91.472C113.771 90.9387 113.899 90.48 114.155 90.096C114.411 89.6907 114.934 89.488 115.723 89.488C116.491 89.488 117.014 89.6907 117.291 90.096C117.568 90.48 117.707 90.9387 117.707 91.472C117.707 92.0053 117.568 92.464 117.291 92.848C117.014 93.232 116.491 93.424 115.723 93.424C114.934 93.424 114.411 93.232 114.155 92.848C113.899 92.464 113.771 92.0053 113.771 91.472ZM137.551 98.64V98.96H134.703C133.701 98.96 132.869 99.0773 132.207 99.312C131.567 99.5467 131.087 99.984 130.767 100.624C130.469 101.243 130.319 102.171 130.319 103.408V111.6C131.087 111.6 131.962 111.355 132.943 110.864C133.946 110.352 134.917 109.573 135.855 108.528C136.815 107.483 137.605 106.149 138.223 104.528C138.842 102.907 139.151 100.976 139.151 98.736V96.72H140.303C141.903 96.72 142.703 97.6907 142.703 99.632C142.703 100.208 142.639 100.763 142.511 101.296C142.383 101.829 142.223 102.341 142.031 102.832V111.76H152.303C152.303 112.677 152.069 113.285 151.599 113.584C151.13 113.861 150.618 114 150.063 114H141.999C141.935 116.624 141.594 118.651 140.975 120.08C140.378 121.509 139.461 122.501 138.223 123.056C137.007 123.632 135.429 123.92 133.487 123.92C132.826 123.92 132.357 123.749 132.079 123.408C131.823 123.067 131.695 122.501 131.695 121.712V121.36H133.487C134.49 121.36 135.343 121.275 136.047 121.104C136.773 120.933 137.359 120.571 137.807 120.016C138.277 119.483 138.618 118.651 138.831 117.52C139.045 116.411 139.151 114.917 139.151 113.04V107.664C138.405 108.987 137.53 110.139 136.527 111.12C135.546 112.08 134.522 112.827 133.455 113.36C132.389 113.893 131.343 114.16 130.319 114.16C129.21 114.16 128.453 113.883 128.047 113.328C127.642 112.752 127.439 112.069 127.439 111.28V103.408C127.439 100.997 127.983 99.2267 129.071 98.096C130.181 96.9653 132.058 96.4 134.703 96.4C135.621 96.4 136.325 96.5707 136.815 96.912C137.306 97.2533 137.551 97.8293 137.551 98.64ZM155.194 114H154.042C152.442 114 151.642 113.029 151.642 111.088C151.642 110.512 151.696 109.957 151.802 109.424C151.93 108.891 152.101 108.379 152.314 107.888V90.32C152.314 90.1493 152.378 90 152.506 89.872C152.634 89.744 152.784 89.68 152.954 89.68H154.554C154.725 89.68 154.874 89.744 155.002 89.872C155.13 90 155.194 90.1493 155.194 90.32V103.12C155.984 101.712 156.89 100.485 157.914 99.44C158.96 98.3733 160.037 97.552 161.146 96.976C162.277 96.3787 163.354 96.08 164.378 96.08C165.509 96.08 166.266 96.3573 166.65 96.912C167.056 97.4667 167.258 98.1493 167.258 98.96V111.76H177.498C177.498 112.677 177.264 113.285 176.794 113.584C176.325 113.861 175.813 114 175.258 114H166.298C165.829 114 165.392 113.883 164.986 113.648C164.581 113.392 164.378 112.869 164.378 112.08V98.64C163.781 98.64 163.077 98.8213 162.266 99.184C161.477 99.5253 160.666 100.059 159.834 100.784C159.002 101.488 158.234 102.373 157.53 103.44C156.848 104.507 156.282 105.755 155.834 107.184C155.408 108.592 155.194 110.192 155.194 111.984V114ZM183.614 99.28H180.414V111.76H191.614C191.614 112.677 191.379 113.285 190.91 113.584C190.441 113.861 189.929 114 189.374 114H179.454C178.985 114 178.537 113.883 178.11 113.648C177.705 113.392 177.502 112.869 177.502 112.08V99.28H173.342C173.342 98.3413 173.577 97.68 174.046 97.296C174.515 96.912 175.027 96.72 175.582 96.72H177.502V92.24C177.502 92.0693 177.566 91.92 177.694 91.792C177.822 91.664 177.971 91.6 178.142 91.6H179.742C179.913 91.6 180.062 91.664 180.19 91.792C180.318 91.92 180.393 92.0693 180.414 92.24V96.72H185.854C185.854 97.6373 185.619 98.2987 185.15 98.704C184.681 99.088 184.169 99.28 183.614 99.28Z"/>
</mask>
<path d="M15.2131 102.032H26.5731C27.1065 102.032 27.5865 102.096 28.0131 102.224C28.4611 102.331 28.8131 102.565 29.0691 102.928C29.3251 103.291 29.4531 103.845 29.4531 104.592C29.4531 105.915 29.1118 107.216 28.4291 108.496C27.7678 109.776 26.6478 110.864 25.0691 111.76H38.1571C38.1571 112.677 37.9225 113.285 37.4531 113.584C36.9838 113.861 36.4718 114 35.9171 114H14.2531C13.7838 114 13.3465 113.883 12.9411 113.648C12.5358 113.392 12.3331 112.869 12.3331 112.08V111.76H14.3491C16.4825 111.76 18.2745 111.6 19.7251 111.28C21.1758 110.96 22.3491 110.533 23.2451 110C24.1625 109.467 24.8558 108.88 25.3251 108.24C25.8158 107.579 26.1465 106.917 26.3171 106.256C26.4878 105.595 26.5731 104.987 26.5731 104.432H15.2131C14.4238 104.432 13.7411 104.261 13.1651 103.92C12.6105 103.557 12.3331 102.821 12.3331 101.712C12.3331 100.773 12.4611 99.8027 12.7171 98.8C12.9731 97.7973 13.4105 96.8373 14.0291 95.92C14.6478 94.9813 15.4905 94.1387 16.5571 93.392C17.6451 92.6453 19.0105 92.0587 20.6531 91.632C22.2958 91.184 24.2691 90.96 26.5731 90.96C27.0638 90.96 27.5011 91.0773 27.8851 91.312C28.2905 91.5467 28.4931 92.0693 28.4931 92.88V93.52H26.1571C24.0878 93.52 22.3811 93.7227 21.0371 94.128C19.6931 94.5333 18.6265 95.0667 17.8371 95.728C17.0478 96.368 16.4611 97.072 16.0771 97.84C15.7145 98.5867 15.4798 99.3333 15.3731 100.08C15.2665 100.827 15.2131 101.477 15.2131 102.032ZM38.1581 112.784V97.36C38.1581 97.1893 38.2221 97.04 38.3501 96.912C38.4781 96.784 38.6275 96.72 38.7981 96.72H40.3661C40.5368 96.72 40.6861 96.784 40.8141 96.912C40.9635 97.04 41.0381 97.1893 41.0381 97.36V103.152C41.8488 101.723 42.7768 100.485 43.8221 99.44C44.8888 98.3733 45.9981 97.552 47.1501 96.976C48.3235 96.3787 49.4541 96.08 50.5421 96.08C51.6728 96.08 52.4301 96.3573 52.8141 96.912C53.2195 97.4667 53.4221 98.1493 53.4221 98.96V106.992C53.4221 107.888 53.2515 108.763 52.9101 109.616C52.5688 110.469 51.9181 111.184 50.9581 111.76H63.3421C63.3421 112.677 63.1075 113.285 62.6381 113.584C62.1688 113.861 61.6568 114 61.1021 114H44.9421C44.4728 114 44.0355 113.883 43.6301 113.648C43.2248 113.392 43.0221 112.869 43.0221 112.08V111.76H45.9341C46.7661 111.76 47.4701 111.6 48.0461 111.28C48.6435 110.96 49.1235 110.555 49.4861 110.064C49.8488 109.552 50.1155 109.029 50.2861 108.496C50.4568 107.941 50.5421 107.44 50.5421 106.992V98.64C49.9448 98.64 49.2301 98.8213 48.3981 99.184C47.5875 99.5253 46.7448 100.059 45.8701 100.784C45.0168 101.488 44.2275 102.373 43.5021 103.44C42.7768 104.507 42.1795 105.755 41.7101 107.184C41.2621 108.592 41.0381 110.192 41.0381 111.984V123.6H40.4941C39.3208 123.6 38.4675 123.397 37.9341 122.992C37.4008 122.587 37.1341 121.883 37.1341 120.88C37.1341 119.749 37.2301 118.469 37.4221 117.04C37.6355 115.632 37.8808 114.213 38.1581 112.784ZM73.1376 96.976C73.1376 96.336 73.3296 95.792 73.7136 95.344C74.0976 94.8747 74.6736 94.64 75.4416 94.64C76.167 94.64 76.7216 94.8427 77.1056 95.248C77.511 95.6533 77.735 96.144 77.7776 96.72H89.2336C89.2336 97.6373 88.999 98.2987 88.5296 98.704C88.0603 99.088 87.5483 99.28 86.9936 99.28H78.3216V102.48C78.3216 106.341 77.3296 109.232 75.3456 111.152C73.3616 113.051 70.3216 114 66.2256 114C65.4363 114 64.8283 113.872 64.4016 113.616C63.9963 113.36 63.719 113.019 63.5696 112.592C63.4203 112.144 63.3456 111.653 63.3456 111.12V103.408C63.3456 100.997 63.8896 99.2267 64.9776 98.096C66.087 96.9653 67.9643 96.4 70.6096 96.4C71.207 96.4 71.6656 96.5707 71.9856 96.912C72.327 97.2533 72.4976 97.8293 72.4976 98.64V98.96H70.6096C69.607 98.96 68.775 99.0773 68.1136 99.312C67.4736 99.5467 66.9936 99.984 66.6736 100.624C66.375 101.243 66.2256 102.171 66.2256 103.408V111.44C68.359 111.44 70.0976 111.173 71.4416 110.64C72.807 110.085 73.8096 109.157 74.4496 107.856C75.111 106.533 75.4416 104.741 75.4416 102.48V99.28C74.6736 99.28 74.0976 99.056 73.7136 98.608C73.3296 98.16 73.1376 97.616 73.1376 96.976ZM93.1139 99.28H89.9139V111.76H101.114C101.114 112.677 100.879 113.285 100.41 113.584C99.9405 113.861 99.4285 114 98.8739 114H88.9539C88.4845 114 88.0365 113.883 87.6099 113.648C87.2045 113.392 87.0019 112.869 87.0019 112.08V99.28H82.8419C82.8419 98.3413 83.0765 97.68 83.5459 97.296C84.0152 96.912 84.5272 96.72 85.0819 96.72H87.0019V92.24C87.0019 92.0693 87.0659 91.92 87.1939 91.792C87.3219 91.664 87.4712 91.6 87.6419 91.6H89.2419C89.4125 91.6 89.5619 91.664 89.6899 91.792C89.8179 91.92 89.8925 92.0693 89.9139 92.24V96.72H95.3539C95.3539 97.6373 95.1192 98.2987 94.6499 98.704C94.1805 99.088 93.6685 99.28 93.1139 99.28ZM104.007 100.496V111.76H114.279C114.279 112.677 114.044 113.285 113.575 113.584C113.106 113.861 112.594 114 112.039 114H103.079C102.61 114 102.162 113.883 101.735 113.648C101.33 113.392 101.127 112.869 101.127 112.08V89.68H101.671C102.866 89.68 103.719 89.8827 104.231 90.288C104.764 90.6933 105.031 91.3973 105.031 92.4C105.031 93.5093 104.935 94.7787 104.743 96.208C104.551 97.616 104.306 99.0453 104.007 100.496ZM117.163 111.76H127.435C127.435 112.677 127.2 113.285 126.731 113.584C126.262 113.861 125.75 114 125.195 114H116.235C115.766 114 115.318 113.883 114.891 113.648C114.486 113.392 114.283 112.869 114.283 112.08V97.36C114.283 97.1893 114.347 97.04 114.475 96.912C114.603 96.784 114.752 96.72 114.923 96.72H116.491C116.662 96.72 116.811 96.784 116.939 96.912C117.088 97.04 117.163 97.1893 117.163 97.36V111.76ZM113.771 91.472C113.771 90.9387 113.899 90.48 114.155 90.096C114.411 89.6907 114.934 89.488 115.723 89.488C116.491 89.488 117.014 89.6907 117.291 90.096C117.568 90.48 117.707 90.9387 117.707 91.472C117.707 92.0053 117.568 92.464 117.291 92.848C117.014 93.232 116.491 93.424 115.723 93.424C114.934 93.424 114.411 93.232 114.155 92.848C113.899 92.464 113.771 92.0053 113.771 91.472ZM137.551 98.64V98.96H134.703C133.701 98.96 132.869 99.0773 132.207 99.312C131.567 99.5467 131.087 99.984 130.767 100.624C130.469 101.243 130.319 102.171 130.319 103.408V111.6C131.087 111.6 131.962 111.355 132.943 110.864C133.946 110.352 134.917 109.573 135.855 108.528C136.815 107.483 137.605 106.149 138.223 104.528C138.842 102.907 139.151 100.976 139.151 98.736V96.72H140.303C141.903 96.72 142.703 97.6907 142.703 99.632C142.703 100.208 142.639 100.763 142.511 101.296C142.383 101.829 142.223 102.341 142.031 102.832V111.76H152.303C152.303 112.677 152.069 113.285 151.599 113.584C151.13 113.861 150.618 114 150.063 114H141.999C141.935 116.624 141.594 118.651 140.975 120.08C140.378 121.509 139.461 122.501 138.223 123.056C137.007 123.632 135.429 123.92 133.487 123.92C132.826 123.92 132.357 123.749 132.079 123.408C131.823 123.067 131.695 122.501 131.695 121.712V121.36H133.487C134.49 121.36 135.343 121.275 136.047 121.104C136.773 120.933 137.359 120.571 137.807 120.016C138.277 119.483 138.618 118.651 138.831 117.52C139.045 116.411 139.151 114.917 139.151 113.04V107.664C138.405 108.987 137.53 110.139 136.527 111.12C135.546 112.08 134.522 112.827 133.455 113.36C132.389 113.893 131.343 114.16 130.319 114.16C129.21 114.16 128.453 113.883 128.047 113.328C127.642 112.752 127.439 112.069 127.439 111.28V103.408C127.439 100.997 127.983 99.2267 129.071 98.096C130.181 96.9653 132.058 96.4 134.703 96.4C135.621 96.4 136.325 96.5707 136.815 96.912C137.306 97.2533 137.551 97.8293 137.551 98.64ZM155.194 114H154.042C152.442 114 151.642 113.029 151.642 111.088C151.642 110.512 151.696 109.957 151.802 109.424C151.93 108.891 152.101 108.379 152.314 107.888V90.32C152.314 90.1493 152.378 90 152.506 89.872C152.634 89.744 152.784 89.68 152.954 89.68H154.554C154.725 89.68 154.874 89.744 155.002 89.872C155.13 90 155.194 90.1493 155.194 90.32V103.12C155.984 101.712 156.89 100.485 157.914 99.44C158.96 98.3733 160.037 97.552 161.146 96.976C162.277 96.3787 163.354 96.08 164.378 96.08C165.509 96.08 166.266 96.3573 166.65 96.912C167.056 97.4667 167.258 98.1493 167.258 98.96V111.76H177.498C177.498 112.677 177.264 113.285 176.794 113.584C176.325 113.861 175.813 114 175.258 114H166.298C165.829 114 165.392 113.883 164.986 113.648C164.581 113.392 164.378 112.869 164.378 112.08V98.64C163.781 98.64 163.077 98.8213 162.266 99.184C161.477 99.5253 160.666 100.059 159.834 100.784C159.002 101.488 158.234 102.373 157.53 103.44C156.848 104.507 156.282 105.755 155.834 107.184C155.408 108.592 155.194 110.192 155.194 111.984V114ZM183.614 99.28H180.414V111.76H191.614C191.614 112.677 191.379 113.285 190.91 113.584C190.441 113.861 189.929 114 189.374 114H179.454C178.985 114 178.537 113.883 178.11 113.648C177.705 113.392 177.502 112.869 177.502 112.08V99.28H173.342C173.342 98.3413 173.577 97.68 174.046 97.296C174.515 96.912 175.027 96.72 175.582 96.72H177.502V92.24C177.502 92.0693 177.566 91.92 177.694 91.792C177.822 91.664 177.971 91.6 178.142 91.6H179.742C179.913 91.6 180.062 91.664 180.19 91.792C180.318 91.92 180.393 92.0693 180.414 92.24V96.72H185.854C185.854 97.6373 185.619 98.2987 185.15 98.704C184.681 99.088 184.169 99.28 183.614 99.28Z" fill="#49BCFF"/>
<path d="M15.2131 102.032H13.2131V104.032H15.2131V102.032ZM28.0131 102.224L27.4384 104.14L27.4937 104.156L27.5499 104.17L28.0131 102.224ZM29.0691 102.928L30.7031 101.775L30.7031 101.775L29.0691 102.928ZM28.4291 108.496L26.6644 107.555L26.6583 107.566L26.6523 107.578L28.4291 108.496ZM25.0691 111.76L24.0819 110.021L17.4935 113.76H25.0691V111.76ZM38.1571 111.76H40.1571V109.76H38.1571V111.76ZM37.4531 113.584L38.4706 115.306L38.499 115.289L38.5269 115.271L37.4531 113.584ZM12.9411 113.648L11.8731 115.339L11.9057 115.36L11.9391 115.379L12.9411 113.648ZM12.3331 111.76V109.76H10.3331V111.76H12.3331ZM19.7251 111.28L19.2943 109.327L19.2943 109.327L19.7251 111.28ZM23.2451 110L22.2399 108.271L22.231 108.276L22.2222 108.281L23.2451 110ZM25.3251 108.24L23.7189 107.048L23.7123 107.057L25.3251 108.24ZM26.3171 106.256L24.3806 105.756L24.3806 105.756L26.3171 106.256ZM26.5731 104.432H28.5731V102.432H26.5731V104.432ZM13.1651 103.92L12.0706 105.594L12.1076 105.618L12.1455 105.641L13.1651 103.92ZM14.0291 95.92L15.6873 97.0383L15.6932 97.0295L15.699 97.0206L14.0291 95.92ZM16.5571 93.392L15.4254 91.743L15.4178 91.7482L15.4102 91.7535L16.5571 93.392ZM20.6531 91.632L21.1559 93.5678L21.1677 93.5647L21.1794 93.5615L20.6531 91.632ZM27.8851 91.312L26.8422 93.0186L26.8625 93.0309L26.8831 93.0428L27.8851 91.312ZM28.4931 93.52V95.52H30.4931V93.52H28.4931ZM17.8371 95.728L19.0967 97.2815L19.1092 97.2714L19.1216 97.261L17.8371 95.728ZM16.0771 97.84L14.2883 96.9456L14.2831 96.9559L14.2781 96.9662L16.0771 97.84ZM15.3731 100.08L13.3932 99.7972L13.3932 99.7972L15.3731 100.08ZM15.2131 102.032V104.032H26.5731V102.032V100.032H15.2131V102.032ZM26.5731 102.032V104.032C26.9489 104.032 27.2307 104.077 27.4384 104.14L28.0131 102.224L28.5878 100.308C27.9422 100.115 27.264 100.032 26.5731 100.032V102.032ZM28.0131 102.224L27.5499 104.17C27.564 104.173 27.5415 104.169 27.5037 104.144C27.4863 104.132 27.4705 104.12 27.4575 104.107C27.4446 104.094 27.4374 104.085 27.4352 104.081L29.0691 102.928L30.7031 101.775C30.155 100.998 29.3786 100.493 28.4764 100.278L28.0131 102.224ZM29.0691 102.928L27.4352 104.081C27.3779 104 27.3869 103.973 27.4083 104.066C27.4297 104.158 27.4531 104.326 27.4531 104.592H29.4531H31.4531C31.4531 103.686 31.3106 102.635 30.7031 101.775L29.0691 102.928ZM29.4531 104.592H27.4531C27.4531 105.555 27.2079 106.536 26.6644 107.555L28.4291 108.496L30.1938 109.437C31.0157 107.896 31.4531 106.274 31.4531 104.592H29.4531ZM28.4291 108.496L26.6523 107.578C26.2101 108.434 25.4107 109.266 24.0819 110.021L25.0691 111.76L26.0563 113.499C27.8849 112.462 29.3255 111.118 30.206 109.414L28.4291 108.496ZM25.0691 111.76V113.76H38.1571V111.76V109.76H25.0691V111.76ZM38.1571 111.76H36.1571C36.1571 111.906 36.1477 112.013 36.1364 112.086C36.1251 112.159 36.1137 112.188 36.1153 112.184C36.1175 112.178 36.1349 112.135 36.1814 112.075C36.2298 112.013 36.2967 111.949 36.3794 111.897L37.4531 113.584L38.5269 115.271C39.8735 114.414 40.1571 112.906 40.1571 111.76H38.1571ZM37.4531 113.584L36.4357 111.862C36.2801 111.954 36.1204 112 35.9171 112V114V116C36.8232 116 37.6875 115.769 38.4706 115.306L37.4531 113.584ZM35.9171 114V112H14.2531V114V116H35.9171V114ZM14.2531 114V112C14.1349 112 14.0433 111.975 13.9432 111.917L12.9411 113.648L11.9391 115.379C12.6496 115.79 13.4327 116 14.2531 116V114ZM12.9411 113.648L14.0091 111.957C14.1084 112.02 14.1902 112.097 14.2515 112.175C14.3109 112.251 14.3391 112.313 14.3498 112.341C14.36 112.367 14.3549 112.363 14.3477 112.317C14.3405 112.27 14.3331 112.194 14.3331 112.08H12.3331H10.3331C10.3331 113.1 10.5859 114.526 11.8731 115.339L12.9411 113.648ZM12.3331 112.08H14.3331V111.76H12.3331H10.3331V112.08H12.3331ZM12.3331 111.76V113.76H14.3491V111.76V109.76H12.3331V111.76ZM14.3491 111.76V113.76C16.5703 113.76 18.5173 113.595 20.1559 113.233L19.7251 111.28L19.2943 109.327C18.0316 109.605 16.3946 109.76 14.3491 109.76V111.76ZM19.7251 111.28L20.1559 113.233C21.7343 112.885 23.1287 112.397 24.2681 111.719L23.2451 110L22.2222 108.281C21.5696 108.67 20.6173 109.035 19.2943 109.327L19.7251 111.28ZM23.2451 110L24.2504 111.729C25.3297 111.101 26.2609 110.346 26.9379 109.423L25.3251 108.24L23.7123 107.057C23.4507 107.414 22.9952 107.832 22.2399 108.271L23.2451 110ZM25.3251 108.24L26.9313 109.432C27.5448 108.605 28.0068 107.713 28.2537 106.756L26.3171 106.256L24.3806 105.756C24.2862 106.122 24.0867 106.553 23.7189 107.048L25.3251 108.24ZM26.3171 106.256L28.2537 106.756C28.4572 105.967 28.5731 105.189 28.5731 104.432H26.5731H24.5731C24.5731 104.785 24.5184 105.222 24.3806 105.756L26.3171 106.256ZM26.5731 104.432V102.432H15.2131V104.432V106.432H26.5731V104.432ZM15.2131 104.432V102.432C14.7178 102.432 14.4008 102.327 14.1847 102.199L13.1651 103.92L12.1455 105.641C13.0815 106.195 14.1298 106.432 15.2131 106.432V104.432ZM13.1651 103.92L14.2596 102.246C14.3207 102.286 14.3665 102.332 14.3955 102.371C14.4226 102.406 14.4236 102.42 14.4127 102.391C14.386 102.32 14.3331 102.117 14.3331 101.712H12.3331H10.3331C10.3331 103.035 10.6512 104.666 12.0706 105.594L13.1651 103.92ZM12.3331 101.712H14.3331C14.3331 100.956 14.4361 100.152 14.655 99.2948L12.7171 98.8L10.7793 98.3052C10.4862 99.4533 10.3331 100.59 10.3331 101.712H12.3331ZM12.7171 98.8L14.655 99.2948C14.8504 98.5294 15.188 97.7786 15.6873 97.0383L14.0291 95.92L12.371 94.8017C11.6329 95.8961 11.0959 97.0653 10.7793 98.3052L12.7171 98.8ZM14.0291 95.92L15.699 97.0206C16.1587 96.3232 16.8118 95.655 17.7041 95.0305L16.5571 93.392L15.4102 91.7535C14.1691 92.6223 13.1369 93.6395 12.3592 94.8194L14.0291 95.92ZM16.5571 93.392L17.6888 95.041C18.5395 94.4572 19.6768 93.952 21.1559 93.5678L20.6531 91.632L20.1503 89.6962C18.3441 90.1654 16.7508 90.8334 15.4254 91.743L16.5571 93.392ZM20.6531 91.632L21.1794 93.5615C22.6023 93.1735 24.3888 92.96 26.5731 92.96V90.96V88.96C24.1495 88.96 21.9893 89.1945 20.1269 89.7025L20.6531 91.632ZM26.5731 90.96V92.96C26.7302 92.96 26.8004 92.993 26.8422 93.0186L27.8851 91.312L28.928 89.6054C28.2019 89.1617 27.3974 88.96 26.5731 88.96V90.96ZM27.8851 91.312L26.8831 93.0428C26.7627 92.9732 26.6644 92.8849 26.5915 92.7941C26.5213 92.7066 26.4886 92.6345 26.4764 92.6031C26.4648 92.5733 26.4702 92.5763 26.4778 92.6265C26.4854 92.6762 26.4931 92.7585 26.4931 92.88H28.4931H30.4931C30.4931 91.8875 30.2624 90.3773 28.8872 89.5811L27.8851 91.312ZM28.4931 92.88H26.4931V93.52H28.4931H30.4931V92.88H28.4931ZM28.4931 93.52V91.52H26.1571V93.52V95.52H28.4931V93.52ZM26.1571 93.52V91.52C23.9756 91.52 22.0569 91.7315 20.4596 92.2132L21.0371 94.128L21.6146 96.0428C22.7054 95.7138 24.2 95.52 26.1571 95.52V93.52ZM21.0371 94.128L20.4596 92.2132C18.945 92.67 17.6101 93.309 16.5527 94.195L17.8371 95.728L19.1216 97.261C19.6428 96.8243 20.4413 96.3967 21.6146 96.0428L21.0371 94.128ZM17.8371 95.728L16.5775 94.1745C15.6069 94.9614 14.8209 95.8802 14.2883 96.9456L16.0771 97.84L17.866 98.7344C18.1013 98.2638 18.4886 97.7746 19.0967 97.2815L17.8371 95.728ZM16.0771 97.84L14.2781 96.9662C13.8339 97.8807 13.532 98.8258 13.3932 99.7972L15.3731 100.08L17.353 100.363C17.4276 99.8409 17.595 99.2927 17.8761 98.7138L16.0771 97.84ZM15.3731 100.08L13.3932 99.7972C13.2776 100.607 13.2131 101.356 13.2131 102.032H15.2131H17.2131C17.2131 101.599 17.2553 101.047 17.353 100.363L15.3731 100.08ZM38.1581 112.784L40.1215 113.165L40.1581 112.976V112.784H38.1581ZM38.3501 96.912L36.9359 95.4978L36.9359 95.4978L38.3501 96.912ZM40.8141 96.912L39.3999 98.3262L39.4542 98.3805L39.5125 98.4305L40.8141 96.912ZM41.0381 103.152H39.0381V110.732L42.7778 104.139L41.0381 103.152ZM43.8221 99.44L42.4079 98.0258L42.4079 98.0258L43.8221 99.44ZM47.1501 96.976L48.0446 98.7649L48.051 98.7616L48.0575 98.7583L47.1501 96.976ZM52.8141 96.912L51.1697 98.0504L51.1843 98.0714L51.1993 98.092L52.8141 96.912ZM52.9101 109.616L51.0532 108.873L51.0532 108.873L52.9101 109.616ZM50.9581 111.76L49.9291 110.045L43.7375 113.76H50.9581V111.76ZM63.3421 111.76H65.3421V109.76H63.3421V111.76ZM62.6381 113.584L63.6556 115.306L63.684 115.289L63.7119 115.271L62.6381 113.584ZM43.6301 113.648L42.5621 115.339L42.5947 115.36L42.6281 115.379L43.6301 113.648ZM43.0221 111.76V109.76H41.0221V111.76H43.0221ZM48.0461 111.28L47.1017 109.517L47.0882 109.524L47.0748 109.532L48.0461 111.28ZM49.4861 110.064L51.0945 111.253L51.1065 111.237L51.1182 111.22L49.4861 110.064ZM50.2861 108.496L52.191 109.106L52.1944 109.095L52.1977 109.084L50.2861 108.496ZM50.5421 98.64H52.5421V96.64H50.5421V98.64ZM48.3981 99.184L49.1742 101.027L49.1858 101.022L49.1973 101.017L48.3981 99.184ZM45.8701 100.784L47.1429 102.327L47.1468 102.324L45.8701 100.784ZM41.7101 107.184L39.8099 106.56L39.8071 106.569L39.8043 106.578L41.7101 107.184ZM41.0381 123.6V125.6H43.0381V123.6H41.0381ZM37.9341 122.992L39.1443 121.4L39.1443 121.4L37.9341 122.992ZM37.4221 117.04L35.4447 116.74L35.4422 116.757L35.4399 116.774L37.4221 117.04ZM38.1581 112.784H40.1581V97.36H38.1581H36.1581V112.784H38.1581ZM38.1581 97.36H40.1581C40.1581 97.5316 40.1245 97.7211 40.0444 97.9078C39.9654 98.0923 39.8597 98.2308 39.7643 98.3262L38.3501 96.912L36.9359 95.4978C36.4581 95.9756 36.1581 96.6242 36.1581 97.36H38.1581ZM38.3501 96.912L39.7643 98.3262C39.6689 98.4216 39.5304 98.5272 39.346 98.6063C39.1592 98.6863 38.9697 98.72 38.7981 98.72V96.72V94.72C38.0624 94.72 37.4137 95.02 36.9359 95.4978L38.3501 96.912ZM38.7981 96.72V98.72H40.3661V96.72V94.72H38.7981V96.72ZM40.3661 96.72V98.72C40.1945 98.72 40.0051 98.6863 39.8183 98.6063C39.6338 98.5272 39.4953 98.4216 39.3999 98.3262L40.8141 96.912L42.2283 95.4978C41.7505 95.02 41.1019 94.72 40.3661 94.72V96.72ZM40.8141 96.912L39.5125 98.4305C39.4203 98.3514 39.2944 98.2167 39.1933 98.0144C39.0886 97.8051 39.0381 97.578 39.0381 97.36H41.0381H43.0381C43.0381 96.5133 42.6332 95.8371 42.1157 95.3935L40.8141 96.912ZM41.0381 97.36H39.0381V103.152H41.0381H43.0381V97.36H41.0381ZM41.0381 103.152L42.7778 104.139C43.5095 102.849 44.3315 101.759 45.2363 100.854L43.8221 99.44L42.4079 98.0258C41.2221 99.2116 40.1881 100.597 39.2985 102.165L41.0381 103.152ZM43.8221 99.44L45.2363 100.854C46.1764 99.9141 47.1145 99.2299 48.0446 98.7649L47.1501 96.976L46.2557 95.1871C44.8817 95.8741 43.6012 96.8325 42.4079 98.0258L43.8221 99.44ZM47.1501 96.976L48.0575 98.7583C49.0081 98.2744 49.8291 98.08 50.5421 98.08V96.08V94.08C49.0792 94.08 47.6388 94.483 46.2428 95.1937L47.1501 96.976ZM50.5421 96.08V98.08C50.9599 98.08 51.1812 98.1334 51.2704 98.166C51.339 98.1911 51.2556 98.1745 51.1697 98.0504L52.8141 96.912L54.4585 95.7736C53.5044 94.3954 51.8844 94.08 50.5421 94.08V96.08ZM52.8141 96.912L51.1993 98.092C51.3116 98.2457 51.4221 98.4949 51.4221 98.96H53.4221H55.4221C55.4221 97.8038 55.1273 96.6877 54.4289 95.732L52.8141 96.912ZM53.4221 98.96H51.4221V106.992H53.4221H55.4221V98.96H53.4221ZM53.4221 106.992H51.4221C51.4221 107.627 51.3025 108.25 51.0532 108.873L52.9101 109.616L54.7671 110.359C55.2004 109.275 55.4221 108.149 55.4221 106.992H53.4221ZM52.9101 109.616L51.0532 108.873C50.9071 109.238 50.5981 109.644 49.9291 110.045L50.9581 111.76L51.9871 113.475C53.2381 112.724 54.2305 111.7 54.7671 110.359L52.9101 109.616ZM50.9581 111.76V113.76H63.3421V111.76V109.76H50.9581V111.76ZM63.3421 111.76H61.3421C61.3421 111.906 61.3327 112.013 61.3214 112.086C61.3101 112.159 61.2987 112.188 61.3003 112.184C61.3025 112.178 61.3199 112.135 61.3664 112.075C61.4148 112.013 61.4817 111.949 61.5644 111.897L62.6381 113.584L63.7119 115.271C65.0585 114.414 65.3421 112.906 65.3421 111.76H63.3421ZM62.6381 113.584L61.6207 111.862C61.4651 111.954 61.3054 112 61.1021 112V114V116C62.0082 116 62.8725 115.769 63.6556 115.306L62.6381 113.584ZM61.1021 114V112H44.9421V114V116H61.1021V114ZM44.9421 114V112C44.8239 112 44.7323 111.975 44.6322 111.917L43.6301 113.648L42.6281 115.379C43.3386 115.79 44.1217 116 44.9421 116V114ZM43.6301 113.648L44.6981 111.957C44.7974 112.02 44.8792 112.097 44.9405 112.175C44.9999 112.251 45.0281 112.313 45.0388 112.341C45.049 112.367 45.0439 112.363 45.0367 112.317C45.0295 112.27 45.0221 112.194 45.0221 112.08H43.0221H41.0221C41.0221 113.1 41.2749 114.526 42.5621 115.339L43.6301 113.648ZM43.0221 112.08H45.0221V111.76H43.0221H41.0221V112.08H43.0221ZM43.0221 111.76V113.76H45.9341V111.76V109.76H43.0221V111.76ZM45.9341 111.76V113.76C47.0184 113.76 48.0761 113.551 49.0174 113.028L48.0461 111.28L47.0748 109.532C46.8642 109.649 46.5139 109.76 45.9341 109.76V111.76ZM48.0461 111.28L48.9906 113.043C49.8198 112.599 50.5371 112.007 51.0945 111.253L49.4861 110.064L47.8778 108.875C47.7098 109.102 47.4671 109.321 47.1017 109.517L48.0461 111.28ZM49.4861 110.064L51.1182 111.22C51.5851 110.561 51.9509 109.856 52.191 109.106L50.2861 108.496L48.3813 107.886C48.28 108.203 48.1124 108.543 47.8541 108.908L49.4861 110.064ZM50.2861 108.496L52.1977 109.084C52.4107 108.392 52.5421 107.688 52.5421 106.992H50.5421H48.5421C48.5421 107.192 48.5029 107.491 48.3746 107.908L50.2861 108.496ZM50.5421 106.992H52.5421V98.64H50.5421H48.5421V106.992H50.5421ZM50.5421 98.64V96.64C49.5649 96.64 48.5648 96.9296 47.599 97.3506L48.3981 99.184L49.1973 101.017C49.8955 100.713 50.3247 100.64 50.5421 100.64V98.64ZM48.3981 99.184L47.622 97.3407C46.5867 97.7767 45.5776 98.4284 44.5935 99.2445L45.8701 100.784L47.1468 102.324C47.912 101.689 48.5882 101.274 49.1742 101.027L48.3981 99.184ZM45.8701 100.784L44.5974 99.2413C43.5759 100.084 42.663 101.117 41.8483 102.315L43.5021 103.44L45.156 104.565C45.792 103.629 46.4576 102.892 47.1429 102.327L45.8701 100.784ZM43.5021 103.44L41.8483 102.315C41.0021 103.56 40.3282 104.982 39.8099 106.56L41.7101 107.184L43.6103 107.808C44.0308 106.527 44.5515 105.454 45.156 104.565L43.5021 103.44ZM41.7101 107.184L39.8043 106.578C39.2823 108.218 39.0381 110.028 39.0381 111.984H41.0381H43.0381C43.0381 110.356 43.242 108.966 43.616 107.79L41.7101 107.184ZM41.0381 111.984H39.0381V123.6H41.0381H43.0381V111.984H41.0381ZM41.0381 123.6V121.6H40.4941V123.6V125.6H41.0381V123.6ZM40.4941 123.6V121.6C40.0144 121.6 39.6705 121.558 39.4363 121.502C39.2008 121.446 39.1317 121.39 39.1443 121.4L37.9341 122.992L36.724 124.584C37.7826 125.389 39.1767 125.6 40.4941 125.6V123.6ZM37.9341 122.992L39.1443 121.4C39.212 121.451 39.2219 121.498 39.2044 121.452C39.1801 121.387 39.1341 121.215 39.1341 120.88H37.1341H35.1341C35.1341 122.186 35.4833 123.641 36.724 124.584L37.9341 122.992ZM37.1341 120.88H39.1341C39.1341 119.859 39.2211 118.67 39.4043 117.306L37.4221 117.04L35.4399 116.774C35.2391 118.269 35.1341 119.64 35.1341 120.88H37.1341ZM37.4221 117.04L39.3996 117.34C39.6087 115.959 39.8493 114.568 40.1215 113.165L38.1581 112.784L36.1947 112.403C35.9123 113.859 35.6622 115.305 35.4447 116.74L37.4221 117.04ZM73.7136 95.344L75.2321 96.6456L75.247 96.6282L75.2615 96.6105L73.7136 95.344ZM77.1056 95.248L75.6537 96.6235L75.6723 96.6431L75.6914 96.6622L77.1056 95.248ZM77.7776 96.72L75.7831 96.8677L75.9203 98.72H77.7776V96.72ZM89.2336 96.72H91.2336V94.72H89.2336V96.72ZM88.5296 98.704L89.7961 100.252L89.8167 100.235L89.8369 100.218L88.5296 98.704ZM78.3216 99.28V97.28H76.3216V99.28H78.3216ZM75.3456 111.152L76.7284 112.597L76.7365 112.589L75.3456 111.152ZM64.4016 113.616L63.3336 115.307L63.353 115.319L63.3726 115.331L64.4016 113.616ZM63.5696 112.592L61.6723 113.224L61.677 113.239L61.6819 113.253L63.5696 112.592ZM64.9776 98.096L63.55 96.6953L63.5432 96.7022L63.5365 96.7092L64.9776 98.096ZM71.9856 96.912L70.5266 98.2799L70.5486 98.3034L70.5714 98.3262L71.9856 96.912ZM72.4976 98.96V100.96H74.4976V98.96H72.4976ZM68.1136 99.312L67.4448 97.4271L67.4349 97.4306L67.4251 97.4342L68.1136 99.312ZM66.6736 100.624L64.8848 99.7296L64.8786 99.742L64.8725 99.7545L66.6736 100.624ZM66.2256 111.44H64.2256V113.44H66.2256V111.44ZM71.4416 110.64L72.1793 112.499L72.1869 112.496L72.1944 112.493L71.4416 110.64ZM74.4496 107.856L72.6607 106.962L72.6549 106.973L74.4496 107.856ZM75.4416 99.28H77.4416V97.28H75.4416V99.28ZM73.7136 98.608L72.1951 99.9096L72.1951 99.9096L73.7136 98.608ZM73.1376 96.976H75.1376C75.1376 96.7698 75.1861 96.6993 75.2321 96.6456L73.7136 95.344L72.1951 94.0424C71.4732 94.8847 71.1376 95.9022 71.1376 96.976H73.1376ZM73.7136 95.344L75.2615 96.6105C75.2529 96.621 75.2387 96.6353 75.2204 96.6488C75.2118 96.6551 75.2041 96.6599 75.1979 96.6633C75.1949 96.665 75.1925 96.6662 75.1908 96.667C75.1891 96.6678 75.1882 96.6682 75.1882 96.6682C75.1882 96.6682 75.1924 96.6665 75.2015 96.6639C75.2108 96.6613 75.2252 96.6578 75.2456 96.6542C75.2869 96.647 75.3508 96.64 75.4416 96.64V94.64V92.64C74.2476 92.64 73.0274 93.0243 72.1657 94.0775L73.7136 95.344ZM75.4416 94.64V96.64C75.6218 96.64 75.7016 96.6655 75.7152 96.6705C75.7211 96.6727 75.7136 96.6705 75.6983 96.6606C75.6827 96.6505 75.667 96.6375 75.6537 96.6235L77.1056 95.248L78.5575 93.8725C77.6915 92.9584 76.5434 92.64 75.4416 92.64V94.64ZM77.1056 95.248L75.6914 96.6622C75.755 96.7258 75.7755 96.7658 75.7831 96.8677L77.7776 96.72L79.7722 96.5723C79.6944 95.5222 79.267 94.5809 78.5198 93.8338L77.1056 95.248ZM77.7776 96.72V98.72H89.2336V96.72V94.72H77.7776V96.72ZM89.2336 96.72H87.2336C87.2336 97.0169 87.1945 97.1738 87.1728 97.2352C87.1559 97.2827 87.1615 97.243 87.2224 97.1904L88.5296 98.704L89.8369 100.218C90.9228 99.2798 91.2336 97.9352 91.2336 96.72H89.2336ZM88.5296 98.704L87.2632 97.1561C87.1155 97.2769 87.0426 97.28 86.9936 97.28V99.28V101.28C88.054 101.28 89.0051 100.899 89.7961 100.252L88.5296 98.704ZM86.9936 99.28V97.28H78.3216V99.28V101.28H86.9936V99.28ZM78.3216 99.28H76.3216V102.48H78.3216H80.3216V99.28H78.3216ZM78.3216 102.48H76.3216C76.3216 106.02 75.4154 108.301 73.9548 109.715L75.3456 111.152L76.7365 112.589C79.2439 110.163 80.3216 106.663 80.3216 102.48H78.3216ZM75.3456 111.152L73.9628 109.707C72.4988 111.108 70.0556 112 66.2256 112V114V116C70.5877 116 74.2244 114.993 76.7284 112.597L75.3456 111.152ZM66.2256 114V112C65.9342 112 65.7276 111.976 65.5896 111.947C65.4515 111.918 65.4125 111.89 65.4306 111.901L64.4016 113.616L63.3726 115.331C64.242 115.853 65.2669 116 66.2256 116V114ZM64.4016 113.616L65.4696 111.925C65.451 111.913 65.4416 111.905 65.4386 111.903C65.4358 111.9 65.4376 111.902 65.4419 111.907C65.4461 111.912 65.4504 111.918 65.4539 111.925C65.4574 111.931 65.4582 111.934 65.4573 111.931L63.5696 112.592L61.6819 113.253C61.9898 114.132 62.5714 114.826 63.3336 115.307L64.4016 113.616ZM63.5696 112.592L65.467 111.96C65.3938 111.74 65.3456 111.466 65.3456 111.12H63.3456H61.3456C61.3456 111.841 61.4468 112.548 61.6723 113.224L63.5696 112.592ZM63.3456 111.12H65.3456V103.408H63.3456H61.3456V111.12H63.3456ZM63.3456 103.408H65.3456C65.3456 101.245 65.8407 100.083 66.4188 99.4828L64.9776 98.096L63.5365 96.7092C61.9385 98.3699 61.3456 100.75 61.3456 103.408H63.3456ZM64.9776 98.096L66.4052 99.4967C66.9528 98.9386 68.1604 98.4 70.6096 98.4V96.4V94.4C67.7682 94.4 65.2211 94.9921 63.55 96.6953L64.9776 98.096ZM70.6096 96.4V98.4C70.721 98.4 70.7411 98.4162 70.7042 98.4024C70.6849 98.3953 70.6553 98.3818 70.6208 98.3591C70.586 98.3362 70.5538 98.309 70.5266 98.2799L71.9856 96.912L73.4447 95.5441C72.6484 94.6948 71.5977 94.4 70.6096 94.4V96.4ZM71.9856 96.912L70.5714 98.3262C70.4555 98.2103 70.4386 98.1228 70.452 98.1682C70.4674 98.2202 70.4976 98.3646 70.4976 98.64H72.4976H74.4976C74.4976 97.6385 74.3025 96.4004 73.3998 95.4978L71.9856 96.912ZM72.4976 98.64H70.4976V98.96H72.4976H74.4976V98.64H72.4976ZM72.4976 98.96V96.96H70.6096V98.96V100.96H72.4976V98.96ZM70.6096 98.96V96.96C69.4686 96.96 68.3915 97.0912 67.4448 97.4271L68.1136 99.312L68.7824 101.197C69.1584 101.063 69.7454 100.96 70.6096 100.96V98.96ZM68.1136 99.312L67.4251 97.4342C66.2808 97.8538 65.4203 98.6585 64.8848 99.7296L66.6736 100.624L68.4625 101.518C68.5669 101.309 68.6665 101.239 68.8021 101.19L68.1136 99.312ZM66.6736 100.624L64.8725 99.7545C64.3764 100.782 64.2256 102.074 64.2256 103.408H66.2256H68.2256C68.2256 102.268 68.3735 101.703 68.4747 101.493L66.6736 100.624ZM66.2256 103.408H64.2256V111.44H66.2256H68.2256V103.408H66.2256ZM66.2256 111.44V113.44C68.5024 113.44 70.5168 113.159 72.1793 112.499L71.4416 110.64L70.7039 108.781C69.6784 109.188 68.2155 109.44 66.2256 109.44V111.44ZM71.4416 110.64L72.1944 112.493C74.0062 111.757 75.3839 110.488 76.2443 108.739L74.4496 107.856L72.6549 106.973C72.2353 107.827 71.6078 108.414 70.6889 108.787L71.4416 110.64ZM74.4496 107.856L76.2385 108.75C77.0928 107.042 77.4416 104.903 77.4416 102.48H75.4416H73.4416C73.4416 104.58 73.1291 106.025 72.6608 106.962L74.4496 107.856ZM75.4416 102.48H77.4416V99.28H75.4416H73.4416V102.48H75.4416ZM75.4416 99.28V97.28C75.2476 97.28 75.1669 97.2512 75.1585 97.248C75.1556 97.2468 75.1664 97.2509 75.1846 97.2635C75.203 97.2765 75.2197 97.2919 75.2321 97.3064L73.7136 98.608L72.1951 99.9096C73.0665 100.926 74.2779 101.28 75.4416 101.28V99.28ZM73.7136 98.608L75.2321 97.3064C75.1861 97.2527 75.1376 97.1821 75.1376 96.976H73.1376H71.1376C71.1376 98.0498 71.4732 99.0673 72.1951 99.9096L73.7136 98.608ZM89.9139 99.28V97.28H87.9139V99.28H89.9139ZM89.9139 111.76H87.9139V113.76H89.9139V111.76ZM101.114 111.76H103.114V109.76H101.114V111.76ZM100.41 113.584L101.427 115.306L101.456 115.289L101.484 115.271L100.41 113.584ZM87.6099 113.648L86.5419 115.339L86.593 115.371L86.646 115.4L87.6099 113.648ZM87.0019 99.28H89.0019V97.28H87.0019V99.28ZM82.8419 99.28H80.8419V101.28H82.8419V99.28ZM87.0019 96.72V98.72H89.0019V96.72H87.0019ZM87.1939 91.792L88.6081 93.2062L88.6081 93.2062L87.1939 91.792ZM89.6899 91.792L88.2757 93.2062L88.2757 93.2062L89.6899 91.792ZM89.9139 92.24H91.9139V92.1155L91.8984 91.9919L89.9139 92.24ZM89.9139 96.72H87.9139V98.72H89.9139V96.72ZM95.3539 96.72H97.3539V94.72H95.3539V96.72ZM94.6499 98.704L95.9164 100.252L95.937 100.235L95.9571 100.218L94.6499 98.704ZM93.1139 99.28V97.28H89.9139V99.28V101.28H93.1139V99.28ZM89.9139 99.28H87.9139V111.76H89.9139H91.9139V99.28H89.9139ZM89.9139 111.76V113.76H101.114V111.76V109.76H89.9139V111.76ZM101.114 111.76H99.1139C99.1139 111.906 99.1044 112.013 99.0931 112.086C99.0818 112.159 99.0704 112.188 99.072 112.184C99.0742 112.178 99.0917 112.135 99.1382 112.075C99.1866 112.013 99.2535 111.949 99.3361 111.897L100.41 113.584L101.484 115.271C102.83 114.414 103.114 112.906 103.114 111.76H101.114ZM100.41 113.584L99.3924 111.862C99.2368 111.954 99.0772 112 98.8739 112V114V116C99.7799 116 100.644 115.769 101.427 115.306L100.41 113.584ZM98.8739 114V112H88.9539V114V116H98.8739V114ZM88.9539 114V112C88.8345 112 88.7166 111.974 88.5737 111.896L87.6099 113.648L86.646 115.4C87.3565 115.791 88.1346 116 88.9539 116V114ZM87.6099 113.648L88.6779 111.957C88.7771 112.02 88.8589 112.097 88.9203 112.175C88.9797 112.251 89.0079 112.313 89.0186 112.341C89.0287 112.367 89.0236 112.363 89.0164 112.317C89.0093 112.27 89.0019 112.194 89.0019 112.08H87.0019H85.0019C85.0019 113.1 85.2546 114.526 86.5419 115.339L87.6099 113.648ZM87.0019 112.08H89.0019V99.28H87.0019H85.0019V112.08H87.0019ZM87.0019 99.28V97.28H82.8419V99.28V101.28H87.0019V99.28ZM82.8419 99.28H84.8419C84.8419 98.9664 84.8825 98.8059 84.9027 98.7488C84.9175 98.7072 84.9021 98.7705 84.8124 98.8439L83.5459 97.296L82.2794 95.7481C81.1391 96.6811 80.8419 98.0727 80.8419 99.28H82.8419ZM83.5459 97.296L84.8124 98.8439C84.96 98.7231 85.0329 98.72 85.0819 98.72V96.72V94.72C84.0215 94.72 83.0704 95.1009 82.2794 95.7481L83.5459 97.296ZM85.0819 96.72V98.72H87.0019V96.72V94.72H85.0819V96.72ZM87.0019 96.72H89.0019V92.24H87.0019H85.0019V96.72H87.0019ZM87.0019 92.24H89.0019C89.0019 92.4116 88.9682 92.6011 88.8882 92.7878C88.8091 92.9723 88.7035 93.1108 88.6081 93.2062L87.1939 91.792L85.7797 90.3778C85.3018 90.8556 85.0019 91.5042 85.0019 92.24H87.0019ZM87.1939 91.792L88.6081 93.2062C88.5127 93.3016 88.3742 93.4072 88.1897 93.4863C88.0029 93.5663 87.8135 93.6 87.6419 93.6V91.6V89.6C86.9061 89.6 86.2575 89.9 85.7797 90.3778L87.1939 91.792ZM87.6419 91.6V93.6H89.2419V91.6V89.6H87.6419V91.6ZM89.2419 91.6V93.6C89.0703 93.6 88.8808 93.5663 88.694 93.4863C88.5096 93.4072 88.3711 93.3016 88.2757 93.2062L89.6899 91.792L91.1041 90.3778C90.6263 89.9 89.9777 89.6 89.2419 89.6V91.6ZM89.6899 91.792L88.2757 93.2062C88.2004 93.131 88.1196 93.0276 88.053 92.8944C87.9859 92.7602 87.9459 92.6208 87.9293 92.4881L89.9139 92.24L91.8984 91.9919C91.8189 91.3557 91.5289 90.8026 91.1041 90.3778L89.6899 91.792ZM89.9139 92.24H87.9139V96.72H89.9139H91.9139V92.24H89.9139ZM89.9139 96.72V98.72H95.3539V96.72V94.72H89.9139V96.72ZM95.3539 96.72H93.3539C93.3539 97.0169 93.3148 97.1738 93.293 97.2352C93.2762 97.2827 93.2817 97.243 93.3426 97.1904L94.6499 98.704L95.9571 100.218C97.0431 99.2798 97.3539 97.9352 97.3539 96.72H95.3539ZM94.6499 98.704L93.3834 97.1561C93.2358 97.2769 93.1628 97.28 93.1139 97.28V99.28V101.28C94.1743 101.28 95.1253 100.899 95.9164 100.252L94.6499 98.704ZM104.007 100.496L102.048 100.093L102.007 100.292V100.496H104.007ZM104.007 111.76H102.007V113.76H104.007V111.76ZM114.279 111.76H116.279V109.76H114.279V111.76ZM113.575 113.584L114.592 115.306L114.621 115.289L114.649 115.271L113.575 113.584ZM101.735 113.648L100.667 115.339L100.718 115.371L100.771 115.4L101.735 113.648ZM101.127 89.68V87.68H99.1269V89.68H101.127ZM104.231 90.288L102.989 91.8561L103.005 91.8684L103.021 91.8803L104.231 90.288ZM104.743 96.208L106.725 96.4782L106.725 96.4743L104.743 96.208ZM104.007 100.496H102.007V111.76H104.007H106.007V100.496H104.007ZM104.007 111.76V113.76H114.279V111.76V109.76H104.007V111.76ZM114.279 111.76H112.279C112.279 111.906 112.269 112.013 112.258 112.086C112.247 112.159 112.235 112.188 112.237 112.184C112.239 112.178 112.257 112.135 112.303 112.075C112.352 112.013 112.418 111.949 112.501 111.897L113.575 113.584L114.649 115.271C115.995 114.414 116.279 112.906 116.279 111.76H114.279ZM113.575 113.584L112.557 111.862C112.402 111.954 112.242 112 112.039 112V114V116C112.945 116 113.809 115.769 114.592 115.306L113.575 113.584ZM112.039 114V112H103.079V114V116H112.039V114ZM103.079 114V112C102.959 112 102.842 111.974 102.699 111.896L101.735 113.648L100.771 115.4C101.481 115.791 102.26 116 103.079 116V114ZM101.735 113.648L102.803 111.957C102.902 112.02 102.984 112.097 103.045 112.175C103.105 112.251 103.133 112.313 103.144 112.341C103.154 112.367 103.149 112.363 103.141 112.317C103.134 112.27 103.127 112.194 103.127 112.08H101.127H99.1269C99.1269 113.1 99.3796 114.526 100.667 115.339L101.735 113.648ZM101.127 112.08H103.127V89.68H101.127H99.1269V112.08H101.127ZM101.127 89.68V91.68H101.671V89.68V87.68H101.127V89.68ZM101.671 89.68V91.68C102.164 91.68 102.513 91.7228 102.745 91.7779C102.98 91.8337 103.027 91.8857 102.989 91.8561L104.231 90.288L105.472 88.7199C104.415 87.883 102.988 87.68 101.671 87.68V89.68ZM104.231 90.288L103.021 91.8803C102.953 91.8288 102.943 91.7825 102.961 91.8285C102.985 91.8928 103.031 92.0651 103.031 92.4H105.031H107.031C107.031 91.0937 106.682 89.6386 105.441 88.6957L104.231 90.288ZM105.031 92.4H103.031C103.031 93.3985 102.944 94.5761 102.761 95.9417L104.743 96.208L106.725 96.4743C106.926 94.9813 107.031 93.6202 107.031 92.4H105.031ZM104.743 96.208L102.761 95.9378C102.576 97.2993 102.338 98.6843 102.048 100.093L104.007 100.496L105.966 100.899C106.273 99.4064 106.526 97.9327 106.725 96.4782L104.743 96.208ZM117.163 111.76H115.163V113.76H117.163V111.76ZM127.435 111.76H129.435V109.76H127.435V111.76ZM126.731 113.584L127.749 115.306L127.777 115.289L127.805 115.271L126.731 113.584ZM114.891 113.648L113.823 115.339L113.874 115.371L113.927 115.4L114.891 113.648ZM114.475 96.912L113.061 95.4978L113.061 95.4978L114.475 96.912ZM116.939 96.912L115.525 98.3262L115.579 98.3805L115.638 98.4305L116.939 96.912ZM114.155 90.096L115.819 91.2054L115.833 91.1849L115.846 91.164L114.155 90.096ZM117.291 90.096L115.641 91.2254L115.655 91.2464L115.67 91.267L117.291 90.096ZM117.291 92.848L115.67 91.677L115.67 91.677L117.291 92.848ZM114.155 92.848L112.491 93.9574L112.491 93.9574L114.155 92.848ZM117.163 111.76V113.76H127.435V111.76V109.76H117.163V111.76ZM127.435 111.76H125.435C125.435 111.906 125.426 112.013 125.414 112.086C125.403 112.159 125.392 112.188 125.393 112.184C125.395 112.178 125.413 112.135 125.459 112.075C125.508 112.013 125.575 111.949 125.657 111.897L126.731 113.584L127.805 115.271C129.151 114.414 129.435 112.906 129.435 111.76H127.435ZM126.731 113.584L125.714 111.862C125.558 111.954 125.398 112 125.195 112V114V116C126.101 116 126.965 115.769 127.749 115.306L126.731 113.584ZM125.195 114V112H116.235V114V116H125.195V114ZM116.235 114V112C116.116 112 115.998 111.974 115.855 111.896L114.891 113.648L113.927 115.4C114.638 115.791 115.416 116 116.235 116V114ZM114.891 113.648L115.959 111.957C116.058 112.02 116.14 112.097 116.202 112.175C116.261 112.251 116.289 112.313 116.3 112.341C116.31 112.367 116.305 112.363 116.298 112.317C116.291 112.27 116.283 112.194 116.283 112.08H114.283H112.283C112.283 113.1 112.536 114.526 113.823 115.339L114.891 113.648ZM114.283 112.08H116.283V97.36H114.283H112.283V112.08H114.283ZM114.283 97.36H116.283C116.283 97.5316 116.249 97.7211 116.169 97.9078C116.09 98.0923 115.985 98.2308 115.889 98.3262L114.475 96.912L113.061 95.4978C112.583 95.9756 112.283 96.6242 112.283 97.36H114.283ZM114.475 96.912L115.889 98.3262C115.794 98.4216 115.655 98.5272 115.471 98.6063C115.284 98.6863 115.095 98.72 114.923 98.72V96.72V94.72C114.187 94.72 113.539 95.02 113.061 95.4978L114.475 96.912ZM114.923 96.72V98.72H116.491V96.72V94.72H114.923V96.72ZM116.491 96.72V98.72C116.32 98.72 116.13 98.6863 115.943 98.6063C115.759 98.5272 115.62 98.4216 115.525 98.3262L116.939 96.912L118.353 95.4978C117.876 95.02 117.227 94.72 116.491 94.72V96.72ZM116.939 96.912L115.638 98.4305C115.545 98.3514 115.419 98.2167 115.318 98.0144C115.214 97.8051 115.163 97.578 115.163 97.36H117.163H119.163C119.163 96.5133 118.758 95.8371 118.241 95.3935L116.939 96.912ZM117.163 97.36H115.163V111.76H117.163H119.163V97.36H117.163ZM113.771 91.472H115.771C115.771 91.2704 115.815 91.212 115.819 91.2054L114.155 90.096L112.491 88.9866C111.983 89.748 111.771 90.6069 111.771 91.472H113.771ZM114.155 90.096L115.846 91.164C115.783 91.2632 115.707 91.345 115.628 91.4064C115.552 91.4658 115.49 91.494 115.462 91.5047C115.436 91.5148 115.44 91.5097 115.486 91.5026C115.533 91.4954 115.61 91.488 115.723 91.488V89.488V87.488C114.703 87.488 113.277 87.7407 112.464 89.028L114.155 90.096ZM115.723 89.488V91.488C115.829 91.488 115.9 91.4951 115.943 91.5018C115.986 91.5085 115.99 91.5134 115.968 91.5047C115.944 91.4955 115.892 91.4717 115.827 91.4223C115.76 91.3716 115.695 91.305 115.641 91.2254L117.291 90.096L118.942 88.9666C118.117 87.7612 116.766 87.488 115.723 87.488V89.488ZM117.291 90.096L115.67 91.267C115.67 91.2679 115.707 91.3038 115.707 91.472H117.707H119.707C119.707 90.5735 119.466 89.6921 118.912 88.925L117.291 90.096ZM117.707 91.472H115.707C115.707 91.6402 115.67 91.6761 115.67 91.677L117.291 92.848L118.912 94.019C119.466 93.2519 119.707 92.3705 119.707 91.472H117.707ZM117.291 92.848L115.67 91.677C115.731 91.592 115.801 91.5252 115.869 91.4769C115.934 91.4301 115.983 91.4093 116.001 91.4027C116.018 91.3964 116.008 91.4025 115.959 91.4098C115.91 91.417 115.833 91.424 115.723 91.424V93.424V95.424C116.73 95.424 118.073 95.1812 118.912 94.019L117.291 92.848ZM115.723 93.424V91.424C115.605 91.424 115.523 91.4167 115.471 91.4091C115.418 91.4014 115.408 91.3951 115.429 91.4027C115.451 91.4106 115.51 91.4355 115.587 91.4921C115.666 91.5507 115.749 91.6329 115.819 91.7386L114.155 92.848L112.491 93.9574C113.321 95.2018 114.74 95.424 115.723 95.424V93.424ZM114.155 92.848L115.819 91.7386C115.815 91.732 115.771 91.6736 115.771 91.472H113.771H111.771C111.771 92.3371 111.983 93.196 112.491 93.9574L114.155 92.848ZM137.551 98.96V100.96H139.551V98.96H137.551ZM132.207 99.312L131.539 97.4271L131.529 97.4306L131.519 97.4342L132.207 99.312ZM130.767 100.624L128.979 99.7296L128.972 99.742L128.966 99.7545L130.767 100.624ZM130.319 111.6H128.319V113.6H130.319V111.6ZM132.943 110.864L133.838 112.653L133.845 112.649L133.853 112.645L132.943 110.864ZM135.855 108.528L134.382 107.175L134.375 107.183L134.367 107.192L135.855 108.528ZM138.223 104.528L136.355 103.815L136.355 103.815L138.223 104.528ZM139.151 96.72V94.72H137.151V96.72H139.151ZM142.511 101.296L140.567 100.829L140.567 100.829L142.511 101.296ZM142.031 102.832L140.169 102.103L140.031 102.455V102.832H142.031ZM142.031 111.76H140.031V113.76H142.031V111.76ZM152.303 111.76H154.303V109.76H152.303V111.76ZM151.599 113.584L152.617 115.306L152.645 115.289L152.673 115.271L151.599 113.584ZM141.999 114V112H140.048L140 113.951L141.999 114ZM140.975 120.08L139.14 119.286L139.135 119.297L139.13 119.309L140.975 120.08ZM138.223 123.056L137.405 121.231L137.386 121.24L137.367 121.249L138.223 123.056ZM132.079 123.408L130.479 124.608L130.503 124.639L130.527 124.669L132.079 123.408ZM131.695 121.36V119.36H129.695V121.36H131.695ZM136.047 121.104L135.589 119.157L135.576 119.16L136.047 121.104ZM137.807 120.016L136.306 118.695L136.278 118.726L136.251 118.759L137.807 120.016ZM138.831 117.52L136.867 117.142L136.866 117.149L138.831 117.52ZM139.151 107.664H141.151V100.053L137.41 106.681L139.151 107.664ZM136.527 111.12L137.926 112.55L137.926 112.549L136.527 111.12ZM133.455 113.36L132.561 111.571L132.561 111.571L133.455 113.36ZM128.047 113.328L126.412 114.479L126.422 114.494L126.433 114.508L128.047 113.328ZM129.071 98.096L127.644 96.6953L127.637 96.7022L127.63 96.7092L129.071 98.096ZM136.815 96.912L137.958 95.2702L137.958 95.2702L136.815 96.912ZM137.551 98.64H135.551V98.96H137.551H139.551V98.64H137.551ZM137.551 98.96V96.96H134.703V98.96V100.96H137.551V98.96ZM134.703 98.96V96.96C133.562 96.96 132.485 97.0912 131.539 97.4271L132.207 99.312L132.876 101.197C133.252 101.063 133.839 100.96 134.703 100.96V98.96ZM132.207 99.312L131.519 97.4342C130.375 97.8538 129.514 98.6585 128.979 99.7296L130.767 100.624L132.556 101.518C132.661 101.309 132.76 101.239 132.896 101.19L132.207 99.312ZM130.767 100.624L128.966 99.7545C128.47 100.782 128.319 102.074 128.319 103.408H130.319H132.319C132.319 102.268 132.467 101.703 132.568 101.493L130.767 100.624ZM130.319 103.408H128.319V111.6H130.319H132.319V103.408H130.319ZM130.319 111.6V113.6C131.502 113.6 132.69 113.227 133.838 112.653L132.943 110.864L132.049 109.075C131.234 109.482 130.673 109.6 130.319 109.6V111.6ZM132.943 110.864L133.853 112.645C135.121 111.998 136.28 111.049 137.343 109.864L135.855 108.528L134.367 107.192C133.553 108.098 132.771 108.706 132.034 109.083L132.943 110.864ZM135.855 108.528L137.328 109.881C138.493 108.613 139.403 107.048 140.092 105.241L138.223 104.528L136.355 103.815C135.807 105.251 135.138 106.353 134.382 107.175L135.855 108.528ZM138.223 104.528L140.092 105.241C140.819 103.337 141.151 101.152 141.151 98.736H139.151H137.151C137.151 100.8 136.865 102.477 136.355 103.815L138.223 104.528ZM139.151 98.736H141.151V96.72H139.151H137.151V98.736H139.151ZM139.151 96.72V98.72H140.303V96.72V94.72H139.151V96.72ZM140.303 96.72V98.72C140.505 98.72 140.591 98.7509 140.603 98.7561C140.604 98.7563 140.578 98.7421 140.56 98.72C140.542 98.6978 140.703 98.8857 140.703 99.632H142.703H144.703C144.703 98.437 144.465 97.1689 143.647 96.176C142.767 95.1091 141.525 94.72 140.303 94.72V96.72ZM142.703 99.632H140.703C140.703 100.059 140.656 100.456 140.567 100.829L142.511 101.296L144.456 101.763C144.623 101.069 144.703 100.357 144.703 99.632H142.703ZM142.511 101.296L140.567 100.829C140.459 101.277 140.326 101.701 140.169 102.103L142.031 102.832L143.894 103.561C144.121 102.981 144.308 102.382 144.456 101.763L142.511 101.296ZM142.031 102.832H140.031V111.76H142.031H144.031V102.832H142.031ZM142.031 111.76V113.76H152.303V111.76V109.76H142.031V111.76ZM152.303 111.76H150.303C150.303 111.906 150.294 112.013 150.283 112.086C150.271 112.159 150.26 112.188 150.262 112.184C150.264 112.178 150.281 112.135 150.328 112.075C150.376 112.013 150.443 111.949 150.526 111.897L151.599 113.584L152.673 115.271C154.02 114.414 154.303 112.906 154.303 111.76H152.303ZM151.599 113.584L150.582 111.862C150.426 111.954 150.267 112 150.063 112V114V116C150.969 116 151.834 115.769 152.617 115.306L151.599 113.584ZM150.063 114V112H141.999V114V116H150.063V114ZM141.999 114L140 113.951C139.939 116.47 139.61 118.2 139.14 119.286L140.975 120.08L142.811 120.874C143.578 119.102 143.932 116.778 143.999 114.049L141.999 114ZM140.975 120.08L139.13 119.309C138.699 120.341 138.112 120.914 137.405 121.231L138.223 123.056L139.041 124.881C140.809 124.089 142.057 122.678 142.821 120.851L140.975 120.08ZM138.223 123.056L137.367 121.249C136.51 121.654 135.254 121.92 133.487 121.92V123.92V125.92C135.603 125.92 137.504 125.61 139.08 124.863L138.223 123.056ZM133.487 123.92V121.92C133.319 121.92 133.28 121.897 133.323 121.912C133.348 121.921 133.395 121.942 133.454 121.983C133.515 122.024 133.576 122.079 133.632 122.147L132.079 123.408L130.527 124.669C131.344 125.675 132.534 125.92 133.487 125.92V123.92ZM132.079 123.408L133.679 122.208C133.769 122.328 133.765 122.387 133.742 122.286C133.72 122.19 133.695 122.008 133.695 121.712H131.695H129.695C129.695 122.615 129.822 123.731 130.479 124.608L132.079 123.408ZM131.695 121.712H133.695V121.36H131.695H129.695V121.712H131.695ZM131.695 121.36V123.36H133.487V121.36V119.36H131.695V121.36ZM133.487 121.36V123.36C134.593 123.36 135.614 123.267 136.519 123.048L136.047 121.104L135.576 119.16C135.073 119.282 134.387 119.36 133.487 119.36V121.36ZM136.047 121.104L136.505 123.051C137.642 122.783 138.623 122.189 139.363 121.273L137.807 120.016L136.251 118.759C136.096 118.952 135.903 119.083 135.589 119.157L136.047 121.104ZM137.807 120.016L139.309 121.337C140.119 120.416 140.554 119.178 140.797 117.891L138.831 117.52L136.866 117.149C136.682 118.124 136.434 118.549 136.306 118.695L137.807 120.016ZM138.831 117.52L140.795 117.898C141.043 116.609 141.151 114.973 141.151 113.04H139.151H137.151C137.151 114.862 137.046 116.212 136.867 117.142L138.831 117.52ZM139.151 113.04H141.151V107.664H139.151H137.151V113.04H139.151ZM139.151 107.664L137.41 106.681C136.748 107.853 135.986 108.852 135.128 109.691L136.527 111.12L137.926 112.549C139.074 111.426 140.061 110.12 140.893 108.647L139.151 107.664ZM136.527 111.12L135.129 109.69C134.274 110.527 133.416 111.143 132.561 111.571L133.455 113.36L134.35 115.149C135.628 114.51 136.818 113.633 137.926 112.55L136.527 111.12ZM133.455 113.36L132.561 111.571C131.726 111.988 130.986 112.16 130.319 112.16V114.16V116.16C131.701 116.16 133.051 115.798 134.35 115.149L133.455 113.36ZM130.319 114.16V112.16C129.917 112.16 129.7 112.108 129.607 112.074C129.534 112.047 129.593 112.054 129.662 112.148L128.047 113.328L126.433 114.508C127.399 115.831 128.968 116.16 130.319 116.16V114.16ZM128.047 113.328L129.683 112.177C129.543 111.978 129.439 111.709 129.439 111.28H127.439H125.439C125.439 112.43 125.741 113.526 126.412 114.479L128.047 113.328ZM127.439 111.28H129.439V103.408H127.439H125.439V111.28H127.439ZM127.439 103.408H129.439C129.439 101.245 129.934 100.083 130.513 99.4828L129.071 98.096L127.63 96.7092C126.032 98.3699 125.439 100.75 125.439 103.408H127.439ZM129.071 98.096L130.499 99.4967C131.047 98.9386 132.254 98.4 134.703 98.4V96.4V94.4C131.862 94.4 129.315 94.9921 127.644 96.6953L129.071 98.096ZM134.703 96.4V98.4C135.416 98.4 135.653 98.5399 135.673 98.5538L136.815 96.912L137.958 95.2702C136.996 94.6014 135.825 94.4 134.703 94.4V96.4ZM136.815 96.912L135.673 98.5538C135.641 98.5316 135.607 98.5008 135.577 98.4636C135.548 98.4269 135.533 98.3969 135.527 98.3837C135.518 98.3625 135.551 98.4281 135.551 98.64H137.551H139.551C139.551 97.4295 139.165 96.1105 137.958 95.2702L136.815 96.912ZM155.194 114V116H157.194V114H155.194ZM151.802 109.424L149.858 108.957L149.849 108.994L149.841 109.032L151.802 109.424ZM152.314 107.888L154.149 108.685L154.314 108.304V107.888H152.314ZM152.506 89.872L153.921 91.2862L153.921 91.2862L152.506 89.872ZM155.002 89.872L153.588 91.2862L153.588 91.2862L155.002 89.872ZM155.194 103.12H153.194V110.778L156.939 104.098L155.194 103.12ZM157.914 99.44L156.486 98.0401L156.486 98.0404L157.914 99.44ZM161.146 96.976L162.068 98.751L162.074 98.7477L162.081 98.7444L161.146 96.976ZM166.65 96.912L165.006 98.0504L165.021 98.0714L165.036 98.092L166.65 96.912ZM167.258 111.76H165.258V113.76H167.258V111.76ZM177.498 111.76H179.498V109.76H177.498V111.76ZM176.794 113.584L177.812 115.306L177.84 115.289L177.868 115.271L176.794 113.584ZM164.986 113.648L163.918 115.339L163.951 115.36L163.984 115.379L164.986 113.648ZM164.378 98.64H166.378V96.64H164.378V98.64ZM162.266 99.184L163.06 101.02L163.072 101.015L163.083 101.01L162.266 99.184ZM159.834 100.784L161.126 102.311L161.138 102.301L161.149 102.292L159.834 100.784ZM157.53 103.44L155.861 102.338L155.853 102.35L155.846 102.362L157.53 103.44ZM155.834 107.184L153.926 106.586L153.923 106.595L153.92 106.604L155.834 107.184ZM155.194 114V112H154.042V114V116H155.194V114ZM154.042 114V112C153.841 112 153.755 111.969 153.742 111.964C153.742 111.964 153.768 111.978 153.786 112C153.804 112.022 153.642 111.834 153.642 111.088H151.642H149.642C149.642 112.283 149.881 113.551 150.699 114.544C151.578 115.611 152.821 116 154.042 116V114ZM151.642 111.088H153.642C153.642 110.636 153.684 110.213 153.764 109.816L151.802 109.424L149.841 109.032C149.707 109.702 149.642 110.388 149.642 111.088H151.642ZM151.802 109.424L153.747 109.891C153.849 109.468 153.983 109.067 154.149 108.685L152.314 107.888L150.48 107.091C150.219 107.691 150.012 108.314 149.858 108.957L151.802 109.424ZM152.314 107.888H154.314V90.32H152.314H150.314V107.888H152.314ZM152.314 90.32H154.314C154.314 90.4916 154.281 90.6811 154.201 90.8678C154.122 91.0523 154.016 91.1908 153.921 91.2862L152.506 89.872L151.092 88.4578C150.614 88.9356 150.314 89.5842 150.314 90.32H152.314ZM152.506 89.872L153.921 91.2862C153.825 91.3816 153.687 91.4872 153.502 91.5663C153.315 91.6463 153.126 91.68 152.954 91.68V89.68V87.68C152.219 87.68 151.57 87.98 151.092 88.4578L152.506 89.872ZM152.954 89.68V91.68H154.554V89.68V87.68H152.954V89.68ZM154.554 89.68V91.68C154.383 91.68 154.193 91.6463 154.007 91.5663C153.822 91.4872 153.684 91.3816 153.588 91.2862L155.002 89.872L156.417 88.4578C155.939 87.98 155.29 87.68 154.554 87.68V89.68ZM155.002 89.872L153.588 91.2862C153.493 91.1908 153.387 91.0523 153.308 90.8678C153.228 90.6811 153.194 90.4916 153.194 90.32H155.194H157.194C157.194 89.5842 156.894 88.9356 156.417 88.4578L155.002 89.872ZM155.194 90.32H153.194V103.12H155.194H157.194V90.32H155.194ZM155.194 103.12L156.939 104.098C157.651 102.828 158.454 101.747 159.343 100.84L157.914 99.44L156.486 98.0404C155.326 99.224 154.317 100.596 153.45 102.142L155.194 103.12ZM157.914 99.44L159.343 100.84C160.268 99.8957 161.179 99.2127 162.068 98.751L161.146 96.976L160.225 95.201C158.895 95.8913 157.651 96.851 156.486 98.0401L157.914 99.44ZM161.146 96.976L162.081 98.7444C162.994 98.262 163.751 98.08 164.378 98.08V96.08V94.08C162.958 94.08 161.56 94.4953 160.212 95.2076L161.146 96.976ZM164.378 96.08V98.08C164.796 98.08 165.017 98.1334 165.107 98.166C165.175 98.1911 165.092 98.1745 165.006 98.0504L166.65 96.912L168.295 95.7736C167.341 94.3954 165.721 94.08 164.378 94.08V96.08ZM166.65 96.912L165.036 98.092C165.148 98.2457 165.258 98.4949 165.258 98.96H167.258H169.258C169.258 97.8038 168.964 96.6877 168.265 95.732L166.65 96.912ZM167.258 98.96H165.258V111.76H167.258H169.258V98.96H167.258ZM167.258 111.76V113.76H177.498V111.76V109.76H167.258V111.76ZM177.498 111.76H175.498C175.498 111.906 175.489 112.013 175.478 112.086C175.466 112.159 175.455 112.188 175.457 112.184C175.459 112.178 175.476 112.135 175.523 112.075C175.571 112.013 175.638 111.949 175.721 111.897L176.794 113.584L177.868 115.271C179.215 114.414 179.498 112.906 179.498 111.76H177.498ZM176.794 113.584L175.777 111.862C175.621 111.954 175.462 112 175.258 112V114V116C176.164 116 177.029 115.769 177.812 115.306L176.794 113.584ZM175.258 114V112H166.298V114V116H175.258V114ZM166.298 114V112C166.18 112 166.089 111.975 165.988 111.917L164.986 113.648L163.984 115.379C164.695 115.79 165.478 116 166.298 116V114ZM164.986 113.648L166.054 111.957C166.154 112.02 166.235 112.097 166.297 112.175C166.356 112.251 166.384 112.313 166.395 112.341C166.405 112.367 166.4 112.363 166.393 112.317C166.386 112.27 166.378 112.194 166.378 112.08H164.378H162.378C162.378 113.1 162.631 114.526 163.918 115.339L164.986 113.648ZM164.378 112.08H166.378V98.64H164.378H162.378V112.08H164.378ZM164.378 98.64V96.64C163.397 96.64 162.403 96.9318 161.45 97.3584L162.266 99.184L163.083 101.01C163.751 100.711 164.165 100.64 164.378 100.64V98.64ZM162.266 99.184L161.473 97.3483C160.449 97.7909 159.466 98.4519 158.52 99.2765L159.834 100.784L161.149 102.292C161.867 101.665 162.505 101.26 163.06 101.02L162.266 99.184ZM159.834 100.784L158.542 99.2572C157.543 100.103 156.652 101.139 155.861 102.338L157.53 103.44L159.2 104.542C159.816 103.607 160.462 102.873 161.126 102.311L159.834 100.784ZM157.53 103.44L155.846 102.362C155.052 103.602 154.418 105.017 153.926 106.586L155.834 107.184L157.743 107.782C158.147 106.492 158.643 105.411 159.215 104.518L157.53 103.44ZM155.834 107.184L153.92 106.604C153.426 108.236 153.194 110.037 153.194 111.984H155.194H157.194C157.194 110.347 157.39 108.948 157.748 107.764L155.834 107.184ZM155.194 111.984H153.194V114H155.194H157.194V111.984H155.194ZM180.414 99.28V97.28H178.414V99.28H180.414ZM180.414 111.76H178.414V113.76H180.414V111.76ZM191.614 111.76H193.614V109.76H191.614V111.76ZM190.91 113.584L191.927 115.306L191.956 115.289L191.984 115.271L190.91 113.584ZM178.11 113.648L177.042 115.339L177.093 115.371L177.146 115.4L178.11 113.648ZM177.502 99.28H179.502V97.28H177.502V99.28ZM173.342 99.28H171.342V101.28H173.342V99.28ZM177.502 96.72V98.72H179.502V96.72H177.502ZM177.694 91.792L179.108 93.2062L179.108 93.2062L177.694 91.792ZM180.19 91.792L178.776 93.2062L178.776 93.2062L180.19 91.792ZM180.414 92.24H182.414V92.1155L182.398 91.9919L180.414 92.24ZM180.414 96.72H178.414V98.72H180.414V96.72ZM185.854 96.72H187.854V94.72H185.854V96.72ZM185.15 98.704L186.416 100.252L186.437 100.235L186.457 100.218L185.15 98.704ZM183.614 99.28V97.28H180.414V99.28V101.28H183.614V99.28ZM180.414 99.28H178.414V111.76H180.414H182.414V99.28H180.414ZM180.414 111.76V113.76H191.614V111.76V109.76H180.414V111.76ZM191.614 111.76H189.614C189.614 111.906 189.604 112.013 189.593 112.086C189.582 112.159 189.57 112.188 189.572 112.184C189.574 112.178 189.592 112.135 189.638 112.075C189.687 112.013 189.753 111.949 189.836 111.897L190.91 113.584L191.984 115.271C193.33 114.414 193.614 112.906 193.614 111.76H191.614ZM190.91 113.584L189.892 111.862C189.737 111.954 189.577 112 189.374 112V114V116C190.28 116 191.144 115.769 191.927 115.306L190.91 113.584ZM189.374 114V112H179.454V114V116H189.374V114ZM179.454 114V112C179.334 112 179.217 111.974 179.074 111.896L178.11 113.648L177.146 115.4C177.856 115.791 178.635 116 179.454 116V114ZM178.11 113.648L179.178 111.957C179.277 112.02 179.359 112.097 179.42 112.175C179.48 112.251 179.508 112.313 179.519 112.341C179.529 112.367 179.524 112.363 179.516 112.317C179.509 112.27 179.502 112.194 179.502 112.08H177.502H175.502C175.502 113.1 175.755 114.526 177.042 115.339L178.11 113.648ZM177.502 112.08H179.502V99.28H177.502H175.502V112.08H177.502ZM177.502 99.28V97.28H173.342V99.28V101.28H177.502V99.28ZM173.342 99.28H175.342C175.342 98.9664 175.382 98.8059 175.403 98.7488C175.418 98.7072 175.402 98.7705 175.312 98.8439L174.046 97.296L172.779 95.7481C171.639 96.6811 171.342 98.0727 171.342 99.28H173.342ZM174.046 97.296L175.312 98.8439C175.46 98.7231 175.533 98.72 175.582 98.72V96.72V94.72C174.521 94.72 173.57 95.1009 172.779 95.7481L174.046 97.296ZM175.582 96.72V98.72H177.502V96.72V94.72H175.582V96.72ZM177.502 96.72H179.502V92.24H177.502H175.502V96.72H177.502ZM177.502 92.24H179.502C179.502 92.4116 179.468 92.6011 179.388 92.7878C179.309 92.9723 179.203 93.1108 179.108 93.2062L177.694 91.792L176.28 90.3778C175.802 90.8556 175.502 91.5042 175.502 92.24H177.502ZM177.694 91.792L179.108 93.2062C179.013 93.3016 178.874 93.4072 178.69 93.4863C178.503 93.5663 178.313 93.6 178.142 93.6V91.6V89.6C177.406 89.6 176.757 89.9 176.28 90.3778L177.694 91.792ZM178.142 91.6V93.6H179.742V91.6V89.6H178.142V91.6ZM179.742 91.6V93.6C179.57 93.6 179.381 93.5663 179.194 93.4863C179.01 93.4072 178.871 93.3016 178.776 93.2062L180.19 91.792L181.604 90.3778C181.126 89.9 180.478 89.6 179.742 89.6V91.6ZM180.19 91.792L178.776 93.2062C178.7 93.131 178.62 93.0276 178.553 92.8944C178.486 92.7602 178.446 92.6208 178.429 92.4881L180.414 92.24L182.398 91.9919C182.319 91.3557 182.029 90.8026 181.604 90.3778L180.19 91.792ZM180.414 92.24H178.414V96.72H180.414H182.414V92.24H180.414ZM180.414 96.72V98.72H185.854V96.72V94.72H180.414V96.72ZM185.854 96.72H183.854C183.854 97.0169 183.815 97.1738 183.793 97.2352C183.776 97.2827 183.782 97.243 183.843 97.1904L185.15 98.704L186.457 100.218C187.543 99.2798 187.854 97.9352 187.854 96.72H185.854ZM185.15 98.704L183.883 97.1561C183.736 97.2769 183.663 97.28 183.614 97.28V99.28V101.28C184.674 101.28 185.625 100.899 186.416 100.252L185.15 98.704Z" fill="#49BCFF" mask="url(#path-1-outside-1_500_3138)"/>
</svg>
