<svg width="21" height="21" viewBox="0 0 21 21" fill="none" xmlns="http://www.w3.org/2000/svg">
<path d="M10.5 2.4751C6.02 2.4751 2.375 6.1201 2.375 10.6001C2.375 15.0801 6.02 18.7251 10.5 18.7251C14.98 18.7251 18.625 15.0801 18.625 10.6001C18.625 6.1201 14.98 2.4751 10.5 2.4751ZM10.5 3.7251C14.3044 3.7251 17.375 6.79572 17.375 10.6001C17.375 14.4045 14.3044 17.4751 10.5 17.4751C6.69563 17.4751 3.625 14.4045 3.625 10.6001C3.625 6.79572 6.69563 3.7251 10.5 3.7251ZM9.875 6.8501V9.9751H6.75V11.2251H9.875V14.3501H11.125V11.2251H14.25V9.9751H11.125V6.8501H9.875Z" fill="#42ABE8"/>
</svg>
