<svg width="20" height="21" viewBox="0 0 20 21" fill="none" xmlns="http://www.w3.org/2000/svg">
<path d="M8.75 7.7876H13.75M8.75 10.6001H13.75M8.75 13.3735H13.75" stroke="#42ABE8" stroke-width="1.2" stroke-linecap="round" stroke-linejoin="round"/>
<path d="M17.5 10.6782C17.5 6.5376 14.1406 3.17822 10 3.17822C5.85938 3.17822 2.5 6.5376 2.5 10.6782C2.5 14.8188 5.85938 18.1782 10 18.1782C14.1406 18.1782 17.5 14.8188 17.5 10.6782Z" stroke="#42ABE8" stroke-width="1.2" stroke-miterlimit="10"/>
<path d="M6.5625 8.1001C6.73509 8.1001 6.875 7.96019 6.875 7.7876C6.875 7.61501 6.73509 7.4751 6.5625 7.4751C6.38991 7.4751 6.25 7.61501 6.25 7.7876C6.25 7.96019 6.38991 8.1001 6.5625 8.1001Z" stroke="#42ABE8" stroke-width="1.2" stroke-linecap="round" stroke-linejoin="round"/>
<path d="M6.5625 10.9517C6.73509 10.9517 6.875 10.8117 6.875 10.6392C6.875 10.4666 6.73509 10.3267 6.5625 10.3267C6.38991 10.3267 6.25 10.4666 6.25 10.6392C6.25 10.8117 6.38991 10.9517 6.5625 10.9517Z" stroke="#42ABE8" stroke-width="1.2" stroke-linecap="round" stroke-linejoin="round"/>
<path d="M6.5625 13.7251C6.73509 13.7251 6.875 13.5852 6.875 13.4126C6.875 13.24 6.73509 13.1001 6.5625 13.1001C6.38991 13.1001 6.25 13.24 6.25 13.4126C6.25 13.5852 6.38991 13.7251 6.5625 13.7251Z" stroke="#42ABE8" stroke-width="1.2" stroke-linecap="round" stroke-linejoin="round"/>
</svg>
