<svg width="20" height="20" viewBox="0 0 20 20" fill="none" xmlns="http://www.w3.org/2000/svg">
<path d="M12.45 16.002C12.3353 16.5671 12.0286 17.0752 11.5821 17.4402C11.1356 17.8051 10.5767 18.0045 10 18.0045C9.42333 18.0045 8.86439 17.8051 8.41788 17.4402C7.97137 17.0752 7.66477 16.5671 7.55001 16.002H12.45ZM9.99801 2C13.147 2 15.742 4.335 15.982 7.355L15.995 7.578L16 7.802L15.999 11.408L16.953 13.995L16.978 14.08L16.994 14.166L16.999 14.255C16.999 14.57 16.803 14.845 16.477 14.962L16.363 14.995L16.249 15.005H3.75101C3.66267 15.0037 3.57516 14.9879 3.49201 14.958C3.20501 14.853 3.01601 14.586 3.01001 14.242L3.01401 14.125L3.04801 13.995L3.99801 11.411L4.00001 7.793L4.00401 7.568C4.12701 4.451 6.77101 2 9.99801 2Z" fill="#2A2E3A"/>
</svg>
