<svg width="18" height="18" viewBox="0 0 18 18" fill="currentColor" xmlns="http://www.w3.org/2000/svg">
<path d="M1.45813 6.81248C1.45813 5.43759 1.45813 4.75087 1.88532 4.32368C2.31252 3.89648 2.99924 3.89648 4.37413 3.89648H13.1221C14.497 3.89648 15.1837 3.89648 15.6109 4.32368C16.0381 4.75087 16.0381 5.43759 16.0381 6.81248C16.0381 7.15584 16.0381 7.32789 15.9317 7.43505C15.8245 7.54148 15.6518 7.54148 15.3091 7.54148H2.18713C1.84377 7.54148 1.67173 7.54148 1.56456 7.43505C1.45813 7.32789 1.45813 7.15511 1.45813 6.81248ZM1.45813 13.3735C1.45813 14.7484 1.45813 15.4351 1.88532 15.8623C2.31252 16.2895 2.99924 16.2895 4.37413 16.2895H13.1221C14.497 16.2895 15.1837 16.2895 15.6109 15.8623C16.0381 15.4351 16.0381 14.7484 16.0381 13.3735V9.72848C16.0381 9.38513 16.0381 9.21308 15.9317 9.10592C15.8245 8.99948 15.6518 8.99948 15.3091 8.99948H2.18713C1.84377 8.99948 1.67173 8.99948 1.56456 9.10592C1.45813 9.21308 1.45813 9.38585 1.45813 9.72848V13.3735Z"/>
<path d="M5.10306 2.43848V4.62548M12.3931 2.43848V4.62548" stroke="currentColor" stroke-width="1.458" stroke-linecap="round"/>
</svg>
