<svg width="16" height="16" viewBox="0 0 16 16" fill="none" xmlns="http://www.w3.org/2000/svg">
<path d="M1.33337 5.99967C1.33337 4.74234 1.33337 4.11434 1.72404 3.72367C2.11471 3.33301 2.74271 3.33301 4.00004 3.33301H12C13.2574 3.33301 13.8854 3.33301 14.276 3.72367C14.6667 4.11434 14.6667 4.74234 14.6667 5.99967C14.6667 6.31367 14.6667 6.47101 14.5694 6.56901C14.4714 6.66634 14.3134 6.66634 14 6.66634H2.00004C1.68604 6.66634 1.52871 6.66634 1.43071 6.56901C1.33337 6.47101 1.33337 6.31301 1.33337 5.99967ZM1.33337 11.9997C1.33337 13.257 1.33337 13.885 1.72404 14.2757C2.11471 14.6663 2.74271 14.6663 4.00004 14.6663H12C13.2574 14.6663 13.8854 14.6663 14.276 14.2757C14.6667 13.885 14.6667 13.257 14.6667 11.9997V8.66634C14.6667 8.35234 14.6667 8.19501 14.5694 8.09701C14.4714 7.99967 14.3134 7.99967 14 7.99967H2.00004C1.68604 7.99967 1.52871 7.99967 1.43071 8.09701C1.33337 8.19501 1.33337 8.35301 1.33337 8.66634V11.9997Z" fill="#5B647E"/>
<path d="M4.66675 1.99951V3.99951M11.3334 1.99951V3.99951" stroke="#5B647E" stroke-width="1.458" stroke-linecap="round"/>
</svg>
