<svg width="16" height="16" viewBox="0 0 16 16" fill="none" xmlns="http://www.w3.org/2000/svg">
<path d="M5.75797 5.99593L7.53597 3.06126C7.59375 2.96748 7.66308 2.90193 7.74397 2.86459C7.82486 2.82726 7.91019 2.80859 7.99997 2.80859C8.08975 2.80859 8.17508 2.82726 8.25597 2.86459C8.33686 2.90193 8.4062 2.96748 8.46397 3.06126L10.242 5.99593C10.3002 6.08571 10.3293 6.17993 10.3293 6.27859C10.3293 6.37726 10.3058 6.46815 10.2586 6.55126C10.2115 6.63437 10.1484 6.69993 10.0693 6.74793C9.99019 6.79593 9.89731 6.82015 9.79064 6.82059H6.20931C6.10219 6.82059 6.00842 6.79593 5.92797 6.74659C5.84753 6.69726 5.78531 6.63215 5.74131 6.55126C5.6942 6.47126 5.67064 6.38237 5.67064 6.28459C5.67064 6.18682 5.69953 6.09059 5.75731 5.99593M11.67 14.1539C10.9797 14.1539 10.3922 13.9124 9.90731 13.4293C9.42242 12.9461 9.17975 12.3595 9.17931 11.6693C9.17886 10.979 9.42042 10.3915 9.90397 9.90659C10.3871 9.42215 10.9738 9.17993 11.664 9.17993C12.3538 9.17993 12.9413 9.42126 13.4266 9.90393C13.9111 10.387 14.1533 10.9737 14.1533 11.6639C14.1533 12.3537 13.912 12.9413 13.4293 13.4266C12.9462 13.911 12.3595 14.1533 11.6693 14.1533M2.51331 13.2819V10.0486C2.51331 9.89615 2.56486 9.76882 2.66797 9.66659C2.77153 9.56437 2.89953 9.51326 3.05197 9.51326H6.28531C6.43819 9.51326 6.56575 9.56482 6.66797 9.66793C6.77019 9.77148 6.82131 9.89971 6.82131 10.0526V13.2859C6.82131 13.4384 6.76953 13.5657 6.66597 13.6679C6.56286 13.7701 6.43486 13.8213 6.28197 13.8213H3.04864C2.89619 13.8213 2.76886 13.7695 2.66664 13.6659C2.56442 13.5628 2.51331 13.4348 2.51331 13.2819Z" fill="#5B647E"/>
</svg>
