<svg width="16" height="16" viewBox="0 0 16 16" fill="none" xmlns="http://www.w3.org/2000/svg">
<path d="M1.83333 11.3335H10.1667C10.2933 11.3335 10.4153 11.3817 10.5079 11.4681C10.6004 11.5546 10.6567 11.673 10.6653 11.7994C10.674 11.9258 10.6343 12.0508 10.5544 12.149C10.4744 12.2473 10.3602 12.3116 10.2347 12.3288L10.1667 12.3335H1.83333C1.70665 12.3335 1.5847 12.2853 1.49214 12.1988C1.39957 12.1124 1.34328 11.994 1.33465 11.8676C1.32601 11.7412 1.36568 11.6162 1.44562 11.518C1.52557 11.4197 1.63983 11.3554 1.76533 11.3382L1.83333 11.3335ZM1.83333 8.66683H14.1667C14.2933 8.66687 14.4153 8.71499 14.5079 8.80148C14.6004 8.88796 14.6567 9.00636 14.6653 9.13275C14.674 9.25914 14.6343 9.38409 14.5544 9.48236C14.4744 9.58063 14.3602 9.6449 14.2347 9.66216L14.1667 9.66683H1.83333C1.70665 9.66679 1.5847 9.61867 1.49214 9.53218C1.39957 9.4457 1.34328 9.3273 1.33465 9.20091C1.32601 9.07452 1.36568 8.94957 1.44562 8.8513C1.52557 8.75303 1.63983 8.68876 1.76533 8.6715L1.83333 8.66683ZM1.83333 6.00016H14.1667C14.2933 6.0002 14.4153 6.04833 14.5079 6.13481C14.6004 6.2213 14.6567 6.3397 14.6653 6.46608C14.674 6.59247 14.6343 6.71742 14.5544 6.8157C14.4744 6.91397 14.3602 6.97823 14.2347 6.9955L14.1667 7.00016H1.83333C1.70665 7.00012 1.5847 6.952 1.49214 6.86551C1.39957 6.77903 1.34328 6.66063 1.33465 6.53424C1.32601 6.40786 1.36568 6.2829 1.44562 6.18463C1.52557 6.08636 1.63983 6.0221 1.76533 6.00483L1.83333 6.00016ZM1.83333 3.3335H14.1667C14.2933 3.33353 14.4153 3.38166 14.5079 3.46814C14.6004 3.55463 14.6567 3.67303 14.6653 3.79942C14.674 3.9258 14.6343 4.05076 14.5544 4.14903C14.4744 4.2473 14.3602 4.31156 14.2347 4.32883L14.1667 4.3335H1.83333C1.70665 4.33346 1.5847 4.28533 1.49214 4.19885C1.39957 4.11236 1.34328 3.99396 1.33465 3.86758C1.32601 3.74119 1.36568 3.61623 1.44562 3.51796C1.52557 3.41969 1.63983 3.35543 1.76533 3.33816L1.83333 3.3335Z" fill="#5B647E"/>
</svg>
