<svg width="16" height="16" viewBox="0 0 16 16" fill="currentColor" xmlns="http://www.w3.org/2000/svg">
<path d="M10.5467 13.3334L14 13.3334C14.1768 13.3334 14.3464 13.2632 14.4714 13.1382C14.5964 13.0132 14.6667 12.8436 14.6667 12.6668C14.6667 12.49 14.5964 12.3204 14.4714 12.1954C14.3464 12.0703 14.1768 12.0001 14 12.0001L10.5467 12.0001C10.4065 11.614 10.1509 11.2804 9.81455 11.0447C9.4782 10.8089 9.07741 10.6825 8.66666 10.6825C8.25592 10.6825 7.85513 10.8089 7.51877 11.0447C7.18242 11.2804 6.9268 11.614 6.78666 12.0001L2 12.0001C1.82319 12.0001 1.65362 12.0703 1.52859 12.1954C1.40357 12.3204 1.33333 12.49 1.33333 12.6668C1.33333 12.8436 1.40357 13.0132 1.52859 13.1382C1.65362 13.2632 1.82319 13.3334 2 13.3334L6.78666 13.3334C6.9268 13.7195 7.18242 14.0531 7.51877 14.2889C7.85513 14.5246 8.25592 14.6511 8.66666 14.6511C9.07741 14.6511 9.4782 14.5246 9.81455 14.2889C10.1509 14.0531 10.4065 13.7195 10.5467 13.3334ZM8 12.6668C8 12.5349 8.0391 12.406 8.11235 12.2964C8.1856 12.1868 8.28972 12.1013 8.41154 12.0509C8.53336 12.0004 8.6674 11.9872 8.79672 12.0129C8.92604 12.0386 9.04483 12.1021 9.13807 12.1954C9.2313 12.2886 9.2948 12.4074 9.32052 12.5367C9.34624 12.666 9.33304 12.8001 9.28258 12.9219C9.23212 13.0437 9.14668 13.1478 9.03704 13.2211C8.92741 13.2943 8.79852 13.3334 8.66666 13.3334C8.48985 13.3334 8.32028 13.2632 8.19526 13.1382C8.07023 13.0132 8 12.8436 8 12.6668ZM6.54666 8.66677L14 8.66677C14.1768 8.66677 14.3464 8.59653 14.4714 8.47151C14.5964 8.34649 14.6667 8.17692 14.6667 8.00011C14.6667 7.82329 14.5964 7.65373 14.4714 7.5287C14.3464 7.40368 14.1768 7.33344 14 7.33344L6.54666 7.33344C6.40653 6.94734 6.15091 6.61375 5.81455 6.378C5.4782 6.14225 5.07741 6.01579 4.66666 6.01579C4.25592 6.01579 3.85513 6.14225 3.51877 6.378C3.18242 6.61375 2.9268 6.94734 2.78666 7.33344L2 7.33344C1.82319 7.33344 1.65362 7.40368 1.52859 7.5287C1.40357 7.65373 1.33333 7.82329 1.33333 8.00011C1.33333 8.17692 1.40357 8.34649 1.52859 8.47151C1.65362 8.59653 1.82319 8.66677 2 8.66677L2.78666 8.66677C2.9268 9.05287 3.18242 9.38646 3.51877 9.62221C3.85513 9.85796 4.25592 9.98442 4.66666 9.98442C5.07741 9.98442 5.4782 9.85796 5.81455 9.62221C6.15091 9.38646 6.40653 9.05287 6.54666 8.66677ZM4 8.00011C4 7.86825 4.0391 7.73936 4.11235 7.62972C4.1856 7.52009 4.28972 7.43464 4.41154 7.38419C4.53336 7.33373 4.6674 7.32052 4.79672 7.34625C4.92605 7.37197 5.04483 7.43547 5.13807 7.5287C5.2313 7.62194 5.2948 7.74072 5.32052 7.87005C5.34624 7.99937 5.33304 8.13341 5.28258 8.25523C5.23212 8.37705 5.14668 8.48116 5.03704 8.55442C4.92741 8.62767 4.79852 8.66677 4.66666 8.66677C4.48985 8.66677 4.32028 8.59653 4.19526 8.47151C4.07023 8.34649 4 8.17692 4 8.00011ZM11.88 4.00011L14 4.00011C14.1768 4.00011 14.3464 3.92987 14.4714 3.80484C14.5964 3.67982 14.6667 3.51025 14.6667 3.33344C14.6667 3.15663 14.5964 2.98706 14.4714 2.86203C14.3464 2.73701 14.1768 2.66677 14 2.66677L11.88 2.66677C11.7399 2.28067 11.4842 1.94708 11.1479 1.71133C10.8115 1.47559 10.4107 1.34912 10 1.34912C9.58925 1.34912 9.18846 1.47559 8.85211 1.71133C8.51575 1.94708 8.26013 2.28067 8.12 2.66677L2 2.66677C1.82319 2.66677 1.65362 2.73701 1.52859 2.86203C1.40357 2.98706 1.33333 3.15663 1.33333 3.33344C1.33333 3.51025 1.40357 3.67982 1.52859 3.80484C1.65362 3.92987 1.82319 4.00011 2 4.00011L8.12 4.00011C8.26013 4.38621 8.51575 4.7198 8.85211 4.95554C9.18846 5.19129 9.58925 5.31776 10 5.31776C10.4107 5.31776 10.8115 5.19129 11.1479 4.95554C11.4842 4.7198 11.7399 4.38621 11.88 4.00011ZM9.33333 3.33344C9.33333 3.20158 9.37243 3.07269 9.44568 2.96306C9.51894 2.85343 9.62306 2.76798 9.74487 2.71752C9.86669 2.66706 10.0007 2.65386 10.1301 2.67958C10.2594 2.70531 10.3782 2.7688 10.4714 2.86203C10.5646 2.95527 10.6281 3.07406 10.6539 3.20338C10.6796 3.3327 10.6664 3.46674 10.6159 3.58856C10.5655 3.71038 10.48 3.8145 10.3704 3.88775C10.2607 3.96101 10.1319 4.00011 10 4.00011C9.82319 4.00011 9.65362 3.92987 9.52859 3.80484C9.40357 3.67982 9.33333 3.51025 9.33333 3.33344Z" />
</svg>
