<svg width="24" height="24" viewBox="0 0 24 24" fill="currentColor" xmlns="http://www.w3.org/2000/svg">
<path d="M18.31 16.9L21.39 20L20 21.39L16.88 18.32C16.19 18.75 15.37 19 14.5 19C12 19 10 17 10 14.5C10 12 12 10 14.5 10C17 10 19 12 19 14.5C19 15.38 18.75 16.21 18.31 16.9ZM14.5 17C15.163 17 15.7989 16.7366 16.2678 16.2678C16.7366 15.7989 17 15.163 17 14.5C17 13.837 16.7366 13.2011 16.2678 12.7322C15.7989 12.2634 15.163 12 14.5 12C13.837 12 13.2011 12.2634 12.7322 12.7322C12.2634 13.2011 12 13.837 12 14.5C12 15.163 12.2634 15.7989 12.7322 16.2678C13.2011 16.7366 13.837 17 14.5 17ZM20 2V4H2V2H20ZM2 14V12H8V14H2ZM2 9V7H11H20V9H17.97C16.96 8.37 15.77 8 14.5 8C13.23 8 12.04 8.37 11.03 9H2Z" />
</svg>
