<svg width="17" height="16" viewBox="0 0 17 16" fill="none" xmlns="http://www.w3.org/2000/svg">
<path d="M8.48006 5.83881C8.02121 5.83881 7.64881 6.21121 7.64881 6.67006V6.74121C7.64881 6.87349 7.59626 7.00035 7.50273 7.09388C7.40919 7.18742 7.28233 7.23996 7.15006 7.23996C7.01778 7.23996 6.89092 7.18742 6.79739 7.09388C6.70385 7.00035 6.65131 6.87349 6.65131 6.74121V6.67006C6.65131 6.18504 6.84398 5.71989 7.18693 5.37694C7.52989 5.03398 7.99504 4.84131 8.48006 4.84131H8.5572C8.91495 4.84147 9.26407 4.95118 9.55762 5.15567C9.85116 5.36016 10.0751 5.64963 10.1992 5.98516C10.3233 6.32069 10.3417 6.68617 10.252 7.03248C10.1622 7.37878 9.96851 7.68929 9.69701 7.92225L9.18496 8.36115C9.12071 8.41692 9.0691 8.48574 9.03355 8.56303C8.998 8.64032 8.97934 8.72429 8.97881 8.80936V9.16381C8.97881 9.29608 8.92626 9.42294 8.83273 9.51648C8.73919 9.61001 8.61233 9.66256 8.48006 9.66256C8.34778 9.66256 8.22092 9.61001 8.12739 9.51648C8.03385 9.42294 7.98131 9.29608 7.98131 9.16381V8.80936C7.98131 8.34586 8.18347 7.90563 8.53525 7.60438L9.04797 7.16548C9.16496 7.06521 9.24842 6.9315 9.28713 6.78236C9.32584 6.63322 9.31793 6.4758 9.26447 6.33128C9.21101 6.18677 9.11457 6.0621 8.98812 5.97405C8.86167 5.88601 8.71128 5.83881 8.5572 5.83881H8.48006ZM8.48006 11.3251C8.65643 11.3251 8.82557 11.255 8.95028 11.1303C9.07499 11.0056 9.14506 10.8364 9.14506 10.6601C9.14506 10.4837 9.07499 10.3145 8.95028 10.1898C8.82557 10.0651 8.65643 9.99506 8.48006 9.99506C8.30369 9.99506 8.13454 10.0651 8.00983 10.1898C7.88512 10.3145 7.81506 10.4837 7.81506 10.6601C7.81506 10.8364 7.88512 11.0056 8.00983 11.1303C8.13454 11.255 8.30369 11.3251 8.48006 11.3251Z" fill="#979EB1"/>
<path d="M2.66129 8.00002C2.66129 6.4568 3.27433 4.97677 4.36556 3.88555C5.45678 2.79432 6.93681 2.18127 8.48003 2.18127C10.0233 2.18127 11.5033 2.79432 12.5945 3.88555C13.6857 4.97677 14.2988 6.4568 14.2988 8.00002C14.2988 9.54325 13.6857 11.0233 12.5945 12.1145C11.5033 13.2057 10.0233 13.8188 8.48003 13.8188C6.93681 13.8188 5.45678 13.2057 4.36556 12.1145C3.27433 11.0233 2.66129 9.54325 2.66129 8.00002ZM8.48003 3.17877C7.8469 3.17877 7.21996 3.30348 6.63502 3.54577C6.05008 3.78806 5.51859 4.14319 5.0709 4.59089C4.6232 5.03858 4.26807 5.57007 4.02578 6.15501C3.78349 6.73995 3.65879 7.36689 3.65879 8.00002C3.65879 8.63316 3.78349 9.2601 4.02578 9.84504C4.26807 10.43 4.6232 10.9615 5.0709 11.4092C5.51859 11.8569 6.05008 12.212 6.63502 12.4543C7.21996 12.6966 7.8469 12.8213 8.48003 12.8213C9.75871 12.8213 10.985 12.3133 11.8892 11.4092C12.7933 10.505 13.3013 9.2787 13.3013 8.00002C13.3013 6.72135 12.7933 5.49505 11.8892 4.59089C10.985 3.68673 9.75871 3.17877 8.48003 3.17877Z" fill="#979EB1"/>
</svg>
