<svg width="25" height="24" viewBox="0 0 25 24" fill="currentColor" xmlns="http://www.w3.org/2000/svg">
<path d="M3.5 19.675V9.775C3.5 9.42667 3.5781 9.09667 3.7343 8.785C3.8905 8.47333 4.10573 8.21667 4.38 8.015L10.98 3.065C11.365 2.77167 11.805 2.625 12.3 2.625C12.795 2.625 13.235 2.77167 13.62 3.065L20.22 8.015C20.495 8.21667 20.7106 8.47333 20.8668 8.785C21.023 9.09667 21.1007 9.42667 21.1 9.775V19.675C21.1 20.28 20.8844 20.7981 20.4532 21.2293C20.022 21.6605 19.5043 21.8757 18.9 21.875H15.6C15.2883 21.875 15.0273 21.7694 14.8168 21.5582C14.6063 21.347 14.5007 21.0859 14.5 20.775V15.275C14.5 14.9633 14.3944 14.7023 14.1832 14.4918C13.972 14.2813 13.7109 14.1757 13.4 14.175H11.2C10.8883 14.175 10.6273 14.2806 10.4168 14.4918C10.2063 14.703 10.1007 14.9641 10.1 15.275V20.775C10.1 21.0867 9.9944 21.3481 9.7832 21.5593C9.572 21.7705 9.31093 21.8757 9 21.875H5.7C5.095 21.875 4.57727 21.6598 4.1468 21.2293C3.71633 20.7988 3.50073 20.2807 3.5 19.675Z" />
</svg>
