<svg width="119" height="29" viewBox="0 0 119 29" fill="none" xmlns="http://www.w3.org/2000/svg">
<mask id="path-1-outside-1_389_2177" maskUnits="userSpaceOnUse" x="0" y="3.83984" width="119" height="25" fill="black">
<rect fill="white" y="3.83984" width="119" height="25"/>
<path d="M3.83639 13.1803H11.1068C11.4481 13.1803 11.7553 13.2213 12.0284 13.3032C12.3151 13.3715 12.5404 13.5217 12.7042 13.7538C12.8681 13.9859 12.95 14.3409 12.95 14.8187C12.95 15.6652 12.7315 16.4981 12.2946 17.3173C11.8714 18.1365 11.1546 18.8328 10.1442 19.4062H18.5206C18.5206 19.9933 18.3704 20.3825 18.07 20.5736C17.7696 20.7511 17.4419 20.8398 17.087 20.8398H3.22199C2.92162 20.8398 2.64173 20.7648 2.38231 20.6146C2.1229 20.4507 1.99319 20.1162 1.99319 19.611V19.4062H3.28343C4.64877 19.4062 5.79565 19.3038 6.72407 19.099C7.6525 18.8942 8.40344 18.6212 8.97688 18.2798C9.56397 17.9385 10.0077 17.563 10.3081 17.1534C10.6221 16.7302 10.8337 16.3069 10.943 15.8837C11.0522 15.4604 11.1068 15.0713 11.1068 14.7163H3.83639C3.33122 14.7163 2.89431 14.6071 2.52567 14.3886C2.17069 14.1565 1.99319 13.6855 1.99319 12.9755C1.99319 12.3748 2.07511 11.7535 2.23895 11.1118C2.40279 10.4701 2.68269 9.85574 3.07863 9.26864C3.47458 8.6679 4.01389 8.12859 4.69655 7.65072C5.39287 7.17286 6.26669 6.79739 7.31799 6.52432C8.3693 6.2376 9.63223 6.09424 11.1068 6.09424C11.4208 6.09424 11.7007 6.16934 11.9465 6.31952C12.2059 6.46971 12.3356 6.80422 12.3356 7.32304V7.73264H10.8406C9.51618 7.73264 8.42391 7.86235 7.56375 8.12176C6.70359 8.38118 6.02093 8.72251 5.51575 9.14576C5.01058 9.55536 4.63511 10.0059 4.38935 10.4974C4.15725 10.9753 4.00706 11.4532 3.93879 11.931C3.87053 12.4089 3.83639 12.8253 3.83639 13.1803ZM18.5212 20.0616V10.1902C18.5212 10.081 18.5622 9.98544 18.6441 9.90352C18.726 9.8216 18.8216 9.78064 18.9308 9.78064H19.9343C20.0435 9.78064 20.1391 9.8216 20.221 9.90352C20.3166 9.98544 20.3644 10.081 20.3644 10.1902V13.8971C20.8832 12.9823 21.4771 12.1905 22.1462 11.5214C22.8288 10.8388 23.5388 10.3131 24.2761 9.94448C25.027 9.56219 25.7506 9.37104 26.447 9.37104C27.1706 9.37104 27.6553 9.54854 27.901 9.90352C28.1605 10.2585 28.2902 10.6954 28.2902 11.2142V16.3547C28.2902 16.9282 28.1809 17.488 27.9625 18.0341C27.744 18.5802 27.3276 19.0376 26.7132 19.4062H34.639C34.639 19.9933 34.4888 20.3825 34.1884 20.5736C33.888 20.7511 33.5603 20.8398 33.2054 20.8398H22.863C22.5626 20.8398 22.2827 20.7648 22.0233 20.6146C21.7639 20.4507 21.6342 20.1162 21.6342 19.611V19.4062H23.4978C24.0303 19.4062 24.4809 19.3038 24.8495 19.099C25.2318 18.8942 25.539 18.6348 25.7711 18.3208C26.0032 17.9931 26.1739 17.6586 26.2831 17.3173C26.3923 16.9623 26.447 16.6414 26.447 16.3547V11.0094C26.0647 11.0094 25.6073 11.1255 25.0748 11.3576C24.556 11.5761 24.0167 11.9174 23.4569 12.3816C22.9107 12.8322 22.4056 13.3988 21.9414 14.0814C21.4771 14.7641 21.0948 15.5628 20.7945 16.4776C20.5078 17.3787 20.3644 18.4027 20.3644 19.5496V26.9838H20.0162C19.2653 26.9838 18.7192 26.8541 18.3778 26.5947C18.0365 26.3353 17.8658 25.8848 17.8658 25.243C17.8658 24.5194 17.9273 23.7002 18.0502 22.7854C18.1867 21.8843 18.3437 20.9764 18.5212 20.0616ZM40.9081 9.94448C40.9081 9.53488 41.031 9.18672 41.2767 8.9C41.5225 8.59963 41.8911 8.44944 42.3826 8.44944C42.8469 8.44944 43.2018 8.57915 43.4476 8.83856C43.707 9.09798 43.8504 9.412 43.8777 9.78064H51.2095C51.2095 10.3677 51.0593 10.791 50.759 11.0504C50.4586 11.2962 50.1309 11.419 49.7759 11.419H44.2258V13.467C44.2258 15.9383 43.591 17.7883 42.3212 19.0171C41.0514 20.2323 39.1058 20.8398 36.4844 20.8398C35.9792 20.8398 35.5901 20.7579 35.317 20.5941C35.0576 20.4302 34.8801 20.2118 34.7846 19.9387C34.689 19.652 34.6412 19.338 34.6412 18.9966V14.061C34.6412 12.5181 34.9894 11.3849 35.6857 10.6613C36.3957 9.93766 37.5971 9.57584 39.2902 9.57584C39.6725 9.57584 39.966 9.68507 40.1708 9.90352C40.3893 10.122 40.4985 10.4906 40.4985 11.0094V11.2142H39.2902C38.6485 11.2142 38.116 11.2893 37.6927 11.4395C37.2831 11.5897 36.9759 11.8696 36.7711 12.2792C36.58 12.6751 36.4844 13.2691 36.4844 14.061V19.2014C37.8497 19.2014 38.9625 19.0308 39.8226 18.6894C40.6965 18.3345 41.3382 17.7405 41.7478 16.9077C42.171 16.0612 42.3826 14.9143 42.3826 13.467V11.419C41.8911 11.419 41.5225 11.2757 41.2767 10.989C41.031 10.7022 40.9081 10.3541 40.9081 9.94448ZM53.6929 11.419H51.6449V19.4062H58.8129C58.8129 19.9933 58.6627 20.3825 58.3623 20.5736C58.0619 20.7511 57.7343 20.8398 57.3793 20.8398H51.0305C50.7301 20.8398 50.4434 20.7648 50.1703 20.6146C49.9109 20.4507 49.7812 20.1162 49.7812 19.611V11.419H47.1188C47.1188 10.8183 47.269 10.395 47.5694 10.1493C47.8697 9.90352 48.1974 9.78064 48.5524 9.78064H49.7812V6.91344C49.7812 6.80422 49.8222 6.70864 49.9041 6.62672C49.986 6.5448 50.0816 6.50384 50.1908 6.50384H51.2148C51.324 6.50384 51.4196 6.5448 51.5015 6.62672C51.5834 6.70864 51.6312 6.80422 51.6449 6.91344V9.78064H55.1265C55.1265 10.3677 54.9763 10.791 54.6759 11.0504C54.3755 11.2962 54.0479 11.419 53.6929 11.419ZM60.6644 12.1973V19.4062H67.2385C67.2385 19.9933 67.0883 20.3825 66.7879 20.5736C66.4875 20.7511 66.1599 20.8398 65.8049 20.8398H60.0705C59.7701 20.8398 59.4834 20.7648 59.2103 20.6146C58.9509 20.4507 58.8212 20.1162 58.8212 19.611V5.27504H59.1694C59.9339 5.27504 60.4801 5.40475 60.8078 5.66416C61.1491 5.92357 61.3198 6.37414 61.3198 7.01584C61.3198 7.72582 61.2583 8.53819 61.1354 9.45296C61.0126 10.3541 60.8555 11.2689 60.6644 12.1973ZM69.0844 19.4062H75.6585C75.6585 19.9933 75.5083 20.3825 75.2079 20.5736C74.9075 20.7511 74.5799 20.8398 74.2249 20.8398H68.4905C68.1901 20.8398 67.9034 20.7648 67.6303 20.6146C67.3709 20.4507 67.2412 20.1162 67.2412 19.611V10.1902C67.2412 10.081 67.2822 9.98544 67.3641 9.90352C67.446 9.8216 67.5416 9.78064 67.6508 9.78064H68.6543C68.7635 9.78064 68.8591 9.8216 68.941 9.90352C69.0366 9.98544 69.0844 10.081 69.0844 10.1902V19.4062ZM66.9135 6.42192C66.9135 6.08059 66.9954 5.78704 67.1593 5.54128C67.3231 5.28187 67.6576 5.15216 68.1628 5.15216C68.6543 5.15216 68.9888 5.28187 69.1663 5.54128C69.3438 5.78704 69.4326 6.08059 69.4326 6.42192C69.4326 6.76326 69.3438 7.0568 69.1663 7.30256C68.9888 7.54832 68.6543 7.6712 68.1628 7.6712C67.6576 7.6712 67.3231 7.54832 67.1593 7.30256C66.9954 7.0568 66.9135 6.76326 66.9135 6.42192ZM82.1329 11.0094V11.2142H80.3102C79.6685 11.2142 79.136 11.2893 78.7127 11.4395C78.3031 11.5897 77.9959 11.8696 77.7911 12.2792C77.6 12.6751 77.5044 13.2691 77.5044 14.061V19.3038C77.9959 19.3038 78.5557 19.1468 79.1838 18.8328C79.8255 18.5051 80.4467 18.0068 81.0474 17.3378C81.6618 16.6687 82.167 15.8154 82.563 14.7778C82.9589 13.7401 83.1569 12.5045 83.1569 11.0709V9.78064H83.8942C84.9182 9.78064 85.4302 10.4019 85.4302 11.6443C85.4302 12.013 85.3892 12.3679 85.3073 12.7093C85.2254 13.0506 85.123 13.3783 85.0001 13.6923V19.4062H91.5742C91.5742 19.9933 91.424 20.3825 91.1236 20.5736C90.8232 20.7511 90.4956 20.8398 90.1406 20.8398H84.9796C84.9386 22.5192 84.7202 23.8163 84.3242 24.731C83.942 25.6458 83.3549 26.2807 82.563 26.6357C81.7847 27.0043 80.7744 27.1886 79.5319 27.1886C79.1087 27.1886 78.8083 27.0794 78.6308 26.861C78.467 26.6425 78.385 26.2807 78.385 25.7755V25.5502H79.5319C80.1736 25.5502 80.7198 25.4956 81.1703 25.3864C81.6345 25.2772 82.01 25.0451 82.2967 24.6901C82.5971 24.3488 82.8156 23.8163 82.9521 23.0926C83.0886 22.3827 83.1569 21.4269 83.1569 20.2254V16.7848C82.679 17.6313 82.1192 18.3686 81.4775 18.9966C80.8495 19.611 80.1941 20.0889 79.5114 20.4302C78.8288 20.7716 78.1598 20.9422 77.5044 20.9422C76.7944 20.9422 76.3097 20.7648 76.0503 20.4098C75.7909 20.0411 75.6612 19.6042 75.6612 19.099V14.061C75.6612 12.5181 76.0094 11.3849 76.7057 10.6613C77.4157 9.93766 78.6172 9.57584 80.3102 9.57584C80.8973 9.57584 81.3478 9.68507 81.6618 9.90352C81.9759 10.122 82.1329 10.4906 82.1329 11.0094ZM93.4244 20.8398H92.6871C91.6631 20.8398 91.1511 20.2186 91.1511 18.9762C91.1511 18.6075 91.1853 18.2525 91.2535 17.9112C91.3354 17.5699 91.4447 17.2422 91.5812 16.9282V5.68464C91.5812 5.57542 91.6222 5.47984 91.7041 5.39792C91.786 5.316 91.8816 5.27504 91.9908 5.27504H93.0148C93.124 5.27504 93.2196 5.316 93.3015 5.39792C93.3834 5.47984 93.4244 5.57542 93.4244 5.68464V13.8766C93.9296 12.9755 94.5098 12.1905 95.1652 11.5214C95.8342 10.8388 96.5237 10.3131 97.2337 9.94448C97.9573 9.56219 98.6468 9.37104 99.3022 9.37104C100.026 9.37104 100.51 9.54854 100.756 9.90352C101.016 10.2585 101.145 10.6954 101.145 11.2142V19.4062H107.699C107.699 19.9933 107.549 20.3825 107.248 20.5736C106.948 20.7511 106.62 20.8398 106.265 20.8398H100.531C100.231 20.8398 99.9507 20.7648 99.6913 20.6146C99.4319 20.4507 99.3022 20.1162 99.3022 19.611V11.0094C98.9199 11.0094 98.4693 11.1255 97.9505 11.3576C97.4453 11.5761 96.9265 11.9174 96.394 12.3816C95.8615 12.8322 95.37 13.3988 94.9194 14.0814C94.4825 14.7641 94.1207 15.5628 93.834 16.4776C93.5609 17.3787 93.4244 18.4027 93.4244 19.5496V20.8398ZM111.613 11.419H109.565V19.4062H116.733C116.733 19.9933 116.583 20.3825 116.282 20.5736C115.982 20.7511 115.654 20.8398 115.299 20.8398H108.95C108.65 20.8398 108.363 20.7648 108.09 20.6146C107.831 20.4507 107.701 20.1162 107.701 19.611V11.419H105.039C105.039 10.8183 105.189 10.395 105.489 10.1493C105.79 9.90352 106.117 9.78064 106.472 9.78064H107.701V6.91344C107.701 6.80422 107.742 6.70864 107.824 6.62672C107.906 6.5448 108.002 6.50384 108.111 6.50384H109.135C109.244 6.50384 109.34 6.5448 109.422 6.62672C109.503 6.70864 109.551 6.80422 109.565 6.91344V9.78064H113.046C113.046 10.3677 112.896 10.791 112.596 11.0504C112.296 11.2962 111.968 11.419 111.613 11.419Z"/>
</mask>
<path d="M3.83639 13.1803H11.1068C11.4481 13.1803 11.7553 13.2213 12.0284 13.3032C12.3151 13.3715 12.5404 13.5217 12.7042 13.7538C12.8681 13.9859 12.95 14.3409 12.95 14.8187C12.95 15.6652 12.7315 16.4981 12.2946 17.3173C11.8714 18.1365 11.1546 18.8328 10.1442 19.4062H18.5206C18.5206 19.9933 18.3704 20.3825 18.07 20.5736C17.7696 20.7511 17.4419 20.8398 17.087 20.8398H3.22199C2.92162 20.8398 2.64173 20.7648 2.38231 20.6146C2.1229 20.4507 1.99319 20.1162 1.99319 19.611V19.4062H3.28343C4.64877 19.4062 5.79565 19.3038 6.72407 19.099C7.6525 18.8942 8.40344 18.6212 8.97688 18.2798C9.56397 17.9385 10.0077 17.563 10.3081 17.1534C10.6221 16.7302 10.8337 16.3069 10.943 15.8837C11.0522 15.4604 11.1068 15.0713 11.1068 14.7163H3.83639C3.33122 14.7163 2.89431 14.6071 2.52567 14.3886C2.17069 14.1565 1.99319 13.6855 1.99319 12.9755C1.99319 12.3748 2.07511 11.7535 2.23895 11.1118C2.40279 10.4701 2.68269 9.85574 3.07863 9.26864C3.47458 8.6679 4.01389 8.12859 4.69655 7.65072C5.39287 7.17286 6.26669 6.79739 7.31799 6.52432C8.3693 6.2376 9.63223 6.09424 11.1068 6.09424C11.4208 6.09424 11.7007 6.16934 11.9465 6.31952C12.2059 6.46971 12.3356 6.80422 12.3356 7.32304V7.73264H10.8406C9.51618 7.73264 8.42391 7.86235 7.56375 8.12176C6.70359 8.38118 6.02093 8.72251 5.51575 9.14576C5.01058 9.55536 4.63511 10.0059 4.38935 10.4974C4.15725 10.9753 4.00706 11.4532 3.93879 11.931C3.87053 12.4089 3.83639 12.8253 3.83639 13.1803ZM18.5212 20.0616V10.1902C18.5212 10.081 18.5622 9.98544 18.6441 9.90352C18.726 9.8216 18.8216 9.78064 18.9308 9.78064H19.9343C20.0435 9.78064 20.1391 9.8216 20.221 9.90352C20.3166 9.98544 20.3644 10.081 20.3644 10.1902V13.8971C20.8832 12.9823 21.4771 12.1905 22.1462 11.5214C22.8288 10.8388 23.5388 10.3131 24.2761 9.94448C25.027 9.56219 25.7506 9.37104 26.447 9.37104C27.1706 9.37104 27.6553 9.54854 27.901 9.90352C28.1605 10.2585 28.2902 10.6954 28.2902 11.2142V16.3547C28.2902 16.9282 28.1809 17.488 27.9625 18.0341C27.744 18.5802 27.3276 19.0376 26.7132 19.4062H34.639C34.639 19.9933 34.4888 20.3825 34.1884 20.5736C33.888 20.7511 33.5603 20.8398 33.2054 20.8398H22.863C22.5626 20.8398 22.2827 20.7648 22.0233 20.6146C21.7639 20.4507 21.6342 20.1162 21.6342 19.611V19.4062H23.4978C24.0303 19.4062 24.4809 19.3038 24.8495 19.099C25.2318 18.8942 25.539 18.6348 25.7711 18.3208C26.0032 17.9931 26.1739 17.6586 26.2831 17.3173C26.3923 16.9623 26.447 16.6414 26.447 16.3547V11.0094C26.0647 11.0094 25.6073 11.1255 25.0748 11.3576C24.556 11.5761 24.0167 11.9174 23.4569 12.3816C22.9107 12.8322 22.4056 13.3988 21.9414 14.0814C21.4771 14.7641 21.0948 15.5628 20.7945 16.4776C20.5078 17.3787 20.3644 18.4027 20.3644 19.5496V26.9838H20.0162C19.2653 26.9838 18.7192 26.8541 18.3778 26.5947C18.0365 26.3353 17.8658 25.8848 17.8658 25.243C17.8658 24.5194 17.9273 23.7002 18.0502 22.7854C18.1867 21.8843 18.3437 20.9764 18.5212 20.0616ZM40.9081 9.94448C40.9081 9.53488 41.031 9.18672 41.2767 8.9C41.5225 8.59963 41.8911 8.44944 42.3826 8.44944C42.8469 8.44944 43.2018 8.57915 43.4476 8.83856C43.707 9.09798 43.8504 9.412 43.8777 9.78064H51.2095C51.2095 10.3677 51.0593 10.791 50.759 11.0504C50.4586 11.2962 50.1309 11.419 49.7759 11.419H44.2258V13.467C44.2258 15.9383 43.591 17.7883 42.3212 19.0171C41.0514 20.2323 39.1058 20.8398 36.4844 20.8398C35.9792 20.8398 35.5901 20.7579 35.317 20.5941C35.0576 20.4302 34.8801 20.2118 34.7846 19.9387C34.689 19.652 34.6412 19.338 34.6412 18.9966V14.061C34.6412 12.5181 34.9894 11.3849 35.6857 10.6613C36.3957 9.93766 37.5971 9.57584 39.2902 9.57584C39.6725 9.57584 39.966 9.68507 40.1708 9.90352C40.3893 10.122 40.4985 10.4906 40.4985 11.0094V11.2142H39.2902C38.6485 11.2142 38.116 11.2893 37.6927 11.4395C37.2831 11.5897 36.9759 11.8696 36.7711 12.2792C36.58 12.6751 36.4844 13.2691 36.4844 14.061V19.2014C37.8497 19.2014 38.9625 19.0308 39.8226 18.6894C40.6965 18.3345 41.3382 17.7405 41.7478 16.9077C42.171 16.0612 42.3826 14.9143 42.3826 13.467V11.419C41.8911 11.419 41.5225 11.2757 41.2767 10.989C41.031 10.7022 40.9081 10.3541 40.9081 9.94448ZM53.6929 11.419H51.6449V19.4062H58.8129C58.8129 19.9933 58.6627 20.3825 58.3623 20.5736C58.0619 20.7511 57.7343 20.8398 57.3793 20.8398H51.0305C50.7301 20.8398 50.4434 20.7648 50.1703 20.6146C49.9109 20.4507 49.7812 20.1162 49.7812 19.611V11.419H47.1188C47.1188 10.8183 47.269 10.395 47.5694 10.1493C47.8697 9.90352 48.1974 9.78064 48.5524 9.78064H49.7812V6.91344C49.7812 6.80422 49.8222 6.70864 49.9041 6.62672C49.986 6.5448 50.0816 6.50384 50.1908 6.50384H51.2148C51.324 6.50384 51.4196 6.5448 51.5015 6.62672C51.5834 6.70864 51.6312 6.80422 51.6449 6.91344V9.78064H55.1265C55.1265 10.3677 54.9763 10.791 54.6759 11.0504C54.3755 11.2962 54.0479 11.419 53.6929 11.419ZM60.6644 12.1973V19.4062H67.2385C67.2385 19.9933 67.0883 20.3825 66.7879 20.5736C66.4875 20.7511 66.1599 20.8398 65.8049 20.8398H60.0705C59.7701 20.8398 59.4834 20.7648 59.2103 20.6146C58.9509 20.4507 58.8212 20.1162 58.8212 19.611V5.27504H59.1694C59.9339 5.27504 60.4801 5.40475 60.8078 5.66416C61.1491 5.92357 61.3198 6.37414 61.3198 7.01584C61.3198 7.72582 61.2583 8.53819 61.1354 9.45296C61.0126 10.3541 60.8555 11.2689 60.6644 12.1973ZM69.0844 19.4062H75.6585C75.6585 19.9933 75.5083 20.3825 75.2079 20.5736C74.9075 20.7511 74.5799 20.8398 74.2249 20.8398H68.4905C68.1901 20.8398 67.9034 20.7648 67.6303 20.6146C67.3709 20.4507 67.2412 20.1162 67.2412 19.611V10.1902C67.2412 10.081 67.2822 9.98544 67.3641 9.90352C67.446 9.8216 67.5416 9.78064 67.6508 9.78064H68.6543C68.7635 9.78064 68.8591 9.8216 68.941 9.90352C69.0366 9.98544 69.0844 10.081 69.0844 10.1902V19.4062ZM66.9135 6.42192C66.9135 6.08059 66.9954 5.78704 67.1593 5.54128C67.3231 5.28187 67.6576 5.15216 68.1628 5.15216C68.6543 5.15216 68.9888 5.28187 69.1663 5.54128C69.3438 5.78704 69.4326 6.08059 69.4326 6.42192C69.4326 6.76326 69.3438 7.0568 69.1663 7.30256C68.9888 7.54832 68.6543 7.6712 68.1628 7.6712C67.6576 7.6712 67.3231 7.54832 67.1593 7.30256C66.9954 7.0568 66.9135 6.76326 66.9135 6.42192ZM82.1329 11.0094V11.2142H80.3102C79.6685 11.2142 79.136 11.2893 78.7127 11.4395C78.3031 11.5897 77.9959 11.8696 77.7911 12.2792C77.6 12.6751 77.5044 13.2691 77.5044 14.061V19.3038C77.9959 19.3038 78.5557 19.1468 79.1838 18.8328C79.8255 18.5051 80.4467 18.0068 81.0474 17.3378C81.6618 16.6687 82.167 15.8154 82.563 14.7778C82.9589 13.7401 83.1569 12.5045 83.1569 11.0709V9.78064H83.8942C84.9182 9.78064 85.4302 10.4019 85.4302 11.6443C85.4302 12.013 85.3892 12.3679 85.3073 12.7093C85.2254 13.0506 85.123 13.3783 85.0001 13.6923V19.4062H91.5742C91.5742 19.9933 91.424 20.3825 91.1236 20.5736C90.8232 20.7511 90.4956 20.8398 90.1406 20.8398H84.9796C84.9386 22.5192 84.7202 23.8163 84.3242 24.731C83.942 25.6458 83.3549 26.2807 82.563 26.6357C81.7847 27.0043 80.7744 27.1886 79.5319 27.1886C79.1087 27.1886 78.8083 27.0794 78.6308 26.861C78.467 26.6425 78.385 26.2807 78.385 25.7755V25.5502H79.5319C80.1736 25.5502 80.7198 25.4956 81.1703 25.3864C81.6345 25.2772 82.01 25.0451 82.2967 24.6901C82.5971 24.3488 82.8156 23.8163 82.9521 23.0926C83.0886 22.3827 83.1569 21.4269 83.1569 20.2254V16.7848C82.679 17.6313 82.1192 18.3686 81.4775 18.9966C80.8495 19.611 80.1941 20.0889 79.5114 20.4302C78.8288 20.7716 78.1598 20.9422 77.5044 20.9422C76.7944 20.9422 76.3097 20.7648 76.0503 20.4098C75.7909 20.0411 75.6612 19.6042 75.6612 19.099V14.061C75.6612 12.5181 76.0094 11.3849 76.7057 10.6613C77.4157 9.93766 78.6172 9.57584 80.3102 9.57584C80.8973 9.57584 81.3478 9.68507 81.6618 9.90352C81.9759 10.122 82.1329 10.4906 82.1329 11.0094ZM93.4244 20.8398H92.6871C91.6631 20.8398 91.1511 20.2186 91.1511 18.9762C91.1511 18.6075 91.1853 18.2525 91.2535 17.9112C91.3354 17.5699 91.4447 17.2422 91.5812 16.9282V5.68464C91.5812 5.57542 91.6222 5.47984 91.7041 5.39792C91.786 5.316 91.8816 5.27504 91.9908 5.27504H93.0148C93.124 5.27504 93.2196 5.316 93.3015 5.39792C93.3834 5.47984 93.4244 5.57542 93.4244 5.68464V13.8766C93.9296 12.9755 94.5098 12.1905 95.1652 11.5214C95.8342 10.8388 96.5237 10.3131 97.2337 9.94448C97.9573 9.56219 98.6468 9.37104 99.3022 9.37104C100.026 9.37104 100.51 9.54854 100.756 9.90352C101.016 10.2585 101.145 10.6954 101.145 11.2142V19.4062H107.699C107.699 19.9933 107.549 20.3825 107.248 20.5736C106.948 20.7511 106.62 20.8398 106.265 20.8398H100.531C100.231 20.8398 99.9507 20.7648 99.6913 20.6146C99.4319 20.4507 99.3022 20.1162 99.3022 19.611V11.0094C98.9199 11.0094 98.4693 11.1255 97.9505 11.3576C97.4453 11.5761 96.9265 11.9174 96.394 12.3816C95.8615 12.8322 95.37 13.3988 94.9194 14.0814C94.4825 14.7641 94.1207 15.5628 93.834 16.4776C93.5609 17.3787 93.4244 18.4027 93.4244 19.5496V20.8398ZM111.613 11.419H109.565V19.4062H116.733C116.733 19.9933 116.583 20.3825 116.282 20.5736C115.982 20.7511 115.654 20.8398 115.299 20.8398H108.95C108.65 20.8398 108.363 20.7648 108.09 20.6146C107.831 20.4507 107.701 20.1162 107.701 19.611V11.419H105.039C105.039 10.8183 105.189 10.395 105.489 10.1493C105.79 9.90352 106.117 9.78064 106.472 9.78064H107.701V6.91344C107.701 6.80422 107.742 6.70864 107.824 6.62672C107.906 6.5448 108.002 6.50384 108.111 6.50384H109.135C109.244 6.50384 109.34 6.5448 109.422 6.62672C109.503 6.70864 109.551 6.80422 109.565 6.91344V9.78064H113.046C113.046 10.3677 112.896 10.791 112.596 11.0504C112.296 11.2962 111.968 11.419 111.613 11.419Z" fill="#49BCFF"/>
<path d="M3.83639 13.1803H2.55639V14.4603H3.83639V13.1803ZM12.0284 13.3032L11.6606 14.5292L11.696 14.5398L11.7319 14.5484L12.0284 13.3032ZM12.7042 13.7538L13.75 13.0156L13.75 13.0156L12.7042 13.7538ZM12.2946 17.3173L11.1652 16.7149L11.1613 16.7223L11.1575 16.7297L12.2946 17.3173ZM10.1442 19.4062L9.51242 18.293L5.29583 20.6862H10.1442V19.4062ZM18.5206 19.4062H19.8006V18.1262H18.5206V19.4062ZM18.07 20.5736L18.7212 21.6756L18.7394 21.6648L18.7572 21.6535L18.07 20.5736ZM2.38231 20.6146L1.6988 21.6968L1.71965 21.71L1.74099 21.7223L2.38231 20.6146ZM1.99319 19.4062V18.1262H0.713194V19.4062H1.99319ZM6.72407 19.099L6.44835 17.8491L6.44835 17.8491L6.72407 19.099ZM8.97688 18.2798L8.33349 17.1732L8.32218 17.1799L8.97688 18.2798ZM10.3081 17.1534L9.28009 16.3907L9.27588 16.3965L10.3081 17.1534ZM10.943 15.8837L9.70356 15.5638L9.70356 15.5638L10.943 15.8837ZM11.1068 14.7163H12.3868V13.4363H11.1068V14.7163ZM2.52567 14.3886L1.8252 15.46L1.84883 15.4754L1.87313 15.4898L2.52567 14.3886ZM3.07863 9.26864L4.13991 9.98438L4.14738 9.97304L3.07863 9.26864ZM4.69655 7.65072L3.97225 6.5953L3.96252 6.6021L4.69655 7.65072ZM7.31799 6.52432L7.63979 7.76321L7.6473 7.76126L7.65478 7.75922L7.31799 6.52432ZM11.9465 6.31952L11.279 7.41172L11.292 7.41965L11.3051 7.42727L11.9465 6.31952ZM12.3356 7.73264V9.01264H13.6156V7.73264H12.3356ZM5.51575 9.14576L6.3219 10.14L6.3299 10.1335L6.3378 10.1269L5.51575 9.14576ZM4.38935 10.4974L3.24449 9.92501L3.2412 9.93159L3.23798 9.93821L4.38935 10.4974ZM3.93879 11.931L2.67166 11.75L2.67166 11.75L3.93879 11.931ZM3.83639 13.1803V14.4603H11.1068V13.1803V11.9003H3.83639V13.1803ZM11.1068 13.1803V14.4603C11.3473 14.4603 11.5276 14.4893 11.6606 14.5292L12.0284 13.3032L12.3962 12.0772C11.983 11.9532 11.549 11.9003 11.1068 11.9003V13.1803ZM12.0284 13.3032L11.7319 14.5484C11.7409 14.5505 11.7266 14.5482 11.7024 14.5321C11.6912 14.5246 11.6811 14.5163 11.6728 14.5081C11.6645 14.5 11.6599 14.4939 11.6585 14.4919L12.7042 13.7538L13.75 13.0156C13.3992 12.5187 12.9023 12.1955 12.3249 12.058L12.0284 13.3032ZM12.7042 13.7538L11.6585 14.4919C11.6218 14.44 11.6276 14.4225 11.6413 14.4819C11.655 14.541 11.67 14.6485 11.67 14.8187H12.95H14.23C14.23 14.2388 14.1388 13.5664 13.75 13.0156L12.7042 13.7538ZM12.95 14.8187H11.67C11.67 15.4353 11.513 16.0628 11.1652 16.7149L12.2946 17.3173L13.424 17.9196C13.9501 16.9334 14.23 15.8952 14.23 14.8187H12.95ZM12.2946 17.3173L11.1575 16.7297C10.8744 17.2775 10.3628 17.8104 9.51242 18.293L10.1442 19.4062L10.7761 20.5194C11.9463 19.8552 12.8683 18.9955 13.4318 17.9048L12.2946 17.3173ZM10.1442 19.4062V20.6862H18.5206V19.4062V18.1262H10.1442V19.4062ZM18.5206 19.4062H17.2406C17.2406 19.4996 17.2345 19.5679 17.2273 19.6148C17.22 19.6619 17.2127 19.6802 17.2138 19.6775C17.2152 19.6739 17.2264 19.6464 17.2561 19.6081C17.2871 19.5682 17.3299 19.5274 17.3828 19.4937L18.07 20.5736L18.7572 21.6535C19.619 21.1051 19.8006 20.1398 19.8006 19.4062H18.5206ZM18.07 20.5736L17.4188 19.4716C17.3193 19.5305 17.2171 19.5598 17.087 19.5598V20.8398V22.1198C17.6668 22.1198 18.22 21.9717 18.7212 21.6756L18.07 20.5736ZM17.087 20.8398V19.5598H3.22199V20.8398V22.1198H17.087V20.8398ZM3.22199 20.8398V19.5598C3.14634 19.5598 3.08773 19.5439 3.02364 19.5068L2.38231 20.6146L1.74099 21.7223C2.19573 21.9856 2.69691 22.1198 3.22199 22.1198V20.8398ZM2.38231 20.6146L3.06583 19.5323C3.12935 19.5725 3.18169 19.6216 3.22095 19.6719C3.25898 19.7206 3.27704 19.7604 3.2839 19.778C3.29037 19.7947 3.2871 19.7922 3.28251 19.7625C3.27794 19.733 3.27319 19.6838 3.27319 19.611H1.99319H0.713194C0.713194 20.2638 0.874944 21.1765 1.6988 21.6968L2.38231 20.6146ZM1.99319 19.611H3.27319V19.4062H1.99319H0.713194V19.611H1.99319ZM1.99319 19.4062V20.6862H3.28343V19.4062V18.1262H1.99319V19.4062ZM3.28343 19.4062V20.6862C4.70501 20.6862 5.95105 20.5803 6.9998 20.349L6.72407 19.099L6.44835 17.8491C5.64024 18.0274 4.59252 18.1262 3.28343 18.1262V19.4062ZM6.72407 19.099L6.9998 20.349C8.00991 20.1262 8.90236 19.8138 9.63157 19.3797L8.97688 18.2798L8.32218 17.1799C7.90451 17.4286 7.29509 17.6623 6.44835 17.8491L6.72407 19.099ZM8.97688 18.2798L9.62023 19.3864C10.311 18.9848 10.907 18.5013 11.3403 17.9104L10.3081 17.1534L9.27588 16.3965C9.10845 16.6248 8.81692 16.8922 8.33352 17.1733L8.97688 18.2798ZM10.3081 17.1534L11.336 17.9161C11.7287 17.3869 12.0243 16.8159 12.1824 16.2035L10.943 15.8837L9.70356 15.5638C9.64313 15.798 9.51551 16.0735 9.28011 16.3908L10.3081 17.1534ZM10.943 15.8837L12.1823 16.2035C12.3126 15.6989 12.3868 15.2007 12.3868 14.7163H11.1068H9.8268C9.8268 14.9419 9.79178 15.222 9.70356 15.5638L10.943 15.8837ZM11.1068 14.7163V13.4363H3.83639V14.7163V15.9963H11.1068V14.7163ZM3.83639 14.7163V13.4363C3.51939 13.4363 3.31648 13.3694 3.17822 13.2875L2.52567 14.3886L1.87313 15.4898C2.47215 15.8448 3.14305 15.9963 3.83639 15.9963V14.7163ZM2.52567 14.3886L3.22615 13.3173C3.26526 13.3429 3.29455 13.3725 3.31314 13.397C3.33047 13.4199 3.33111 13.4286 3.3241 13.4099C3.30706 13.3647 3.27319 13.2347 3.27319 12.9755H1.99319H0.713194C0.713194 13.8225 0.91675 14.866 1.8252 15.46L2.52567 14.3886ZM1.99319 12.9755H3.27319C3.27319 12.4918 3.33908 11.9772 3.47917 11.4285L2.23895 11.1118L0.998739 10.7952C0.811148 11.5299 0.713194 12.2577 0.713194 12.9755H1.99319ZM2.23895 11.1118L3.47917 11.4285C3.60423 10.9387 3.82031 10.4581 4.13985 9.98434L3.07863 9.26864L2.01742 8.55294C1.54507 9.25333 1.20136 10.0016 0.998739 10.7952L2.23895 11.1118ZM3.07863 9.26864L4.14738 9.97304C4.44158 9.52668 4.85956 9.09906 5.43059 8.69934L4.69655 7.65072L3.96252 6.6021C3.16822 7.15812 2.50758 7.80912 2.00989 8.56424L3.07863 9.26864ZM4.69655 7.65072L5.42083 8.7061C5.96526 8.33248 6.69315 8.00909 7.63979 7.76321L7.31799 6.52432L6.9962 5.28543C5.84022 5.58569 4.82049 6.01323 3.97228 6.59534L4.69655 7.65072ZM7.31799 6.52432L7.65478 7.75922C8.56545 7.51086 9.70881 7.37424 11.1068 7.37424V6.09424V4.81424C9.55566 4.81424 8.17315 4.96435 6.98121 5.28942L7.31799 6.52432ZM11.1068 6.09424V7.37424C11.2073 7.37424 11.2522 7.39535 11.279 7.41172L11.9465 6.31952L12.6139 5.22732C12.1492 4.94332 11.6343 4.81424 11.1068 4.81424V6.09424ZM11.9465 6.31952L11.3051 7.42727C11.2281 7.38268 11.1652 7.32615 11.1186 7.26804C11.0736 7.21206 11.0527 7.16589 11.0449 7.1458C11.0375 7.12673 11.0409 7.12868 11.0458 7.16083C11.0506 7.19264 11.0556 7.24531 11.0556 7.32304H12.3356H13.6156C13.6156 6.68785 13.4679 5.72131 12.5878 5.21178L11.9465 6.31952ZM12.3356 7.32304H11.0556V7.73264H12.3356H13.6156V7.32304H12.3356ZM12.3356 7.73264V6.45264H10.8406V7.73264V9.01264H12.3356V7.73264ZM10.8406 7.73264V6.45264C9.4444 6.45264 8.21639 6.58799 7.19417 6.89628L7.56375 8.12176L7.93334 9.34724C8.63144 9.13671 9.58797 9.01264 10.8406 9.01264V7.73264ZM7.56375 8.12176L7.19417 6.89628C6.22479 7.18863 5.37046 7.59762 4.69371 8.16462L5.51575 9.14576L6.3378 10.1269C6.6714 9.8474 7.1824 9.57372 7.93334 9.34724L7.56375 8.12176ZM5.51575 9.14576L4.70961 8.15151C4.08844 8.65517 3.5854 9.24318 3.24449 9.92501L4.38935 10.4974L5.53422 11.0699C5.68483 10.7687 5.93273 10.4556 6.3219 10.14L5.51575 9.14576ZM4.38935 10.4974L3.23798 9.93821C2.95371 10.5235 2.76047 11.1284 2.67166 11.75L3.93879 11.931L5.20593 12.1121C5.25365 11.778 5.36079 11.4271 5.54072 11.0567L4.38935 10.4974ZM3.93879 11.931L2.67166 11.75C2.59765 12.2681 2.55639 12.7476 2.55639 13.1803H3.83639H5.11639C5.11639 12.903 5.14341 12.5497 5.20593 12.1121L3.93879 11.931ZM18.5212 20.0616L19.7778 20.3054L19.8012 20.1846V20.0616H18.5212ZM18.6441 9.90352L17.739 8.99842L17.739 8.99843L18.6441 9.90352ZM20.221 9.90352L19.3159 10.8086L19.3507 10.8434L19.388 10.8754L20.221 9.90352ZM20.3644 13.8971H19.0844V18.7485L21.4778 14.5286L20.3644 13.8971ZM22.1462 11.5214L21.2411 10.6163L21.2411 10.6163L22.1462 11.5214ZM24.2761 9.94448L24.8485 11.0894L24.8568 11.0852L24.2761 9.94448ZM27.901 9.90352L26.8486 10.6321L26.8579 10.6455L26.8676 10.6587L27.901 9.90352ZM27.9625 18.0341L26.774 17.5587L26.774 17.5587L27.9625 18.0341ZM26.7132 19.4062L26.0546 18.3087L22.092 20.6862H26.7132V19.4062ZM34.639 19.4062H35.919V18.1262H34.639V19.4062ZM34.1884 20.5736L34.8396 21.6756L34.8578 21.6648L34.8756 21.6535L34.1884 20.5736ZM22.0233 20.6146L21.3398 21.6968L21.3606 21.71L21.3819 21.7223L22.0233 20.6146ZM21.6342 19.4062V18.1262H20.3542V19.4062H21.6342ZM24.8495 19.099L24.2451 17.9707L24.2364 17.9754L24.2279 17.9801L24.8495 19.099ZM25.7711 18.3208L26.8005 19.0816L26.8082 19.0712L26.8156 19.0607L25.7711 18.3208ZM26.2831 17.3173L27.5022 17.7074L27.5044 17.7006L27.5065 17.6937L26.2831 17.3173ZM26.447 11.0094H27.727V9.72944H26.447V11.0094ZM25.0748 11.3576L25.5715 12.5373L25.5789 12.5342L25.5863 12.531L25.0748 11.3576ZM23.4569 12.3816L24.2714 13.369L24.2739 13.3669L23.4569 12.3816ZM20.7945 16.4776L19.5783 16.0783L19.5747 16.0895L20.7945 16.4776ZM20.3644 26.9838V28.2638H21.6444V26.9838H20.3644ZM18.3778 26.5947L19.1523 25.5756L19.1523 25.5756L18.3778 26.5947ZM18.0502 22.7854L16.7846 22.5937L16.783 22.6044L16.7815 22.615L18.0502 22.7854ZM18.5212 20.0616H19.8012V10.1902H18.5212H17.2412V20.0616H18.5212ZM18.5212 10.1902H19.8012C19.8012 10.3001 19.7796 10.4213 19.7284 10.5409C19.6778 10.6589 19.6102 10.7476 19.5492 10.8086L18.6441 9.90352L17.739 8.99843C17.4332 9.30423 17.2412 9.71935 17.2412 10.1902H18.5212ZM18.6441 9.90352L19.5492 10.8086C19.4881 10.8697 19.3995 10.9373 19.2814 10.9879C19.1619 11.0391 19.0406 11.0606 18.9308 11.0606V9.78064V8.50064C18.4599 8.50064 18.0448 8.69262 17.739 8.99842L18.6441 9.90352ZM18.9308 9.78064V11.0606H19.9343V9.78064V8.50064H18.9308V9.78064ZM19.9343 9.78064V11.0606C19.8245 11.0606 19.7032 11.0391 19.5837 10.9879C19.4656 10.9373 19.377 10.8697 19.3159 10.8086L20.221 9.90352L21.1261 8.99843C20.8203 8.69262 20.4052 8.50064 19.9343 8.50064V9.78064ZM20.221 9.90352L19.388 10.8754C19.329 10.8248 19.2484 10.7385 19.1837 10.6091C19.1167 10.4751 19.0844 10.3298 19.0844 10.1902H20.3644H21.6444C21.6444 9.64836 21.3852 9.21556 21.0541 8.93168L20.221 9.90352ZM20.3644 10.1902H19.0844V13.8971H20.3644H21.6444V10.1902H20.3644ZM20.3644 13.8971L21.4778 14.5286C21.9461 13.703 22.4722 13.0056 23.0513 12.4265L22.1462 11.5214L21.2411 10.6163C20.4821 11.3753 19.8204 12.2617 19.251 13.2656L20.3644 13.8971ZM22.1462 11.5214L23.0513 12.4265C23.6529 11.8249 24.2533 11.387 24.8485 11.0893L24.2761 9.94448L23.7036 8.79962C22.8243 9.23929 22.0047 9.85266 21.2411 10.6163L22.1462 11.5214ZM24.2761 9.94448L24.8568 11.0852C25.4652 10.7754 25.9906 10.651 26.447 10.651V9.37104V8.09104C25.5107 8.09104 24.5888 8.34895 23.6954 8.80379L24.2761 9.94448ZM26.447 9.37104V10.651C26.7143 10.651 26.8559 10.6852 26.913 10.7061C26.9569 10.7222 26.9036 10.7115 26.8486 10.6321L27.901 9.90352L28.9534 9.17493C28.3428 8.29288 27.306 8.09104 26.447 8.09104V9.37104ZM27.901 9.90352L26.8676 10.6587C26.9394 10.7571 27.0102 10.9166 27.0102 11.2142H28.2902H29.5702C29.5702 10.4743 29.3815 9.75996 28.9345 9.1483L27.901 9.90352ZM28.2902 11.2142H27.0102V16.3547H28.2902H29.5702V11.2142H28.2902ZM28.2902 16.3547H27.0102C27.0102 16.7611 26.9336 17.1598 26.774 17.5587L27.9625 18.0341L29.1509 18.5095C29.4283 17.8161 29.5702 17.0952 29.5702 16.3547H28.2902ZM27.9625 18.0341L26.774 17.5587C26.6805 17.7925 26.4828 18.0518 26.0546 18.3087L26.7132 19.4062L27.3718 20.5038C28.1724 20.0235 28.8075 19.368 29.1509 18.5095L27.9625 18.0341ZM26.7132 19.4062V20.6862H34.639V19.4062V18.1262H26.7132V19.4062ZM34.639 19.4062H33.359C33.359 19.4996 33.3529 19.5679 33.3457 19.6148C33.3384 19.6619 33.3312 19.6802 33.3322 19.6775C33.3336 19.6739 33.3448 19.6464 33.3745 19.6081C33.4055 19.5682 33.4483 19.5274 33.5012 19.4937L34.1884 20.5736L34.8756 21.6535C35.7374 21.1051 35.919 20.1398 35.919 19.4062H34.639ZM34.1884 20.5736L33.5372 19.4716C33.4377 19.5305 33.3355 19.5598 33.2054 19.5598V20.8398V22.1198C33.7852 22.1198 34.3384 21.9717 34.8396 21.6756L34.1884 20.5736ZM33.2054 20.8398V19.5598H22.863V20.8398V22.1198H33.2054V20.8398ZM22.863 20.8398V19.5598C22.7873 19.5598 22.7287 19.5439 22.6646 19.5068L22.0233 20.6146L21.3819 21.7223C21.8367 21.9856 22.3379 22.1198 22.863 22.1198V20.8398ZM22.0233 20.6146L22.7068 19.5323C22.7703 19.5725 22.8227 19.6216 22.8619 19.6719C22.8999 19.7206 22.918 19.7604 22.9249 19.778C22.9313 19.7947 22.9281 19.7922 22.9235 19.7625C22.9189 19.733 22.9142 19.6838 22.9142 19.611H21.6342H20.3542C20.3542 20.2638 20.5159 21.1765 21.3398 21.6968L22.0233 20.6146ZM21.6342 19.611H22.9142V19.4062H21.6342H20.3542V19.611H21.6342ZM21.6342 19.4062V20.6862H23.4978V19.4062V18.1262H21.6342V19.4062ZM23.4978 19.4062V20.6862C24.1918 20.6862 24.8687 20.5527 25.4711 20.218L24.8495 19.099L24.2279 17.9801C24.0931 18.055 23.8689 18.1262 23.4978 18.1262V19.4062ZM24.8495 19.099L25.454 20.2273C25.9847 19.943 26.4437 19.5642 26.8005 19.0816L25.7711 18.3208L24.7418 17.56C24.6343 17.7054 24.4789 17.8455 24.2451 17.9707L24.8495 19.099ZM25.7711 18.3208L26.8156 19.0607C27.1145 18.6387 27.3486 18.1876 27.5022 17.7074L26.2831 17.3173L25.064 16.9272C24.9992 17.1296 24.892 17.3475 24.7266 17.5809L25.7711 18.3208ZM26.2831 17.3173L27.5065 17.6937C27.6428 17.2507 27.727 16.8003 27.727 16.3547H26.447H25.167C25.167 16.4826 25.1419 16.6739 25.0597 16.9409L26.2831 17.3173ZM26.447 16.3547H27.727V11.0094H26.447H25.167V16.3547H26.447ZM26.447 11.0094V9.72944C25.8215 9.72944 25.1815 9.91479 24.5633 10.1842L25.0748 11.3576L25.5863 12.531C26.0331 12.3362 26.3078 12.2894 26.447 12.2894V11.0094ZM25.0748 11.3576L24.5781 10.1779C23.9155 10.4569 23.2697 10.874 22.6398 11.3963L23.4569 12.3816L24.2739 13.3669C24.7637 12.9608 25.1965 12.6952 25.5715 12.5373L25.0748 11.3576ZM23.4569 12.3816L22.6423 11.3942C21.9886 11.9336 21.4043 12.5949 20.8829 13.3617L21.9414 14.0814L22.9998 14.8012C23.4068 14.2026 23.8329 13.7308 24.2714 13.369L23.4569 12.3816ZM21.9414 14.0814L20.8829 13.3617C20.3413 14.1581 19.91 15.0682 19.5784 16.0783L20.7945 16.4776L22.0106 16.8769C22.2797 16.0574 22.613 15.3701 22.9998 14.8012L21.9414 14.0814ZM20.7945 16.4776L19.5747 16.0895C19.2406 17.1395 19.0844 18.2981 19.0844 19.5496H20.3644H21.6444C21.6444 18.5074 21.7749 17.6179 22.0142 16.8657L20.7945 16.4776ZM20.3644 19.5496H19.0844V26.9838H20.3644H21.6444V19.5496H20.3644ZM20.3644 26.9838V25.7038H20.0162V26.9838V28.2638H20.3644V26.9838ZM20.0162 26.9838V25.7038C19.7092 25.7038 19.4891 25.6768 19.3392 25.6412C19.1885 25.6054 19.1443 25.5695 19.1523 25.5756L18.3778 26.5947L17.6033 27.6138C18.2809 28.1287 19.1731 28.2638 20.0162 28.2638V26.9838ZM18.3778 26.5947L19.1523 25.5756C19.1957 25.6086 19.202 25.6383 19.1908 25.6088C19.1752 25.5677 19.1458 25.4574 19.1458 25.243H17.8658H16.5858C16.5858 26.0791 16.8093 27.0104 17.6033 27.6138L18.3778 26.5947ZM17.8658 25.243H19.1458C19.1458 24.5894 19.2015 23.8287 19.3188 22.9559L18.0502 22.7854L16.7815 22.615C16.653 23.5717 16.5858 24.4494 16.5858 25.243H17.8658ZM18.0502 22.7854L19.3157 22.9772C19.4495 22.0939 19.6035 21.2033 19.7778 20.3054L18.5212 20.0616L17.2646 19.8178C17.0839 20.7495 16.9238 21.6748 16.7846 22.5937L18.0502 22.7854ZM41.2767 8.9L42.2486 9.73302L42.2581 9.72189L42.2674 9.71055L41.2767 8.9ZM43.4476 8.83856L42.5184 9.71887L42.5303 9.73143L42.5425 9.74366L43.4476 8.83856ZM43.8777 9.78064L42.6012 9.8752L42.689 11.0606H43.8777V9.78064ZM51.2095 9.78064H52.4895V8.50064H51.2095V9.78064ZM50.759 11.0504L51.5695 12.0411L51.5827 12.0303L51.5956 12.0191L50.759 11.0504ZM44.2258 11.419V10.139H42.9458V11.419H44.2258ZM42.3212 19.0171L43.2062 19.9419L43.2113 19.9369L42.3212 19.0171ZM35.317 20.5941L34.6335 21.6763L34.6459 21.6841L34.6585 21.6917L35.317 20.5941ZM34.7846 19.9387L33.5702 20.3435L33.5733 20.3526L33.5764 20.3616L34.7846 19.9387ZM35.6857 10.6613L34.772 9.7648L34.7633 9.77376L35.6857 10.6613ZM40.1708 9.90352L39.237 10.779L39.2511 10.794L39.2657 10.8086L40.1708 9.90352ZM40.4985 11.2142V12.4942H41.7785V11.2142H40.4985ZM37.6927 11.4395L37.2646 10.2331L37.2521 10.2378L37.6927 11.4395ZM36.7711 12.2792L35.6262 11.7068L35.6223 11.7147L35.6184 11.7227L36.7711 12.2792ZM36.4844 19.2014H35.2044V20.4814H36.4844V19.2014ZM39.8226 18.6894L40.2948 19.8792L40.3044 19.8753L39.8226 18.6894ZM41.7478 16.9077L40.6029 16.3352L40.5991 16.3428L41.7478 16.9077ZM42.3826 11.419H43.6626V10.139H42.3826V11.419ZM41.2767 10.989L40.3049 11.822L40.3049 11.822L41.2767 10.989ZM40.9081 9.94448H42.1881C42.1881 9.81255 42.2191 9.76741 42.2486 9.73302L41.2767 8.9L40.3049 8.06699C39.8428 8.60603 39.6281 9.25722 39.6281 9.94448H40.9081ZM41.2767 8.9L42.2674 9.71055C42.2619 9.71731 42.2528 9.72646 42.241 9.73508C42.2355 9.7391 42.2306 9.74217 42.2267 9.74436C42.2247 9.74543 42.2232 9.74621 42.2221 9.74673C42.221 9.74726 42.2204 9.74749 42.2205 9.74748C42.2205 9.74748 42.2231 9.74639 42.229 9.74474C42.2349 9.74307 42.2441 9.74081 42.2572 9.73853C42.2836 9.73391 42.3245 9.72944 42.3826 9.72944V8.44944V7.16944C41.6184 7.16944 40.8375 7.41542 40.2861 8.08946L41.2767 8.9ZM42.3826 8.44944V9.72944C42.4979 9.72944 42.549 9.74579 42.5578 9.74898C42.5615 9.75034 42.5567 9.74895 42.5469 9.74264C42.5369 9.73618 42.5269 9.72783 42.5184 9.71887L43.4476 8.83856L44.3768 7.95825C43.8226 7.37323 43.0878 7.16944 42.3826 7.16944V8.44944ZM43.4476 8.83856L42.5425 9.74366C42.5832 9.78433 42.5963 9.80996 42.6012 9.8752L43.8777 9.78064L45.1542 9.68609C45.1044 9.01404 44.8309 8.41162 44.3527 7.93346L43.4476 8.83856ZM43.8777 9.78064V11.0606H51.2095V9.78064V8.50064H43.8777V9.78064ZM51.2095 9.78064H49.9295C49.9295 9.97069 49.9045 10.0711 49.8906 10.1104C49.8798 10.1408 49.8833 10.1153 49.9223 10.0817L50.759 11.0504L51.5956 12.0191C52.2906 11.4189 52.4895 10.5584 52.4895 9.78064H51.2095ZM50.759 11.0504L49.9484 10.0597C49.8539 10.137 49.8072 10.139 49.7759 10.139V11.419V12.699C50.4546 12.699 51.0632 12.4553 51.5695 12.0411L50.759 11.0504ZM49.7759 11.419V10.139H44.2258V11.419V12.699H49.7759V11.419ZM44.2258 11.419H42.9458V13.467H44.2258H45.5058V11.419H44.2258ZM44.2258 13.467H42.9458C42.9458 15.7326 42.3658 17.1927 41.4311 18.0973L42.3212 19.0171L43.2113 19.9369C44.8161 18.3839 45.5058 16.144 45.5058 13.467H44.2258ZM42.3212 19.0171L41.4362 18.0924C40.4992 18.989 38.9356 19.5598 36.4844 19.5598V20.8398V22.1198C39.2761 22.1198 41.6036 21.4755 43.2062 19.9419L42.3212 19.0171ZM36.4844 20.8398V19.5598C36.2979 19.5598 36.1656 19.5444 36.0774 19.5259C35.9889 19.5072 35.964 19.4895 35.9756 19.4965L35.317 20.5941L34.6585 21.6917C35.2149 22.0255 35.8708 22.1198 36.4844 22.1198V20.8398ZM35.317 20.5941L36.0005 19.5119C35.9887 19.5043 35.9826 19.4993 35.9807 19.4977C35.9789 19.4961 35.9801 19.4969 35.9828 19.5002C35.9855 19.5036 35.9883 19.5076 35.9905 19.5117C35.9927 19.5156 35.9933 19.5175 35.9927 19.5159L34.7846 19.9387L33.5764 20.3616C33.7735 20.9246 34.1457 21.3682 34.6335 21.6763L35.317 20.5941ZM34.7846 19.9387L35.9989 19.534C35.952 19.3934 35.9212 19.218 35.9212 18.9966H34.6412H33.3612C33.3612 19.458 33.4259 19.9106 33.5702 20.3435L34.7846 19.9387ZM34.6412 18.9966H35.9212V14.061H34.6412H33.3612V18.9966H34.6412ZM34.6412 14.061H35.9212C35.9212 12.6764 36.2381 11.9333 36.608 11.5488L35.6857 10.6613L34.7633 9.77376C33.7407 10.8366 33.3612 12.3599 33.3612 14.061H34.6412ZM35.6857 10.6613L36.5994 11.5577C36.9498 11.2005 37.7227 10.8558 39.2902 10.8558V9.57584V8.29584C37.4716 8.29584 35.8415 8.67478 34.772 9.76485L35.6857 10.6613ZM39.2902 9.57584V10.8558C39.3615 10.8558 39.3743 10.8662 39.3507 10.8574C39.3383 10.8528 39.3194 10.8442 39.2973 10.8297C39.275 10.815 39.2544 10.7976 39.237 10.779L40.1708 9.90352L41.1046 9.02808C40.595 8.4845 39.9225 8.29584 39.2902 8.29584V9.57584ZM40.1708 9.90352L39.2657 10.8086C39.1915 10.7345 39.1807 10.6784 39.1893 10.7075C39.1992 10.7407 39.2185 10.8332 39.2185 11.0094H40.4985H41.7785C41.7785 10.3685 41.6536 9.57612 41.0759 8.99843L40.1708 9.90352ZM40.4985 11.0094H39.2185V11.2142H40.4985H41.7785V11.0094H40.4985ZM40.4985 11.2142V9.93424H39.2902V11.2142V12.4942H40.4985V11.2142ZM39.2902 11.2142V9.93424C38.5599 9.93424 37.8706 10.0182 37.2647 10.2332L37.6927 11.4395L38.1208 12.6458C38.3614 12.5605 38.737 12.4942 39.2902 12.4942V11.2142ZM37.6927 11.4395L37.2521 10.2378C36.5197 10.5063 35.969 11.0213 35.6262 11.7068L36.7711 12.2792L37.916 12.8516C37.9828 12.7179 38.0465 12.6731 38.1334 12.6413L37.6927 11.4395ZM36.7711 12.2792L35.6184 11.7227C35.3009 12.3804 35.2044 13.207 35.2044 14.061H36.4844H37.7644C37.7644 13.3312 37.859 12.9699 37.9238 12.8357L36.7711 12.2792ZM36.4844 14.061H35.2044V19.2014H36.4844H37.7644V14.061H36.4844ZM36.4844 19.2014V20.4814C37.9415 20.4814 39.2308 20.3014 40.2948 19.8792L39.8226 18.6894L39.3505 17.4997C38.6942 17.7601 37.7579 17.9214 36.4844 17.9214V19.2014ZM39.8226 18.6894L40.3044 19.8753C41.4639 19.4043 42.3457 18.5922 42.8964 17.4726L41.7478 16.9077L40.5991 16.3428C40.3306 16.8889 39.929 17.2647 39.3409 17.5036L39.8226 18.6894ZM41.7478 16.9077L42.8926 17.4801C43.4394 16.3866 43.6626 15.0175 43.6626 13.467H42.3826H41.1026C41.1026 14.8111 40.9026 15.7358 40.6029 16.3352L41.7478 16.9077ZM42.3826 13.467H43.6626V11.419H42.3826H41.1026V13.467H42.3826ZM42.3826 11.419V10.139C42.2584 10.139 42.2068 10.1206 42.2014 10.1186C42.1996 10.1178 42.2065 10.1204 42.2181 10.1285C42.2299 10.1368 42.2406 10.1466 42.2486 10.1559L41.2767 10.989L40.3049 11.822C40.8625 12.4726 41.6379 12.699 42.3826 12.699V11.419ZM41.2767 10.989L42.2486 10.1559C42.2191 10.1216 42.1881 10.0764 42.1881 9.94448H40.9081H39.6281C39.6281 10.6317 39.8428 11.2829 40.3049 11.822L41.2767 10.989ZM51.6449 11.419V10.139H50.3649V11.419H51.6449ZM51.6449 19.4062H50.3649V20.6862H51.6449V19.4062ZM58.8129 19.4062H60.0929V18.1262H58.8129V19.4062ZM58.3623 20.5736L59.0135 21.6756L59.0317 21.6648L59.0495 21.6535L58.3623 20.5736ZM50.1703 20.6146L49.4868 21.6968L49.5195 21.7175L49.5535 21.7361L50.1703 20.6146ZM49.7812 11.419H51.0612V10.139H49.7812V11.419ZM47.1188 11.419H45.8388V12.699H47.1188V11.419ZM49.7812 9.78064V11.0606H51.0612V9.78064H49.7812ZM49.9041 6.62672L50.8092 7.53182L50.8092 7.53182L49.9041 6.62672ZM51.5015 6.62672L50.5964 7.53182L50.5964 7.53182L51.5015 6.62672ZM51.6449 6.91344H52.9249V6.83375L52.915 6.75468L51.6449 6.91344ZM51.6449 9.78064H50.3649V11.0606H51.6449V9.78064ZM55.1265 9.78064H56.4065V8.50064H55.1265V9.78064ZM54.6759 11.0504L55.4865 12.0411L55.4997 12.0303L55.5126 12.0191L54.6759 11.0504ZM53.6929 11.419V10.139H51.6449V11.419V12.699H53.6929V11.419ZM51.6449 11.419H50.3649V19.4062H51.6449H52.9249V11.419H51.6449ZM51.6449 19.4062V20.6862H58.8129V19.4062V18.1262H51.6449V19.4062ZM58.8129 19.4062H57.5329C57.5329 19.4996 57.5268 19.5679 57.5196 19.6148C57.5124 19.6619 57.5051 19.6802 57.5061 19.6775C57.5075 19.6739 57.5187 19.6464 57.5484 19.6081C57.5794 19.5682 57.6222 19.5274 57.6751 19.4937L58.3623 20.5736L59.0495 21.6535C59.9113 21.1051 60.0929 20.1398 60.0929 19.4062H58.8129ZM58.3623 20.5736L57.7111 19.4716C57.6116 19.5305 57.5094 19.5598 57.3793 19.5598V20.8398V22.1198C57.9591 22.1198 58.5123 21.9717 59.0135 21.6756L58.3623 20.5736ZM57.3793 20.8398V19.5598H51.0305V20.8398V22.1198H57.3793V20.8398ZM51.0305 20.8398V19.5598C50.954 19.5598 50.8786 19.5433 50.7872 19.493L50.1703 20.6146L49.5535 21.7361C50.0081 21.9862 50.5062 22.1198 51.0305 22.1198V20.8398ZM50.1703 20.6146L50.8538 19.5323C50.9174 19.5725 50.9697 19.6216 51.009 19.6719C51.047 19.7206 51.065 19.7604 51.0719 19.778C51.0784 19.7947 51.0751 19.7922 51.0705 19.7625C51.0659 19.733 51.0612 19.6838 51.0612 19.611H49.7812H48.5012C48.5012 20.2638 48.663 21.1765 49.4868 21.6968L50.1703 20.6146ZM49.7812 19.611H51.0612V11.419H49.7812H48.5012V19.611H49.7812ZM49.7812 11.419V10.139H47.1188V11.419V12.699H49.7812V11.419ZM47.1188 11.419H48.3988C48.3988 11.2183 48.4248 11.1156 48.4377 11.0791C48.4472 11.0524 48.4374 11.0929 48.3799 11.1399L47.5694 10.1493L46.7588 9.15862C46.029 9.75573 45.8388 10.6464 45.8388 11.419H47.1188ZM47.5694 10.1493L48.3799 11.1399C48.4744 11.0626 48.5211 11.0606 48.5524 11.0606V9.78064V8.50064C47.8738 8.50064 47.2651 8.74441 46.7588 9.15862L47.5694 10.1493ZM48.5524 9.78064V11.0606H49.7812V9.78064V8.50064H48.5524V9.78064ZM49.7812 9.78064H51.0612V6.91344H49.7812H48.5012V9.78064H49.7812ZM49.7812 6.91344H51.0612C51.0612 7.02327 51.0397 7.14453 50.9884 7.26406C50.9378 7.38211 50.8702 7.47076 50.8092 7.53182L49.9041 6.62672L48.999 5.72162C48.6932 6.02743 48.5012 6.44255 48.5012 6.91344H49.7812ZM49.9041 6.62672L50.8092 7.53182C50.7481 7.59288 50.6595 7.66047 50.5414 7.71107C50.4219 7.76229 50.3006 7.78384 50.1908 7.78384V6.50384V5.22384C49.7199 5.22384 49.3048 5.41582 48.999 5.72163L49.9041 6.62672ZM50.1908 6.50384V7.78384H51.2148V6.50384V5.22384H50.1908V6.50384ZM51.2148 6.50384V7.78384C51.105 7.78384 50.9837 7.76229 50.8642 7.71107C50.7461 7.66047 50.6575 7.59288 50.5964 7.53182L51.5015 6.62672L52.4066 5.72163C52.1008 5.41582 51.6857 5.22384 51.2148 5.22384V6.50384ZM51.5015 6.62672L50.5964 7.53182C50.5483 7.48368 50.4965 7.41748 50.4539 7.33228C50.411 7.24636 50.3854 7.15718 50.3748 7.07221L51.6449 6.91344L52.915 6.75468C52.8641 6.34751 52.6785 5.99348 52.4066 5.72163L51.5015 6.62672ZM51.6449 6.91344H50.3649V9.78064H51.6449H52.9249V6.91344H51.6449ZM51.6449 9.78064V11.0606H55.1265V9.78064V8.50064H51.6449V9.78064ZM55.1265 9.78064H53.8465C53.8465 9.97069 53.8215 10.0711 53.8075 10.1104C53.7967 10.1408 53.8003 10.1153 53.8393 10.0817L54.6759 11.0504L55.5126 12.0191C56.2076 11.4189 56.4065 10.5584 56.4065 9.78064H55.1265ZM54.6759 11.0504L53.8654 10.0597C53.7709 10.137 53.7242 10.139 53.6929 10.139V11.419V12.699C54.3715 12.699 54.9802 12.4553 55.4865 12.0411L54.6759 11.0504ZM60.6644 12.1973L59.4107 11.9392L59.3844 12.0669V12.1973H60.6644ZM60.6644 19.4062H59.3844V20.6862H60.6644V19.4062ZM67.2385 19.4062H68.5185V18.1262H67.2385V19.4062ZM66.7879 20.5736L67.4391 21.6756L67.4573 21.6648L67.4751 21.6535L66.7879 20.5736ZM59.2103 20.6146L58.5268 21.6968L58.5595 21.7175L58.5935 21.7361L59.2103 20.6146ZM58.8212 5.27504V3.99504H57.5412V5.27504H58.8212ZM60.8078 5.66416L60.0133 6.66774L60.0232 6.67559L60.0333 6.68325L60.8078 5.66416ZM61.1354 9.45296L62.4037 9.62591L62.404 9.62337L61.1354 9.45296ZM60.6644 12.1973H59.3844V19.4062H60.6644H61.9444V12.1973H60.6644ZM60.6644 19.4062V20.6862H67.2385V19.4062V18.1262H60.6644V19.4062ZM67.2385 19.4062H65.9585C65.9585 19.4996 65.9524 19.5679 65.9452 19.6148C65.938 19.6619 65.9307 19.6802 65.9317 19.6775C65.9331 19.6739 65.9443 19.6464 65.974 19.6081C66.005 19.5682 66.0478 19.5274 66.1007 19.4937L66.7879 20.5736L67.4751 21.6535C68.3369 21.1051 68.5185 20.1398 68.5185 19.4062H67.2385ZM66.7879 20.5736L66.1367 19.4716C66.0372 19.5305 65.935 19.5598 65.8049 19.5598V20.8398V22.1198C66.3847 22.1198 66.9379 21.9717 67.4391 21.6756L66.7879 20.5736ZM65.8049 20.8398V19.5598H60.0705V20.8398V22.1198H65.8049V20.8398ZM60.0705 20.8398V19.5598C59.994 19.5598 59.9186 19.5433 59.8272 19.493L59.2103 20.6146L58.5935 21.7361C59.0481 21.9862 59.5462 22.1198 60.0705 22.1198V20.8398ZM59.2103 20.6146L59.8938 19.5323C59.9574 19.5725 60.0097 19.6216 60.049 19.6719C60.087 19.7206 60.105 19.7604 60.1119 19.778C60.1184 19.7947 60.1151 19.7922 60.1105 19.7625C60.106 19.733 60.1012 19.6838 60.1012 19.611H58.8212H57.5412C57.5412 20.2638 57.703 21.1765 58.5268 21.6968L59.2103 20.6146ZM58.8212 19.611H60.1012V5.27504H58.8212H57.5412V19.611H58.8212ZM58.8212 5.27504V6.55504H59.1694V5.27504V3.99504H58.8212V5.27504ZM59.1694 5.27504V6.55504C59.4853 6.55504 59.7082 6.58242 59.8566 6.61768C60.007 6.6534 60.0372 6.68672 60.0133 6.66774L60.8078 5.66416L61.6023 4.66058C60.9257 4.12498 60.0122 3.99504 59.1694 3.99504V5.27504ZM60.8078 5.66416L60.0333 6.68325C59.9899 6.65029 59.9836 6.62063 59.9948 6.65005C60.0103 6.69121 60.0398 6.8015 60.0398 7.01584H61.3198H62.5998C62.5998 6.1798 62.3763 5.24852 61.5823 4.64507L60.8078 5.66416ZM61.3198 7.01584H60.0398C60.0398 7.65488 59.9842 8.40852 59.8668 9.28255L61.1354 9.45296L62.404 9.62337C62.5324 8.66786 62.5998 7.79675 62.5998 7.01584H61.3198ZM61.1354 9.45296L59.8672 9.28002C59.7484 10.1514 59.5963 11.0378 59.4107 11.9392L60.6644 12.1973L61.9181 12.4554C62.1148 11.4999 62.2768 10.5567 62.4037 9.62591L61.1354 9.45296ZM69.0844 19.4062H67.8044V20.6862H69.0844V19.4062ZM75.6585 19.4062H76.9385V18.1262H75.6585V19.4062ZM75.2079 20.5736L75.8591 21.6756L75.8773 21.6648L75.8951 21.6535L75.2079 20.5736ZM67.6303 20.6146L66.9468 21.6968L66.9795 21.7175L67.0135 21.7361L67.6303 20.6146ZM67.3641 9.90352L66.459 8.99842L66.459 8.99843L67.3641 9.90352ZM68.941 9.90352L68.0359 10.8086L68.0707 10.8434L68.108 10.8754L68.941 9.90352ZM67.1593 5.54128L68.2243 6.2513L68.2331 6.23815L68.2415 6.22479L67.1593 5.54128ZM69.1663 5.54128L68.1099 6.26408L68.1191 6.27751L68.1286 6.29071L69.1663 5.54128ZM69.1663 7.30256L68.1286 6.55313L68.1286 6.55314L69.1663 7.30256ZM67.1593 7.30256L66.0943 8.01258L66.0943 8.01258L67.1593 7.30256ZM69.0844 19.4062V20.6862H75.6585V19.4062V18.1262H69.0844V19.4062ZM75.6585 19.4062H74.3785C74.3785 19.4996 74.3724 19.5679 74.3652 19.6148C74.358 19.6619 74.3507 19.6802 74.3517 19.6775C74.3531 19.6739 74.3643 19.6464 74.394 19.6081C74.425 19.5682 74.4678 19.5274 74.5207 19.4937L75.2079 20.5736L75.8951 21.6535C76.7569 21.1051 76.9385 20.1398 76.9385 19.4062H75.6585ZM75.2079 20.5736L74.5567 19.4716C74.4572 19.5305 74.355 19.5598 74.2249 19.5598V20.8398V22.1198C74.8047 22.1198 75.3579 21.9717 75.8591 21.6756L75.2079 20.5736ZM74.2249 20.8398V19.5598H68.4905V20.8398V22.1198H74.2249V20.8398ZM68.4905 20.8398V19.5598C68.414 19.5598 68.3386 19.5433 68.2472 19.493L67.6303 20.6146L67.0135 21.7361C67.4681 21.9862 67.9662 22.1198 68.4905 22.1198V20.8398ZM67.6303 20.6146L68.3138 19.5323C68.3774 19.5725 68.4297 19.6216 68.469 19.6719C68.507 19.7206 68.525 19.7604 68.5319 19.778C68.5384 19.7947 68.5351 19.7922 68.5305 19.7625C68.5259 19.733 68.5212 19.6838 68.5212 19.611H67.2412H65.9612C65.9612 20.2638 66.1229 21.1765 66.9468 21.6968L67.6303 20.6146ZM67.2412 19.611H68.5212V10.1902H67.2412H65.9612V19.611H67.2412ZM67.2412 10.1902H68.5212C68.5212 10.3001 68.4997 10.4213 68.4484 10.5409C68.3978 10.6589 68.3302 10.7476 68.2692 10.8086L67.3641 9.90352L66.459 8.99843C66.1532 9.30423 65.9612 9.71935 65.9612 10.1902H67.2412ZM67.3641 9.90352L68.2692 10.8086C68.2081 10.8697 68.1195 10.9373 68.0014 10.9879C67.8819 11.0391 67.7606 11.0606 67.6508 11.0606V9.78064V8.50064C67.1799 8.50064 66.7648 8.69262 66.459 8.99842L67.3641 9.90352ZM67.6508 9.78064V11.0606H68.6543V9.78064V8.50064H67.6508V9.78064ZM68.6543 9.78064V11.0606C68.5445 11.0606 68.4232 11.0391 68.3037 10.9879C68.1857 10.9373 68.097 10.8697 68.0359 10.8086L68.941 9.90352L69.8461 8.99843C69.5403 8.69262 69.1252 8.50064 68.6543 8.50064V9.78064ZM68.941 9.90352L68.108 10.8754C68.049 10.8248 67.9684 10.7385 67.9037 10.6091C67.8367 10.4751 67.8044 10.3298 67.8044 10.1902H69.0844H70.3644C70.3644 9.64836 70.1053 9.21556 69.7741 8.93168L68.941 9.90352ZM69.0844 10.1902H67.8044V19.4062H69.0844H70.3644V10.1902H69.0844ZM66.9135 6.42192H68.1935C68.1935 6.29292 68.2215 6.25554 68.2243 6.2513L67.1593 5.54128L66.0943 4.83127C65.7694 5.31854 65.6335 5.86826 65.6335 6.42192H66.9135ZM67.1593 5.54128L68.2415 6.22479C68.2014 6.28832 68.1522 6.34066 68.1019 6.37992C68.0532 6.41795 68.0135 6.43601 67.9958 6.44286C67.9791 6.44934 67.9816 6.44607 68.0113 6.44148C68.0409 6.43691 68.0901 6.43216 68.1628 6.43216V5.15216V3.87216C67.5101 3.87216 66.5974 4.03391 66.0771 4.85777L67.1593 5.54128ZM68.1628 5.15216V6.43216C68.2304 6.43216 68.2761 6.43669 68.3034 6.44099C68.3308 6.44528 68.3338 6.4484 68.3196 6.44286C68.3044 6.43697 68.2708 6.42171 68.2293 6.39013C68.1866 6.35768 68.1448 6.31506 68.1099 6.26408L69.1663 5.54128L70.2227 4.81849C69.6949 4.04701 68.8302 3.87216 68.1628 3.87216V5.15216ZM69.1663 5.54128L68.1286 6.29071C68.1291 6.29132 68.1526 6.31429 68.1526 6.42192H69.4326H70.7126C70.7126 5.84689 70.5585 5.28277 70.204 4.79185L69.1663 5.54128ZM69.4326 6.42192H68.1526C68.1526 6.52956 68.1291 6.55253 68.1286 6.55313L69.1663 7.30256L70.204 8.05199C70.5585 7.56108 70.7126 6.99696 70.7126 6.42192H69.4326ZM69.1663 7.30256L68.1286 6.55314C68.1679 6.49873 68.2129 6.45598 68.2558 6.42508C68.2975 6.39512 68.3294 6.3818 68.341 6.37755C68.3518 6.37357 68.3449 6.37745 68.3137 6.38209C68.2825 6.38673 68.2334 6.3912 68.1628 6.3912V7.6712V8.9512C68.8075 8.9512 69.6668 8.79584 70.204 8.05199L69.1663 7.30256ZM68.1628 7.6712V6.3912C68.0872 6.3912 68.0346 6.38653 68.0013 6.38165C67.9677 6.37674 67.9613 6.37271 67.9744 6.37755C67.9883 6.38266 68.0264 6.39858 68.0754 6.43479C68.1261 6.47231 68.1792 6.52489 68.2243 6.59255L67.1593 7.30256L66.0943 8.01258C66.6252 8.80898 67.5336 8.9512 68.1628 8.9512V7.6712ZM67.1593 7.30256L68.2243 6.59255C68.2215 6.5883 68.1935 6.55093 68.1935 6.42192H66.9135H65.6335C65.6335 6.97558 65.7694 7.5253 66.0943 8.01258L67.1593 7.30256ZM82.1329 11.2142V12.4942H83.4129V11.2142H82.1329ZM78.7127 11.4395L78.2847 10.2331L78.2721 10.2378L78.7127 11.4395ZM77.7911 12.2792L76.6463 11.7068L76.6423 11.7147L76.6384 11.7227L77.7911 12.2792ZM77.5044 19.3038H76.2244V20.5838H77.5044V19.3038ZM79.1838 18.8328L79.7562 19.9777L79.7659 19.9728L79.1838 18.8328ZM81.0474 17.3378L80.1047 16.472L80.0998 16.4772L80.0951 16.4826L81.0474 17.3378ZM82.563 14.7778L81.3671 14.3214L81.3671 14.3214L82.563 14.7778ZM83.1569 9.78064V8.50064H81.8769V9.78064H83.1569ZM85.3073 12.7093L84.0626 12.4106L84.0626 12.4106L85.3073 12.7093ZM85.0001 13.6923L83.8081 13.2259L83.7201 13.4508V13.6923H85.0001ZM85.0001 19.4062H83.7201V20.6862H85.0001V19.4062ZM91.5742 19.4062H92.8542V18.1262H91.5742V19.4062ZM91.1236 20.5736L91.7748 21.6756L91.793 21.6648L91.8108 21.6535L91.1236 20.5736ZM84.9796 20.8398V19.5598H83.7304L83.7 20.8086L84.9796 20.8398ZM84.3242 24.731L83.1496 24.2226L83.1463 24.23L83.1432 24.2375L84.3242 24.731ZM82.563 26.6357L82.0394 25.4677L82.0271 25.4732L82.015 25.4789L82.563 26.6357ZM78.6308 26.861L77.6068 27.629L77.6217 27.6488L77.6374 27.6681L78.6308 26.861ZM78.385 25.5502V24.2702H77.105V25.5502H78.385ZM81.1703 25.3864L80.8771 24.1404L80.8688 24.1424L81.1703 25.3864ZM82.2967 24.6901L81.3358 23.8445L81.3179 23.8648L81.301 23.8858L82.2967 24.6901ZM82.9521 23.0926L81.6951 22.8509L81.6943 22.8553L82.9521 23.0926ZM83.1569 16.7848H84.4369V11.9136L82.0422 16.1556L83.1569 16.7848ZM81.4775 18.9966L82.3726 19.9116L82.3728 19.9114L81.4775 18.9966ZM79.5114 20.4302L78.939 19.2854L78.939 19.2854L79.5114 20.4302ZM76.0503 20.4098L75.0035 21.1464L75.0101 21.1557L75.0169 21.165L76.0503 20.4098ZM76.7057 10.6613L75.792 9.7648L75.7834 9.77376L76.7057 10.6613ZM81.6618 9.90352L82.3928 8.85276L82.3928 8.85276L81.6618 9.90352ZM82.1329 11.0094H80.8529V11.2142H82.1329H83.4129V11.0094H82.1329ZM82.1329 11.2142V9.93424H80.3102V11.2142V12.4942H82.1329V11.2142ZM80.3102 11.2142V9.93424C79.5799 9.93424 78.8906 10.0182 78.2847 10.2332L78.7127 11.4395L79.1408 12.6458C79.3814 12.5605 79.757 12.4942 80.3102 12.4942V11.2142ZM78.7127 11.4395L78.2721 10.2378C77.5397 10.5063 76.989 11.0213 76.6463 11.7068L77.7911 12.2792L78.936 12.8516C79.0029 12.7179 79.0665 12.6731 79.1534 12.6413L78.7127 11.4395ZM77.7911 12.2792L76.6384 11.7227C76.3209 12.3804 76.2244 13.207 76.2244 14.061H77.5044H78.7844C78.7844 13.3312 78.8791 12.9699 78.9438 12.8357L77.7911 12.2792ZM77.5044 14.061H76.2244V19.3038H77.5044H78.7844V14.061H77.5044ZM77.5044 19.3038V20.5838C78.2612 20.5838 79.0215 20.345 79.7562 19.9777L79.1838 18.8328L78.6113 17.6879C78.09 17.9486 77.7307 18.0238 77.5044 18.0238V19.3038ZM79.1838 18.8328L79.7659 19.9728C80.5773 19.5584 81.3192 18.9509 81.9998 18.193L81.0474 17.3378L80.0951 16.4826C79.5742 17.0626 79.0736 17.4518 78.6017 17.6928L79.1838 18.8328ZM81.0474 17.3378L81.9902 18.2036C82.7355 17.392 83.3177 16.3903 83.7589 15.2341L82.563 14.7778L81.3671 14.3214C81.0164 15.2405 80.5882 15.9455 80.1047 16.472L81.0474 17.3378ZM82.563 14.7778L83.7589 15.2341C84.224 14.0152 84.4369 12.6173 84.4369 11.0709H83.1569H81.8769C81.8769 12.3917 81.6939 13.465 81.3671 14.3214L82.563 14.7778ZM83.1569 11.0709H84.4369V9.78064H83.1569H81.8769V11.0709H83.1569ZM83.1569 9.78064V11.0606H83.8942V9.78064V8.50064H83.1569V9.78064ZM83.8942 9.78064V11.0606C84.0233 11.0606 84.0781 11.0804 84.0862 11.0837C84.0866 11.0839 84.0701 11.0748 84.0584 11.0606C84.0467 11.0464 84.1502 11.1667 84.1502 11.6443H85.4302H86.7102C86.7102 10.8795 86.5576 10.0679 86.0339 9.43248C85.4712 8.74965 84.6757 8.50064 83.8942 8.50064V9.78064ZM85.4302 11.6443H84.1502C84.1502 11.9174 84.1199 12.1718 84.0626 12.4106L85.3073 12.7093L86.5519 13.008C86.6585 12.5641 86.7102 12.1085 86.7102 11.6443H85.4302ZM85.3073 12.7093L84.0626 12.4106C83.9938 12.6972 83.9087 12.9687 83.8081 13.2259L85.0001 13.6923L86.1921 14.1588C86.3372 13.7879 86.4569 13.4041 86.5519 13.008L85.3073 12.7093ZM85.0001 13.6923H83.7201V19.4062H85.0001H86.2801V13.6923H85.0001ZM85.0001 19.4062V20.6862H91.5742V19.4062V18.1262H85.0001V19.4062ZM91.5742 19.4062H90.2942C90.2942 19.4996 90.2881 19.5679 90.2809 19.6148C90.2736 19.6619 90.2664 19.6802 90.2674 19.6775C90.2688 19.6739 90.28 19.6464 90.3097 19.6081C90.3407 19.5682 90.3835 19.5274 90.4364 19.4937L91.1236 20.5736L91.8108 21.6535C92.6726 21.1051 92.8542 20.1398 92.8542 19.4062H91.5742ZM91.1236 20.5736L90.4724 19.4716C90.3729 19.5305 90.2707 19.5598 90.1406 19.5598V20.8398V22.1198C90.7204 22.1198 91.2736 21.9717 91.7748 21.6756L91.1236 20.5736ZM90.1406 20.8398V19.5598H84.9796V20.8398V22.1198H90.1406V20.8398ZM84.9796 20.8398L83.7 20.8086C83.6607 22.4208 83.4503 23.5277 83.1496 24.2226L84.3242 24.731L85.4989 25.2395C85.99 24.1049 86.2166 22.6176 86.2592 20.8711L84.9796 20.8398ZM84.3242 24.731L83.1432 24.2375C82.8672 24.8981 82.4918 25.2649 82.0394 25.4677L82.563 26.6357L83.0866 27.8037C84.2179 27.2965 85.0167 26.3936 85.5053 25.2246L84.3242 24.731ZM82.563 26.6357L82.015 25.4789C81.4666 25.7387 80.6626 25.9086 79.5319 25.9086V27.1886V28.4686C80.8862 28.4686 82.1028 28.27 83.1109 27.7925L82.563 26.6357ZM79.5319 27.1886V25.9086C79.4239 25.9086 79.3994 25.8939 79.4266 25.9038C79.4425 25.9096 79.4731 25.9228 79.5108 25.9487C79.5494 25.9751 79.5889 26.0103 79.6242 26.0538L78.6308 26.861L77.6374 27.6681C78.1601 28.3115 78.9215 28.4686 79.5319 28.4686V27.1886ZM78.6308 26.861L79.6548 26.093C79.7124 26.1698 79.7095 26.2077 79.6949 26.1431C79.6809 26.0814 79.665 25.9647 79.665 25.7755H78.385H77.105C77.105 26.3532 77.1859 27.0678 77.6068 27.629L78.6308 26.861ZM78.385 25.7755H79.665V25.5502H78.385H77.105V25.7755H78.385ZM78.385 25.5502V26.8302H79.5319V25.5502V24.2702H78.385V25.5502ZM79.5319 25.5502V26.8302C80.2395 26.8302 80.893 26.7707 81.4719 26.6304L81.1703 25.3864L80.8688 24.1424C80.5465 24.2206 80.1078 24.2702 79.5319 24.2702V25.5502ZM81.1703 25.3864L81.4635 26.6324C82.191 26.4612 82.8187 26.081 83.2925 25.4944L82.2967 24.6901L81.301 23.8858C81.2014 24.0091 81.078 24.0932 80.8772 24.1404L81.1703 25.3864ZM82.2967 24.6901L83.2576 25.5357C83.7765 24.9461 84.0545 24.1535 84.2099 23.33L82.9521 23.0926L81.6943 22.8553C81.5766 23.479 81.4177 23.7514 81.3358 23.8445L82.2967 24.6901ZM82.9521 23.0926L84.2091 23.3344C84.3676 22.5098 84.4369 21.4624 84.4369 20.2254H83.1569H81.8769C81.8769 21.3915 81.8096 22.2555 81.6951 22.8509L82.9521 23.0926ZM83.1569 20.2254H84.4369V16.7848H83.1569H81.8769V20.2254H83.1569ZM83.1569 16.7848L82.0422 16.1556C81.6188 16.9057 81.1309 17.5448 80.5822 18.0819L81.4775 18.9966L82.3728 19.9114C83.1076 19.1923 83.7392 18.357 84.2715 17.414L83.1569 16.7848ZM81.4775 18.9966L80.5824 18.0817C80.0353 18.6169 79.4864 19.0117 78.939 19.2854L79.5114 20.4302L80.0839 21.5751C80.9018 21.1662 81.6637 20.6052 82.3726 19.9116L81.4775 18.9966ZM79.5114 20.4302L78.939 19.2854C78.4049 19.5525 77.9308 19.6622 77.5044 19.6622V20.9422V22.2222C78.3888 22.2222 79.2527 21.9907 80.0839 21.5751L79.5114 20.4302ZM77.5044 20.9422V19.6622C77.2472 19.6622 77.1079 19.6289 77.0486 19.6072C77.0015 19.59 77.0397 19.5942 77.0838 19.6545L76.0503 20.4098L75.0169 21.165C75.6355 22.0115 76.6394 22.2222 77.5044 22.2222V20.9422ZM76.0503 20.4098L77.0971 19.6731C77.0075 19.5458 76.9412 19.3737 76.9412 19.099H75.6612H74.3812C74.3812 19.8348 74.5743 20.5365 75.0035 21.1464L76.0503 20.4098ZM75.6612 19.099H76.9412V14.061H75.6612H74.3812V19.099H75.6612ZM75.6612 14.061H76.9412C76.9412 12.6764 77.2581 11.9333 77.628 11.5488L76.7057 10.6613L75.7834 9.77376C74.7607 10.8366 74.3812 12.3599 74.3812 14.061H75.6612ZM76.7057 10.6613L77.6194 11.5577C77.9698 11.2005 78.7427 10.8558 80.3102 10.8558V9.57584V8.29584C78.4916 8.29584 76.8615 8.67478 75.792 9.76485L76.7057 10.6613ZM80.3102 9.57584V10.8558C80.7664 10.8558 80.9181 10.9454 80.9309 10.9543L81.6618 9.90352L82.3928 8.85276C81.7775 8.42474 81.0281 8.29584 80.3102 8.29584V9.57584ZM81.6618 9.90352L80.9309 10.9543C80.9104 10.94 80.8887 10.9204 80.8695 10.8965C80.8507 10.8731 80.8411 10.8539 80.8375 10.8454C80.8317 10.8318 80.8529 10.8738 80.8529 11.0094H82.1329H83.4129C83.4129 10.2347 83.1659 9.39057 82.3928 8.85276L81.6618 9.90352ZM93.4244 20.8398V22.1198H94.7044V20.8398H93.4244ZM91.2535 17.9112L90.0089 17.6125L90.0032 17.6362L89.9984 17.6602L91.2535 17.9112ZM91.5812 16.9282L92.7551 17.4385L92.8612 17.1944V16.9282H91.5812ZM91.7041 5.39792L92.6092 6.30302L92.6092 6.30302L91.7041 5.39792ZM93.3015 5.39792L92.3964 6.30302L92.3964 6.30302L93.3015 5.39792ZM93.4244 13.8766H92.1444V18.7774L94.5409 14.5026L93.4244 13.8766ZM95.1652 11.5214L94.251 10.6255L94.2508 10.6257L95.1652 11.5214ZM97.2337 9.94448L97.8235 11.0805L97.8316 11.0763L97.2337 9.94448ZM100.756 9.90352L99.7038 10.6321L99.7131 10.6455L99.7228 10.6587L100.756 9.90352ZM101.145 19.4062H99.8654V20.6862H101.145V19.4062ZM107.699 19.4062H108.979V18.1262H107.699V19.4062ZM107.248 20.5736L107.9 21.6756L107.918 21.6648L107.936 21.6535L107.248 20.5736ZM99.6913 20.6146L99.0078 21.6968L99.0286 21.71L99.05 21.7223L99.6913 20.6146ZM99.3022 11.0094H100.582V9.72944H99.3022V11.0094ZM97.9505 11.3576L98.4585 12.5325L98.4659 12.5293L98.4732 12.526L97.9505 11.3576ZM96.394 12.3816L97.2208 13.3587L97.228 13.3526L97.2351 13.3464L96.394 12.3816ZM94.9194 14.0814L93.8511 13.3764L93.8462 13.3839L93.8413 13.3915L94.9194 14.0814ZM93.834 16.4776L92.6125 16.0948L92.609 16.1064L93.834 16.4776ZM93.4244 20.8398V19.5598H92.6871V20.8398V22.1198H93.4244V20.8398ZM92.6871 20.8398V19.5598C92.558 19.5598 92.5032 19.54 92.495 19.5367C92.4947 19.5366 92.5112 19.5457 92.5229 19.5598C92.5346 19.574 92.4311 19.4538 92.4311 18.9762H91.1511H89.8711C89.8711 19.741 90.0237 20.5526 90.5474 21.188C91.1101 21.8708 91.9056 22.1198 92.6871 22.1198V20.8398ZM91.1511 18.9762H92.4311C92.4311 18.6869 92.4579 18.4162 92.5087 18.1622L91.2535 17.9112L89.9984 17.6602C89.9126 18.0889 89.8711 18.5282 89.8711 18.9762H91.1511ZM91.2535 17.9112L92.4982 18.2099C92.5631 17.9392 92.649 17.6825 92.7551 17.4385L91.5812 16.9282L90.4074 16.4178C90.2404 16.8019 90.1077 17.2005 90.0089 17.6125L91.2535 17.9112ZM91.5812 16.9282H92.8612V5.68464H91.5812H90.3012V16.9282H91.5812ZM91.5812 5.68464H92.8612C92.8612 5.79447 92.8397 5.91573 92.7884 6.03526C92.7378 6.15331 92.6702 6.24196 92.6092 6.30302L91.7041 5.39792L90.799 4.49282C90.4932 4.79863 90.3012 5.21375 90.3012 5.68464H91.5812ZM91.7041 5.39792L92.6092 6.30302C92.5481 6.36408 92.4595 6.43167 92.3414 6.48227C92.2219 6.53349 92.1006 6.55504 91.9908 6.55504V5.27504V3.99504C91.5199 3.99504 91.1048 4.18702 90.799 4.49283L91.7041 5.39792ZM91.9908 5.27504V6.55504H93.0148V5.27504V3.99504H91.9908V5.27504ZM93.0148 5.27504V6.55504C92.905 6.55504 92.7837 6.53349 92.6642 6.48227C92.5461 6.43167 92.4575 6.36408 92.3964 6.30302L93.3015 5.39792L94.2066 4.49283C93.9008 4.18702 93.4857 3.99504 93.0148 3.99504V5.27504ZM93.3015 5.39792L92.3964 6.30302C92.3354 6.24196 92.2678 6.15331 92.2172 6.03526C92.1659 5.91573 92.1444 5.79447 92.1444 5.68464H93.4244H94.7044C94.7044 5.21375 94.5124 4.79863 94.2066 4.49283L93.3015 5.39792ZM93.4244 5.68464H92.1444V13.8766H93.4244H94.7044V5.68464H93.4244ZM93.4244 13.8766L94.5409 14.5026C94.9965 13.6899 95.5109 12.9977 96.0796 12.4172L95.1652 11.5214L94.2508 10.6257C93.5088 11.3832 92.8626 12.2612 92.3079 13.2507L93.4244 13.8766ZM95.1652 11.5214L96.0794 12.4174C96.6716 11.8131 97.2545 11.376 97.8235 11.0805L97.2337 9.94448L96.6438 8.80849C95.793 9.25029 94.9969 9.86446 94.251 10.6255L95.1652 11.5214ZM97.2337 9.94448L97.8316 11.0763C98.4159 10.7675 98.9007 10.651 99.3022 10.651V9.37104V8.09104C98.3929 8.09104 97.4987 8.35684 96.6358 8.81272L97.2337 9.94448ZM99.3022 9.37104V10.651C99.5695 10.651 99.7111 10.6852 99.7683 10.7061C99.8121 10.7222 99.7588 10.7115 99.7038 10.6321L100.756 9.90352L101.809 9.17493C101.198 8.29288 100.161 8.09104 99.3022 8.09104V9.37104ZM100.756 9.90352L99.7228 10.6587C99.7946 10.7571 99.8654 10.9166 99.8654 11.2142H101.145H102.425C102.425 10.4743 102.237 9.75996 101.79 9.1483L100.756 9.90352ZM101.145 11.2142H99.8654V19.4062H101.145H102.425V11.2142H101.145ZM101.145 19.4062V20.6862H107.699V19.4062V18.1262H101.145V19.4062ZM107.699 19.4062H106.419C106.419 19.4996 106.413 19.5679 106.406 19.6148C106.398 19.6619 106.391 19.6802 106.392 19.6775C106.394 19.6739 106.405 19.6464 106.435 19.6081C106.465 19.5682 106.508 19.5274 106.561 19.4937L107.248 20.5736L107.936 21.6535C108.797 21.1051 108.979 20.1398 108.979 19.4062H107.699ZM107.248 20.5736L106.597 19.4716C106.498 19.5305 106.395 19.5598 106.265 19.5598V20.8398V22.1198C106.845 22.1198 107.398 21.9717 107.9 21.6756L107.248 20.5736ZM106.265 20.8398V19.5598H100.531V20.8398V22.1198H106.265V20.8398ZM100.531 20.8398V19.5598C100.455 19.5598 100.397 19.5439 100.333 19.5068L99.6913 20.6146L99.05 21.7223C99.5047 21.9856 100.006 22.1198 100.531 22.1198V20.8398ZM99.6913 20.6146L100.375 19.5323C100.438 19.5725 100.491 19.6216 100.53 19.6719C100.568 19.7206 100.586 19.7604 100.593 19.778C100.599 19.7947 100.596 19.7922 100.591 19.7625C100.587 19.733 100.582 19.6838 100.582 19.611H99.3022H98.0222C98.0222 20.2638 98.1839 21.1765 99.0078 21.6968L99.6913 20.6146ZM99.3022 19.611H100.582V11.0094H99.3022H98.0222V19.611H99.3022ZM99.3022 11.0094V9.72944C98.674 9.72944 98.038 9.91619 97.4278 10.1892L97.9505 11.3576L98.4732 12.526C98.9006 12.3348 99.1658 12.2894 99.3022 12.2894V11.0094ZM97.9505 11.3576L97.4424 10.1827C96.7873 10.466 96.1582 10.8891 95.5529 11.4168L96.394 12.3816L97.2351 13.3464C97.6948 12.9457 98.1033 12.6861 98.4585 12.5325L97.9505 11.3576ZM96.394 12.3816L95.5672 11.4045C94.9273 11.946 94.3576 12.609 93.8511 13.3764L94.9194 14.0814L95.9877 14.7865C96.3824 14.1885 96.7958 13.7184 97.2208 13.3587L96.394 12.3816ZM94.9194 14.0814L93.8413 13.3915C93.3333 14.1852 92.9273 15.0909 92.6126 16.0948L93.834 16.4776L95.0554 16.8604C95.3142 16.0348 95.6318 15.343 95.9976 14.7714L94.9194 14.0814ZM93.834 16.4776L92.609 16.1064C92.2925 17.1507 92.1444 18.3033 92.1444 19.5496H93.4244H94.7044C94.7044 18.5021 94.8293 17.6067 95.059 16.8488L93.834 16.4776ZM93.4244 19.5496H92.1444V20.8398H93.4244H94.7044V19.5496H93.4244ZM109.565 11.419V10.139H108.285V11.419H109.565ZM109.565 19.4062H108.285V20.6862H109.565V19.4062ZM116.733 19.4062H118.013V18.1262H116.733V19.4062ZM116.282 20.5736L116.933 21.6756L116.952 21.6648L116.97 21.6535L116.282 20.5736ZM108.09 20.6146L107.407 21.6968L107.44 21.7175L107.473 21.7361L108.09 20.6146ZM107.701 11.419H108.981V10.139H107.701V11.419ZM105.039 11.419H103.759V12.699H105.039V11.419ZM107.701 9.78064V11.0606H108.981V9.78064H107.701ZM107.824 6.62672L108.729 7.53182L108.729 7.53182L107.824 6.62672ZM109.422 6.62672L108.516 7.53182L108.516 7.53182L109.422 6.62672ZM109.565 6.91344H110.845V6.83375L110.835 6.75468L109.565 6.91344ZM109.565 9.78064H108.285V11.0606H109.565V9.78064ZM113.046 9.78064H114.326V8.50064H113.046V9.78064ZM112.596 11.0504L113.406 12.0411L113.42 12.0303L113.433 12.0191L112.596 11.0504ZM111.613 11.419V10.139H109.565V11.419V12.699H111.613V11.419ZM109.565 11.419H108.285V19.4062H109.565H110.845V11.419H109.565ZM109.565 19.4062V20.6862H116.733V19.4062V18.1262H109.565V19.4062ZM116.733 19.4062H115.453C115.453 19.4996 115.447 19.5679 115.44 19.6148C115.432 19.6619 115.425 19.6802 115.426 19.6775C115.428 19.6739 115.439 19.6464 115.468 19.6081C115.499 19.5682 115.542 19.5274 115.595 19.4937L116.282 20.5736L116.97 21.6535C117.831 21.1051 118.013 20.1398 118.013 19.4062H116.733ZM116.282 20.5736L115.631 19.4716C115.532 19.5305 115.429 19.5598 115.299 19.5598V20.8398V22.1198C115.879 22.1198 116.432 21.9717 116.933 21.6756L116.282 20.5736ZM115.299 20.8398V19.5598H108.95V20.8398V22.1198H115.299V20.8398ZM108.95 20.8398V19.5598C108.874 19.5598 108.799 19.5433 108.707 19.493L108.09 20.6146L107.473 21.7361C107.928 21.9862 108.426 22.1198 108.95 22.1198V20.8398ZM108.09 20.6146L108.774 19.5323C108.837 19.5725 108.89 19.6216 108.929 19.6719C108.967 19.7206 108.985 19.7604 108.992 19.778C108.998 19.7947 108.995 19.7922 108.991 19.7625C108.986 19.733 108.981 19.6838 108.981 19.611H107.701H106.421C106.421 20.2638 106.583 21.1765 107.407 21.6968L108.09 20.6146ZM107.701 19.611H108.981V11.419H107.701H106.421V19.611H107.701ZM107.701 11.419V10.139H105.039V11.419V12.699H107.701V11.419ZM105.039 11.419H106.319C106.319 11.2183 106.345 11.1156 106.358 11.0791C106.367 11.0524 106.357 11.0929 106.3 11.1399L105.489 10.1493L104.679 9.15862C103.949 9.75573 103.759 10.6464 103.759 11.419H105.039ZM105.489 10.1493L106.3 11.1399C106.394 11.0626 106.441 11.0606 106.472 11.0606V9.78064V8.50064C105.794 8.50064 105.185 8.74441 104.679 9.15862L105.489 10.1493ZM106.472 9.78064V11.0606H107.701V9.78064V8.50064H106.472V9.78064ZM107.701 9.78064H108.981V6.91344H107.701H106.421V9.78064H107.701ZM107.701 6.91344H108.981C108.981 7.02327 108.96 7.14453 108.908 7.26406C108.858 7.38211 108.79 7.47076 108.729 7.53182L107.824 6.62672L106.919 5.72162C106.613 6.02743 106.421 6.44255 106.421 6.91344H107.701ZM107.824 6.62672L108.729 7.53182C108.668 7.59288 108.579 7.66047 108.461 7.71107C108.342 7.76229 108.221 7.78384 108.111 7.78384V6.50384V5.22384C107.64 5.22384 107.225 5.41582 106.919 5.72163L107.824 6.62672ZM108.111 6.50384V7.78384H109.135V6.50384V5.22384H108.111V6.50384ZM109.135 6.50384V7.78384C109.025 7.78384 108.904 7.76229 108.784 7.71107C108.666 7.66047 108.577 7.59288 108.516 7.53182L109.422 6.62672L110.327 5.72163C110.021 5.41582 109.606 5.22384 109.135 5.22384V6.50384ZM109.422 6.62672L108.516 7.53182C108.468 7.48368 108.417 7.41748 108.374 7.33228C108.331 7.24636 108.305 7.15718 108.295 7.07221L109.565 6.91344L110.835 6.75468C110.784 6.34751 110.598 5.99348 110.327 5.72163L109.422 6.62672ZM109.565 6.91344H108.285V9.78064H109.565H110.845V6.91344H109.565ZM109.565 9.78064V11.0606H113.046V9.78064V8.50064H109.565V9.78064ZM113.046 9.78064H111.766C111.766 9.97069 111.741 10.0711 111.728 10.1104C111.717 10.1408 111.72 10.1153 111.759 10.0817L112.596 11.0504L113.433 12.0191C114.128 11.4189 114.326 10.5584 114.326 9.78064H113.046ZM112.596 11.0504L111.785 10.0597C111.691 10.137 111.644 10.139 111.613 10.139V11.419V12.699C112.292 12.699 112.9 12.4553 113.406 12.0411L112.596 11.0504Z" fill="#49BCFF" mask="url(#path-1-outside-1_389_2177)"/>
</svg>
