<svg viewBox="0 0 224 79" fill="none" xmlns="http://www.w3.org/2000/svg">
<g filter="url(#filter0_d_15_831)">
<mask id="path-1-outside-1_15_831" maskUnits="userSpaceOnUse" x="20" y="20" width="184" height="39" fill="black">
<rect fill="white" x="20" y="20" width="184" height="39"/>
<path d="M25.2131 35.032H36.5731C37.1065 35.032 37.5865 35.096 38.0131 35.224C38.4611 35.3307 38.8131 35.5653 39.0691 35.928C39.3251 36.2907 39.4531 36.8453 39.4531 37.592C39.4531 38.9147 39.1118 40.216 38.4291 41.496C37.7678 42.776 36.6478 43.864 35.0691 44.76H48.1571C48.1571 45.6773 47.9225 46.2853 47.4531 46.584C46.9838 46.8613 46.4718 47 45.9171 47H24.2531C23.7838 47 23.3465 46.8827 22.9411 46.648C22.5358 46.392 22.3331 45.8693 22.3331 45.08V44.76H24.3491C26.4825 44.76 28.2745 44.6 29.7251 44.28C31.1758 43.96 32.3491 43.5333 33.2451 43C34.1625 42.4667 34.8558 41.88 35.3251 41.24C35.8158 40.5787 36.1465 39.9173 36.3171 39.256C36.4878 38.5947 36.5731 37.9867 36.5731 37.432H25.2131C24.4238 37.432 23.7411 37.2613 23.1651 36.92C22.6105 36.5573 22.3331 35.8213 22.3331 34.712C22.3331 33.7733 22.4611 32.8027 22.7171 31.8C22.9731 30.7973 23.4105 29.8373 24.0291 28.92C24.6478 27.9813 25.4905 27.1387 26.5571 26.392C27.6451 25.6453 29.0105 25.0587 30.6531 24.632C32.2958 24.184 34.2691 23.96 36.5731 23.96C37.0638 23.96 37.5011 24.0773 37.8851 24.312C38.2905 24.5467 38.4931 25.0693 38.4931 25.88V26.52H36.1571C34.0878 26.52 32.3811 26.7227 31.0371 27.128C29.6931 27.5333 28.6265 28.0667 27.8371 28.728C27.0478 29.368 26.4611 30.072 26.0771 30.84C25.7145 31.5867 25.4798 32.3333 25.3731 33.08C25.2665 33.8267 25.2131 34.4773 25.2131 35.032ZM48.1581 45.784V30.36C48.1581 30.1893 48.2221 30.04 48.3501 29.912C48.4781 29.784 48.6275 29.72 48.7981 29.72H50.3661C50.5368 29.72 50.6861 29.784 50.8141 29.912C50.9635 30.04 51.0381 30.1893 51.0381 30.36V36.152C51.8488 34.7227 52.7768 33.4853 53.8221 32.44C54.8888 31.3733 55.9981 30.552 57.1501 29.976C58.3235 29.3787 59.4541 29.08 60.5421 29.08C61.6728 29.08 62.4301 29.3573 62.8141 29.912C63.2195 30.4667 63.4221 31.1493 63.4221 31.96V39.992C63.4221 40.888 63.2515 41.7627 62.9101 42.616C62.5688 43.4693 61.9181 44.184 60.9581 44.76H73.3421C73.3421 45.6773 73.1075 46.2853 72.6381 46.584C72.1688 46.8613 71.6568 47 71.1021 47H54.9421C54.4728 47 54.0355 46.8827 53.6301 46.648C53.2248 46.392 53.0221 45.8693 53.0221 45.08V44.76H55.9341C56.7661 44.76 57.4701 44.6 58.0461 44.28C58.6435 43.96 59.1235 43.5547 59.4861 43.064C59.8488 42.552 60.1155 42.0293 60.2861 41.496C60.4568 40.9413 60.5421 40.44 60.5421 39.992V31.64C59.9448 31.64 59.2301 31.8213 58.3981 32.184C57.5875 32.5253 56.7448 33.0587 55.8701 33.784C55.0168 34.488 54.2275 35.3733 53.5021 36.44C52.7768 37.5067 52.1795 38.7547 51.7101 40.184C51.2621 41.592 51.0381 43.192 51.0381 44.984V56.6H50.4941C49.3208 56.6 48.4675 56.3973 47.9341 55.992C47.4008 55.5867 47.1341 54.8827 47.1341 53.88C47.1341 52.7493 47.2301 51.4693 47.4221 50.04C47.6355 48.632 47.8808 47.2133 48.1581 45.784ZM83.1376 29.976C83.1376 29.336 83.3296 28.792 83.7136 28.344C84.0976 27.8747 84.6736 27.64 85.4416 27.64C86.167 27.64 86.7216 27.8427 87.1056 28.248C87.511 28.6533 87.735 29.144 87.7776 29.72H99.2336C99.2336 30.6373 98.999 31.2987 98.5296 31.704C98.0603 32.088 97.5483 32.28 96.9936 32.28H88.3216V35.48C88.3216 39.3413 87.3296 42.232 85.3456 44.152C83.3616 46.0507 80.3216 47 76.2256 47C75.4363 47 74.8283 46.872 74.4016 46.616C73.9963 46.36 73.719 46.0187 73.5696 45.592C73.4203 45.144 73.3456 44.6533 73.3456 44.12V36.408C73.3456 33.9973 73.8896 32.2267 74.9776 31.096C76.087 29.9653 77.9643 29.4 80.6096 29.4C81.207 29.4 81.6656 29.5707 81.9856 29.912C82.327 30.2533 82.4976 30.8293 82.4976 31.64V31.96H80.6096C79.607 31.96 78.775 32.0773 78.1136 32.312C77.4736 32.5467 76.9936 32.984 76.6736 33.624C76.375 34.2427 76.2256 35.1707 76.2256 36.408V44.44C78.359 44.44 80.0976 44.1733 81.4416 43.64C82.807 43.0853 83.8096 42.1573 84.4496 40.856C85.111 39.5333 85.4416 37.7413 85.4416 35.48V32.28C84.6736 32.28 84.0976 32.056 83.7136 31.608C83.3296 31.16 83.1376 30.616 83.1376 29.976ZM103.114 32.28H99.9139V44.76H111.114C111.114 45.6773 110.879 46.2853 110.41 46.584C109.941 46.8613 109.429 47 108.874 47H98.9539C98.4845 47 98.0365 46.8827 97.6099 46.648C97.2045 46.392 97.0019 45.8693 97.0019 45.08V32.28H92.8419C92.8419 31.3413 93.0765 30.68 93.5459 30.296C94.0152 29.912 94.5272 29.72 95.0819 29.72H97.0019V25.24C97.0019 25.0693 97.0659 24.92 97.1939 24.792C97.3219 24.664 97.4712 24.6 97.6419 24.6H99.2419C99.4125 24.6 99.5619 24.664 99.6899 24.792C99.8179 24.92 99.8925 25.0693 99.9139 25.24V29.72H105.354C105.354 30.6373 105.119 31.2987 104.65 31.704C104.181 32.088 103.669 32.28 103.114 32.28ZM114.007 33.496V44.76H124.279C124.279 45.6773 124.044 46.2853 123.575 46.584C123.106 46.8613 122.594 47 122.039 47H113.079C112.61 47 112.162 46.8827 111.735 46.648C111.33 46.392 111.127 45.8693 111.127 45.08V22.68H111.671C112.866 22.68 113.719 22.8827 114.231 23.288C114.764 23.6933 115.031 24.3973 115.031 25.4C115.031 26.5093 114.935 27.7787 114.743 29.208C114.551 30.616 114.306 32.0453 114.007 33.496ZM127.163 44.76H137.435C137.435 45.6773 137.2 46.2853 136.731 46.584C136.262 46.8613 135.75 47 135.195 47H126.235C125.766 47 125.318 46.8827 124.891 46.648C124.486 46.392 124.283 45.8693 124.283 45.08V30.36C124.283 30.1893 124.347 30.04 124.475 29.912C124.603 29.784 124.752 29.72 124.923 29.72H126.491C126.662 29.72 126.811 29.784 126.939 29.912C127.088 30.04 127.163 30.1893 127.163 30.36V44.76ZM123.771 24.472C123.771 23.9387 123.899 23.48 124.155 23.096C124.411 22.6907 124.934 22.488 125.723 22.488C126.491 22.488 127.014 22.6907 127.291 23.096C127.568 23.48 127.707 23.9387 127.707 24.472C127.707 25.0053 127.568 25.464 127.291 25.848C127.014 26.232 126.491 26.424 125.723 26.424C124.934 26.424 124.411 26.232 124.155 25.848C123.899 25.464 123.771 25.0053 123.771 24.472ZM147.551 31.64V31.96H144.703C143.701 31.96 142.869 32.0773 142.207 32.312C141.567 32.5467 141.087 32.984 140.767 33.624C140.469 34.2427 140.319 35.1707 140.319 36.408V44.6C141.087 44.6 141.962 44.3547 142.943 43.864C143.946 43.352 144.917 42.5733 145.855 41.528C146.815 40.4827 147.605 39.1493 148.223 37.528C148.842 35.9067 149.151 33.976 149.151 31.736V29.72H150.303C151.903 29.72 152.703 30.6907 152.703 32.632C152.703 33.208 152.639 33.7627 152.511 34.296C152.383 34.8293 152.223 35.3413 152.031 35.832V44.76H162.303C162.303 45.6773 162.069 46.2853 161.599 46.584C161.13 46.8613 160.618 47 160.063 47H151.999C151.935 49.624 151.594 51.6507 150.975 53.08C150.378 54.5093 149.461 55.5013 148.223 56.056C147.007 56.632 145.429 56.92 143.487 56.92C142.826 56.92 142.357 56.7493 142.079 56.408C141.823 56.0667 141.695 55.5013 141.695 54.712V54.36H143.487C144.49 54.36 145.343 54.2747 146.047 54.104C146.773 53.9333 147.359 53.5707 147.807 53.016C148.277 52.4827 148.618 51.6507 148.831 50.52C149.045 49.4107 149.151 47.9173 149.151 46.04V40.664C148.405 41.9867 147.53 43.1387 146.527 44.12C145.546 45.08 144.522 45.8267 143.455 46.36C142.389 46.8933 141.343 47.16 140.319 47.16C139.21 47.16 138.453 46.8827 138.047 46.328C137.642 45.752 137.439 45.0693 137.439 44.28V36.408C137.439 33.9973 137.983 32.2267 139.071 31.096C140.181 29.9653 142.058 29.4 144.703 29.4C145.621 29.4 146.325 29.5707 146.815 29.912C147.306 30.2533 147.551 30.8293 147.551 31.64ZM165.194 47H164.042C162.442 47 161.642 46.0293 161.642 44.088C161.642 43.512 161.696 42.9573 161.802 42.424C161.93 41.8907 162.101 41.3787 162.314 40.888V23.32C162.314 23.1493 162.378 23 162.506 22.872C162.634 22.744 162.784 22.68 162.954 22.68H164.554C164.725 22.68 164.874 22.744 165.002 22.872C165.13 23 165.194 23.1493 165.194 23.32V36.12C165.984 34.712 166.89 33.4853 167.914 32.44C168.96 31.3733 170.037 30.552 171.146 29.976C172.277 29.3787 173.354 29.08 174.378 29.08C175.509 29.08 176.266 29.3573 176.65 29.912C177.056 30.4667 177.258 31.1493 177.258 31.96V44.76H187.498C187.498 45.6773 187.264 46.2853 186.794 46.584C186.325 46.8613 185.813 47 185.258 47H176.298C175.829 47 175.392 46.8827 174.986 46.648C174.581 46.392 174.378 45.8693 174.378 45.08V31.64C173.781 31.64 173.077 31.8213 172.266 32.184C171.477 32.5253 170.666 33.0587 169.834 33.784C169.002 34.488 168.234 35.3733 167.53 36.44C166.848 37.5067 166.282 38.7547 165.834 40.184C165.408 41.592 165.194 43.192 165.194 44.984V47ZM193.614 32.28H190.414V44.76H201.614C201.614 45.6773 201.379 46.2853 200.91 46.584C200.441 46.8613 199.929 47 199.374 47H189.454C188.985 47 188.537 46.8827 188.11 46.648C187.705 46.392 187.502 45.8693 187.502 45.08V32.28H183.342C183.342 31.3413 183.577 30.68 184.046 30.296C184.515 29.912 185.027 29.72 185.582 29.72H187.502V25.24C187.502 25.0693 187.566 24.92 187.694 24.792C187.822 24.664 187.971 24.6 188.142 24.6H189.742C189.913 24.6 190.062 24.664 190.19 24.792C190.318 24.92 190.393 25.0693 190.414 25.24V29.72H195.854C195.854 30.6373 195.619 31.2987 195.15 31.704C194.681 32.088 194.169 32.28 193.614 32.28Z"/>
</mask>
<path d="M25.2131 35.032H36.5731C37.1065 35.032 37.5865 35.096 38.0131 35.224C38.4611 35.3307 38.8131 35.5653 39.0691 35.928C39.3251 36.2907 39.4531 36.8453 39.4531 37.592C39.4531 38.9147 39.1118 40.216 38.4291 41.496C37.7678 42.776 36.6478 43.864 35.0691 44.76H48.1571C48.1571 45.6773 47.9225 46.2853 47.4531 46.584C46.9838 46.8613 46.4718 47 45.9171 47H24.2531C23.7838 47 23.3465 46.8827 22.9411 46.648C22.5358 46.392 22.3331 45.8693 22.3331 45.08V44.76H24.3491C26.4825 44.76 28.2745 44.6 29.7251 44.28C31.1758 43.96 32.3491 43.5333 33.2451 43C34.1625 42.4667 34.8558 41.88 35.3251 41.24C35.8158 40.5787 36.1465 39.9173 36.3171 39.256C36.4878 38.5947 36.5731 37.9867 36.5731 37.432H25.2131C24.4238 37.432 23.7411 37.2613 23.1651 36.92C22.6105 36.5573 22.3331 35.8213 22.3331 34.712C22.3331 33.7733 22.4611 32.8027 22.7171 31.8C22.9731 30.7973 23.4105 29.8373 24.0291 28.92C24.6478 27.9813 25.4905 27.1387 26.5571 26.392C27.6451 25.6453 29.0105 25.0587 30.6531 24.632C32.2958 24.184 34.2691 23.96 36.5731 23.96C37.0638 23.96 37.5011 24.0773 37.8851 24.312C38.2905 24.5467 38.4931 25.0693 38.4931 25.88V26.52H36.1571C34.0878 26.52 32.3811 26.7227 31.0371 27.128C29.6931 27.5333 28.6265 28.0667 27.8371 28.728C27.0478 29.368 26.4611 30.072 26.0771 30.84C25.7145 31.5867 25.4798 32.3333 25.3731 33.08C25.2665 33.8267 25.2131 34.4773 25.2131 35.032ZM48.1581 45.784V30.36C48.1581 30.1893 48.2221 30.04 48.3501 29.912C48.4781 29.784 48.6275 29.72 48.7981 29.72H50.3661C50.5368 29.72 50.6861 29.784 50.8141 29.912C50.9635 30.04 51.0381 30.1893 51.0381 30.36V36.152C51.8488 34.7227 52.7768 33.4853 53.8221 32.44C54.8888 31.3733 55.9981 30.552 57.1501 29.976C58.3235 29.3787 59.4541 29.08 60.5421 29.08C61.6728 29.08 62.4301 29.3573 62.8141 29.912C63.2195 30.4667 63.4221 31.1493 63.4221 31.96V39.992C63.4221 40.888 63.2515 41.7627 62.9101 42.616C62.5688 43.4693 61.9181 44.184 60.9581 44.76H73.3421C73.3421 45.6773 73.1075 46.2853 72.6381 46.584C72.1688 46.8613 71.6568 47 71.1021 47H54.9421C54.4728 47 54.0355 46.8827 53.6301 46.648C53.2248 46.392 53.0221 45.8693 53.0221 45.08V44.76H55.9341C56.7661 44.76 57.4701 44.6 58.0461 44.28C58.6435 43.96 59.1235 43.5547 59.4861 43.064C59.8488 42.552 60.1155 42.0293 60.2861 41.496C60.4568 40.9413 60.5421 40.44 60.5421 39.992V31.64C59.9448 31.64 59.2301 31.8213 58.3981 32.184C57.5875 32.5253 56.7448 33.0587 55.8701 33.784C55.0168 34.488 54.2275 35.3733 53.5021 36.44C52.7768 37.5067 52.1795 38.7547 51.7101 40.184C51.2621 41.592 51.0381 43.192 51.0381 44.984V56.6H50.4941C49.3208 56.6 48.4675 56.3973 47.9341 55.992C47.4008 55.5867 47.1341 54.8827 47.1341 53.88C47.1341 52.7493 47.2301 51.4693 47.4221 50.04C47.6355 48.632 47.8808 47.2133 48.1581 45.784ZM83.1376 29.976C83.1376 29.336 83.3296 28.792 83.7136 28.344C84.0976 27.8747 84.6736 27.64 85.4416 27.64C86.167 27.64 86.7216 27.8427 87.1056 28.248C87.511 28.6533 87.735 29.144 87.7776 29.72H99.2336C99.2336 30.6373 98.999 31.2987 98.5296 31.704C98.0603 32.088 97.5483 32.28 96.9936 32.28H88.3216V35.48C88.3216 39.3413 87.3296 42.232 85.3456 44.152C83.3616 46.0507 80.3216 47 76.2256 47C75.4363 47 74.8283 46.872 74.4016 46.616C73.9963 46.36 73.719 46.0187 73.5696 45.592C73.4203 45.144 73.3456 44.6533 73.3456 44.12V36.408C73.3456 33.9973 73.8896 32.2267 74.9776 31.096C76.087 29.9653 77.9643 29.4 80.6096 29.4C81.207 29.4 81.6656 29.5707 81.9856 29.912C82.327 30.2533 82.4976 30.8293 82.4976 31.64V31.96H80.6096C79.607 31.96 78.775 32.0773 78.1136 32.312C77.4736 32.5467 76.9936 32.984 76.6736 33.624C76.375 34.2427 76.2256 35.1707 76.2256 36.408V44.44C78.359 44.44 80.0976 44.1733 81.4416 43.64C82.807 43.0853 83.8096 42.1573 84.4496 40.856C85.111 39.5333 85.4416 37.7413 85.4416 35.48V32.28C84.6736 32.28 84.0976 32.056 83.7136 31.608C83.3296 31.16 83.1376 30.616 83.1376 29.976ZM103.114 32.28H99.9139V44.76H111.114C111.114 45.6773 110.879 46.2853 110.41 46.584C109.941 46.8613 109.429 47 108.874 47H98.9539C98.4845 47 98.0365 46.8827 97.6099 46.648C97.2045 46.392 97.0019 45.8693 97.0019 45.08V32.28H92.8419C92.8419 31.3413 93.0765 30.68 93.5459 30.296C94.0152 29.912 94.5272 29.72 95.0819 29.72H97.0019V25.24C97.0019 25.0693 97.0659 24.92 97.1939 24.792C97.3219 24.664 97.4712 24.6 97.6419 24.6H99.2419C99.4125 24.6 99.5619 24.664 99.6899 24.792C99.8179 24.92 99.8925 25.0693 99.9139 25.24V29.72H105.354C105.354 30.6373 105.119 31.2987 104.65 31.704C104.181 32.088 103.669 32.28 103.114 32.28ZM114.007 33.496V44.76H124.279C124.279 45.6773 124.044 46.2853 123.575 46.584C123.106 46.8613 122.594 47 122.039 47H113.079C112.61 47 112.162 46.8827 111.735 46.648C111.33 46.392 111.127 45.8693 111.127 45.08V22.68H111.671C112.866 22.68 113.719 22.8827 114.231 23.288C114.764 23.6933 115.031 24.3973 115.031 25.4C115.031 26.5093 114.935 27.7787 114.743 29.208C114.551 30.616 114.306 32.0453 114.007 33.496ZM127.163 44.76H137.435C137.435 45.6773 137.2 46.2853 136.731 46.584C136.262 46.8613 135.75 47 135.195 47H126.235C125.766 47 125.318 46.8827 124.891 46.648C124.486 46.392 124.283 45.8693 124.283 45.08V30.36C124.283 30.1893 124.347 30.04 124.475 29.912C124.603 29.784 124.752 29.72 124.923 29.72H126.491C126.662 29.72 126.811 29.784 126.939 29.912C127.088 30.04 127.163 30.1893 127.163 30.36V44.76ZM123.771 24.472C123.771 23.9387 123.899 23.48 124.155 23.096C124.411 22.6907 124.934 22.488 125.723 22.488C126.491 22.488 127.014 22.6907 127.291 23.096C127.568 23.48 127.707 23.9387 127.707 24.472C127.707 25.0053 127.568 25.464 127.291 25.848C127.014 26.232 126.491 26.424 125.723 26.424C124.934 26.424 124.411 26.232 124.155 25.848C123.899 25.464 123.771 25.0053 123.771 24.472ZM147.551 31.64V31.96H144.703C143.701 31.96 142.869 32.0773 142.207 32.312C141.567 32.5467 141.087 32.984 140.767 33.624C140.469 34.2427 140.319 35.1707 140.319 36.408V44.6C141.087 44.6 141.962 44.3547 142.943 43.864C143.946 43.352 144.917 42.5733 145.855 41.528C146.815 40.4827 147.605 39.1493 148.223 37.528C148.842 35.9067 149.151 33.976 149.151 31.736V29.72H150.303C151.903 29.72 152.703 30.6907 152.703 32.632C152.703 33.208 152.639 33.7627 152.511 34.296C152.383 34.8293 152.223 35.3413 152.031 35.832V44.76H162.303C162.303 45.6773 162.069 46.2853 161.599 46.584C161.13 46.8613 160.618 47 160.063 47H151.999C151.935 49.624 151.594 51.6507 150.975 53.08C150.378 54.5093 149.461 55.5013 148.223 56.056C147.007 56.632 145.429 56.92 143.487 56.92C142.826 56.92 142.357 56.7493 142.079 56.408C141.823 56.0667 141.695 55.5013 141.695 54.712V54.36H143.487C144.49 54.36 145.343 54.2747 146.047 54.104C146.773 53.9333 147.359 53.5707 147.807 53.016C148.277 52.4827 148.618 51.6507 148.831 50.52C149.045 49.4107 149.151 47.9173 149.151 46.04V40.664C148.405 41.9867 147.53 43.1387 146.527 44.12C145.546 45.08 144.522 45.8267 143.455 46.36C142.389 46.8933 141.343 47.16 140.319 47.16C139.21 47.16 138.453 46.8827 138.047 46.328C137.642 45.752 137.439 45.0693 137.439 44.28V36.408C137.439 33.9973 137.983 32.2267 139.071 31.096C140.181 29.9653 142.058 29.4 144.703 29.4C145.621 29.4 146.325 29.5707 146.815 29.912C147.306 30.2533 147.551 30.8293 147.551 31.64ZM165.194 47H164.042C162.442 47 161.642 46.0293 161.642 44.088C161.642 43.512 161.696 42.9573 161.802 42.424C161.93 41.8907 162.101 41.3787 162.314 40.888V23.32C162.314 23.1493 162.378 23 162.506 22.872C162.634 22.744 162.784 22.68 162.954 22.68H164.554C164.725 22.68 164.874 22.744 165.002 22.872C165.13 23 165.194 23.1493 165.194 23.32V36.12C165.984 34.712 166.89 33.4853 167.914 32.44C168.96 31.3733 170.037 30.552 171.146 29.976C172.277 29.3787 173.354 29.08 174.378 29.08C175.509 29.08 176.266 29.3573 176.65 29.912C177.056 30.4667 177.258 31.1493 177.258 31.96V44.76H187.498C187.498 45.6773 187.264 46.2853 186.794 46.584C186.325 46.8613 185.813 47 185.258 47H176.298C175.829 47 175.392 46.8827 174.986 46.648C174.581 46.392 174.378 45.8693 174.378 45.08V31.64C173.781 31.64 173.077 31.8213 172.266 32.184C171.477 32.5253 170.666 33.0587 169.834 33.784C169.002 34.488 168.234 35.3733 167.53 36.44C166.848 37.5067 166.282 38.7547 165.834 40.184C165.408 41.592 165.194 43.192 165.194 44.984V47ZM193.614 32.28H190.414V44.76H201.614C201.614 45.6773 201.379 46.2853 200.91 46.584C200.441 46.8613 199.929 47 199.374 47H189.454C188.985 47 188.537 46.8827 188.11 46.648C187.705 46.392 187.502 45.8693 187.502 45.08V32.28H183.342C183.342 31.3413 183.577 30.68 184.046 30.296C184.515 29.912 185.027 29.72 185.582 29.72H187.502V25.24C187.502 25.0693 187.566 24.92 187.694 24.792C187.822 24.664 187.971 24.6 188.142 24.6H189.742C189.913 24.6 190.062 24.664 190.19 24.792C190.318 24.92 190.393 25.0693 190.414 25.24V29.72H195.854C195.854 30.6373 195.619 31.2987 195.15 31.704C194.681 32.088 194.169 32.28 193.614 32.28Z" fill="white"/>
<path d="M25.2131 35.032H23.2131V37.032H25.2131V35.032ZM38.0131 35.224L37.4384 37.1397L37.4937 37.1562L37.5499 37.1696L38.0131 35.224ZM39.0691 35.928L40.7031 34.7746L40.7031 34.7746L39.0691 35.928ZM38.4291 41.496L36.6644 40.5548L36.6583 40.5664L36.6523 40.578L38.4291 41.496ZM35.0691 44.76L34.0819 43.0206L27.4935 46.76H35.0691V44.76ZM48.1571 44.76H50.1571V42.76H48.1571V44.76ZM47.4531 46.584L48.4706 48.3059L48.499 48.2891L48.5269 48.2713L47.4531 46.584ZM22.9411 46.648L21.8731 48.339L21.9057 48.3595L21.9391 48.3789L22.9411 46.648ZM22.3331 44.76V42.76H20.3331V44.76H22.3331ZM29.7251 44.28L29.2943 42.327L29.2943 42.327L29.7251 44.28ZM33.2451 43L32.2399 41.271L32.231 41.2762L32.2222 41.2814L33.2451 43ZM35.3251 41.24L33.7189 40.0483L33.7123 40.0573L35.3251 41.24ZM36.3171 39.256L34.3806 38.7562L34.3806 38.7562L36.3171 39.256ZM36.5731 37.432H38.5731V35.432H36.5731V37.432ZM23.1651 36.92L22.0706 38.5939L22.1076 38.6181L22.1455 38.6406L23.1651 36.92ZM24.0291 28.92L25.6873 30.0383L25.6932 30.0295L25.699 30.0206L24.0291 28.92ZM26.5571 26.392L25.4254 24.743L25.4178 24.7482L25.4102 24.7535L26.5571 26.392ZM30.6531 24.632L31.1559 26.5678L31.1677 26.5647L31.1794 26.5615L30.6531 24.632ZM37.8851 24.312L36.8422 26.0186L36.8625 26.0309L36.8831 26.0428L37.8851 24.312ZM38.4931 26.52V28.52H40.4931V26.52H38.4931ZM27.8371 28.728L29.0967 30.2815L29.1092 30.2714L29.1216 30.261L27.8371 28.728ZM26.0771 30.84L24.2883 29.9456L24.2831 29.9559L24.2781 29.9662L26.0771 30.84ZM25.3731 33.08L23.3932 32.7972L23.3932 32.7972L25.3731 33.08ZM25.2131 35.032V37.032H36.5731V35.032V33.032H25.2131V35.032ZM36.5731 35.032V37.032C36.9489 37.032 37.2307 37.0773 37.4384 37.1397L38.0131 35.224L38.5878 33.3083C37.9422 33.1147 37.264 33.032 36.5731 33.032V35.032ZM38.0131 35.224L37.5499 37.1696C37.564 37.173 37.5415 37.1693 37.5037 37.1441C37.4863 37.1325 37.4705 37.1195 37.4575 37.1067C37.4446 37.094 37.4374 37.0845 37.4352 37.0814L39.0691 35.928L40.7031 34.7746C40.155 33.9982 39.3786 33.4932 38.4764 33.2784L38.0131 35.224ZM39.0691 35.928L37.4352 37.0814C37.3779 37.0002 37.3869 36.9728 37.4083 37.0657C37.4297 37.1581 37.4531 37.326 37.4531 37.592H39.4531H41.4531C41.4531 36.6859 41.3106 35.6353 40.7031 34.7746L39.0691 35.928ZM39.4531 37.592H37.4531C37.4531 38.5554 37.2079 39.5359 36.6644 40.5548L38.4291 41.496L40.1938 42.4372C41.0157 40.8961 41.4531 39.2739 41.4531 37.592H39.4531ZM38.4291 41.496L36.6523 40.578C36.2101 41.4339 35.4107 42.2665 34.0819 43.0206L35.0691 44.76L36.0563 46.4994C37.8849 45.4615 39.3255 44.1181 40.206 42.414L38.4291 41.496ZM35.0691 44.76V46.76H48.1571V44.76V42.76H35.0691V44.76ZM48.1571 44.76H46.1571C46.1571 44.9059 46.1477 45.0125 46.1364 45.0859C46.1251 45.1595 46.1137 45.188 46.1153 45.1839C46.1175 45.1782 46.1349 45.1353 46.1814 45.0754C46.2298 45.0131 46.2967 44.9493 46.3794 44.8967L47.4531 46.584L48.5269 48.2713C49.8735 47.4144 50.1571 45.9062 50.1571 44.76H48.1571ZM47.4531 46.584L46.4357 44.8621C46.2801 44.9541 46.1204 45 45.9171 45V47V49C46.8232 49 47.6875 48.7686 48.4706 48.3059L47.4531 46.584ZM45.9171 47V45H24.2531V47V49H45.9171V47ZM24.2531 47V45C24.1349 45 24.0433 44.9751 23.9432 44.9171L22.9411 46.648L21.9391 48.3789C22.6496 48.7902 23.4327 49 24.2531 49V47ZM22.9411 46.648L24.0091 44.957C24.1084 45.0197 24.1902 45.0966 24.2515 45.1751C24.3109 45.2512 24.3391 45.3133 24.3498 45.3409C24.36 45.367 24.3549 45.3631 24.3477 45.3167C24.3405 45.2705 24.3331 45.1936 24.3331 45.08H22.3331H20.3331C20.3331 46.0999 20.5859 47.526 21.8731 48.339L22.9411 46.648ZM22.3331 45.08H24.3331V44.76H22.3331H20.3331V45.08H22.3331ZM22.3331 44.76V46.76H24.3491V44.76V42.76H22.3331V44.76ZM24.3491 44.76V46.76C26.5703 46.76 28.5173 46.5945 30.1559 46.233L29.7251 44.28L29.2943 42.327C28.0316 42.6055 26.3946 42.76 24.3491 42.76V44.76ZM29.7251 44.28L30.1559 46.233C31.7343 45.8849 33.1287 45.3968 34.2681 44.7186L33.2451 43L32.2222 41.2814C31.5696 41.6699 30.6173 42.0351 29.2943 42.327L29.7251 44.28ZM33.2451 43L34.2504 44.729C35.3297 44.1015 36.2609 43.346 36.9379 42.4227L35.3251 41.24L33.7123 40.0573C33.4507 40.414 32.9952 40.8319 32.2399 41.271L33.2451 43ZM35.3251 41.24L36.9313 42.4317C37.5448 41.6048 38.0068 40.7126 38.2537 39.7558L36.3171 39.256L34.3806 38.7562C34.2862 39.1221 34.0867 39.5526 33.7189 40.0483L35.3251 41.24ZM36.3171 39.256L38.2537 39.7558C38.4572 38.9672 38.5731 38.1888 38.5731 37.432H36.5731H34.5731C34.5731 37.7845 34.5184 38.2221 34.3806 38.7562L36.3171 39.256ZM36.5731 37.432V35.432H25.2131V37.432V39.432H36.5731V37.432ZM25.2131 37.432V35.432C24.7178 35.432 24.4008 35.3274 24.1847 35.1994L23.1651 36.92L22.1455 38.6406C23.0815 39.1952 24.1298 39.432 25.2131 39.432V37.432ZM23.1651 36.92L24.2596 35.2461C24.3207 35.286 24.3665 35.3322 24.3955 35.3706C24.4226 35.4063 24.4236 35.4199 24.4127 35.3908C24.386 35.3201 24.3331 35.117 24.3331 34.712H22.3331H20.3331C20.3331 36.0354 20.6512 37.6658 22.0706 38.5939L23.1651 36.92ZM22.3331 34.712H24.3331C24.3331 33.9563 24.4361 33.1521 24.655 32.2948L22.7171 31.8L20.7793 31.3052C20.4862 32.4533 20.3331 33.5904 20.3331 34.712H22.3331ZM22.7171 31.8L24.655 32.2948C24.8504 31.5294 25.188 30.7786 25.6873 30.0383L24.0291 28.92L22.371 27.8017C21.6329 28.8961 21.0959 30.0653 20.7793 31.3052L22.7171 31.8ZM24.0291 28.92L25.699 30.0206C26.1587 29.3232 26.8118 28.655 27.7041 28.0305L26.5571 26.392L25.4102 24.7535C24.1691 25.6223 23.1369 26.6395 22.3592 27.8194L24.0291 28.92ZM26.5571 26.392L27.6888 28.041C28.5395 27.4572 29.6768 26.952 31.1559 26.5678L30.6531 24.632L30.1503 22.6962C28.3441 23.1654 26.7508 23.8334 25.4254 24.743L26.5571 26.392ZM30.6531 24.632L31.1794 26.5615C32.6023 26.1735 34.3888 25.96 36.5731 25.96V23.96V21.96C34.1495 21.96 31.9893 22.1945 30.1269 22.7025L30.6531 24.632ZM36.5731 23.96V25.96C36.7302 25.96 36.8004 25.993 36.8422 26.0186L37.8851 24.312L38.928 22.6054C38.2019 22.1617 37.3974 21.96 36.5731 21.96V23.96ZM37.8851 24.312L36.8831 26.0428C36.7627 25.9732 36.6644 25.8849 36.5915 25.7941C36.5213 25.7066 36.4886 25.6345 36.4764 25.6031C36.4648 25.5733 36.4702 25.5763 36.4778 25.6265C36.4854 25.6762 36.4931 25.7585 36.4931 25.88H38.4931H40.4931C40.4931 24.8875 40.2624 23.3773 38.8872 22.5811L37.8851 24.312ZM38.4931 25.88H36.4931V26.52H38.4931H40.4931V25.88H38.4931ZM38.4931 26.52V24.52H36.1571V26.52V28.52H38.4931V26.52ZM36.1571 26.52V24.52C33.9756 24.52 32.0569 24.7315 30.4596 25.2132L31.0371 27.128L31.6146 29.0428C32.7054 28.7138 34.2 28.52 36.1571 28.52V26.52ZM31.0371 27.128L30.4596 25.2132C28.945 25.67 27.6101 26.309 26.5527 27.195L27.8371 28.728L29.1216 30.261C29.6428 29.8243 30.4413 29.3967 31.6146 29.0428L31.0371 27.128ZM27.8371 28.728L26.5775 27.1745C25.6069 27.9614 24.8209 28.8802 24.2883 29.9456L26.0771 30.84L27.866 31.7344C28.1013 31.2638 28.4886 30.7746 29.0967 30.2815L27.8371 28.728ZM26.0771 30.84L24.2781 29.9662C23.8339 30.8807 23.532 31.8258 23.3932 32.7972L25.3731 33.08L27.353 33.3628C27.4276 32.8409 27.595 32.2927 27.8761 31.7138L26.0771 30.84ZM25.3731 33.08L23.3932 32.7972C23.2776 33.6066 23.2131 34.3559 23.2131 35.032H25.2131H27.2131C27.2131 34.5987 27.2553 34.0467 27.353 33.3628L25.3731 33.08ZM48.1581 45.784L50.1215 46.165L50.1581 45.9762V45.784H48.1581ZM48.3501 29.912L46.9359 28.4978L46.9359 28.4978L48.3501 29.912ZM50.8141 29.912L49.3999 31.3262L49.4542 31.3805L49.5125 31.4305L50.8141 29.912ZM51.0381 36.152H49.0381V43.7323L52.7778 37.1387L51.0381 36.152ZM53.8221 32.44L52.4079 31.0258L52.4079 31.0258L53.8221 32.44ZM57.1501 29.976L58.0446 31.7649L58.051 31.7616L58.0575 31.7583L57.1501 29.976ZM62.8141 29.912L61.1697 31.0504L61.1843 31.0714L61.1993 31.092L62.8141 29.912ZM62.9101 42.616L61.0532 41.8732L61.0532 41.8732L62.9101 42.616ZM60.9581 44.76L59.9291 43.045L53.7375 46.76H60.9581V44.76ZM73.3421 44.76H75.3421V42.76H73.3421V44.76ZM72.6381 46.584L73.6556 48.3059L73.684 48.2891L73.7119 48.2713L72.6381 46.584ZM53.6301 46.648L52.5621 48.339L52.5947 48.3596L52.6281 48.3789L53.6301 46.648ZM53.0221 44.76V42.76H51.0221V44.76H53.0221ZM58.0461 44.28L57.1017 42.517L57.0882 42.5243L57.0748 42.5317L58.0461 44.28ZM59.4861 43.064L61.0945 44.2528L61.1065 44.2365L61.1182 44.22L59.4861 43.064ZM60.2861 41.496L62.191 42.1055L62.1944 42.0949L62.1977 42.0842L60.2861 41.496ZM60.5421 31.64H62.5421V29.64H60.5421V31.64ZM58.3981 32.184L59.1742 34.0273L59.1858 34.0224L59.1973 34.0174L58.3981 32.184ZM55.8701 33.784L57.1429 35.3268L57.1468 35.3235L55.8701 33.784ZM51.7101 40.184L49.8099 39.5601L49.8071 39.5688L49.8043 39.5776L51.7101 40.184ZM51.0381 56.6V58.6H53.0381V56.6H51.0381ZM47.9341 55.992L49.1443 54.3997L49.1443 54.3997L47.9341 55.992ZM47.4221 50.04L45.4447 49.7404L45.4422 49.757L45.4399 49.7737L47.4221 50.04ZM48.1581 45.784H50.1581V30.36H48.1581H46.1581V45.784H48.1581ZM48.1581 30.36H50.1581C50.1581 30.5316 50.1245 30.7211 50.0444 30.9078C49.9654 31.0923 49.8597 31.2308 49.7643 31.3262L48.3501 29.912L46.9359 28.4978C46.4581 28.9756 46.1581 29.6242 46.1581 30.36H48.1581ZM48.3501 29.912L49.7643 31.3262C49.6689 31.4216 49.5304 31.5272 49.346 31.6063C49.1592 31.6863 48.9697 31.72 48.7981 31.72V29.72V27.72C48.0624 27.72 47.4137 28.02 46.9359 28.4978L48.3501 29.912ZM48.7981 29.72V31.72H50.3661V29.72V27.72H48.7981V29.72ZM50.3661 29.72V31.72C50.1945 31.72 50.0051 31.6863 49.8183 31.6063C49.6338 31.5272 49.4953 31.4216 49.3999 31.3262L50.8141 29.912L52.2283 28.4978C51.7505 28.02 51.1019 27.72 50.3661 27.72V29.72ZM50.8141 29.912L49.5125 31.4305C49.4203 31.3514 49.2944 31.2167 49.1933 31.0144C49.0886 30.8051 49.0381 30.578 49.0381 30.36H51.0381H53.0381C53.0381 29.5133 52.6332 28.8371 52.1157 28.3935L50.8141 29.912ZM51.0381 30.36H49.0381V36.152H51.0381H53.0381V30.36H51.0381ZM51.0381 36.152L52.7778 37.1387C53.5095 35.8486 54.3315 34.7591 55.2363 33.8542L53.8221 32.44L52.4079 31.0258C51.2221 32.2116 50.1881 33.5967 49.2985 35.1653L51.0381 36.152ZM53.8221 32.44L55.2363 33.8542C56.1764 32.9141 57.1145 32.2299 58.0446 31.7649L57.1501 29.976L56.2557 28.1871C54.8817 28.8741 53.6012 29.8325 52.4079 31.0258L53.8221 32.44ZM57.1501 29.976L58.0575 31.7583C59.0081 31.2744 59.8291 31.08 60.5421 31.08V29.08V27.08C59.0792 27.08 57.6388 27.483 56.2428 28.1937L57.1501 29.976ZM60.5421 29.08V31.08C60.9599 31.08 61.1812 31.1334 61.2704 31.166C61.339 31.1911 61.2556 31.1745 61.1697 31.0504L62.8141 29.912L64.4585 28.7736C63.5044 27.3954 61.8844 27.08 60.5421 27.08V29.08ZM62.8141 29.912L61.1993 31.092C61.3116 31.2457 61.4221 31.4949 61.4221 31.96H63.4221H65.4221C65.4221 30.8038 65.1273 29.6877 64.4289 28.732L62.8141 29.912ZM63.4221 31.96H61.4221V39.992H63.4221H65.4221V31.96H63.4221ZM63.4221 39.992H61.4221C61.4221 40.627 61.3025 41.2499 61.0532 41.8732L62.9101 42.616L64.7671 43.3588C65.2004 42.2754 65.4221 41.149 65.4221 39.992H63.4221ZM62.9101 42.616L61.0532 41.8732C60.9071 42.2385 60.5981 42.6436 59.9291 43.045L60.9581 44.76L61.9871 46.475C63.2381 45.7244 64.2305 44.7002 64.7671 43.3588L62.9101 42.616ZM60.9581 44.76V46.76H73.3421V44.76V42.76H60.9581V44.76ZM73.3421 44.76H71.3421C71.3421 44.9059 71.3327 45.0125 71.3214 45.0859C71.3101 45.1595 71.2987 45.188 71.3003 45.1838C71.3025 45.1782 71.3199 45.1353 71.3664 45.0754C71.4148 45.0131 71.4817 44.9493 71.5644 44.8967L72.6381 46.584L73.7119 48.2713C75.0585 47.4144 75.3421 45.9062 75.3421 44.76H73.3421ZM72.6381 46.584L71.6207 44.8621C71.4651 44.9541 71.3054 45 71.1021 45V47V49C72.0082 49 72.8725 48.7686 73.6556 48.3059L72.6381 46.584ZM71.1021 47V45H54.9421V47V49H71.1021V47ZM54.9421 47V45C54.8239 45 54.7323 44.9751 54.6322 44.9171L53.6301 46.648L52.6281 48.3789C53.3386 48.7902 54.1217 49 54.9421 49V47ZM53.6301 46.648L54.6981 44.957C54.7974 45.0197 54.8792 45.0966 54.9405 45.1751C54.9999 45.2512 55.0281 45.3133 55.0388 45.3409C55.049 45.367 55.0439 45.3631 55.0367 45.3167C55.0295 45.2705 55.0221 45.1936 55.0221 45.08H53.0221H51.0221C51.0221 46.0999 51.2749 47.526 52.5621 48.339L53.6301 46.648ZM53.0221 45.08H55.0221V44.76H53.0221H51.0221V45.08H53.0221ZM53.0221 44.76V46.76H55.9341V44.76V42.76H53.0221V44.76ZM55.9341 44.76V46.76C57.0184 46.76 58.0761 46.5513 59.0174 46.0283L58.0461 44.28L57.0748 42.5317C56.8642 42.6487 56.5139 42.76 55.9341 42.76V44.76ZM58.0461 44.28L58.9906 46.043C59.8198 45.5987 60.5371 45.0069 61.0945 44.2528L59.4861 43.064L57.8778 41.8752C57.7098 42.1025 57.4671 42.3213 57.1017 42.517L58.0461 44.28ZM59.4861 43.064L61.1182 44.22C61.5851 43.5608 61.9509 42.8559 62.191 42.1055L60.2861 41.496L58.3813 40.8865C58.28 41.2028 58.1124 41.5432 57.8541 41.908L59.4861 43.064ZM60.2861 41.496L62.1977 42.0842C62.4107 41.392 62.5421 40.6882 62.5421 39.992H60.5421H58.5421C58.5421 40.1918 58.5029 40.4906 58.3746 40.9078L60.2861 41.496ZM60.5421 39.992H62.5421V31.64H60.5421H58.5421V39.992H60.5421ZM60.5421 31.64V29.64C59.5649 29.64 58.5648 29.9296 57.599 30.3506L58.3981 32.184L59.1973 34.0174C59.8955 33.7131 60.3247 33.64 60.5421 33.64V31.64ZM58.3981 32.184L57.622 30.3407C56.5867 30.7767 55.5776 31.4284 54.5935 32.2445L55.8701 33.784L57.1468 35.3235C57.912 34.689 58.5882 34.274 59.1742 34.0273L58.3981 32.184ZM55.8701 33.784L54.5974 32.2413C53.5759 33.0839 52.663 34.1173 51.8483 35.3154L53.5021 36.44L55.156 37.5646C55.792 36.6294 56.4576 35.8921 57.1429 35.3267L55.8701 33.784ZM53.5021 36.44L51.8483 35.3154C51.0021 36.5598 50.3282 37.9819 49.8099 39.5601L51.7101 40.184L53.6103 40.8079C54.0308 39.5275 54.5515 38.4536 55.156 37.5646L53.5021 36.44ZM51.7101 40.184L49.8043 39.5776C49.2823 41.2182 49.0381 43.0285 49.0381 44.984H51.0381H53.0381C53.0381 43.3555 53.242 41.9658 53.616 40.7904L51.7101 40.184ZM51.0381 44.984H49.0381V56.6H51.0381H53.0381V44.984H51.0381ZM51.0381 56.6V54.6H50.4941V56.6V58.6H51.0381V56.6ZM50.4941 56.6V54.6C50.0144 54.6 49.6705 54.5578 49.4363 54.5021C49.2008 54.4462 49.1317 54.3901 49.1443 54.3997L47.9341 55.992L46.724 57.5843C47.7826 58.3889 49.1767 58.6 50.4941 58.6V56.6ZM47.9341 55.992L49.1443 54.3997C49.212 54.4512 49.2219 54.4975 49.2044 54.4515C49.1801 54.3872 49.1341 54.2149 49.1341 53.88H47.1341H45.1341C45.1341 55.1863 45.4833 56.6414 46.724 57.5843L47.9341 55.992ZM47.1341 53.88H49.1341C49.1341 52.8587 49.2211 51.6701 49.4043 50.3063L47.4221 50.04L45.4399 49.7737C45.2391 51.2686 45.1341 52.64 45.1341 53.88H47.1341ZM47.4221 50.04L49.3996 50.3396C49.6087 48.9594 49.8493 47.5679 50.1215 46.165L48.1581 45.784L46.1947 45.403C45.9123 46.8588 45.6622 48.3046 45.4447 49.7404L47.4221 50.04ZM83.7136 28.344L85.2321 29.6456L85.247 29.6282L85.2615 29.6105L83.7136 28.344ZM87.1056 28.248L85.6537 29.6235L85.6723 29.6431L85.6914 29.6622L87.1056 28.248ZM87.7776 29.72L85.7831 29.8677L85.9203 31.72H87.7776V29.72ZM99.2336 29.72H101.234V27.72H99.2336V29.72ZM98.5296 31.704L99.7961 33.2519L99.8167 33.2351L99.8369 33.2176L98.5296 31.704ZM88.3216 32.28V30.28H86.3216V32.28H88.3216ZM85.3456 44.152L86.7284 45.597L86.7365 45.5892L85.3456 44.152ZM74.4016 46.616L73.3336 48.307L73.353 48.3192L73.3726 48.331L74.4016 46.616ZM73.5696 45.592L71.6723 46.2245L71.677 46.2386L71.6819 46.2527L73.5696 45.592ZM74.9776 31.096L73.55 29.6953L73.5432 29.7022L73.5365 29.7092L74.9776 31.096ZM81.9856 29.912L80.5266 31.2799L80.5486 31.3034L80.5714 31.3262L81.9856 29.912ZM82.4976 31.96V33.96H84.4976V31.96H82.4976ZM78.1136 32.312L77.4448 30.4271L77.4349 30.4306L77.4251 30.4342L78.1136 32.312ZM76.6736 33.624L74.8848 32.7296L74.8786 32.742L74.8725 32.7545L76.6736 33.624ZM76.2256 44.44H74.2256V46.44H76.2256V44.44ZM81.4416 43.64L82.1793 45.499L82.1869 45.496L82.1944 45.4929L81.4416 43.64ZM84.4496 40.856L82.6607 39.9616L82.6549 39.9734L84.4496 40.856ZM85.4416 32.28H87.4416V30.28H85.4416V32.28ZM83.7136 31.608L82.1951 32.9096L82.1951 32.9096L83.7136 31.608ZM83.1376 29.976H85.1376C85.1376 29.7698 85.1861 29.6993 85.2321 29.6456L83.7136 28.344L82.1951 27.0424C81.4732 27.8847 81.1376 28.9022 81.1376 29.976H83.1376ZM83.7136 28.344L85.2615 29.6105C85.2529 29.621 85.2387 29.6353 85.2204 29.6488C85.2118 29.6551 85.2041 29.6599 85.1979 29.6633C85.1949 29.665 85.1925 29.6662 85.1908 29.667C85.1891 29.6678 85.1882 29.6682 85.1882 29.6682C85.1882 29.6682 85.1924 29.6665 85.2015 29.6639C85.2108 29.6613 85.2252 29.6578 85.2456 29.6542C85.2869 29.647 85.3508 29.64 85.4416 29.64V27.64V25.64C84.2476 25.64 83.0274 26.0243 82.1657 27.0775L83.7136 28.344ZM85.4416 27.64V29.64C85.6218 29.64 85.7016 29.6655 85.7152 29.6705C85.7211 29.6727 85.7136 29.6705 85.6983 29.6606C85.6827 29.6505 85.667 29.6375 85.6537 29.6235L87.1056 28.248L88.5575 26.8725C87.6915 25.9584 86.5434 25.64 85.4416 25.64V27.64ZM87.1056 28.248L85.6914 29.6622C85.755 29.7258 85.7755 29.7658 85.7831 29.8677L87.7776 29.72L89.7722 29.5723C89.6944 28.5222 89.267 27.5809 88.5198 26.8338L87.1056 28.248ZM87.7776 29.72V31.72H99.2336V29.72V27.72H87.7776V29.72ZM99.2336 29.72H97.2336C97.2336 30.0169 97.1945 30.1738 97.1728 30.2352C97.1559 30.2827 97.1615 30.243 97.2224 30.1904L98.5296 31.704L99.8369 33.2176C100.923 32.2798 101.234 30.9352 101.234 29.72H99.2336ZM98.5296 31.704L97.2632 30.1561C97.1155 30.2769 97.0426 30.28 96.9936 30.28V32.28V34.28C98.054 34.28 99.0051 33.8991 99.7961 33.2519L98.5296 31.704ZM96.9936 32.28V30.28H88.3216V32.28V34.28H96.9936V32.28ZM88.3216 32.28H86.3216V35.48H88.3216H90.3216V32.28H88.3216ZM88.3216 35.48H86.3216C86.3216 39.0199 85.4154 41.3013 83.9548 42.7148L85.3456 44.152L86.7365 45.5892C89.2439 43.1627 90.3216 39.6628 90.3216 35.48H88.3216ZM85.3456 44.152L83.9628 42.7071C82.4988 44.1081 80.0556 45 76.2256 45V47V49C80.5877 49 84.2244 47.9932 86.7284 45.5969L85.3456 44.152ZM76.2256 47V45C75.9342 45 75.7276 44.9759 75.5896 44.9469C75.4515 44.9178 75.4125 44.8901 75.4306 44.901L74.4016 46.616L73.3726 48.331C74.242 48.8526 75.2669 49 76.2256 49V47ZM74.4016 46.616L75.4696 44.925C75.451 44.9133 75.4416 44.9055 75.4386 44.9028C75.4358 44.9004 75.4376 44.9016 75.4419 44.9068C75.4461 44.9121 75.4504 44.9184 75.4539 44.9247C75.4574 44.9309 75.4582 44.9338 75.4573 44.9313L73.5696 45.592L71.6819 46.2527C71.9898 47.1324 72.5714 47.8256 73.3336 48.307L74.4016 46.616ZM73.5696 45.592L75.467 44.9595C75.3938 44.74 75.3456 44.4658 75.3456 44.12H73.3456H71.3456C71.3456 44.8409 71.4468 45.548 71.6723 46.2245L73.5696 45.592ZM73.3456 44.12H75.3456V36.408H73.3456H71.3456V44.12H73.3456ZM73.3456 36.408H75.3456C75.3456 34.2446 75.8407 33.0835 76.4188 32.4828L74.9776 31.096L73.5365 29.7092C71.9385 31.3699 71.3456 33.7501 71.3456 36.408H73.3456ZM74.9776 31.096L76.4052 32.4967C76.9528 31.9386 78.1604 31.4 80.6096 31.4V29.4V27.4C77.7682 27.4 75.2211 27.9921 73.55 29.6953L74.9776 31.096ZM80.6096 29.4V31.4C80.721 31.4 80.7411 31.4162 80.7042 31.4024C80.6849 31.3953 80.6553 31.3818 80.6208 31.3591C80.586 31.3362 80.5538 31.309 80.5266 31.2799L81.9856 29.912L83.4447 28.5441C82.6484 27.6948 81.5977 27.4 80.6096 27.4V29.4ZM81.9856 29.912L80.5714 31.3262C80.4555 31.2103 80.4386 31.1228 80.452 31.1682C80.4674 31.2202 80.4976 31.3646 80.4976 31.64H82.4976H84.4976C84.4976 30.6385 84.3025 29.4004 83.3998 28.4978L81.9856 29.912ZM82.4976 31.64H80.4976V31.96H82.4976H84.4976V31.64H82.4976ZM82.4976 31.96V29.96H80.6096V31.96V33.96H82.4976V31.96ZM80.6096 31.96V29.96C79.4686 29.96 78.3915 30.0912 77.4448 30.4271L78.1136 32.312L78.7824 34.1969C79.1584 34.0635 79.7454 33.96 80.6096 33.96V31.96ZM78.1136 32.312L77.4251 30.4342C76.2808 30.8538 75.4203 31.6585 74.8848 32.7296L76.6736 33.624L78.4625 34.5184C78.5669 34.3095 78.6665 34.2395 78.8021 34.1898L78.1136 32.312ZM76.6736 33.624L74.8725 32.7545C74.3764 33.7822 74.2256 35.0736 74.2256 36.408H76.2256H78.2256C78.2256 35.2677 78.3735 34.7032 78.4747 34.4935L76.6736 33.624ZM76.2256 36.408H74.2256V44.44H76.2256H78.2256V36.408H76.2256ZM76.2256 44.44V46.44C78.5024 46.44 80.5168 46.1587 82.1793 45.499L81.4416 43.64L80.7039 41.781C79.6784 42.188 78.2155 42.44 76.2256 42.44V44.44ZM81.4416 43.64L82.1944 45.4929C84.0062 44.7569 85.3839 43.4881 86.2443 41.7386L84.4496 40.856L82.6549 39.9734C82.2353 40.8266 81.6078 41.4138 80.6889 41.7871L81.4416 43.64ZM84.4496 40.856L86.2385 41.7504C87.0928 40.0418 87.4416 37.9025 87.4416 35.48H85.4416H83.4416C83.4416 37.5801 83.1291 39.0249 82.6608 39.9616L84.4496 40.856ZM85.4416 35.48H87.4416V32.28H85.4416H83.4416V35.48H85.4416ZM85.4416 32.28V30.28C85.2476 30.28 85.1669 30.2512 85.1585 30.248C85.1556 30.2468 85.1664 30.2509 85.1846 30.2635C85.203 30.2765 85.2197 30.2919 85.2321 30.3064L83.7136 31.608L82.1951 32.9096C83.0665 33.9262 84.2779 34.28 85.4416 34.28V32.28ZM83.7136 31.608L85.2321 30.3064C85.1861 30.2527 85.1376 30.1821 85.1376 29.976H83.1376H81.1376C81.1376 31.0498 81.4732 32.0673 82.1951 32.9096L83.7136 31.608ZM99.9139 32.28V30.28H97.9139V32.28H99.9139ZM99.9139 44.76H97.9139V46.76H99.9139V44.76ZM111.114 44.76H113.114V42.76H111.114V44.76ZM110.41 46.584L111.427 48.3059L111.456 48.2891L111.484 48.2713L110.41 46.584ZM97.6099 46.648L96.5419 48.339L96.593 48.3713L96.646 48.4004L97.6099 46.648ZM97.0019 32.28H99.0019V30.28H97.0019V32.28ZM92.8419 32.28H90.8419V34.28H92.8419V32.28ZM97.0019 29.72V31.72H99.0019V29.72H97.0019ZM97.1939 24.792L98.6081 26.2062L98.6081 26.2062L97.1939 24.792ZM99.6899 24.792L98.2757 26.2062L98.2757 26.2062L99.6899 24.792ZM99.9139 25.24H101.914V25.1155L101.898 24.9919L99.9139 25.24ZM99.9139 29.72H97.9139V31.72H99.9139V29.72ZM105.354 29.72H107.354V27.72H105.354V29.72ZM104.65 31.704L105.916 33.2519L105.937 33.2351L105.957 33.2176L104.65 31.704ZM103.114 32.28V30.28H99.9139V32.28V34.28H103.114V32.28ZM99.9139 32.28H97.9139V44.76H99.9139H101.914V32.28H99.9139ZM99.9139 44.76V46.76H111.114V44.76V42.76H99.9139V44.76ZM111.114 44.76H109.114C109.114 44.9059 109.104 45.0125 109.093 45.0859C109.082 45.1595 109.07 45.188 109.072 45.1838C109.074 45.1782 109.092 45.1353 109.138 45.0754C109.187 45.0131 109.253 44.9493 109.336 44.8967L110.41 46.584L111.484 48.2713C112.83 47.4144 113.114 45.9062 113.114 44.76H111.114ZM110.41 46.584L109.392 44.8621C109.237 44.9541 109.077 45 108.874 45V47V49C109.78 49 110.644 48.7686 111.427 48.3059L110.41 46.584ZM108.874 47V45H98.9539V47V49H108.874V47ZM98.9539 47V45C98.8345 45 98.7166 44.9742 98.5737 44.8956L97.6099 46.648L96.646 48.4004C97.3565 48.7912 98.1346 49 98.9539 49V47ZM97.6099 46.648L98.6779 44.957C98.7771 45.0197 98.8589 45.0966 98.9203 45.1751C98.9797 45.2512 99.0079 45.3133 99.0186 45.3409C99.0287 45.367 99.0236 45.3631 99.0164 45.3167C99.0093 45.2705 99.0019 45.1936 99.0019 45.08H97.0019H95.0019C95.0019 46.0999 95.2546 47.526 96.5419 48.339L97.6099 46.648ZM97.0019 45.08H99.0019V32.28H97.0019H95.0019V45.08H97.0019ZM97.0019 32.28V30.28H92.8419V32.28V34.28H97.0019V32.28ZM92.8419 32.28H94.8419C94.8419 31.9664 94.8825 31.8059 94.9027 31.7488C94.9175 31.7072 94.9021 31.7705 94.8124 31.8439L93.5459 30.296L92.2794 28.7481C91.1391 29.6811 90.8419 31.0727 90.8419 32.28H92.8419ZM93.5459 30.296L94.8124 31.8439C94.96 31.7231 95.0329 31.72 95.0819 31.72V29.72V27.72C94.0215 27.72 93.0704 28.1009 92.2794 28.7481L93.5459 30.296ZM95.0819 29.72V31.72H97.0019V29.72V27.72H95.0819V29.72ZM97.0019 29.72H99.0019V25.24H97.0019H95.0019V29.72H97.0019ZM97.0019 25.24H99.0019C99.0019 25.4116 98.9682 25.6011 98.8882 25.7878C98.8091 25.9723 98.7035 26.1108 98.6081 26.2062L97.1939 24.792L95.7797 23.3778C95.3018 23.8556 95.0019 24.5042 95.0019 25.24H97.0019ZM97.1939 24.792L98.6081 26.2062C98.5127 26.3016 98.3742 26.4072 98.1897 26.4863C98.0029 26.5663 97.8135 26.6 97.6419 26.6V24.6V22.6C96.9061 22.6 96.2575 22.9 95.7797 23.3778L97.1939 24.792ZM97.6419 24.6V26.6H99.2419V24.6V22.6H97.6419V24.6ZM99.2419 24.6V26.6C99.0703 26.6 98.8808 26.5663 98.694 26.4863C98.5096 26.4072 98.3711 26.3016 98.2757 26.2062L99.6899 24.792L101.104 23.3778C100.626 22.9 99.9777 22.6 99.2419 22.6V24.6ZM99.6899 24.792L98.2757 26.2062C98.2004 26.131 98.1196 26.0276 98.053 25.8944C97.9859 25.7602 97.9459 25.6208 97.9293 25.4881L99.9139 25.24L101.898 24.9919C101.819 24.3557 101.529 23.8026 101.104 23.3778L99.6899 24.792ZM99.9139 25.24H97.9139V29.72H99.9139H101.914V25.24H99.9139ZM99.9139 29.72V31.72H105.354V29.72V27.72H99.9139V29.72ZM105.354 29.72H103.354C103.354 30.0169 103.315 30.1738 103.293 30.2352C103.276 30.2827 103.282 30.243 103.343 30.1904L104.65 31.704L105.957 33.2176C107.043 32.2798 107.354 30.9352 107.354 29.72H105.354ZM104.65 31.704L103.383 30.1561C103.236 30.2769 103.163 30.28 103.114 30.28V32.28V34.28C104.174 34.28 105.125 33.8991 105.916 33.2519L104.65 31.704ZM114.007 33.496L112.048 33.0927L112.007 33.2923V33.496H114.007ZM114.007 44.76H112.007V46.76H114.007V44.76ZM124.279 44.76H126.279V42.76H124.279V44.76ZM123.575 46.584L124.592 48.3059L124.621 48.2891L124.649 48.2713L123.575 46.584ZM111.735 46.648L110.667 48.339L110.718 48.3713L110.771 48.4004L111.735 46.648ZM111.127 22.68V20.68H109.127V22.68H111.127ZM114.231 23.288L112.989 24.8561L113.005 24.8684L113.021 24.8803L114.231 23.288ZM114.743 29.208L116.725 29.4782L116.725 29.4743L114.743 29.208ZM114.007 33.496H112.007V44.76H114.007H116.007V33.496H114.007ZM114.007 44.76V46.76H124.279V44.76V42.76H114.007V44.76ZM124.279 44.76H122.279C122.279 44.9059 122.269 45.0125 122.258 45.0859C122.247 45.1595 122.235 45.188 122.237 45.1839C122.239 45.1782 122.257 45.1353 122.303 45.0754C122.352 45.0131 122.418 44.9493 122.501 44.8967L123.575 46.584L124.649 48.2713C125.995 47.4144 126.279 45.9062 126.279 44.76H124.279ZM123.575 46.584L122.557 44.8621C122.402 44.9541 122.242 45 122.039 45V47V49C122.945 49 123.809 48.7686 124.592 48.3059L123.575 46.584ZM122.039 47V45H113.079V47V49H122.039V47ZM113.079 47V45C112.959 45 112.842 44.9742 112.699 44.8956L111.735 46.648L110.771 48.4004C111.481 48.7912 112.26 49 113.079 49V47ZM111.735 46.648L112.803 44.957C112.902 45.0197 112.984 45.0966 113.045 45.1751C113.105 45.2512 113.133 45.3133 113.144 45.3409C113.154 45.367 113.149 45.3631 113.141 45.3167C113.134 45.2705 113.127 45.1936 113.127 45.08H111.127H109.127C109.127 46.0999 109.38 47.526 110.667 48.339L111.735 46.648ZM111.127 45.08H113.127V22.68H111.127H109.127V45.08H111.127ZM111.127 22.68V24.68H111.671V22.68V20.68H111.127V22.68ZM111.671 22.68V24.68C112.164 24.68 112.513 24.7228 112.745 24.7779C112.98 24.8337 113.027 24.8857 112.989 24.8561L114.231 23.288L115.472 21.7199C114.415 20.883 112.988 20.68 111.671 20.68V22.68ZM114.231 23.288L113.021 24.8803C112.953 24.8288 112.943 24.7825 112.961 24.8285C112.985 24.8928 113.031 25.0651 113.031 25.4H115.031H117.031C117.031 24.0937 116.682 22.6386 115.441 21.6957L114.231 23.288ZM115.031 25.4H113.031C113.031 26.3985 112.944 27.5761 112.761 28.9417L114.743 29.208L116.725 29.4743C116.926 27.9813 117.031 26.6202 117.031 25.4H115.031ZM114.743 29.208L112.761 28.9378C112.576 30.2993 112.338 31.6843 112.048 33.0927L114.007 33.496L115.966 33.8993C116.273 32.4064 116.526 30.9327 116.725 29.4782L114.743 29.208ZM127.163 44.76H125.163V46.76H127.163V44.76ZM137.435 44.76H139.435V42.76H137.435V44.76ZM136.731 46.584L137.749 48.3059L137.777 48.2891L137.805 48.2713L136.731 46.584ZM124.891 46.648L123.823 48.339L123.874 48.3713L123.927 48.4004L124.891 46.648ZM124.475 29.912L123.061 28.4978L123.061 28.4978L124.475 29.912ZM126.939 29.912L125.525 31.3262L125.579 31.3805L125.638 31.4305L126.939 29.912ZM124.155 23.096L125.819 24.2054L125.833 24.1849L125.846 24.164L124.155 23.096ZM127.291 23.096L125.641 24.2254L125.655 24.2464L125.67 24.267L127.291 23.096ZM127.291 25.848L125.67 24.677L125.67 24.677L127.291 25.848ZM124.155 25.848L122.491 26.9574L122.491 26.9574L124.155 25.848ZM127.163 44.76V46.76H137.435V44.76V42.76H127.163V44.76ZM137.435 44.76H135.435C135.435 44.9059 135.426 45.0125 135.414 45.0859C135.403 45.1595 135.392 45.188 135.393 45.1839C135.395 45.1782 135.413 45.1353 135.459 45.0754C135.508 45.0131 135.575 44.9493 135.657 44.8967L136.731 46.584L137.805 48.2713C139.151 47.4144 139.435 45.9062 139.435 44.76H137.435ZM136.731 46.584L135.714 44.8621C135.558 44.9541 135.398 45 135.195 45V47V49C136.101 49 136.965 48.7686 137.749 48.3059L136.731 46.584ZM135.195 47V45H126.235V47V49H135.195V47ZM126.235 47V45C126.116 45 125.998 44.9742 125.855 44.8956L124.891 46.648L123.927 48.4004C124.638 48.7912 125.416 49 126.235 49V47ZM124.891 46.648L125.959 44.957C126.058 45.0197 126.14 45.0966 126.202 45.1751C126.261 45.2512 126.289 45.3133 126.3 45.3409C126.31 45.367 126.305 45.3631 126.298 45.3167C126.291 45.2705 126.283 45.1936 126.283 45.08H124.283H122.283C122.283 46.0999 122.536 47.526 123.823 48.339L124.891 46.648ZM124.283 45.08H126.283V30.36H124.283H122.283V45.08H124.283ZM124.283 30.36H126.283C126.283 30.5316 126.249 30.7211 126.169 30.9078C126.09 31.0923 125.985 31.2308 125.889 31.3262L124.475 29.912L123.061 28.4978C122.583 28.9756 122.283 29.6242 122.283 30.36H124.283ZM124.475 29.912L125.889 31.3262C125.794 31.4216 125.655 31.5272 125.471 31.6063C125.284 31.6863 125.095 31.72 124.923 31.72V29.72V27.72C124.187 27.72 123.539 28.02 123.061 28.4978L124.475 29.912ZM124.923 29.72V31.72H126.491V29.72V27.72H124.923V29.72ZM126.491 29.72V31.72C126.32 31.72 126.13 31.6863 125.943 31.6063C125.759 31.5272 125.62 31.4216 125.525 31.3262L126.939 29.912L128.353 28.4978C127.876 28.02 127.227 27.72 126.491 27.72V29.72ZM126.939 29.912L125.638 31.4305C125.545 31.3514 125.419 31.2167 125.318 31.0144C125.214 30.8051 125.163 30.578 125.163 30.36H127.163H129.163C129.163 29.5133 128.758 28.8371 128.241 28.3935L126.939 29.912ZM127.163 30.36H125.163V44.76H127.163H129.163V30.36H127.163ZM123.771 24.472H125.771C125.771 24.2704 125.815 24.212 125.819 24.2054L124.155 23.096L122.491 21.9866C121.983 22.748 121.771 23.6069 121.771 24.472H123.771ZM124.155 23.096L125.846 24.164C125.783 24.2632 125.707 24.345 125.628 24.4064C125.552 24.4658 125.49 24.494 125.462 24.5047C125.436 24.5148 125.44 24.5097 125.486 24.5026C125.533 24.4954 125.61 24.488 125.723 24.488V22.488V20.488C124.703 20.488 123.277 20.7407 122.464 22.028L124.155 23.096ZM125.723 22.488V24.488C125.829 24.488 125.9 24.4951 125.943 24.5018C125.986 24.5085 125.99 24.5134 125.968 24.5047C125.944 24.4955 125.892 24.4717 125.827 24.4223C125.76 24.3716 125.695 24.305 125.641 24.2254L127.291 23.096L128.942 21.9666C128.117 20.7612 126.766 20.488 125.723 20.488V22.488ZM127.291 23.096L125.67 24.267C125.67 24.2679 125.707 24.3038 125.707 24.472H127.707H129.707C129.707 23.5735 129.466 22.6921 128.912 21.925L127.291 23.096ZM127.707 24.472H125.707C125.707 24.6402 125.67 24.6761 125.67 24.677L127.291 25.848L128.912 27.019C129.466 26.2519 129.707 25.3705 129.707 24.472H127.707ZM127.291 25.848L125.67 24.677C125.731 24.592 125.801 24.5252 125.869 24.4769C125.934 24.4301 125.983 24.4093 126.001 24.4027C126.018 24.3964 126.008 24.4025 125.959 24.4098C125.91 24.417 125.833 24.424 125.723 24.424V26.424V28.424C126.73 28.424 128.073 28.1812 128.912 27.019L127.291 25.848ZM125.723 26.424V24.424C125.605 24.424 125.523 24.4167 125.471 24.4091C125.418 24.4014 125.408 24.3951 125.429 24.4027C125.451 24.4106 125.51 24.4355 125.587 24.4921C125.666 24.5507 125.749 24.6329 125.819 24.7386L124.155 25.848L122.491 26.9574C123.321 28.2018 124.74 28.424 125.723 28.424V26.424ZM124.155 25.848L125.819 24.7386C125.815 24.732 125.771 24.6736 125.771 24.472H123.771H121.771C121.771 25.3371 121.983 26.196 122.491 26.9574L124.155 25.848ZM147.551 31.96V33.96H149.551V31.96H147.551ZM142.207 32.312L141.539 30.4271L141.529 30.4306L141.519 30.4342L142.207 32.312ZM140.767 33.624L138.979 32.7296L138.972 32.742L138.966 32.7545L140.767 33.624ZM140.319 44.6H138.319V46.6H140.319V44.6ZM142.943 43.864L143.838 45.6529L143.845 45.6491L143.853 45.6452L142.943 43.864ZM145.855 41.528L144.382 40.1752L144.375 40.1834L144.367 40.1917L145.855 41.528ZM148.223 37.528L146.355 36.815L146.355 36.815L148.223 37.528ZM149.151 29.72V27.72H147.151V29.72H149.151ZM152.511 34.296L150.567 33.8293L150.567 33.8293L152.511 34.296ZM152.031 35.832L150.169 35.1032L150.031 35.4546V35.832H152.031ZM152.031 44.76H150.031V46.76H152.031V44.76ZM162.303 44.76H164.303V42.76H162.303V44.76ZM161.599 46.584L162.617 48.3059L162.645 48.2891L162.673 48.2713L161.599 46.584ZM151.999 47V45H150.048L150 46.9512L151.999 47ZM150.975 53.08L149.14 52.2856L149.135 52.2972L149.13 52.3088L150.975 53.08ZM148.223 56.056L147.405 54.231L147.386 54.2396L147.367 54.2485L148.223 56.056ZM142.079 56.408L140.479 57.608L140.503 57.6391L140.527 57.6692L142.079 56.408ZM141.695 54.36V52.36H139.695V54.36H141.695ZM146.047 54.104L145.589 52.1571L145.576 52.1603L146.047 54.104ZM147.807 53.016L146.306 51.6947L146.278 51.7265L146.251 51.7593L147.807 53.016ZM148.831 50.52L146.867 50.1423L146.866 50.1492L148.831 50.52ZM149.151 40.664H151.151V33.0528L147.41 39.6808L149.151 40.664ZM146.527 44.12L147.926 45.5497L147.926 45.5493L146.527 44.12ZM143.455 46.36L142.561 44.5711L142.561 44.5711L143.455 46.36ZM138.047 46.328L136.412 47.479L136.422 47.4936L136.433 47.508L138.047 46.328ZM139.071 31.096L137.644 29.6953L137.637 29.7022L137.63 29.7092L139.071 31.096ZM146.815 29.912L147.958 28.2702L147.958 28.2702L146.815 29.912ZM147.551 31.64H145.551V31.96H147.551H149.551V31.64H147.551ZM147.551 31.96V29.96H144.703V31.96V33.96H147.551V31.96ZM144.703 31.96V29.96C143.562 29.96 142.485 30.0912 141.539 30.4271L142.207 32.312L142.876 34.1969C143.252 34.0635 143.839 33.96 144.703 33.96V31.96ZM142.207 32.312L141.519 30.4342C140.375 30.8538 139.514 31.6585 138.979 32.7296L140.767 33.624L142.556 34.5184C142.661 34.3095 142.76 34.2395 142.896 34.1898L142.207 32.312ZM140.767 33.624L138.966 32.7545C138.47 33.7822 138.319 35.0736 138.319 36.408H140.319H142.319C142.319 35.2677 142.467 34.7032 142.568 34.4935L140.767 33.624ZM140.319 36.408H138.319V44.6H140.319H142.319V36.408H140.319ZM140.319 44.6V46.6C141.502 46.6 142.69 46.2269 143.838 45.6529L142.943 43.864L142.049 42.0751C141.234 42.4825 140.673 42.6 140.319 42.6V44.6ZM142.943 43.864L143.853 45.6452C145.121 44.9978 146.28 44.0486 147.343 42.8643L145.855 41.528L144.367 40.1917C143.553 41.0981 142.771 41.7062 142.034 42.0828L142.943 43.864ZM145.855 41.528L147.328 42.8808C148.493 41.6127 149.403 40.0476 150.092 38.241L148.223 37.528L146.355 36.815C145.807 38.2511 145.138 39.3526 144.382 40.1752L145.855 41.528ZM148.223 37.528L150.092 38.241C150.819 36.3365 151.151 34.1522 151.151 31.736H149.151H147.151C147.151 33.7998 146.865 35.4768 146.355 36.815L148.223 37.528ZM149.151 31.736H151.151V29.72H149.151H147.151V31.736H149.151ZM149.151 29.72V31.72H150.303V29.72V27.72H149.151V29.72ZM150.303 29.72V31.72C150.505 31.72 150.591 31.7509 150.603 31.7561C150.604 31.7563 150.578 31.7421 150.56 31.72C150.542 31.6978 150.703 31.8857 150.703 32.632H152.703H154.703C154.703 31.437 154.465 30.1689 153.647 29.176C152.767 28.1091 151.525 27.72 150.303 27.72V29.72ZM152.703 32.632H150.703C150.703 33.0587 150.656 33.4563 150.567 33.8293L152.511 34.296L154.456 34.7627C154.623 34.0691 154.703 33.3573 154.703 32.632H152.703ZM152.511 34.296L150.567 33.8293C150.459 34.2771 150.326 34.7013 150.169 35.1032L152.031 35.832L153.894 36.5608C154.121 35.9814 154.308 35.3816 154.456 34.7627L152.511 34.296ZM152.031 35.832H150.031V44.76H152.031H154.031V35.832H152.031ZM152.031 44.76V46.76H162.303V44.76V42.76H152.031V44.76ZM162.303 44.76H160.303C160.303 44.9059 160.294 45.0125 160.283 45.0859C160.271 45.1595 160.26 45.188 160.262 45.1838C160.264 45.1782 160.281 45.1353 160.328 45.0754C160.376 45.0131 160.443 44.9493 160.526 44.8967L161.599 46.584L162.673 48.2713C164.02 47.4144 164.303 45.9062 164.303 44.76H162.303ZM161.599 46.584L160.582 44.8621C160.426 44.9541 160.267 45 160.063 45V47V49C160.969 49 161.834 48.7686 162.617 48.3059L161.599 46.584ZM160.063 47V45H151.999V47V49H160.063V47ZM151.999 47L150 46.9512C149.939 49.4702 149.61 51.1998 149.14 52.2856L150.975 53.08L152.811 53.8744C153.578 52.1016 153.932 49.7778 153.999 47.0488L151.999 47ZM150.975 53.08L149.13 52.3088C148.699 53.341 148.112 53.9141 147.405 54.231L148.223 56.056L149.041 57.881C150.809 57.0886 152.057 55.6777 152.821 53.8512L150.975 53.08ZM148.223 56.056L147.367 54.2485C146.51 54.6544 145.254 54.92 143.487 54.92V56.92V58.92C145.603 58.92 147.504 58.6096 149.08 57.8635L148.223 56.056ZM143.487 56.92V54.92C143.319 54.92 143.28 54.8969 143.323 54.9124C143.348 54.9214 143.395 54.9421 143.454 54.9825C143.515 55.0239 143.576 55.0789 143.632 55.1468L142.079 56.408L140.527 57.6692C141.344 58.6745 142.534 58.92 143.487 58.92V56.92ZM142.079 56.408L143.679 55.208C143.769 55.328 143.765 55.3872 143.742 55.2863C143.72 55.19 143.695 55.0075 143.695 54.712H141.695H139.695C139.695 55.6146 139.822 56.7311 140.479 57.608L142.079 56.408ZM141.695 54.712H143.695V54.36H141.695H139.695V54.712H141.695ZM141.695 54.36V56.36H143.487V54.36V52.36H141.695V54.36ZM143.487 54.36V56.36C144.593 56.36 145.614 56.267 146.519 56.0477L146.047 54.104L145.576 52.1603C145.073 52.2824 144.387 52.36 143.487 52.36V54.36ZM146.047 54.104L146.505 56.0508C147.642 55.7834 148.623 55.1893 149.363 54.2727L147.807 53.016L146.251 51.7593C146.096 51.952 145.903 52.0833 145.589 52.1572L146.047 54.104ZM147.807 53.016L149.309 54.3373C150.119 53.416 150.554 52.1776 150.797 50.8908L148.831 50.52L146.866 50.1492C146.682 51.1237 146.434 51.5493 146.306 51.6947L147.807 53.016ZM148.831 50.52L150.795 50.8977C151.043 49.6093 151.151 47.9728 151.151 46.04H149.151H147.151C147.151 47.8619 147.046 49.212 146.867 50.1423L148.831 50.52ZM149.151 46.04H151.151V40.664H149.151H147.151V46.04H149.151ZM149.151 40.664L147.41 39.6808C146.748 40.8528 145.986 41.8516 145.128 42.6907L146.527 44.12L147.926 45.5493C149.074 44.4258 150.061 43.1205 150.893 41.6472L149.151 40.664ZM146.527 44.12L145.129 42.6903C144.274 43.5267 143.416 44.1435 142.561 44.5711L143.455 46.36L144.35 48.1489C145.628 47.5099 146.818 46.6333 147.926 45.5497L146.527 44.12ZM143.455 46.36L142.561 44.5711C141.726 44.9885 140.986 45.16 140.319 45.16V47.16V49.16C141.701 49.16 143.051 48.7982 144.35 48.1489L143.455 46.36ZM140.319 47.16V45.16C139.917 45.16 139.7 45.1079 139.607 45.074C139.534 45.0471 139.593 45.0537 139.662 45.148L138.047 46.328L136.433 47.508C137.399 48.8308 138.968 49.16 140.319 49.16V47.16ZM138.047 46.328L139.683 45.177C139.543 44.978 139.439 44.7091 139.439 44.28H137.439H135.439C135.439 45.4295 135.741 46.526 136.412 47.479L138.047 46.328ZM137.439 44.28H139.439V36.408H137.439H135.439V44.28H137.439ZM137.439 36.408H139.439C139.439 34.2446 139.934 33.0835 140.513 32.4828L139.071 31.096L137.63 29.7092C136.032 31.3699 135.439 33.7501 135.439 36.408H137.439ZM139.071 31.096L140.499 32.4967C141.047 31.9386 142.254 31.4 144.703 31.4V29.4V27.4C141.862 27.4 139.315 27.9921 137.644 29.6953L139.071 31.096ZM144.703 29.4V31.4C145.416 31.4 145.653 31.5399 145.673 31.5538L146.815 29.912L147.958 28.2702C146.996 27.6014 145.825 27.4 144.703 27.4V29.4ZM146.815 29.912L145.673 31.5538C145.641 31.5316 145.607 31.5008 145.577 31.4636C145.548 31.4269 145.533 31.3969 145.527 31.3837C145.518 31.3625 145.551 31.4281 145.551 31.64H147.551H149.551C149.551 30.4295 149.165 29.1105 147.958 28.2702L146.815 29.912ZM165.194 47V49H167.194V47H165.194ZM161.802 42.424L159.858 41.9573L159.849 41.9944L159.841 42.0318L161.802 42.424ZM162.314 40.888L164.149 41.6855L164.314 41.304V40.888H162.314ZM162.506 22.872L163.921 24.2862L163.921 24.2862L162.506 22.872ZM165.002 22.872L163.588 24.2862L163.588 24.2862L165.002 22.872ZM165.194 36.12H163.194V43.7775L166.939 37.098L165.194 36.12ZM167.914 32.44L166.486 31.0401L166.486 31.0404L167.914 32.44ZM171.146 29.976L172.068 31.751L172.074 31.7477L172.081 31.7444L171.146 29.976ZM176.65 29.912L175.006 31.0504L175.021 31.0714L175.036 31.092L176.65 29.912ZM177.258 44.76H175.258V46.76H177.258V44.76ZM187.498 44.76H189.498V42.76H187.498V44.76ZM186.794 46.584L187.812 48.3059L187.84 48.2891L187.868 48.2713L186.794 46.584ZM174.986 46.648L173.918 48.339L173.951 48.3595L173.984 48.3789L174.986 46.648ZM174.378 31.64H176.378V29.64H174.378V31.64ZM172.266 32.184L173.06 34.0197L173.072 34.0147L173.083 34.0096L172.266 32.184ZM169.834 33.784L171.126 35.3108L171.138 35.3012L171.149 35.2915L169.834 33.784ZM167.53 36.44L165.861 35.3383L165.853 35.3501L165.846 35.3619L167.53 36.44ZM165.834 40.184L163.926 39.5858L163.923 39.5949L163.92 39.604L165.834 40.184ZM165.194 47V45H164.042V47V49H165.194V47ZM164.042 47V45C163.841 45 163.755 44.9691 163.742 44.9639C163.742 44.9637 163.768 44.9779 163.786 45C163.804 45.0222 163.642 44.8343 163.642 44.088H161.642H159.642C159.642 45.283 159.881 46.5511 160.699 47.544C161.578 48.6109 162.821 49 164.042 49V47ZM161.642 44.088H163.642C163.642 43.636 163.684 43.2131 163.764 42.8162L161.802 42.424L159.841 42.0318C159.707 42.7016 159.642 43.388 159.642 44.088H161.642ZM161.802 42.424L163.747 42.8907C163.849 42.4678 163.983 42.0667 164.149 41.6855L162.314 40.888L160.48 40.0905C160.219 40.6907 160.012 41.3135 159.858 41.9573L161.802 42.424ZM162.314 40.888H164.314V23.32H162.314H160.314V40.888H162.314ZM162.314 23.32H164.314C164.314 23.4916 164.281 23.6811 164.201 23.8678C164.122 24.0523 164.016 24.1908 163.921 24.2862L162.506 22.872L161.092 21.4578C160.614 21.9356 160.314 22.5842 160.314 23.32H162.314ZM162.506 22.872L163.921 24.2862C163.825 24.3816 163.687 24.4872 163.502 24.5663C163.315 24.6463 163.126 24.68 162.954 24.68V22.68V20.68C162.219 20.68 161.57 20.98 161.092 21.4578L162.506 22.872ZM162.954 22.68V24.68H164.554V22.68V20.68H162.954V22.68ZM164.554 22.68V24.68C164.383 24.68 164.193 24.6463 164.007 24.5663C163.822 24.4872 163.684 24.3816 163.588 24.2862L165.002 22.872L166.417 21.4578C165.939 20.98 165.29 20.68 164.554 20.68V22.68ZM165.002 22.872L163.588 24.2862C163.493 24.1908 163.387 24.0523 163.308 23.8678C163.228 23.6811 163.194 23.4916 163.194 23.32H165.194H167.194C167.194 22.5842 166.894 21.9356 166.417 21.4578L165.002 22.872ZM165.194 23.32H163.194V36.12H165.194H167.194V23.32H165.194ZM165.194 36.12L166.939 37.098C167.651 35.8282 168.454 34.7467 169.343 33.8396L167.914 32.44L166.486 31.0404C165.326 32.224 164.317 33.5958 163.45 35.142L165.194 36.12ZM167.914 32.44L169.343 33.8399C170.268 32.8957 171.179 32.2127 172.068 31.751L171.146 29.976L170.225 28.201C168.895 28.8913 167.651 29.851 166.486 31.0401L167.914 32.44ZM171.146 29.976L172.081 31.7444C172.994 31.262 173.751 31.08 174.378 31.08V29.08V27.08C172.958 27.08 171.56 27.4953 170.212 28.2076L171.146 29.976ZM174.378 29.08V31.08C174.796 31.08 175.017 31.1334 175.107 31.166C175.175 31.1911 175.092 31.1745 175.006 31.0504L176.65 29.912L178.295 28.7736C177.341 27.3954 175.721 27.08 174.378 27.08V29.08ZM176.65 29.912L175.036 31.092C175.148 31.2457 175.258 31.4949 175.258 31.96H177.258H179.258C179.258 30.8038 178.964 29.6877 178.265 28.732L176.65 29.912ZM177.258 31.96H175.258V44.76H177.258H179.258V31.96H177.258ZM177.258 44.76V46.76H187.498V44.76V42.76H177.258V44.76ZM187.498 44.76H185.498C185.498 44.9059 185.489 45.0125 185.478 45.0859C185.466 45.1595 185.455 45.188 185.457 45.1838C185.459 45.1782 185.476 45.1353 185.523 45.0754C185.571 45.0131 185.638 44.9493 185.721 44.8967L186.794 46.584L187.868 48.2713C189.215 47.4144 189.498 45.9062 189.498 44.76H187.498ZM186.794 46.584L185.777 44.8621C185.621 44.9541 185.462 45 185.258 45V47V49C186.164 49 187.029 48.7686 187.812 48.3059L186.794 46.584ZM185.258 47V45H176.298V47V49H185.258V47ZM176.298 47V45C176.18 45 176.089 44.9751 175.988 44.9171L174.986 46.648L173.984 48.3789C174.695 48.7902 175.478 49 176.298 49V47ZM174.986 46.648L176.054 44.957C176.154 45.0197 176.235 45.0966 176.297 45.1751C176.356 45.2512 176.384 45.3133 176.395 45.3409C176.405 45.367 176.4 45.3631 176.393 45.3167C176.386 45.2705 176.378 45.1936 176.378 45.08H174.378H172.378C172.378 46.0999 172.631 47.526 173.918 48.339L174.986 46.648ZM174.378 45.08H176.378V31.64H174.378H172.378V45.08H174.378ZM174.378 31.64V29.64C173.397 29.64 172.403 29.9318 171.45 30.3584L172.266 32.184L173.083 34.0096C173.751 33.7109 174.165 33.64 174.378 33.64V31.64ZM172.266 32.184L171.473 30.3483C170.449 30.7909 169.466 31.4519 168.52 32.2765L169.834 33.784L171.149 35.2915C171.867 34.6654 172.505 34.2597 173.06 34.0197L172.266 32.184ZM169.834 33.784L168.542 32.2572C167.543 33.1033 166.652 34.1394 165.861 35.3383L167.53 36.44L169.2 37.5417C169.816 36.6073 170.462 35.8727 171.126 35.3108L169.834 33.784ZM167.53 36.44L165.846 35.3619C165.052 36.6022 164.418 38.0172 163.926 39.5858L165.834 40.184L167.743 40.7822C168.147 39.4921 168.643 38.4111 169.215 37.5181L167.53 36.44ZM165.834 40.184L163.92 39.604C163.426 41.2358 163.194 43.0367 163.194 44.984H165.194H167.194C167.194 43.3473 167.39 41.9482 167.748 40.764L165.834 40.184ZM165.194 44.984H163.194V47H165.194H167.194V44.984H165.194ZM190.414 32.28V30.28H188.414V32.28H190.414ZM190.414 44.76H188.414V46.76H190.414V44.76ZM201.614 44.76H203.614V42.76H201.614V44.76ZM200.91 46.584L201.927 48.3059L201.956 48.2891L201.984 48.2713L200.91 46.584ZM188.11 46.648L187.042 48.339L187.093 48.3713L187.146 48.4004L188.11 46.648ZM187.502 32.28H189.502V30.28H187.502V32.28ZM183.342 32.28H181.342V34.28H183.342V32.28ZM187.502 29.72V31.72H189.502V29.72H187.502ZM187.694 24.792L189.108 26.2062L189.108 26.2062L187.694 24.792ZM190.19 24.792L188.776 26.2062L188.776 26.2062L190.19 24.792ZM190.414 25.24H192.414V25.1155L192.398 24.9919L190.414 25.24ZM190.414 29.72H188.414V31.72H190.414V29.72ZM195.854 29.72H197.854V27.72H195.854V29.72ZM195.15 31.704L196.416 33.2519L196.437 33.2351L196.457 33.2176L195.15 31.704ZM193.614 32.28V30.28H190.414V32.28V34.28H193.614V32.28ZM190.414 32.28H188.414V44.76H190.414H192.414V32.28H190.414ZM190.414 44.76V46.76H201.614V44.76V42.76H190.414V44.76ZM201.614 44.76H199.614C199.614 44.9059 199.604 45.0125 199.593 45.0859C199.582 45.1595 199.57 45.188 199.572 45.1838C199.574 45.1782 199.592 45.1353 199.638 45.0754C199.687 45.0131 199.753 44.9493 199.836 44.8967L200.91 46.584L201.984 48.2713C203.33 47.4144 203.614 45.9062 203.614 44.76H201.614ZM200.91 46.584L199.892 44.8621C199.737 44.9541 199.577 45 199.374 45V47V49C200.28 49 201.144 48.7686 201.927 48.3059L200.91 46.584ZM199.374 47V45H189.454V47V49H199.374V47ZM189.454 47V45C189.334 45 189.217 44.9742 189.074 44.8956L188.11 46.648L187.146 48.4004C187.856 48.7912 188.635 49 189.454 49V47ZM188.11 46.648L189.178 44.957C189.277 45.0197 189.359 45.0966 189.42 45.1751C189.48 45.2512 189.508 45.3133 189.519 45.3409C189.529 45.367 189.524 45.3631 189.516 45.3167C189.509 45.2705 189.502 45.1936 189.502 45.08H187.502H185.502C185.502 46.0999 185.755 47.526 187.042 48.339L188.11 46.648ZM187.502 45.08H189.502V32.28H187.502H185.502V45.08H187.502ZM187.502 32.28V30.28H183.342V32.28V34.28H187.502V32.28ZM183.342 32.28H185.342C185.342 31.9664 185.382 31.8059 185.403 31.7488C185.418 31.7072 185.402 31.7705 185.312 31.8439L184.046 30.296L182.779 28.7481C181.639 29.6811 181.342 31.0727 181.342 32.28H183.342ZM184.046 30.296L185.312 31.8439C185.46 31.7231 185.533 31.72 185.582 31.72V29.72V27.72C184.521 27.72 183.57 28.1009 182.779 28.7481L184.046 30.296ZM185.582 29.72V31.72H187.502V29.72V27.72H185.582V29.72ZM187.502 29.72H189.502V25.24H187.502H185.502V29.72H187.502ZM187.502 25.24H189.502C189.502 25.4116 189.468 25.6011 189.388 25.7878C189.309 25.9723 189.203 26.1108 189.108 26.2062L187.694 24.792L186.28 23.3778C185.802 23.8556 185.502 24.5042 185.502 25.24H187.502ZM187.694 24.792L189.108 26.2062C189.013 26.3016 188.874 26.4072 188.69 26.4863C188.503 26.5663 188.313 26.6 188.142 26.6V24.6V22.6C187.406 22.6 186.757 22.9 186.28 23.3778L187.694 24.792ZM188.142 24.6V26.6H189.742V24.6V22.6H188.142V24.6ZM189.742 24.6V26.6C189.57 26.6 189.381 26.5663 189.194 26.4863C189.01 26.4072 188.871 26.3016 188.776 26.2062L190.19 24.792L191.604 23.3778C191.126 22.9 190.478 22.6 189.742 22.6V24.6ZM190.19 24.792L188.776 26.2062C188.7 26.131 188.62 26.0276 188.553 25.8944C188.486 25.7602 188.446 25.6208 188.429 25.4881L190.414 25.24L192.398 24.9919C192.319 24.3557 192.029 23.8026 191.604 23.3778L190.19 24.792ZM190.414 25.24H188.414V29.72H190.414H192.414V25.24H190.414ZM190.414 29.72V31.72H195.854V29.72V27.72H190.414V29.72ZM195.854 29.72H193.854C193.854 30.0169 193.815 30.1738 193.793 30.2352C193.776 30.2827 193.782 30.243 193.843 30.1904L195.15 31.704L196.457 33.2176C197.543 32.2798 197.854 30.9352 197.854 29.72H195.854ZM195.15 31.704L193.883 30.1561C193.736 30.2769 193.663 30.28 193.614 30.28V32.28V34.28C194.674 34.28 195.625 33.8991 196.416 33.2519L195.15 31.704Z" fill="white" mask="url(#path-1-outside-1_15_831)"/>
</g>
<defs>
<filter id="filter0_d_15_831" x="0.33313" y="0.488007" width="223.281" height="78.432" filterUnits="userSpaceOnUse" color-interpolation-filters="sRGB">
<feFlood flood-opacity="0" result="BackgroundImageFix"/>
<feColorMatrix in="SourceAlpha" type="matrix" values="0 0 0 0 0 0 0 0 0 0 0 0 0 0 0 0 0 0 127 0" result="hardAlpha"/>
<feOffset/>
<feGaussianBlur stdDeviation="10"/>
<feComposite in2="hardAlpha" operator="out"/>
<feColorMatrix type="matrix" values="0 0 0 0 0 0 0 0 0 1 0 0 0 0 0.533333 0 0 0 0.25 0"/>
<feBlend mode="normal" in2="BackgroundImageFix" result="effect1_dropShadow_15_831"/>
<feBlend mode="normal" in="SourceGraphic" in2="effect1_dropShadow_15_831" result="shape"/>
</filter>
</defs>
</svg>
