<svg width="144" height="33" viewBox="0 0 144 33" fill="none" xmlns="http://www.w3.org/2000/svg">
<mask id="path-1-outside-1_15_834" maskUnits="userSpaceOnUse" x="0" y="2" width="144" height="31" fill="black">
<rect fill="white" y="2" width="144" height="31"/>
<path d="M4.51373 13.6937H13.3473C13.762 13.6937 14.1352 13.7434 14.467 13.843C14.8154 13.9259 15.0891 14.1084 15.2882 14.3904C15.4872 14.6724 15.5868 15.1037 15.5868 15.6843C15.5868 16.7128 15.3213 17.7248 14.7905 18.7201C14.2762 19.7154 13.4053 20.5614 12.1778 21.2582H22.355C22.355 21.9715 22.1725 22.4443 21.8076 22.6765C21.4426 22.8922 21.0445 23 20.6132 23H3.76723C3.40228 23 3.06221 22.9088 2.74702 22.7263C2.43183 22.5272 2.27424 22.1208 2.27424 21.507V21.2582H3.84188C5.50076 21.2582 6.89422 21.1338 8.02226 20.8849C9.1503 20.6361 10.0627 20.3043 10.7594 19.8896C11.4727 19.4749 12.0119 19.0187 12.3768 18.521C12.7584 18.0068 13.0155 17.4925 13.1482 16.9783C13.2809 16.464 13.3473 15.9912 13.3473 15.5599H4.51373C3.89994 15.5599 3.3691 15.4272 2.9212 15.1618C2.48989 14.8798 2.27424 14.3075 2.27424 13.4449C2.27424 12.7149 2.37377 11.9602 2.57284 11.1805C2.7719 10.4008 3.11197 9.65431 3.59305 8.94099C4.07412 8.21108 4.72938 7.55583 5.55882 6.97522C6.40485 6.39461 7.46653 5.93842 8.74387 5.60664C10.0212 5.25828 11.5557 5.0841 13.3473 5.0841C13.7288 5.0841 14.0689 5.17533 14.3675 5.35781C14.6827 5.54029 14.8403 5.94671 14.8403 6.57709V7.07475H13.0238C11.4147 7.07475 10.0876 7.23234 9.04247 7.54753C7.99738 7.86272 7.16794 8.27744 6.55415 8.79169C5.94036 9.28936 5.48417 9.83679 5.18557 10.434C4.90356 11.0146 4.72109 11.5952 4.63814 12.1758C4.5552 12.7564 4.51373 13.2624 4.51373 13.6937ZM22.3558 22.0544V10.0607C22.3558 9.92803 22.4055 9.8119 22.5051 9.71237C22.6046 9.61284 22.7207 9.56307 22.8534 9.56307H24.0727C24.2054 9.56307 24.3215 9.61284 24.4211 9.71237C24.5372 9.8119 24.5952 9.92803 24.5952 10.0607V14.5646C25.2256 13.4531 25.9472 12.491 26.7601 11.6781C27.5895 10.8487 28.4521 10.21 29.3479 9.76214C30.2603 9.29765 31.1395 9.06541 31.9856 9.06541C32.8648 9.06541 33.4537 9.28106 33.7523 9.71237C34.0675 10.1437 34.225 10.6745 34.225 11.3049V17.5506C34.225 18.2473 34.0923 18.9274 33.8269 19.591C33.5615 20.2546 33.0555 20.8103 32.309 21.2582H41.9388C41.9388 21.9715 41.7564 22.4443 41.3914 22.6765C41.0265 22.8922 40.6283 23 40.197 23H27.631C27.266 23 26.926 22.9088 26.6108 22.7263C26.2956 22.5272 26.138 22.1208 26.138 21.507V21.2582H28.4024C29.0493 21.2582 29.5968 21.1338 30.0447 20.8849C30.5092 20.6361 30.8824 20.3209 31.1644 19.9394C31.4464 19.5412 31.6538 19.1348 31.7865 18.7201C31.9192 18.2888 31.9856 17.8989 31.9856 17.5506V11.0561C31.5211 11.0561 30.9653 11.1971 30.3184 11.4791C29.688 11.7445 29.0328 12.1592 28.3526 12.7232C27.6891 13.2707 27.0753 13.9591 26.5113 14.7885C25.9472 15.618 25.4827 16.5884 25.1178 17.6999C24.7694 18.7947 24.5952 20.0389 24.5952 21.4324V30.465H24.1722C23.2599 30.465 22.5963 30.3074 22.1816 29.9922C21.7669 29.677 21.5595 29.1296 21.5595 28.3499C21.5595 27.4707 21.6341 26.4754 21.7834 25.3639C21.9493 24.269 22.1401 23.1659 22.3558 22.0544ZM49.5558 9.76214C49.5558 9.26447 49.7051 8.84146 50.0037 8.49309C50.3023 8.12814 50.7502 7.94566 51.3474 7.94566C51.9114 7.94566 52.3427 8.10326 52.6413 8.41844C52.9565 8.73363 53.1307 9.11517 53.1639 9.56307H62.0721C62.0721 10.2764 61.8896 10.7906 61.5246 11.1058C61.1597 11.4044 60.7616 11.5537 60.3302 11.5537H53.5869V14.042C53.5869 17.0446 52.8155 19.2924 51.2728 20.7854C49.73 22.2618 47.3661 23 44.181 23C43.5673 23 43.0945 22.9005 42.7627 22.7014C42.4475 22.5023 42.2319 22.2369 42.1157 21.9051C41.9996 21.5568 41.9416 21.1752 41.9416 20.7605V14.7637C41.9416 12.8891 42.3646 11.5123 43.2106 10.633C44.0732 9.75384 45.533 9.31424 47.59 9.31424C48.0545 9.31424 48.4112 9.44695 48.66 9.71237C48.9254 9.97779 49.0582 10.4257 49.0582 11.0561V11.3049H47.59C46.8104 11.3049 46.1634 11.3961 45.6492 11.5786C45.1515 11.7611 44.7782 12.1012 44.5294 12.5988C44.2972 13.0799 44.181 13.8015 44.181 14.7637V21.0093C45.8399 21.0093 47.1919 20.802 48.237 20.3873C49.2987 19.956 50.0784 19.2343 50.576 18.2224C51.0903 17.1939 51.3474 15.8005 51.3474 14.042V11.5537C50.7502 11.5537 50.3023 11.3795 50.0037 11.0312C49.7051 10.6828 49.5558 10.2598 49.5558 9.76214ZM65.0894 11.5537H62.601V21.2582H71.3102C71.3102 21.9715 71.1277 22.4443 70.7627 22.6765C70.3978 22.8922 69.9996 23 69.5683 23H61.8545C61.4896 23 61.1412 22.9088 60.8094 22.7263C60.4943 22.5272 60.3367 22.1208 60.3367 21.507V11.5537H57.1018C57.1018 10.8238 57.2843 10.3096 57.6493 10.011C58.0142 9.71237 58.4124 9.56307 58.8437 9.56307H60.3367V6.07942C60.3367 5.94671 60.3864 5.83059 60.486 5.73106C60.5855 5.63153 60.7016 5.58176 60.8343 5.58176H62.0785C62.2112 5.58176 62.3273 5.63153 62.4268 5.73106C62.5264 5.83059 62.5844 5.94671 62.601 6.07942V9.56307H66.8312C66.8312 10.2764 66.6487 10.7906 66.2837 11.1058C65.9188 11.4044 65.5207 11.5537 65.0894 11.5537ZM73.5597 12.4993V21.2582H81.5473C81.5473 21.9715 81.3648 22.4443 80.9998 22.6765C80.6349 22.8922 80.2367 23 79.8054 23H72.8381C72.4732 23 72.1248 22.9088 71.793 22.7263C71.4779 22.5272 71.3203 22.1208 71.3203 21.507V4.08877H71.7433C72.6722 4.08877 73.3358 4.24636 73.7339 4.56155C74.1487 4.87673 74.356 5.42417 74.356 6.20384C74.356 7.06646 74.2814 8.05349 74.1321 9.16494C73.9828 10.2598 73.792 11.3713 73.5597 12.4993ZM83.79 21.2582H91.7776C91.7776 21.9715 91.5951 22.4443 91.2301 22.6765C90.8652 22.8922 90.467 23 90.0357 23H83.0684C82.7035 23 82.3551 22.9088 82.0233 22.7263C81.7082 22.5272 81.5506 22.1208 81.5506 21.507V10.0607C81.5506 9.92803 81.6003 9.8119 81.6999 9.71237C81.7994 9.61284 81.9155 9.56307 82.0482 9.56307H83.2675C83.4002 9.56307 83.5163 9.61284 83.6159 9.71237C83.732 9.8119 83.79 9.92803 83.79 10.0607V21.2582ZM81.1524 5.48223C81.1524 5.06751 81.252 4.71085 81.451 4.41225C81.6501 4.09706 82.0565 3.93947 82.6703 3.93947C83.2675 3.93947 83.6739 4.09706 83.8896 4.41225C84.1052 4.71085 84.2131 5.06751 84.2131 5.48223C84.2131 5.89695 84.1052 6.25361 83.8896 6.5522C83.6739 6.8508 83.2675 7.0001 82.6703 7.0001C82.0565 7.0001 81.6501 6.8508 81.451 6.5522C81.252 6.25361 81.1524 5.89695 81.1524 5.48223ZM99.644 11.0561V11.3049H97.4293C96.6497 11.3049 96.0027 11.3961 95.4885 11.5786C94.9908 11.7611 94.6175 12.1012 94.3687 12.5988C94.1365 13.0799 94.0204 13.8015 94.0204 14.7637V21.1338C94.6175 21.1338 95.2977 20.943 96.0608 20.5614C96.8404 20.1633 97.5952 19.5578 98.3251 18.745C99.0716 17.9321 99.6854 16.8953 100.167 15.6346C100.648 14.3738 100.888 12.8725 100.888 11.1307V9.56307H101.784C103.028 9.56307 103.65 10.3179 103.65 11.8274C103.65 12.2753 103.6 12.7066 103.501 13.1214C103.401 13.5361 103.277 13.9342 103.128 14.3158V21.2582H111.115C111.115 21.9715 110.933 22.4443 110.568 22.6765C110.203 22.8922 109.805 23 109.373 23H103.103C103.053 25.0404 102.788 26.6164 102.306 27.7278C101.842 28.8393 101.129 29.6106 100.167 30.0419C99.2209 30.4898 97.9934 30.7138 96.4838 30.7138C95.9695 30.7138 95.6046 30.5811 95.3889 30.3157C95.1899 30.0502 95.0903 29.6106 95.0903 28.9969V28.7231H96.4838C97.2635 28.7231 97.927 28.6568 98.4744 28.5241C99.0385 28.3914 99.4947 28.1094 99.843 27.678C100.208 27.2633 100.473 26.6164 100.639 25.7372C100.805 24.8745 100.888 23.7133 100.888 22.2535V18.0731C100.308 19.1016 99.6274 19.9974 98.8477 20.7605C98.0846 21.507 97.2883 22.0876 96.4589 22.5023C95.6295 22.9171 94.8166 23.1244 94.0204 23.1244C93.1577 23.1244 92.5688 22.9088 92.2536 22.4775C91.9385 22.0296 91.7809 21.4987 91.7809 20.8849V14.7637C91.7809 12.8891 92.2039 11.5123 93.0499 10.633C93.9125 9.75384 95.3723 9.31424 97.4293 9.31424C98.1427 9.31424 98.6901 9.44695 99.0716 9.71237C99.4532 9.97779 99.644 10.4257 99.644 11.0561ZM113.363 23H112.467C111.223 23 110.601 22.2452 110.601 20.7356C110.601 20.2877 110.643 19.8564 110.726 19.4417C110.825 19.027 110.958 18.6289 111.124 18.2473V4.58643C111.124 4.45372 111.173 4.3376 111.273 4.23807C111.372 4.13853 111.489 4.08877 111.621 4.08877H112.865C112.998 4.08877 113.114 4.13853 113.214 4.23807C113.313 4.3376 113.363 4.45372 113.363 4.58643V14.5397C113.977 13.4449 114.682 12.491 115.478 11.6781C116.291 10.8487 117.129 10.21 117.991 9.76214C118.871 9.29765 119.708 9.06541 120.505 9.06541C121.384 9.06541 121.973 9.28106 122.271 9.71237C122.587 10.1437 122.744 10.6745 122.744 11.3049V21.2582H130.707C130.707 21.9715 130.524 22.4443 130.159 22.6765C129.794 22.8922 129.396 23 128.965 23H121.998C121.633 23 121.293 22.9088 120.977 22.7263C120.662 22.5272 120.505 22.1208 120.505 21.507V11.0561C120.04 11.0561 119.493 11.1971 118.862 11.4791C118.249 11.7445 117.618 12.1592 116.971 12.7232C116.324 13.2707 115.727 13.9591 115.18 14.7885C114.649 15.618 114.209 16.5884 113.861 17.6999C113.529 18.7947 113.363 20.0389 113.363 21.4324V23ZM135.462 11.5537H132.974V21.2582H141.683C141.683 21.9715 141.5 22.4443 141.136 22.6765C140.771 22.8922 140.372 23 139.941 23H132.227C131.862 23 131.514 22.9088 131.182 22.7263C130.867 22.5272 130.709 22.1208 130.709 21.507V11.5537H127.475C127.475 10.8238 127.657 10.3096 128.022 10.011C128.387 9.71237 128.785 9.56307 129.216 9.56307H130.709V6.07942C130.709 5.94671 130.759 5.83059 130.859 5.73106C130.958 5.63153 131.074 5.58176 131.207 5.58176H132.451C132.584 5.58176 132.7 5.63153 132.8 5.73106C132.899 5.83059 132.957 5.94671 132.974 6.07942V9.56307H137.204C137.204 10.2764 137.021 10.7906 136.657 11.1058C136.292 11.4044 135.893 11.5537 135.462 11.5537Z"/>
</mask>
<path d="M4.51373 13.6937H13.3473C13.762 13.6937 14.1352 13.7434 14.467 13.843C14.8154 13.9259 15.0891 14.1084 15.2882 14.3904C15.4872 14.6724 15.5868 15.1037 15.5868 15.6843C15.5868 16.7128 15.3213 17.7248 14.7905 18.7201C14.2762 19.7154 13.4053 20.5614 12.1778 21.2582H22.355C22.355 21.9715 22.1725 22.4443 21.8076 22.6765C21.4426 22.8922 21.0445 23 20.6132 23H3.76723C3.40228 23 3.06221 22.9088 2.74702 22.7263C2.43183 22.5272 2.27424 22.1208 2.27424 21.507V21.2582H3.84188C5.50076 21.2582 6.89422 21.1338 8.02226 20.8849C9.1503 20.6361 10.0627 20.3043 10.7594 19.8896C11.4727 19.4749 12.0119 19.0187 12.3768 18.521C12.7584 18.0068 13.0155 17.4925 13.1482 16.9783C13.2809 16.464 13.3473 15.9912 13.3473 15.5599H4.51373C3.89994 15.5599 3.3691 15.4272 2.9212 15.1618C2.48989 14.8798 2.27424 14.3075 2.27424 13.4449C2.27424 12.7149 2.37377 11.9602 2.57284 11.1805C2.7719 10.4008 3.11197 9.65431 3.59305 8.94099C4.07412 8.21108 4.72938 7.55583 5.55882 6.97522C6.40485 6.39461 7.46653 5.93842 8.74387 5.60664C10.0212 5.25828 11.5557 5.0841 13.3473 5.0841C13.7288 5.0841 14.0689 5.17533 14.3675 5.35781C14.6827 5.54029 14.8403 5.94671 14.8403 6.57709V7.07475H13.0238C11.4147 7.07475 10.0876 7.23234 9.04247 7.54753C7.99738 7.86272 7.16794 8.27744 6.55415 8.79169C5.94036 9.28936 5.48417 9.83679 5.18557 10.434C4.90356 11.0146 4.72109 11.5952 4.63814 12.1758C4.5552 12.7564 4.51373 13.2624 4.51373 13.6937ZM22.3558 22.0544V10.0607C22.3558 9.92803 22.4055 9.8119 22.5051 9.71237C22.6046 9.61284 22.7207 9.56307 22.8534 9.56307H24.0727C24.2054 9.56307 24.3215 9.61284 24.4211 9.71237C24.5372 9.8119 24.5952 9.92803 24.5952 10.0607V14.5646C25.2256 13.4531 25.9472 12.491 26.7601 11.6781C27.5895 10.8487 28.4521 10.21 29.3479 9.76214C30.2603 9.29765 31.1395 9.06541 31.9856 9.06541C32.8648 9.06541 33.4537 9.28106 33.7523 9.71237C34.0675 10.1437 34.225 10.6745 34.225 11.3049V17.5506C34.225 18.2473 34.0923 18.9274 33.8269 19.591C33.5615 20.2546 33.0555 20.8103 32.309 21.2582H41.9388C41.9388 21.9715 41.7564 22.4443 41.3914 22.6765C41.0265 22.8922 40.6283 23 40.197 23H27.631C27.266 23 26.926 22.9088 26.6108 22.7263C26.2956 22.5272 26.138 22.1208 26.138 21.507V21.2582H28.4024C29.0493 21.2582 29.5968 21.1338 30.0447 20.8849C30.5092 20.6361 30.8824 20.3209 31.1644 19.9394C31.4464 19.5412 31.6538 19.1348 31.7865 18.7201C31.9192 18.2888 31.9856 17.8989 31.9856 17.5506V11.0561C31.5211 11.0561 30.9653 11.1971 30.3184 11.4791C29.688 11.7445 29.0328 12.1592 28.3526 12.7232C27.6891 13.2707 27.0753 13.9591 26.5113 14.7885C25.9472 15.618 25.4827 16.5884 25.1178 17.6999C24.7694 18.7947 24.5952 20.0389 24.5952 21.4324V30.465H24.1722C23.2599 30.465 22.5963 30.3074 22.1816 29.9922C21.7669 29.677 21.5595 29.1296 21.5595 28.3499C21.5595 27.4707 21.6341 26.4754 21.7834 25.3639C21.9493 24.269 22.1401 23.1659 22.3558 22.0544ZM49.5558 9.76214C49.5558 9.26447 49.7051 8.84146 50.0037 8.49309C50.3023 8.12814 50.7502 7.94566 51.3474 7.94566C51.9114 7.94566 52.3427 8.10326 52.6413 8.41844C52.9565 8.73363 53.1307 9.11517 53.1639 9.56307H62.0721C62.0721 10.2764 61.8896 10.7906 61.5246 11.1058C61.1597 11.4044 60.7616 11.5537 60.3302 11.5537H53.5869V14.042C53.5869 17.0446 52.8155 19.2924 51.2728 20.7854C49.73 22.2618 47.3661 23 44.181 23C43.5673 23 43.0945 22.9005 42.7627 22.7014C42.4475 22.5023 42.2319 22.2369 42.1157 21.9051C41.9996 21.5568 41.9416 21.1752 41.9416 20.7605V14.7637C41.9416 12.8891 42.3646 11.5123 43.2106 10.633C44.0732 9.75384 45.533 9.31424 47.59 9.31424C48.0545 9.31424 48.4112 9.44695 48.66 9.71237C48.9254 9.97779 49.0582 10.4257 49.0582 11.0561V11.3049H47.59C46.8104 11.3049 46.1634 11.3961 45.6492 11.5786C45.1515 11.7611 44.7782 12.1012 44.5294 12.5988C44.2972 13.0799 44.181 13.8015 44.181 14.7637V21.0093C45.8399 21.0093 47.1919 20.802 48.237 20.3873C49.2987 19.956 50.0784 19.2343 50.576 18.2224C51.0903 17.1939 51.3474 15.8005 51.3474 14.042V11.5537C50.7502 11.5537 50.3023 11.3795 50.0037 11.0312C49.7051 10.6828 49.5558 10.2598 49.5558 9.76214ZM65.0894 11.5537H62.601V21.2582H71.3102C71.3102 21.9715 71.1277 22.4443 70.7627 22.6765C70.3978 22.8922 69.9996 23 69.5683 23H61.8545C61.4896 23 61.1412 22.9088 60.8094 22.7263C60.4943 22.5272 60.3367 22.1208 60.3367 21.507V11.5537H57.1018C57.1018 10.8238 57.2843 10.3096 57.6493 10.011C58.0142 9.71237 58.4124 9.56307 58.8437 9.56307H60.3367V6.07942C60.3367 5.94671 60.3864 5.83059 60.486 5.73106C60.5855 5.63153 60.7016 5.58176 60.8343 5.58176H62.0785C62.2112 5.58176 62.3273 5.63153 62.4268 5.73106C62.5264 5.83059 62.5844 5.94671 62.601 6.07942V9.56307H66.8312C66.8312 10.2764 66.6487 10.7906 66.2837 11.1058C65.9188 11.4044 65.5207 11.5537 65.0894 11.5537ZM73.5597 12.4993V21.2582H81.5473C81.5473 21.9715 81.3648 22.4443 80.9998 22.6765C80.6349 22.8922 80.2367 23 79.8054 23H72.8381C72.4732 23 72.1248 22.9088 71.793 22.7263C71.4779 22.5272 71.3203 22.1208 71.3203 21.507V4.08877H71.7433C72.6722 4.08877 73.3358 4.24636 73.7339 4.56155C74.1487 4.87673 74.356 5.42417 74.356 6.20384C74.356 7.06646 74.2814 8.05349 74.1321 9.16494C73.9828 10.2598 73.792 11.3713 73.5597 12.4993ZM83.79 21.2582H91.7776C91.7776 21.9715 91.5951 22.4443 91.2301 22.6765C90.8652 22.8922 90.467 23 90.0357 23H83.0684C82.7035 23 82.3551 22.9088 82.0233 22.7263C81.7082 22.5272 81.5506 22.1208 81.5506 21.507V10.0607C81.5506 9.92803 81.6003 9.8119 81.6999 9.71237C81.7994 9.61284 81.9155 9.56307 82.0482 9.56307H83.2675C83.4002 9.56307 83.5163 9.61284 83.6159 9.71237C83.732 9.8119 83.79 9.92803 83.79 10.0607V21.2582ZM81.1524 5.48223C81.1524 5.06751 81.252 4.71085 81.451 4.41225C81.6501 4.09706 82.0565 3.93947 82.6703 3.93947C83.2675 3.93947 83.6739 4.09706 83.8896 4.41225C84.1052 4.71085 84.2131 5.06751 84.2131 5.48223C84.2131 5.89695 84.1052 6.25361 83.8896 6.5522C83.6739 6.8508 83.2675 7.0001 82.6703 7.0001C82.0565 7.0001 81.6501 6.8508 81.451 6.5522C81.252 6.25361 81.1524 5.89695 81.1524 5.48223ZM99.644 11.0561V11.3049H97.4293C96.6497 11.3049 96.0027 11.3961 95.4885 11.5786C94.9908 11.7611 94.6175 12.1012 94.3687 12.5988C94.1365 13.0799 94.0204 13.8015 94.0204 14.7637V21.1338C94.6175 21.1338 95.2977 20.943 96.0608 20.5614C96.8404 20.1633 97.5952 19.5578 98.3251 18.745C99.0716 17.9321 99.6854 16.8953 100.167 15.6346C100.648 14.3738 100.888 12.8725 100.888 11.1307V9.56307H101.784C103.028 9.56307 103.65 10.3179 103.65 11.8274C103.65 12.2753 103.6 12.7066 103.501 13.1214C103.401 13.5361 103.277 13.9342 103.128 14.3158V21.2582H111.115C111.115 21.9715 110.933 22.4443 110.568 22.6765C110.203 22.8922 109.805 23 109.373 23H103.103C103.053 25.0404 102.788 26.6164 102.306 27.7278C101.842 28.8393 101.129 29.6106 100.167 30.0419C99.2209 30.4898 97.9934 30.7138 96.4838 30.7138C95.9695 30.7138 95.6046 30.5811 95.3889 30.3157C95.1899 30.0502 95.0903 29.6106 95.0903 28.9969V28.7231H96.4838C97.2635 28.7231 97.927 28.6568 98.4744 28.5241C99.0385 28.3914 99.4947 28.1094 99.843 27.678C100.208 27.2633 100.473 26.6164 100.639 25.7372C100.805 24.8745 100.888 23.7133 100.888 22.2535V18.0731C100.308 19.1016 99.6274 19.9974 98.8477 20.7605C98.0846 21.507 97.2883 22.0876 96.4589 22.5023C95.6295 22.9171 94.8166 23.1244 94.0204 23.1244C93.1577 23.1244 92.5688 22.9088 92.2536 22.4775C91.9385 22.0296 91.7809 21.4987 91.7809 20.8849V14.7637C91.7809 12.8891 92.2039 11.5123 93.0499 10.633C93.9125 9.75384 95.3723 9.31424 97.4293 9.31424C98.1427 9.31424 98.6901 9.44695 99.0716 9.71237C99.4532 9.97779 99.644 10.4257 99.644 11.0561ZM113.363 23H112.467C111.223 23 110.601 22.2452 110.601 20.7356C110.601 20.2877 110.643 19.8564 110.726 19.4417C110.825 19.027 110.958 18.6289 111.124 18.2473V4.58643C111.124 4.45372 111.173 4.3376 111.273 4.23807C111.372 4.13853 111.489 4.08877 111.621 4.08877H112.865C112.998 4.08877 113.114 4.13853 113.214 4.23807C113.313 4.3376 113.363 4.45372 113.363 4.58643V14.5397C113.977 13.4449 114.682 12.491 115.478 11.6781C116.291 10.8487 117.129 10.21 117.991 9.76214C118.871 9.29765 119.708 9.06541 120.505 9.06541C121.384 9.06541 121.973 9.28106 122.271 9.71237C122.587 10.1437 122.744 10.6745 122.744 11.3049V21.2582H130.707C130.707 21.9715 130.524 22.4443 130.159 22.6765C129.794 22.8922 129.396 23 128.965 23H121.998C121.633 23 121.293 22.9088 120.977 22.7263C120.662 22.5272 120.505 22.1208 120.505 21.507V11.0561C120.04 11.0561 119.493 11.1971 118.862 11.4791C118.249 11.7445 117.618 12.1592 116.971 12.7232C116.324 13.2707 115.727 13.9591 115.18 14.7885C114.649 15.618 114.209 16.5884 113.861 17.6999C113.529 18.7947 113.363 20.0389 113.363 21.4324V23ZM135.462 11.5537H132.974V21.2582H141.683C141.683 21.9715 141.5 22.4443 141.136 22.6765C140.771 22.8922 140.372 23 139.941 23H132.227C131.862 23 131.514 22.9088 131.182 22.7263C130.867 22.5272 130.709 22.1208 130.709 21.507V11.5537H127.475C127.475 10.8238 127.657 10.3096 128.022 10.011C128.387 9.71237 128.785 9.56307 129.216 9.56307H130.709V6.07942C130.709 5.94671 130.759 5.83059 130.859 5.73106C130.958 5.63153 131.074 5.58176 131.207 5.58176H132.451C132.584 5.58176 132.7 5.63153 132.8 5.73106C132.899 5.83059 132.957 5.94671 132.974 6.07942V9.56307H137.204C137.204 10.2764 137.021 10.7906 136.657 11.1058C136.292 11.4044 135.893 11.5537 135.462 11.5537Z" fill="black"/>
<path d="M4.51373 13.6937H2.95853V15.2489H4.51373V13.6937ZM14.467 13.843L14.0201 15.3326L14.0631 15.3455L14.1068 15.3559L14.467 13.843ZM15.2882 14.3904L16.5587 13.4936L16.5587 13.4936L15.2882 14.3904ZM14.7905 18.7201L13.4183 17.9882L13.4135 17.9972L13.4088 18.0062L14.7905 18.7201ZM12.1778 21.2582L11.4101 19.9056L6.28695 22.8134H12.1778V21.2582ZM22.355 21.2582H23.9102V19.703H22.355V21.2582ZM21.8076 22.6765L22.5987 24.0154L22.6208 24.0024L22.6425 23.9886L21.8076 22.6765ZM2.74702 22.7263L1.91655 24.0412L1.94188 24.0572L1.96781 24.0722L2.74702 22.7263ZM2.27424 21.2582V19.703H0.71904V21.2582H2.27424ZM8.02226 20.8849L7.68725 19.3662L7.68725 19.3662L8.02226 20.8849ZM10.7594 19.8896L9.97774 18.5451L9.97082 18.5491L9.96395 18.5532L10.7594 19.8896ZM12.3768 18.521L11.1278 17.5943L11.1227 17.6013L12.3768 18.521ZM13.1482 16.9783L11.6423 16.5897L11.6423 16.5897L13.1482 16.9783ZM13.3473 15.5599H14.9025V14.0047H13.3473V15.5599ZM2.9212 15.1618L2.07012 16.4634L2.09884 16.4822L2.12836 16.4997L2.9212 15.1618ZM3.59305 8.94099L4.88242 9.81057L4.88704 9.80373L4.89158 9.79684L3.59305 8.94099ZM5.55882 6.97522L4.67882 5.69293L4.67288 5.69701L4.66697 5.70115L5.55882 6.97522ZM8.74387 5.60664L9.13485 7.11189L9.14397 7.10952L9.15307 7.10704L8.74387 5.60664ZM14.3675 5.35781L13.5565 6.68483L13.5723 6.69447L13.5883 6.70372L14.3675 5.35781ZM14.8403 7.07475V8.62995H16.3955V7.07475H14.8403ZM6.55415 8.79169L7.53362 9.9997L7.54334 9.99182L7.55293 9.98378L6.55415 8.79169ZM5.18557 10.434L3.79456 9.73848L3.79056 9.74647L3.78666 9.75451L5.18557 10.434ZM4.63814 12.1758L3.09857 11.9559L3.09857 11.9559L4.63814 12.1758ZM4.51373 13.6937V15.2489H13.3473V13.6937V12.1385H4.51373V13.6937ZM13.3473 13.6937V15.2489C13.6395 15.2489 13.8586 15.2841 14.0201 15.3326L14.467 13.843L14.9139 12.3534C14.4119 12.2028 13.8845 12.1385 13.3473 12.1385V13.6937ZM14.467 13.843L14.1068 15.3559C14.1177 15.3585 14.1003 15.3556 14.0709 15.3361C14.0573 15.327 14.0451 15.3169 14.0349 15.3069C14.0249 15.2971 14.0193 15.2897 14.0176 15.2873L15.2882 14.3904L16.5587 13.4936C16.1325 12.8898 15.5288 12.4971 14.8272 12.3301L14.467 13.843ZM15.2882 14.3904L14.0176 15.2873C13.9731 15.2242 13.9801 15.2029 13.9967 15.2751C14.0133 15.347 14.0316 15.4775 14.0316 15.6843H15.5868H17.142C17.142 14.9798 17.0311 14.1628 16.5587 13.4936L15.2882 14.3904ZM15.5868 15.6843H14.0316C14.0316 16.4335 13.8408 17.1959 13.4183 17.9882L14.7905 18.7201L16.1627 19.4519C16.8018 18.2536 17.142 16.9922 17.142 15.6843H15.5868ZM14.7905 18.7201L13.4088 18.0062C13.0649 18.6718 12.4434 19.3192 11.4101 19.9056L12.1778 21.2582L12.9454 22.6107C14.3673 21.8037 15.4875 20.7591 16.1722 19.434L14.7905 18.7201ZM12.1778 21.2582V22.8134H22.355V21.2582V19.703H12.1778V21.2582ZM22.355 21.2582H20.7998C20.7998 21.3716 20.7924 21.4545 20.7837 21.5116C20.7748 21.5688 20.766 21.591 20.7672 21.5878C20.7689 21.5834 20.7825 21.55 20.8187 21.5034C20.8563 21.455 20.9083 21.4054 20.9726 21.3645L21.8076 22.6765L22.6425 23.9886C23.6896 23.3222 23.9102 22.1495 23.9102 21.2582H22.355ZM21.8076 22.6765L21.0164 21.3376C20.8954 21.4091 20.7712 21.4448 20.6132 21.4448V23V24.5552C21.3177 24.5552 21.9898 24.3753 22.5987 24.0154L21.8076 22.6765ZM20.6132 23V21.4448H3.76723V23V24.5552H20.6132V23ZM3.76723 23V21.4448C3.67531 21.4448 3.6041 21.4255 3.52623 21.3804L2.74702 22.7263L1.96781 24.0722C2.52032 24.3921 3.12925 24.5552 3.76723 24.5552V23ZM2.74702 22.7263L3.57749 21.4114C3.65467 21.4601 3.71827 21.5199 3.76597 21.581C3.81217 21.6402 3.83411 21.6884 3.84244 21.7099C3.85031 21.7302 3.84634 21.7272 3.84076 21.691C3.83521 21.6551 3.82944 21.5954 3.82944 21.507H2.27424H0.71904C0.71904 22.3001 0.915567 23.409 1.91655 24.0412L2.74702 22.7263ZM2.27424 21.507H3.82944V21.2582H2.27424H0.71904V21.507H2.27424ZM2.27424 21.2582V22.8134H3.84188V21.2582V19.703H2.27424V21.2582ZM3.84188 21.2582V22.8134C5.5691 22.8134 7.08304 22.6847 8.35726 22.4036L8.02226 20.8849L7.68725 19.3662C6.70541 19.5828 5.43243 19.703 3.84188 19.703V21.2582ZM8.02226 20.8849L8.35726 22.4036C9.58455 22.1329 10.6689 21.7533 11.5549 21.226L10.7594 19.8896L9.96395 18.5532C9.45648 18.8553 8.71604 19.1393 7.68725 19.3662L8.02226 20.8849ZM10.7594 19.8896L11.5411 21.2341C12.3804 20.7461 13.1045 20.1586 13.6309 19.4407L12.3768 18.521L11.1227 17.6013C10.9193 17.8787 10.5651 18.2036 9.97774 18.5451L10.7594 19.8896ZM12.3768 18.521L13.6258 19.4477C14.1029 18.8047 14.4621 18.1109 14.6541 17.3669L13.1482 16.9783L11.6423 16.5897C11.5689 16.8742 11.4138 17.2089 11.1278 17.5944L12.3768 18.521ZM13.1482 16.9783L14.6541 17.3669C14.8123 16.7537 14.9025 16.1484 14.9025 15.5599H13.3473H11.7921C11.7921 15.834 11.7495 16.1743 11.6423 16.5897L13.1482 16.9783ZM13.3473 15.5599V14.0047H4.51373V15.5599V17.1151H13.3473V15.5599ZM4.51373 15.5599V14.0047C4.12857 14.0047 3.88203 13.9234 3.71405 13.8239L2.9212 15.1618L2.12836 16.4997C2.85617 16.931 3.67131 17.1151 4.51373 17.1151V15.5599ZM2.9212 15.1618L3.77228 13.8601C3.8198 13.8912 3.85539 13.9271 3.87797 13.957C3.89902 13.9848 3.89981 13.9953 3.89129 13.9727C3.87059 13.9177 3.82944 13.7597 3.82944 13.4449H2.27424H0.71904C0.71904 14.4739 0.96636 15.7418 2.07012 16.4634L2.9212 15.1618ZM2.27424 13.4449H3.82944C3.82944 12.8572 3.90949 12.2319 4.0797 11.5652L2.57284 11.1805L1.06598 10.7957C0.838054 11.6884 0.71904 12.5727 0.71904 13.4449H2.27424ZM2.57284 11.1805L4.0797 11.5652C4.23165 10.9701 4.49418 10.3862 4.88242 9.81057L3.59305 8.94099L2.30368 8.07141C1.72977 8.92239 1.31216 9.83155 1.06598 10.7957L2.57284 11.1805ZM3.59305 8.94099L4.89158 9.79684C5.24903 9.2545 5.75687 8.73495 6.45067 8.24929L5.55882 6.97522L4.66697 5.70115C3.70189 6.3767 2.89922 7.16767 2.29452 8.08515L3.59305 8.94099ZM5.55882 6.97522L6.43882 8.2575C7.10029 7.80355 7.98469 7.41064 9.13485 7.11189L8.74387 5.60664L8.3529 4.10139C6.94838 4.4662 5.70941 4.98567 4.67882 5.69293L5.55882 6.97522ZM8.74387 5.60664L9.15307 7.10704C10.2595 6.80528 11.6487 6.6393 13.3473 6.6393V5.0841V3.5289C11.4626 3.5289 9.78288 3.71127 8.33467 4.10624L8.74387 5.60664ZM13.3473 5.0841V6.6393C13.4694 6.6393 13.524 6.66494 13.5565 6.68483L14.3675 5.35781L15.1784 4.03079C14.6138 3.68573 13.9882 3.5289 13.3473 3.5289V5.0841ZM14.3675 5.35781L13.5883 6.70372C13.4947 6.64954 13.4183 6.58086 13.3616 6.51026C13.307 6.44225 13.2815 6.38615 13.2721 6.36174C13.2631 6.33856 13.2672 6.34094 13.2732 6.38C13.279 6.41865 13.2851 6.48264 13.2851 6.57709H14.8403H16.3955C16.3955 5.80532 16.216 4.63099 15.1467 4.0119L14.3675 5.35781ZM14.8403 6.57709H13.2851V7.07475H14.8403H16.3955V6.57709H14.8403ZM14.8403 7.07475V5.51955H13.0238V7.07475V8.62995H14.8403V7.07475ZM13.0238 7.07475V5.51955C11.3275 5.51955 9.83542 5.684 8.59342 6.05857L9.04247 7.54753L9.49152 9.03649C10.3397 8.78069 11.5019 8.62995 13.0238 8.62995V7.07475ZM9.04247 7.54753L8.59342 6.05857C7.41563 6.41378 6.37761 6.91069 5.55537 7.5996L6.55415 8.79169L7.55293 9.98378C7.95826 9.64418 8.57913 9.31166 9.49152 9.03649L9.04247 7.54753ZM6.55415 8.79169L5.57468 7.58368C4.81996 8.19562 4.20877 8.91006 3.79456 9.73848L5.18557 10.434L6.57659 11.1295C6.75957 10.7635 7.06077 10.3831 7.53362 9.9997L6.55415 8.79169ZM5.18557 10.434L3.78666 9.75451C3.44127 10.4656 3.20648 11.2005 3.09857 11.9559L4.63814 12.1758L6.17771 12.3957C6.2357 11.9899 6.36586 11.5636 6.58449 11.1135L5.18557 10.434ZM4.63814 12.1758L3.09857 11.9559C3.00865 12.5853 2.95853 13.168 2.95853 13.6937H4.51373H6.06893C6.06893 13.3568 6.10175 12.9275 6.17771 12.3957L4.63814 12.1758ZM22.3558 22.0544L23.8825 22.3507L23.911 22.2039V22.0544H22.3558ZM22.5051 9.71237L21.4054 8.61268L21.4054 8.61268L22.5051 9.71237ZM24.4211 9.71237L23.3214 10.8121L23.3636 10.8543L23.409 10.8932L24.4211 9.71237ZM24.5952 14.5646H23.04V20.459L25.948 15.3318L24.5952 14.5646ZM26.7601 11.6781L25.6604 10.5785L25.6604 10.5785L26.7601 11.6781ZM29.3479 9.76214L30.0435 11.1532L30.0535 11.1481L29.3479 9.76214ZM33.7523 9.71237L32.4736 10.5976L32.4849 10.6139L32.4966 10.63L33.7523 9.71237ZM33.8269 19.591L32.3829 19.0134L32.3829 19.0134L33.8269 19.591ZM32.309 21.2582L31.5089 19.9246L26.6943 22.8134H32.309V21.2582ZM41.9388 21.2582H43.494V19.703H41.9388V21.2582ZM41.3914 22.6765L42.1826 24.0154L42.2047 24.0024L42.2264 23.9886L41.3914 22.6765ZM26.6108 22.7263L25.7803 24.0412L25.8057 24.0572L25.8316 24.0722L26.6108 22.7263ZM26.138 21.2582V19.703H24.5828V21.2582H26.138ZM30.0447 20.8849L29.3103 19.5141L29.2998 19.5197L29.2894 19.5254L30.0447 20.8849ZM31.1644 19.9394L32.4151 20.8638L32.4244 20.8511L32.4335 20.8383L31.1644 19.9394ZM31.7865 18.7201L33.2677 19.1941L33.2704 19.1858L33.2729 19.1775L31.7865 18.7201ZM31.9856 11.0561H33.5408V9.50086H31.9856V11.0561ZM30.3184 11.4791L30.9219 12.9124L30.9309 12.9086L30.9398 12.9047L30.3184 11.4791ZM28.3526 12.7232L29.3423 13.9229L29.3454 13.9204L28.3526 12.7232ZM25.1178 17.6999L23.6402 17.2147L23.638 17.2215L23.6358 17.2283L25.1178 17.6999ZM24.5952 30.465V32.0202H26.1504V30.465H24.5952ZM22.1816 29.9922L23.1226 28.754L23.1226 28.754L22.1816 29.9922ZM21.7834 25.3639L20.2458 25.1309L20.2438 25.1439L20.2421 25.1569L21.7834 25.3639ZM22.3558 22.0544H23.911V10.0607H22.3558H20.8006V22.0544H22.3558ZM22.3558 10.0607H23.911C23.911 10.1942 23.8848 10.3415 23.8225 10.4867C23.7611 10.6302 23.6789 10.7379 23.6048 10.8121L22.5051 9.71237L21.4054 8.61268C21.0338 8.98423 20.8006 9.4886 20.8006 10.0607H22.3558ZM22.5051 9.71237L23.6048 10.8121C23.5306 10.8863 23.4229 10.9684 23.2794 11.0299C23.1342 11.0921 22.9869 11.1183 22.8534 11.1183V9.56307V8.00787C22.2813 8.00787 21.7769 8.24112 21.4054 8.61268L22.5051 9.71237ZM22.8534 9.56307V11.1183H24.0727V9.56307V8.00787H22.8534V9.56307ZM24.0727 9.56307V11.1183C23.9393 11.1183 23.7919 11.0921 23.6467 11.0299C23.5033 10.9684 23.3956 10.8863 23.3214 10.8121L24.4211 9.71237L25.5208 8.61268C25.1492 8.24112 24.6448 8.00787 24.0727 8.00787V9.56307ZM24.4211 9.71237L23.409 10.8932C23.3372 10.8317 23.2393 10.7269 23.1607 10.5696C23.0793 10.4068 23.04 10.2303 23.04 10.0607H24.5952H26.1504C26.1504 9.40234 25.8356 8.8765 25.4332 8.53158L24.4211 9.71237ZM24.5952 10.0607H23.04V14.5646H24.5952H26.1504V10.0607H24.5952ZM24.5952 14.5646L25.948 15.3318C26.517 14.3287 27.1562 13.4814 27.8598 12.7778L26.7601 11.6781L25.6604 10.5785C24.7383 11.5005 23.9343 12.5776 23.2425 13.7974L24.5952 14.5646ZM26.7601 11.6781L27.8598 12.7778C28.5908 12.0468 29.3203 11.5147 30.0434 11.1532L29.3479 9.76214L28.6524 8.37112C27.584 8.90532 26.5883 9.65057 25.6604 10.5785L26.7601 11.6781ZM29.3479 9.76214L30.0535 11.1481C30.7927 10.7717 31.4311 10.6206 31.9856 10.6206V9.06541V7.51021C30.848 7.51021 29.7279 7.82356 28.6424 8.3762L29.3479 9.76214ZM31.9856 9.06541V10.6206C32.3104 10.6206 32.4825 10.6621 32.5519 10.6875C32.6052 10.707 32.5404 10.6941 32.4736 10.5976L33.7523 9.71237L35.0309 8.82714C34.289 7.75544 33.0293 7.51021 31.9856 7.51021V9.06541ZM33.7523 9.71237L32.4966 10.63C32.5839 10.7494 32.6698 10.9432 32.6698 11.3049H34.225H35.7802C35.7802 10.4058 35.551 9.53794 35.0079 8.79478L33.7523 9.71237ZM34.225 11.3049H32.6698V17.5506H34.225H35.7802V11.3049H34.225ZM34.225 17.5506H32.6698C32.6698 18.0443 32.5768 18.5287 32.3829 19.0134L33.8269 19.591L35.2709 20.1686C35.6079 19.3262 35.7802 18.4503 35.7802 17.5506H34.225ZM33.8269 19.591L32.3829 19.0134C32.2693 19.2974 32.0291 19.6125 31.5089 19.9246L32.309 21.2582L33.1092 22.5917C34.082 22.0081 34.8536 21.2117 35.2709 20.1686L33.8269 19.591ZM32.309 21.2582V22.8134H41.9388V21.2582V19.703H32.309V21.2582ZM41.9388 21.2582H40.3836C40.3836 21.3716 40.3763 21.4545 40.3675 21.5116C40.3587 21.5688 40.3499 21.591 40.3511 21.5878C40.3528 21.5834 40.3664 21.55 40.4025 21.5034C40.4402 21.455 40.4922 21.4054 40.5565 21.3645L41.3914 22.6765L42.2264 23.9886C43.2735 23.3222 43.494 22.1495 43.494 21.2582H41.9388ZM41.3914 22.6765L40.6002 21.3376C40.4793 21.4091 40.3551 21.4448 40.197 21.4448V23V24.5552C40.9015 24.5552 41.5737 24.3753 42.1826 24.0154L41.3914 22.6765ZM40.197 23V21.4448H27.631V23V24.5552H40.197V23ZM27.631 23V21.4448C27.5391 21.4448 27.4679 21.4255 27.39 21.3804L26.6108 22.7263L25.8316 24.0722C26.3841 24.3921 26.993 24.5552 27.631 24.5552V23ZM26.6108 22.7263L27.4413 21.4114C27.5184 21.4601 27.582 21.5199 27.6297 21.581C27.6759 21.6402 27.6979 21.6884 27.7062 21.7099C27.7141 21.7302 27.7101 21.7272 27.7045 21.691C27.699 21.6551 27.6932 21.5954 27.6932 21.507H26.138H24.5828C24.5828 22.3001 24.7793 23.409 25.7803 24.0412L26.6108 22.7263ZM26.138 21.507H27.6932V21.2582H26.138H24.5828V21.507H26.138ZM26.138 21.2582V22.8134H28.4024V21.2582V19.703H26.138V21.2582ZM28.4024 21.2582V22.8134C29.2455 22.8134 30.068 22.6511 30.7999 22.2444L30.0447 20.8849L29.2894 19.5254C29.1256 19.6165 28.8532 19.703 28.4024 19.703V21.2582ZM30.0447 20.8849L30.7791 22.2558C31.4239 21.9104 31.9817 21.4501 32.4151 20.8638L31.1644 19.9394L29.9138 19.015C29.7832 19.1917 29.5944 19.3618 29.3103 19.5141L30.0447 20.8849ZM31.1644 19.9394L32.4335 20.8383C32.7966 20.3257 33.081 19.7775 33.2677 19.1941L31.7865 18.7201L30.3053 18.2461C30.2266 18.4921 30.0962 18.7568 29.8953 19.0404L31.1644 19.9394ZM31.7865 18.7201L33.2729 19.1775C33.4385 18.6392 33.5408 18.0919 33.5408 17.5506H31.9856H30.4304C30.4304 17.706 30.3999 17.9383 30.3001 18.2627L31.7865 18.7201ZM31.9856 17.5506H33.5408V11.0561H31.9856H30.4304V17.5506H31.9856ZM31.9856 11.0561V9.50086C31.2256 9.50086 30.448 9.72606 29.697 10.0534L30.3184 11.4791L30.9398 12.9047C31.4827 12.6681 31.8165 12.6113 31.9856 12.6113V11.0561ZM30.3184 11.4791L29.7149 10.0458C28.9098 10.3847 28.1251 10.8915 27.3599 11.5261L28.3526 12.7232L29.3454 13.9204C29.9404 13.4269 30.4662 13.1043 30.9219 12.9124L30.3184 11.4791ZM28.3526 12.7232L27.3629 11.5236C26.5687 12.1789 25.8587 12.9824 25.2252 13.914L26.5113 14.7885L27.7973 15.663C28.2918 14.9358 28.8095 14.3625 29.3423 13.9229L28.3526 12.7232ZM26.5113 14.7885L25.2252 13.914C24.5672 14.8817 24.0432 15.9875 23.6402 17.2147L25.1178 17.6999L26.5954 18.1851C26.9223 17.1894 27.3272 16.3543 27.7973 15.663L26.5113 14.7885ZM25.1178 17.6999L23.6358 17.2283C23.2299 18.5041 23.04 19.9117 23.04 21.4324H24.5952H26.1504C26.1504 20.1661 26.309 19.0854 26.5998 18.1714L25.1178 17.6999ZM24.5952 21.4324H23.04V30.465H24.5952H26.1504V21.4324H24.5952ZM24.5952 30.465V28.9098H24.1722V30.465V32.0202H24.5952V30.465ZM24.1722 30.465V28.9098C23.7992 28.9098 23.5318 28.8769 23.3496 28.8337C23.1665 28.7902 23.1128 28.7465 23.1226 28.754L22.1816 29.9922L21.2406 31.2304C22.0637 31.856 23.1478 32.0202 24.1722 32.0202V30.465ZM22.1816 29.9922L23.1226 28.754C23.1753 28.794 23.1829 28.8301 23.1694 28.7943C23.1504 28.7443 23.1147 28.6103 23.1147 28.3499H21.5595H20.0043C20.0043 29.3657 20.2758 30.4972 21.2406 31.2304L22.1816 29.9922ZM21.5595 28.3499H23.1147C23.1147 27.5557 23.1823 26.6315 23.3248 25.571L21.7834 25.3639L20.2421 25.1569C20.0859 26.3193 20.0043 27.3856 20.0043 28.3499H21.5595ZM21.7834 25.3639L23.3211 25.5969C23.4837 24.5236 23.6708 23.4416 23.8825 22.3507L22.3558 22.0544L20.829 21.7582C20.6094 22.8902 20.415 24.0144 20.2458 25.1309L21.7834 25.3639ZM50.0037 8.49309L51.1845 9.50521L51.1961 9.49169L51.2074 9.47791L50.0037 8.49309ZM52.6413 8.41844L51.5123 9.48802L51.5268 9.50328L51.5416 9.51814L52.6413 8.41844ZM53.1639 9.56307L51.6129 9.67796L51.7196 11.1183H53.1639V9.56307ZM62.0721 9.56307H63.6273V8.00787H62.0721V9.56307ZM61.5246 11.1058L62.5095 12.3095L62.5255 12.2964L62.5411 12.2828L61.5246 11.1058ZM53.5869 11.5537V9.99853H52.0317V11.5537H53.5869ZM51.2728 20.7854L52.348 21.909L52.3543 21.903L51.2728 20.7854ZM42.7627 22.7014L41.9322 24.0163L41.9473 24.0258L41.9626 24.035L42.7627 22.7014ZM42.1157 21.9051L40.6404 22.3969L40.644 22.4079L40.6479 22.4189L42.1157 21.9051ZM43.2106 10.633L42.1005 9.54388L42.0952 9.54927L42.09 9.5547L43.2106 10.633ZM48.66 9.71237L47.5254 10.776L47.5426 10.7943L47.5603 10.8121L48.66 9.71237ZM49.0582 11.3049V12.8601H50.6134V11.3049H49.0582ZM45.6492 11.5786L45.1291 10.1129L45.1214 10.1157L45.1138 10.1185L45.6492 11.5786ZM44.5294 12.5988L43.1384 11.9033L43.1336 11.913L43.1289 11.9227L44.5294 12.5988ZM44.181 21.0093H42.6258V22.5645H44.181V21.0093ZM48.237 20.3873L48.8107 21.8329L48.8224 21.8281L48.237 20.3873ZM50.576 18.2224L49.185 17.5269L49.1805 17.5361L50.576 18.2224ZM51.3474 11.5537H52.9026V9.99853H51.3474V11.5537ZM50.0037 11.0312L48.8229 12.0433L48.8229 12.0433L50.0037 11.0312ZM49.5558 9.76214H51.111C51.111 9.60183 51.1487 9.547 51.1845 9.50521L50.0037 8.49309L48.8229 7.48098C48.2615 8.13592 48.0006 8.92711 48.0006 9.76214H49.5558ZM50.0037 8.49309L51.2074 9.47791C51.2007 9.48612 51.1896 9.49724 51.1753 9.50771C51.1687 9.5126 51.1627 9.51633 51.1579 9.51899C51.1556 9.52029 51.1537 9.52124 51.1524 9.52187C51.151 9.52251 51.1503 9.52279 51.1504 9.52278C51.1504 9.52278 51.1536 9.52146 51.1607 9.51945C51.1679 9.51743 51.1791 9.51467 51.195 9.5119C51.2271 9.5063 51.2768 9.50086 51.3474 9.50086V7.94566V6.39046C50.4189 6.39046 49.4701 6.68932 48.8001 7.50828L50.0037 8.49309ZM51.3474 7.94566V9.50086C51.4875 9.50086 51.5495 9.52072 51.5602 9.5246C51.5647 9.52626 51.5589 9.52457 51.547 9.5169C51.5349 9.50905 51.5226 9.4989 51.5123 9.48802L52.6413 8.41844L53.7703 7.34887C53.097 6.63806 52.2042 6.39046 51.3474 6.39046V7.94566ZM52.6413 8.41844L51.5416 9.51814C51.5911 9.56755 51.6071 9.5987 51.6129 9.67796L53.1639 9.56307L54.7148 9.44819C54.6544 8.63165 54.322 7.89971 53.741 7.31875L52.6413 8.41844ZM53.1639 9.56307V11.1183H62.0721V9.56307V8.00787H53.1639V9.56307ZM62.0721 9.56307H60.5169C60.5169 9.79397 60.4865 9.91596 60.4695 9.96368C60.4564 10.0006 60.4607 9.96974 60.5081 9.92882L61.5246 11.1058L62.5411 12.2828C63.3856 11.5535 63.6273 10.508 63.6273 9.56307H62.0721ZM61.5246 11.1058L60.5398 9.90217C60.425 9.9961 60.3683 9.99853 60.3302 9.99853V11.5537V13.1089C61.1548 13.1089 61.8943 12.8128 62.5095 12.3095L61.5246 11.1058ZM60.3302 11.5537V9.99853H53.5869V11.5537V13.1089H60.3302V11.5537ZM53.5869 11.5537H52.0317V14.042H53.5869H55.1421V11.5537H53.5869ZM53.5869 14.042H52.0317C52.0317 16.7947 51.327 18.5687 50.1912 19.6678L51.2728 20.7854L52.3543 21.903C54.3041 20.0161 55.1421 17.2946 55.1421 14.042H53.5869ZM51.2728 20.7854L50.1975 19.6618C49.0591 20.7513 47.1592 21.4448 44.181 21.4448V23V24.5552C47.573 24.5552 50.4009 23.7723 52.348 21.909L51.2728 20.7854ZM44.181 23V21.4448C43.9544 21.4448 43.7938 21.4261 43.6865 21.4035C43.5791 21.3809 43.5488 21.3594 43.5628 21.3678L42.7627 22.7014L41.9626 24.035C42.6386 24.4406 43.4355 24.5552 44.181 24.5552V23ZM42.7627 22.7014L43.5932 21.3865C43.5787 21.3774 43.5714 21.3713 43.5691 21.3693C43.5669 21.3673 43.5683 21.3683 43.5716 21.3723C43.5749 21.3764 43.5783 21.3814 43.581 21.3863C43.5837 21.3911 43.5843 21.3933 43.5836 21.3914L42.1157 21.9051L40.6479 22.4189C40.8873 23.1029 41.3395 23.642 41.9322 24.0163L42.7627 22.7014ZM42.1157 21.9051L43.5911 21.4133C43.5342 21.2426 43.4968 21.0294 43.4968 20.7605H41.9416H40.3864C40.3864 21.321 40.465 21.8709 40.6404 22.3969L42.1157 21.9051ZM41.9416 20.7605H43.4968V14.7637H41.9416H40.3864V20.7605H41.9416ZM41.9416 14.7637H43.4968C43.4968 13.0814 43.8818 12.1785 44.3312 11.7114L43.2106 10.633L42.09 9.5547C40.8474 10.846 40.3864 12.6969 40.3864 14.7637H41.9416ZM43.2106 10.633L44.3207 11.7222C44.7465 11.2882 45.6855 10.8694 47.59 10.8694V9.31424V7.75904C45.3805 7.75904 43.3999 8.21945 42.1005 9.54388L43.2106 10.633ZM47.59 9.31424V10.8694C47.6767 10.8694 47.6923 10.882 47.6636 10.8713C47.6486 10.8658 47.6256 10.8553 47.5987 10.8376C47.5717 10.8198 47.5467 10.7987 47.5254 10.776L48.66 9.71237L49.7946 8.6487C49.1754 7.98826 48.3584 7.75904 47.59 7.75904V9.31424ZM48.66 9.71237L47.5603 10.8121C47.4702 10.722 47.457 10.6539 47.4675 10.6892C47.4795 10.7296 47.503 10.8419 47.503 11.0561H49.0582H50.6134C50.6134 10.2773 50.4616 9.31457 49.7597 8.61268L48.66 9.71237ZM49.0582 11.0561H47.503V11.3049H49.0582H50.6134V11.0561H49.0582ZM49.0582 11.3049V9.7497H47.59V11.3049V12.8601H49.0582V11.3049ZM47.59 11.3049V9.7497C46.7028 9.7497 45.8653 9.85172 45.1291 10.1129L45.6492 11.5786L46.1692 13.0443C46.4616 12.9405 46.918 12.8601 47.59 12.8601V11.3049ZM45.6492 11.5786L45.1138 10.1185C44.2239 10.4447 43.5548 11.0705 43.1384 11.9033L44.5294 12.5988L45.9204 13.2943C46.0017 13.1319 46.079 13.0774 46.1845 13.0388L45.6492 11.5786ZM44.5294 12.5988L43.1289 11.9227C42.7431 12.7218 42.6258 13.7261 42.6258 14.7637H44.181H45.7362C45.7362 13.877 45.8512 13.438 45.93 13.2749L44.5294 12.5988ZM44.181 14.7637H42.6258V21.0093H44.181H45.7362V14.7637H44.181ZM44.181 21.0093V22.5645C45.9515 22.5645 47.5179 22.3458 48.8106 21.8328L48.237 20.3873L47.6634 18.9417C46.8659 19.2582 45.7284 19.4541 44.181 19.4541V21.0093ZM48.237 20.3873L48.8224 21.8281C50.2312 21.2558 51.3026 20.2691 51.9716 18.9088L50.576 18.2224L49.1805 17.5361C48.8542 18.1996 48.3662 18.6561 47.6517 18.9464L48.237 20.3873ZM50.576 18.2224L51.967 18.9179C52.6314 17.5893 52.9026 15.9258 52.9026 14.042H51.3474H49.7922C49.7922 15.6751 49.5492 16.7985 49.185 17.5269L50.576 18.2224ZM51.3474 14.042H52.9026V11.5537H51.3474H49.7922V14.042H51.3474ZM51.3474 11.5537V9.99853C51.1965 9.99853 51.1338 9.97616 51.1273 9.97364C51.125 9.97274 51.1334 9.97586 51.1475 9.98573C51.1619 9.99579 51.1748 10.0078 51.1845 10.0191L50.0037 11.0312L48.8229 12.0433C49.5005 12.8338 50.4425 13.1089 51.3474 13.1089V11.5537ZM50.0037 11.0312L51.1845 10.0191C51.1487 9.97728 51.111 9.92244 51.111 9.76214H49.5558H48.0006C48.0006 10.5972 48.2615 11.3884 48.8229 12.0433L50.0037 11.0312ZM62.601 11.5537V9.99853H61.0458V11.5537H62.601ZM62.601 21.2582H61.0458V22.8134H62.601V21.2582ZM71.3102 21.2582H72.8654V19.703H71.3102V21.2582ZM70.7627 22.6765L71.5539 24.0154L71.576 24.0024L71.5977 23.9886L70.7627 22.6765ZM60.8094 22.7263L59.979 24.0412L60.0187 24.0663L60.06 24.089L60.8094 22.7263ZM60.3367 11.5537H61.8919V9.99853H60.3367V11.5537ZM57.1018 11.5537H55.5466V13.1089H57.1018V11.5537ZM60.3367 9.56307V11.1183H61.8919V9.56307H60.3367ZM60.486 5.73106L61.5857 6.83075L61.5857 6.83075L60.486 5.73106ZM62.4268 5.73106L61.3272 6.83075L61.3272 6.83075L62.4268 5.73106ZM62.601 6.07942H64.1562V5.9826L64.1442 5.88652L62.601 6.07942ZM62.601 9.56307H61.0458V11.1183H62.601V9.56307ZM66.8312 9.56307H68.3864V8.00787H66.8312V9.56307ZM66.2837 11.1058L67.2686 12.3095L67.2846 12.2964L67.3003 12.2828L66.2837 11.1058ZM65.0894 11.5537V9.99853H62.601V11.5537V13.1089H65.0894V11.5537ZM62.601 11.5537H61.0458V21.2582H62.601H64.1562V11.5537H62.601ZM62.601 21.2582V22.8134H71.3102V21.2582V19.703H62.601V21.2582ZM71.3102 21.2582H69.755C69.755 21.3716 69.7476 21.4545 69.7388 21.5116C69.73 21.5688 69.7212 21.591 69.7224 21.5878C69.7241 21.5834 69.7377 21.55 69.7738 21.5034C69.8115 21.455 69.8635 21.4054 69.9278 21.3645L70.7627 22.6765L71.5977 23.9886C72.6448 23.3222 72.8654 22.1495 72.8654 21.2582H71.3102ZM70.7627 22.6765L69.9715 21.3376C69.8506 21.4091 69.7264 21.4448 69.5683 21.4448V23V24.5552C70.2729 24.5552 70.945 24.3753 71.5539 24.0154L70.7627 22.6765ZM69.5683 23V21.4448H61.8545V23V24.5552H69.5683V23ZM61.8545 23V21.4448C61.7617 21.4448 61.67 21.4247 61.5589 21.3636L60.8094 22.7263L60.06 24.089C60.6124 24.3928 61.2175 24.5552 61.8545 24.5552V23ZM60.8094 22.7263L61.6399 21.4114C61.7171 21.4601 61.7807 21.5199 61.8284 21.581C61.8746 21.6402 61.8965 21.6884 61.9049 21.7099C61.9127 21.7302 61.9088 21.7272 61.9032 21.691C61.8976 21.6551 61.8919 21.5954 61.8919 21.507H60.3367H58.7815C58.7815 22.3001 58.978 23.409 59.979 24.0412L60.8094 22.7263ZM60.3367 21.507H61.8919V11.5537H60.3367H58.7815V21.507H60.3367ZM60.3367 11.5537V9.99853H57.1018V11.5537V13.1089H60.3367V11.5537ZM57.1018 11.5537H58.657C58.657 11.3099 58.6886 11.1851 58.7044 11.1407C58.7159 11.1083 58.7039 11.1575 58.6341 11.2146L57.6493 10.011L56.6645 8.80731C55.7778 9.5328 55.5466 10.6149 55.5466 11.5537H57.1018ZM57.6493 10.011L58.6341 11.2146C58.7489 11.1207 58.8056 11.1183 58.8437 11.1183V9.56307V8.00787C58.0191 8.00787 57.2796 8.30405 56.6645 8.80731L57.6493 10.011ZM58.8437 9.56307V11.1183H60.3367V9.56307V8.00787H58.8437V9.56307ZM60.3367 9.56307H61.8919V6.07942H60.3367H58.7815V9.56307H60.3367ZM60.3367 6.07942H61.8919C61.8919 6.21286 61.8657 6.36019 61.8034 6.50542C61.742 6.64886 61.6598 6.75656 61.5857 6.83075L60.486 5.73106L59.3863 4.63137C59.0147 5.00292 58.7815 5.50729 58.7815 6.07942H60.3367ZM60.486 5.73106L61.5857 6.83075C61.5115 6.90494 61.4038 6.98706 61.2603 7.04854C61.1151 7.11078 60.9678 7.13696 60.8343 7.13696V5.58176V4.02656C60.2622 4.02656 59.7578 4.25981 59.3863 4.63137L60.486 5.73106ZM60.8343 5.58176V7.13696H62.0785V5.58176V4.02656H60.8343V5.58176ZM62.0785 5.58176V7.13696C61.945 7.13696 61.7977 7.11078 61.6525 7.04854C61.509 6.98706 61.4013 6.90494 61.3272 6.83075L62.4268 5.73106L63.5265 4.63137C63.155 4.25981 62.6506 4.02656 62.0785 4.02656V5.58176ZM62.4268 5.73106L61.3272 6.83075C61.2687 6.77226 61.2058 6.69182 61.154 6.58831C61.1018 6.48392 61.0707 6.37557 61.0578 6.27233L62.601 6.07942L64.1442 5.88652C64.0824 5.39181 63.8569 4.96168 63.5265 4.63137L62.4268 5.73106ZM62.601 6.07942H61.0458V9.56307H62.601H64.1562V6.07942H62.601ZM62.601 9.56307V11.1183H66.8312V9.56307V8.00787H62.601V9.56307ZM66.8312 9.56307H65.276C65.276 9.79397 65.2456 9.91596 65.2287 9.96368C65.2155 10.0006 65.2199 9.96974 65.2672 9.92882L66.2837 11.1058L67.3003 12.2828C68.1447 11.5535 68.3864 10.508 68.3864 9.56307H66.8312ZM66.2837 11.1058L65.2989 9.90217C65.1841 9.9961 65.1274 9.99853 65.0894 9.99853V11.5537V13.1089C65.9139 13.1089 66.6535 12.8128 67.2686 12.3095L66.2837 11.1058ZM73.5597 12.4993L72.0365 12.1857L72.0045 12.3409V12.4993H73.5597ZM73.5597 21.2582H72.0045V22.8134H73.5597V21.2582ZM81.5473 21.2582H83.1025V19.703H81.5473V21.2582ZM80.9998 22.6765L81.791 24.0154L81.8131 24.0024L81.8348 23.9886L80.9998 22.6765ZM71.793 22.7263L70.9626 24.0412L71.0023 24.0663L71.0436 24.089L71.793 22.7263ZM71.3203 4.08877V2.53357H69.7651V4.08877H71.3203ZM73.7339 4.56155L72.7686 5.7809L72.7807 5.79044L72.7929 5.79974L73.7339 4.56155ZM74.1321 9.16494L75.673 9.37507L75.6734 9.37199L74.1321 9.16494ZM73.5597 12.4993H72.0045V21.2582H73.5597H75.1149V12.4993H73.5597ZM73.5597 21.2582V22.8134H81.5473V21.2582V19.703H73.5597V21.2582ZM81.5473 21.2582H79.9921C79.9921 21.3716 79.9847 21.4545 79.9759 21.5116C79.9671 21.5688 79.9583 21.591 79.9595 21.5878C79.9612 21.5834 79.9748 21.55 80.0109 21.5034C80.0486 21.455 80.1006 21.4054 80.1649 21.3645L80.9998 22.6765L81.8348 23.9886C82.8819 23.3222 83.1025 22.1495 83.1025 21.2582H81.5473ZM80.9998 22.6765L80.2087 21.3376C80.0877 21.4091 79.9635 21.4448 79.8054 21.4448V23V24.5552C80.51 24.5552 81.1821 24.3753 81.791 24.0154L80.9998 22.6765ZM79.8054 23V21.4448H72.8381V23V24.5552H79.8054V23ZM72.8381 23V21.4448C72.7453 21.4448 72.6536 21.4247 72.5425 21.3636L71.793 22.7263L71.0436 24.089C71.596 24.3928 72.2011 24.5552 72.8381 24.5552V23ZM71.793 22.7263L72.6235 21.4114C72.7007 21.4601 72.7643 21.5199 72.812 21.581C72.8582 21.6402 72.8801 21.6884 72.8885 21.7099C72.8963 21.7302 72.8924 21.7272 72.8868 21.691C72.8812 21.6551 72.8755 21.5954 72.8755 21.507H71.3203H69.7651C69.7651 22.3001 69.9616 23.409 70.9626 24.0412L71.793 22.7263ZM71.3203 21.507H72.8755V4.08877H71.3203H69.7651V21.507H71.3203ZM71.3203 4.08877V5.64397H71.7433V4.08877V2.53357H71.3203V4.08877ZM71.7433 4.08877V5.64397C72.1271 5.64397 72.3979 5.67724 72.5783 5.72007C72.761 5.76347 72.7977 5.80396 72.7686 5.7809L73.7339 4.56155L74.6992 3.3422C73.8772 2.69145 72.7673 2.53357 71.7433 2.53357V4.08877ZM73.7339 4.56155L72.7929 5.79974C72.7402 5.7597 72.7326 5.72366 72.7461 5.7594C72.7651 5.80941 72.8008 5.94341 72.8008 6.20384H74.356H75.9112C75.9112 5.18804 75.6397 4.05654 74.675 3.32336L73.7339 4.56155ZM74.356 6.20384H72.8008C72.8008 6.98027 72.7334 7.89594 72.5907 8.95789L74.1321 9.16494L75.6734 9.37199C75.8294 8.21104 75.9112 7.15265 75.9112 6.20384H74.356ZM74.1321 9.16494L72.5911 8.95481C72.4467 10.0136 72.262 11.0905 72.0365 12.1857L73.5597 12.4993L75.083 12.8129C75.322 11.652 75.5188 10.506 75.673 9.37507L74.1321 9.16494ZM83.79 21.2582H82.2348V22.8134H83.79V21.2582ZM91.7776 21.2582H93.3328V19.703H91.7776V21.2582ZM91.2301 22.6765L92.0213 24.0154L92.0434 24.0024L92.0651 23.9886L91.2301 22.6765ZM82.0233 22.7263L81.1929 24.0412L81.2326 24.0663L81.2739 24.089L82.0233 22.7263ZM81.6999 9.71237L80.6002 8.61268L80.6002 8.61268L81.6999 9.71237ZM83.6159 9.71237L82.5162 10.8121L82.5584 10.8543L82.6038 10.8932L83.6159 9.71237ZM81.451 4.41225L82.745 5.27492L82.7557 5.25895L82.7659 5.24272L81.451 4.41225ZM83.8896 4.41225L82.6061 5.29044L82.6172 5.30677L82.6288 5.3228L83.8896 4.41225ZM83.8896 6.5522L82.6288 5.64165L82.6288 5.64165L83.8896 6.5522ZM81.451 6.5522L80.157 7.41487L80.157 7.41487L81.451 6.5522ZM83.79 21.2582V22.8134H91.7776V21.2582V19.703H83.79V21.2582ZM91.7776 21.2582H90.2224C90.2224 21.3716 90.215 21.4545 90.2062 21.5116C90.1974 21.5688 90.1886 21.591 90.1898 21.5878C90.1915 21.5834 90.2051 21.55 90.2412 21.5034C90.2789 21.455 90.3309 21.4054 90.3952 21.3645L91.2301 22.6765L92.0651 23.9886C93.1122 23.3222 93.3328 22.1495 93.3328 21.2582H91.7776ZM91.2301 22.6765L90.439 21.3376C90.318 21.4091 90.1938 21.4448 90.0357 21.4448V23V24.5552C90.7403 24.5552 91.4124 24.3753 92.0213 24.0154L91.2301 22.6765ZM90.0357 23V21.4448H83.0684V23V24.5552H90.0357V23ZM83.0684 23V21.4448C82.9756 21.4448 82.8839 21.4247 82.7728 21.3636L82.0233 22.7263L81.2739 24.089C81.8263 24.3928 82.4314 24.5552 83.0684 24.5552V23ZM82.0233 22.7263L82.8538 21.4114C82.931 21.4601 82.9946 21.5199 83.0423 21.581C83.0885 21.6402 83.1104 21.6884 83.1188 21.7099C83.1266 21.7302 83.1227 21.7272 83.1171 21.691C83.1115 21.6551 83.1058 21.5954 83.1058 21.507H81.5506H79.9954C79.9954 22.3001 80.1919 23.409 81.1929 24.0412L82.0233 22.7263ZM81.5506 21.507H83.1058V10.0607H81.5506H79.9954V21.507H81.5506ZM81.5506 10.0607H83.1058C83.1058 10.1942 83.0796 10.3415 83.0173 10.4867C82.9559 10.6302 82.8737 10.7379 82.7996 10.8121L81.6999 9.71237L80.6002 8.61268C80.2286 8.98423 79.9954 9.4886 79.9954 10.0607H81.5506ZM81.6999 9.71237L82.7996 10.8121C82.7254 10.8863 82.6177 10.9684 82.4742 11.0299C82.329 11.0921 82.1817 11.1183 82.0482 11.1183V9.56307V8.00787C81.4761 8.00787 80.9717 8.24112 80.6002 8.61268L81.6999 9.71237ZM82.0482 9.56307V11.1183H83.2675V9.56307V8.00787H82.0482V9.56307ZM83.2675 9.56307V11.1183C83.1341 11.1183 82.9867 11.0921 82.8415 11.0299C82.6981 10.9684 82.5904 10.8863 82.5162 10.8121L83.6159 9.71237L84.7156 8.61268C84.344 8.24112 83.8396 8.00787 83.2675 8.00787V9.56307ZM83.6159 9.71237L82.6038 10.8932C82.532 10.8317 82.4341 10.7269 82.3555 10.5696C82.2741 10.4068 82.2348 10.2303 82.2348 10.0607H83.79H85.3452C85.3452 9.40234 85.0304 8.8765 84.628 8.53158L83.6159 9.71237ZM83.79 10.0607H82.2348V21.2582H83.79H85.3452V10.0607H83.79ZM81.1524 5.48223H82.7076C82.7076 5.32549 82.7416 5.28007 82.745 5.27492L81.451 4.41225L80.157 3.54958C79.7623 4.14162 79.5972 4.80953 79.5972 5.48223H81.1524ZM81.451 4.41225L82.7659 5.24272C82.7172 5.3199 82.6574 5.38349 82.5963 5.4312C82.5372 5.4774 82.4889 5.49934 82.4674 5.50767C82.4471 5.51554 82.4502 5.51157 82.4863 5.50599C82.5222 5.50044 82.582 5.49467 82.6703 5.49467V3.93947V2.38427C81.8773 2.38427 80.7683 2.58079 80.1361 3.58178L81.451 4.41225ZM82.6703 3.93947V5.49467C82.7525 5.49467 82.808 5.50017 82.8412 5.50539C82.8744 5.51061 82.8781 5.5144 82.8608 5.50767C82.8423 5.50051 82.8015 5.48197 82.751 5.4436C82.6992 5.40418 82.6485 5.35239 82.6061 5.29044L83.8896 4.41225L85.1731 3.53405C84.5318 2.5967 83.4812 2.38427 82.6703 2.38427V3.93947ZM83.8896 4.41225L82.6288 5.3228C82.6293 5.32354 82.6579 5.35145 82.6579 5.48223H84.2131H85.7683C85.7683 4.78356 85.5811 4.09815 85.1504 3.50169L83.8896 4.41225ZM84.2131 5.48223H82.6579C82.6579 5.613 82.6293 5.64091 82.6288 5.64165L83.8896 6.5522L85.1504 7.46276C85.5811 6.8663 85.7683 6.18089 85.7683 5.48223H84.2131ZM83.8896 6.5522L82.6288 5.64165C82.6766 5.57555 82.7312 5.52361 82.7834 5.48606C82.8339 5.44966 82.8727 5.43348 82.8868 5.42831C82.8999 5.42347 82.8915 5.42819 82.8536 5.43384C82.8158 5.43946 82.756 5.4449 82.6703 5.4449V7.0001V8.5553C83.4536 8.5553 84.4976 8.36654 85.1504 7.46276L83.8896 6.5522ZM82.6703 7.0001V5.4449C82.5785 5.4449 82.5145 5.43923 82.474 5.4333C82.4332 5.42732 82.4254 5.42244 82.4414 5.42831C82.4583 5.43452 82.5046 5.45387 82.5641 5.49786C82.6257 5.54345 82.6902 5.60734 82.745 5.68953L81.451 6.5522L80.157 7.41487C80.8021 8.3825 81.9058 8.5553 82.6703 8.5553V7.0001ZM81.451 6.5522L82.745 5.68954C82.7416 5.68438 82.7076 5.63897 82.7076 5.48223H81.1524H79.5972C79.5972 6.15493 79.7623 6.82283 80.157 7.41487L81.451 6.5522ZM99.644 11.3049V12.8601H101.199V11.3049H99.644ZM95.4885 11.5786L94.9684 10.1129L94.9607 10.1157L94.9531 10.1185L95.4885 11.5786ZM94.3687 12.5988L92.9777 11.9033L92.9729 11.913L92.9682 11.9227L94.3687 12.5988ZM94.0204 21.1338H92.4652V22.689H94.0204V21.1338ZM96.0608 20.5614L96.7563 21.9525L96.768 21.9465L96.0608 20.5614ZM98.3251 18.745L97.1797 17.693L97.1738 17.6994L97.168 17.7059L98.3251 18.745ZM100.167 15.6346L98.7135 15.0801L98.7135 15.0801L100.167 15.6346ZM100.888 9.56307V8.00787H99.3329V9.56307H100.888ZM103.501 13.1214L101.989 12.7584L101.989 12.7584L103.501 13.1214ZM103.128 14.3158L101.679 13.749L101.572 14.0223V14.3158H103.128ZM103.128 21.2582H101.572V22.8134H103.128V21.2582ZM111.115 21.2582H112.67V19.703H111.115V21.2582ZM110.568 22.6765L111.359 24.0154L111.381 24.0024L111.403 23.9886L110.568 22.6765ZM103.103 23V21.4448H101.585L101.548 22.9621L103.103 23ZM102.306 27.7278L100.879 27.11L100.875 27.1191L100.872 27.1281L102.306 27.7278ZM100.167 30.0419L99.5303 28.6228L99.5155 28.6295L99.5007 28.6365L100.167 30.0419ZM95.3889 30.3157L94.1448 31.2488L94.1629 31.2729L94.1819 31.2964L95.3889 30.3157ZM95.0903 28.7231V27.1679H93.5351V28.7231H95.0903ZM98.4744 28.5241L98.1182 27.0102L98.108 27.0126L98.4744 28.5241ZM99.843 27.678L98.6755 26.6506L98.6538 26.6753L98.6332 26.7009L99.843 27.678ZM100.639 25.7372L99.1121 25.4435L99.111 25.4488L100.639 25.7372ZM100.888 18.0731H102.443V12.1546L99.5338 17.3086L100.888 18.0731ZM98.8477 20.7605L99.9352 21.8722L99.9355 21.872L98.8477 20.7605ZM96.4589 22.5023L95.7634 21.1113L95.7634 21.1113L96.4589 22.5023ZM92.2536 22.4775L90.9818 23.3725L90.9898 23.3838L90.998 23.395L92.2536 22.4775ZM93.0499 10.633L91.9398 9.54388L91.9345 9.54927L91.9293 9.5547L93.0499 10.633ZM99.0716 9.71237L99.9598 8.4357L99.9598 8.4357L99.0716 9.71237ZM99.644 11.0561H98.0888V11.3049H99.644H101.199V11.0561H99.644ZM99.644 11.3049V9.7497H97.4293V11.3049V12.8601H99.644V11.3049ZM97.4293 11.3049V9.7497C96.5421 9.7497 95.7046 9.85172 94.9684 10.1129L95.4885 11.5786L96.0085 13.0443C96.3009 12.9405 96.7573 12.8601 97.4293 12.8601V11.3049ZM95.4885 11.5786L94.9531 10.1185C94.0632 10.4447 93.3941 11.0705 92.9777 11.9033L94.3687 12.5988L95.7597 13.2943C95.841 13.1319 95.9183 13.0774 96.0238 13.0388L95.4885 11.5786ZM94.3687 12.5988L92.9682 11.9227C92.5824 12.7218 92.4652 13.7261 92.4652 14.7637H94.0204H95.5756C95.5756 13.877 95.6906 13.438 95.7693 13.2749L94.3687 12.5988ZM94.0204 14.7637H92.4652V21.1338H94.0204H95.5756V14.7637H94.0204ZM94.0204 21.1338V22.689C94.9398 22.689 95.8636 22.3988 96.7563 21.9525L96.0608 20.5614L95.3653 19.1704C94.7318 19.4872 94.2952 19.5786 94.0204 19.5786V21.1338ZM96.0608 20.5614L96.768 21.9465C97.7539 21.4431 98.6553 20.705 99.4823 19.784L98.3251 18.745L97.168 17.7059C96.5351 18.4107 95.927 18.8836 95.3535 19.1764L96.0608 20.5614ZM98.3251 18.745L99.4706 19.7969C100.376 18.8108 101.083 17.5938 101.62 16.189L100.167 15.6346L98.7135 15.0801C98.2874 16.1968 97.7671 17.0534 97.1797 17.693L98.3251 18.745ZM100.167 15.6346L101.62 16.189C102.185 14.7081 102.443 13.0096 102.443 11.1307H100.888H99.3329C99.3329 12.7355 99.1105 14.0396 98.7135 15.0801L100.167 15.6346ZM100.888 11.1307H102.443V9.56307H100.888H99.3329V11.1307H100.888ZM100.888 9.56307V11.1183H101.784V9.56307V8.00787H100.888V9.56307ZM101.784 9.56307V11.1183C101.941 11.1183 102.007 11.1423 102.017 11.1463C102.018 11.1465 101.998 11.1355 101.983 11.1183C101.969 11.101 102.095 11.2471 102.095 11.8274H103.65H105.205C105.205 10.8982 105.02 9.9121 104.384 9.14005C103.7 8.31042 102.733 8.00787 101.784 8.00787V9.56307ZM103.65 11.8274H102.095C102.095 12.1592 102.058 12.4684 101.989 12.7584L103.501 13.1214L105.013 13.4843C105.143 12.9449 105.205 12.3915 105.205 11.8274H103.65ZM103.501 13.1214L101.989 12.7584C101.905 13.1067 101.802 13.4365 101.679 13.749L103.128 14.3158L104.576 14.8825C104.752 14.4319 104.898 13.9655 105.013 13.4843L103.501 13.1214ZM103.128 14.3158H101.572V21.2582H103.128H104.683V14.3158H103.128ZM103.128 21.2582V22.8134H111.115V21.2582V19.703H103.128V21.2582ZM111.115 21.2582H109.56C109.56 21.3716 109.553 21.4545 109.544 21.5116C109.535 21.5688 109.526 21.591 109.527 21.5878C109.529 21.5834 109.543 21.55 109.579 21.5034C109.616 21.455 109.668 21.4054 109.733 21.3645L110.568 22.6765L111.403 23.9886C112.45 23.3222 112.67 22.1495 112.67 21.2582H111.115ZM110.568 22.6765L109.777 21.3376C109.656 21.4091 109.531 21.4448 109.373 21.4448V23V24.5552C110.078 24.5552 110.75 24.3753 111.359 24.0154L110.568 22.6765ZM109.373 23V21.4448H103.103V23V24.5552H109.373V23ZM103.103 23L101.548 22.9621C101.5 24.9208 101.245 26.2657 100.879 27.11L102.306 27.7278L103.734 28.3456C104.33 26.967 104.606 25.16 104.657 23.0379L103.103 23ZM102.306 27.7278L100.872 27.1281C100.536 27.9307 100.08 28.3764 99.5303 28.6228L100.167 30.0419L100.803 31.4611C102.177 30.8449 103.148 29.7478 103.741 28.3275L102.306 27.7278ZM100.167 30.0419L99.5007 28.6365C98.8344 28.9521 97.8575 29.1586 96.4838 29.1586V30.7138V32.269C98.1292 32.269 99.6075 32.0276 100.832 31.4474L100.167 30.0419ZM96.4838 30.7138V29.1586C96.3526 29.1586 96.3228 29.1407 96.3559 29.1527C96.3752 29.1597 96.4123 29.1757 96.4582 29.2072C96.5051 29.2394 96.553 29.2821 96.5959 29.335L95.3889 30.3157L94.1819 31.2964C94.8171 32.0781 95.7421 32.269 96.4838 32.269V30.7138ZM95.3889 30.3157L96.6331 29.3825C96.7031 29.4759 96.6995 29.5219 96.6818 29.4435C96.6648 29.3685 96.6455 29.2267 96.6455 28.9969H95.0903H93.5351C93.5351 29.6987 93.6334 30.5669 94.1448 31.2488L95.3889 30.3157ZM95.0903 28.9969H96.6455V28.7231H95.0903H93.5351V28.9969H95.0903ZM95.0903 28.7231V30.2783H96.4838V28.7231V27.1679H95.0903V28.7231ZM96.4838 28.7231V30.2783C97.3435 30.2783 98.1375 30.206 98.8408 30.0355L98.4744 28.5241L98.108 27.0126C97.7165 27.1076 97.1835 27.1679 96.4838 27.1679V28.7231ZM98.4744 28.5241L98.8306 30.0379C99.7146 29.8299 100.477 29.368 101.053 28.6552L99.843 27.678L98.6332 26.7009C98.5121 26.8507 98.3623 26.9528 98.1182 27.0102L98.4744 28.5241ZM99.843 27.678L101.011 28.7055C101.641 27.9891 101.979 27.0261 102.168 26.0255L100.639 25.7372L99.111 25.4488C98.9681 26.2066 98.775 26.5375 98.6755 26.6506L99.843 27.678ZM100.639 25.7372L102.166 26.0308C102.359 25.029 102.443 23.7564 102.443 22.2535H100.888H99.3329C99.3329 23.6702 99.2512 24.7201 99.1121 25.4435L100.639 25.7372ZM100.888 22.2535H102.443V18.0731H100.888H99.3329V22.2535H100.888ZM100.888 18.0731L99.5338 17.3086C99.0193 18.22 98.4266 18.9966 97.7599 19.6491L98.8477 20.7605L99.9355 21.872C100.828 20.9983 101.596 19.9833 102.242 18.8377L100.888 18.0731ZM98.8477 20.7605L97.7602 19.6488C97.0954 20.2991 96.4285 20.7788 95.7634 21.1113L96.4589 22.5023L97.1544 23.8933C98.1482 23.3965 99.0738 22.7149 99.9352 21.8722L98.8477 20.7605ZM96.4589 22.5023L95.7634 21.1113C95.1144 21.4358 94.5384 21.5692 94.0204 21.5692V23.1244V24.6796C95.0948 24.6796 96.1445 24.3983 97.1544 23.8933L96.4589 22.5023ZM94.0204 23.1244V21.5692C93.7078 21.5692 93.5386 21.5287 93.4665 21.5023C93.4094 21.4814 93.4558 21.4866 93.5093 21.5599L92.2536 22.4775L90.998 23.395C91.7496 24.4236 92.9694 24.6796 94.0204 24.6796V23.1244ZM92.2536 22.4775L93.5255 21.5824C93.4166 21.4277 93.3361 21.2186 93.3361 20.8849H91.7809H90.2257C90.2257 21.7788 90.4603 22.6314 90.9818 23.3725L92.2536 22.4775ZM91.7809 20.8849H93.3361V14.7637H91.7809H90.2257V20.8849H91.7809ZM91.7809 14.7637H93.3361C93.3361 13.0814 93.7211 12.1785 94.1705 11.7114L93.0499 10.633L91.9293 9.5547C90.6867 10.846 90.2257 12.6969 90.2257 14.7637H91.7809ZM93.0499 10.633L94.16 11.7222C94.5858 11.2882 95.5248 10.8694 97.4293 10.8694V9.31424V7.75904C95.2198 7.75904 93.2392 8.21945 91.9398 9.54388L93.0499 10.633ZM97.4293 9.31424V10.8694C97.9837 10.8694 98.168 10.9782 98.1835 10.989L99.0716 9.71237L99.9598 8.4357C99.2122 7.91565 98.3016 7.75904 97.4293 7.75904V9.31424ZM99.0716 9.71237L98.1835 10.989C98.1587 10.9718 98.1322 10.9478 98.109 10.9189C98.0861 10.8904 98.0744 10.867 98.0701 10.8568C98.063 10.8403 98.0888 10.8913 98.0888 11.0561H99.644H101.199C101.199 10.1148 100.899 9.08913 99.9598 8.4357L99.0716 9.71237ZM113.363 23V24.5552H114.918V23H113.363ZM110.726 19.4417L109.213 19.0788L109.206 19.1076L109.201 19.1367L110.726 19.4417ZM111.124 18.2473L112.55 18.8674L112.679 18.5708V18.2473H111.124ZM111.273 4.23807L112.373 5.33776L112.373 5.33776L111.273 4.23807ZM113.214 4.23807L112.114 5.33776L112.114 5.33776L113.214 4.23807ZM113.363 14.5397H111.808V20.4942L114.72 15.3002L113.363 14.5397ZM115.478 11.6781L114.367 10.5896L114.367 10.5898L115.478 11.6781ZM117.991 9.76214L118.708 11.1424L118.718 11.1372L117.991 9.76214ZM122.271 9.71237L120.993 10.5976L121.004 10.6139L121.016 10.63L122.271 9.71237ZM122.744 21.2582H121.189V22.8134H122.744V21.2582ZM130.707 21.2582H132.262V19.703H130.707V21.2582ZM130.159 22.6765L130.95 24.0154L130.973 24.0024L130.994 23.9886L130.159 22.6765ZM120.977 22.7263L120.147 24.0412L120.172 24.0572L120.198 24.0722L120.977 22.7263ZM120.505 11.0561H122.06V9.50086H120.505V11.0561ZM118.862 11.4791L119.48 12.9065L119.489 12.9027L119.497 12.8987L118.862 11.4791ZM116.971 12.7232L117.976 13.9105L117.985 13.903L117.993 13.8955L116.971 12.7232ZM115.18 14.7885L113.882 13.9319L113.876 13.941L113.87 13.9502L115.18 14.7885ZM113.861 17.6999L112.377 17.2347L112.375 17.2418L112.372 17.2489L113.861 17.6999ZM113.363 23V21.4448H112.467V23V24.5552H113.363V23ZM112.467 23V21.4448C112.31 21.4448 112.244 21.4207 112.234 21.4167C112.234 21.4166 112.254 21.4276 112.268 21.4448C112.282 21.4621 112.156 21.3159 112.156 20.7356H110.601H109.046C109.046 21.6649 109.231 22.651 109.868 23.423C110.551 24.2527 111.518 24.5552 112.467 24.5552V23ZM110.601 20.7356H112.156C112.156 20.3841 112.189 20.0553 112.251 19.7467L110.726 19.4417L109.201 19.1367C109.096 19.6576 109.046 20.1913 109.046 20.7356H110.601ZM110.726 19.4417L112.238 19.8046C112.317 19.4758 112.421 19.1638 112.55 18.8674L111.124 18.2473L109.697 17.6272C109.495 18.0939 109.333 18.5782 109.213 19.0788L110.726 19.4417ZM111.124 18.2473H112.679V4.58643H111.124H109.568V18.2473H111.124ZM111.124 4.58643H112.679C112.679 4.71987 112.653 4.8672 112.59 5.01243C112.529 5.15586 112.447 5.26357 112.373 5.33776L111.273 4.23807L110.173 3.13837C109.802 3.50993 109.568 4.0143 109.568 4.58643H111.124ZM111.273 4.23807L112.373 5.33776C112.298 5.41194 112.191 5.49407 112.047 5.55554C111.902 5.61779 111.755 5.64397 111.621 5.64397V4.08877V2.53357C111.049 2.53357 110.545 2.76682 110.173 3.13838L111.273 4.23807ZM111.621 4.08877V5.64397H112.865V4.08877V2.53357H111.621V4.08877ZM112.865 4.08877V5.64397C112.732 5.64397 112.585 5.61779 112.439 5.55554C112.296 5.49407 112.188 5.41194 112.114 5.33776L113.214 4.23807L114.314 3.13838C113.942 2.76682 113.438 2.53357 112.865 2.53357V4.08877ZM113.214 4.23807L112.114 5.33776C112.04 5.26357 111.958 5.15586 111.896 5.01243C111.834 4.8672 111.808 4.71987 111.808 4.58643H113.363H114.918C114.918 4.0143 114.685 3.50993 114.314 3.13837L113.214 4.23807ZM113.363 4.58643H111.808V14.5397H113.363H114.918V4.58643H113.363ZM113.363 14.5397L114.72 15.3002C115.273 14.3128 115.898 13.4718 116.589 12.7664L115.478 11.6781L114.367 10.5898C113.466 11.5101 112.681 12.5769 112.007 13.7792L113.363 14.5397ZM115.478 11.6781L116.589 12.7667C117.308 12.0325 118.017 11.5014 118.708 11.1424L117.991 9.76214L117.275 8.3819C116.241 8.91869 115.274 9.66491 114.367 10.5896L115.478 11.6781ZM117.991 9.76214L118.718 11.1372C119.428 10.7622 120.017 10.6206 120.505 10.6206V9.06541V7.51021C119.4 7.51021 118.313 7.83315 117.265 8.38704L117.991 9.76214ZM120.505 9.06541V10.6206C120.829 10.6206 121.002 10.6621 121.071 10.6875C121.124 10.707 121.059 10.6941 120.993 10.5976L122.271 9.71237L123.55 8.82713C122.808 7.75544 121.548 7.51021 120.505 7.51021V9.06541ZM122.271 9.71237L121.016 10.63C121.103 10.7494 121.189 10.9432 121.189 11.3049H122.744H124.299C124.299 10.4058 124.07 9.53794 123.527 8.79478L122.271 9.71237ZM122.744 11.3049H121.189V21.2582H122.744H124.299V11.3049H122.744ZM122.744 21.2582V22.8134H130.707V21.2582V19.703H122.744V21.2582ZM130.707 21.2582H129.152C129.152 21.3716 129.144 21.4545 129.135 21.5116C129.127 21.5688 129.118 21.591 129.119 21.5878C129.121 21.5834 129.134 21.55 129.17 21.5034C129.208 21.455 129.26 21.4054 129.324 21.3645L130.159 22.6765L130.994 23.9886C132.041 23.3222 132.262 22.1495 132.262 21.2582H130.707ZM130.159 22.6765L129.368 21.3376C129.247 21.4091 129.123 21.4448 128.965 21.4448V23V24.5552C129.669 24.5552 130.342 24.3753 130.95 24.0154L130.159 22.6765ZM128.965 23V21.4448H121.998V23V24.5552H128.965V23ZM121.998 23V21.4448C121.906 21.4448 121.834 21.4255 121.757 21.3804L120.977 22.7263L120.198 24.0722C120.751 24.3921 121.36 24.5552 121.998 24.5552V23ZM120.977 22.7263L121.808 21.4114C121.885 21.4601 121.949 21.5199 121.996 21.581C122.043 21.6402 122.064 21.6884 122.073 21.7099C122.081 21.7302 122.077 21.7272 122.071 21.691C122.066 21.6551 122.06 21.5954 122.06 21.507H120.505H118.949C118.949 22.3001 119.146 23.409 120.147 24.0412L120.977 22.7263ZM120.505 21.507H122.06V11.0561H120.505H118.949V21.507H120.505ZM120.505 11.0561V9.50086C119.741 9.50086 118.969 9.72776 118.227 10.0595L118.862 11.4791L119.497 12.8987C120.017 12.6664 120.339 12.6113 120.505 12.6113V11.0561ZM118.862 11.4791L118.245 10.0516C117.449 10.3958 116.685 10.9098 115.949 11.551L116.971 12.7232L117.993 13.8955C118.552 13.4086 119.048 13.0932 119.48 12.9065L118.862 11.4791ZM116.971 12.7232L115.967 11.536C115.189 12.1939 114.497 12.9996 113.882 13.9319L115.18 14.7885L116.478 15.6452C116.957 14.9186 117.459 14.3474 117.976 13.9105L116.971 12.7232ZM115.18 14.7885L113.87 13.9502C113.252 14.9147 112.759 16.015 112.377 17.2347L113.861 17.6999L115.345 18.165C115.659 17.1619 116.045 16.3213 116.49 15.6269L115.18 14.7885ZM113.861 17.6999L112.372 17.2489C111.988 18.5177 111.808 19.9181 111.808 21.4324H113.363H114.918C114.918 20.1597 115.07 19.0717 115.349 18.1509L113.861 17.6999ZM113.363 21.4324H111.808V23H113.363H114.918V21.4324H113.363ZM132.974 11.5537V9.99853H131.419V11.5537H132.974ZM132.974 21.2582H131.419V22.8134H132.974V21.2582ZM141.683 21.2582H143.238V19.703H141.683V21.2582ZM141.136 22.6765L141.927 24.0154L141.949 24.0024L141.97 23.9886L141.136 22.6765ZM131.182 22.7263L130.352 24.0412L130.392 24.0663L130.433 24.089L131.182 22.7263ZM130.709 11.5537H132.265V9.99853H130.709V11.5537ZM127.475 11.5537H125.919V13.1089H127.475V11.5537ZM130.709 9.56307V11.1183H132.265V9.56307H130.709ZM130.859 5.73106L131.958 6.83075L131.958 6.83075L130.859 5.73106ZM132.8 5.73106L131.7 6.83075L131.7 6.83075L132.8 5.73106ZM132.974 6.07942H134.529V5.9826L134.517 5.88652L132.974 6.07942ZM132.974 9.56307H131.419V11.1183H132.974V9.56307ZM137.204 9.56307H138.759V8.00787H137.204V9.56307ZM136.657 11.1058L137.641 12.3095L137.657 12.2964L137.673 12.2828L136.657 11.1058ZM135.462 11.5537V9.99853H132.974V11.5537V13.1089H135.462V11.5537ZM132.974 11.5537H131.419V21.2582H132.974H134.529V11.5537H132.974ZM132.974 21.2582V22.8134H141.683V21.2582V19.703H132.974V21.2582ZM141.683 21.2582H140.128C140.128 21.3716 140.12 21.4545 140.112 21.5116C140.103 21.5688 140.094 21.591 140.095 21.5878C140.097 21.5834 140.111 21.55 140.147 21.5034C140.184 21.455 140.236 21.4054 140.301 21.3645L141.136 22.6765L141.97 23.9886C143.018 23.3222 143.238 22.1495 143.238 21.2582H141.683ZM141.136 22.6765L140.344 21.3376C140.223 21.4091 140.099 21.4448 139.941 21.4448V23V24.5552C140.646 24.5552 141.318 24.3753 141.927 24.0154L141.136 22.6765ZM139.941 23V21.4448H132.227V23V24.5552H139.941V23ZM132.227 23V21.4448C132.134 21.4448 132.043 21.4247 131.932 21.3636L131.182 22.7263L130.433 24.089C130.985 24.3928 131.59 24.5552 132.227 24.5552V23ZM131.182 22.7263L132.013 21.4114C132.09 21.4601 132.153 21.5199 132.201 21.581C132.247 21.6402 132.269 21.6884 132.278 21.7099C132.286 21.7302 132.282 21.7272 132.276 21.691C132.27 21.6551 132.265 21.5954 132.265 21.507H130.709H129.154C129.154 22.3001 129.351 23.409 130.352 24.0412L131.182 22.7263ZM130.709 21.507H132.265V11.5537H130.709H129.154V21.507H130.709ZM130.709 11.5537V9.99853H127.475V11.5537V13.1089H130.709V11.5537ZM127.475 11.5537H129.03C129.03 11.3099 129.061 11.1851 129.077 11.1407C129.089 11.1083 129.077 11.1575 129.007 11.2146L128.022 10.011L127.037 8.80731C126.151 9.5328 125.919 10.6149 125.919 11.5537H127.475ZM128.022 10.011L129.007 11.2146C129.122 11.1207 129.178 11.1183 129.216 11.1183V9.56307V8.00787C128.392 8.00787 127.652 8.30405 127.037 8.80731L128.022 10.011ZM129.216 9.56307V11.1183H130.709V9.56307V8.00787H129.216V9.56307ZM130.709 9.56307H132.265V6.07942H130.709H129.154V9.56307H130.709ZM130.709 6.07942H132.265C132.265 6.21286 132.238 6.36019 132.176 6.50542C132.115 6.64886 132.033 6.75656 131.958 6.83075L130.859 5.73106L129.759 4.63137C129.388 5.00292 129.154 5.50729 129.154 6.07942H130.709ZM130.859 5.73106L131.958 6.83075C131.884 6.90494 131.777 6.98706 131.633 7.04854C131.488 7.11078 131.341 7.13696 131.207 7.13696V5.58176V4.02656C130.635 4.02656 130.131 4.25981 129.759 4.63137L130.859 5.73106ZM131.207 5.58176V7.13696H132.451V5.58176V4.02656H131.207V5.58176ZM132.451 5.58176V7.13696C132.318 7.13696 132.171 7.11078 132.025 7.04854C131.882 6.98706 131.774 6.90494 131.7 6.83075L132.8 5.73106L133.899 4.63137C133.528 4.25981 133.023 4.02656 132.451 4.02656V5.58176ZM132.8 5.73106L131.7 6.83075C131.641 6.77226 131.579 6.69182 131.527 6.58831C131.475 6.48392 131.444 6.37557 131.431 6.27233L132.974 6.07942L134.517 5.88652C134.455 5.39181 134.23 4.96168 133.899 4.63137L132.8 5.73106ZM132.974 6.07942H131.419V9.56307H132.974H134.529V6.07942H132.974ZM132.974 9.56307V11.1183H137.204V9.56307V8.00787H132.974V9.56307ZM137.204 9.56307H135.649C135.649 9.79397 135.618 9.91596 135.601 9.96368C135.588 10.0006 135.593 9.96974 135.64 9.92882L136.657 11.1058L137.673 12.2828C138.517 11.5535 138.759 10.508 138.759 9.56307H137.204ZM136.657 11.1058L135.672 9.90217C135.557 9.9961 135.5 9.99853 135.462 9.99853V11.5537V13.1089C136.287 13.1089 137.026 12.8128 137.641 12.3095L136.657 11.1058Z" fill="black" mask="url(#path-1-outside-1_15_834)"/>
</svg>
