<svg width="16" height="16" viewBox="0 0 16 16" fill="none" xmlns="http://www.w3.org/2000/svg">
<path d="M10.3333 7.33325C10.611 7.33325 10.8473 7.23614 11.0419 7.04192C11.2366 6.8477 11.3337 6.61147 11.3333 6.33325C11.3328 6.05503 11.2357 5.81903 11.0419 5.62525C10.8481 5.43147 10.6119 5.33414 10.3333 5.33325C10.0546 5.33236 9.81859 5.4297 9.62525 5.62525C9.43192 5.82081 9.33459 6.05681 9.33325 6.33325C9.33192 6.6097 9.42925 6.84592 9.62525 7.04192C9.82125 7.23792 10.0573 7.33503 10.3333 7.33325ZM5.66659 7.33325C5.94436 7.33325 6.18059 7.23614 6.37525 7.04192C6.56992 6.8477 6.66703 6.61147 6.66659 6.33325C6.66614 6.05503 6.56903 5.81903 6.37525 5.62525C6.18148 5.43147 5.94525 5.33414 5.66659 5.33325C5.38792 5.33236 5.15192 5.4297 4.95859 5.62525C4.76525 5.82081 4.66792 6.05681 4.66659 6.33325C4.66525 6.6097 4.76259 6.84592 4.95859 7.04192C5.15459 7.23792 5.39059 7.33503 5.66659 7.33325ZM7.99992 11.6666C8.75548 11.6666 9.4417 11.4528 10.0586 11.0253C10.6755 10.5977 11.1226 10.0337 11.3999 9.33325H4.59992C4.8777 10.0333 5.32503 10.5973 5.94192 11.0253C6.55881 11.4533 7.24481 11.667 7.99992 11.6666ZM7.99992 14.6666C7.0777 14.6666 6.21103 14.4915 5.39992 14.1413C4.58881 13.791 3.88325 13.3161 3.28325 12.7166C2.68325 12.117 2.20836 11.4115 1.85859 10.5999C1.50881 9.78836 1.3337 8.9217 1.33325 7.99992C1.33281 7.07814 1.50792 6.21147 1.85859 5.39992C2.20925 4.58836 2.68414 3.88281 3.28325 3.28325C3.88236 2.6837 4.58792 2.20881 5.39992 1.85859C6.21192 1.50836 7.07859 1.33325 7.99992 1.33325C8.92125 1.33325 9.78792 1.50836 10.5999 1.85859C11.4119 2.20881 12.1175 2.6837 12.7166 3.28325C13.3157 3.88281 13.7908 4.58836 14.1419 5.39992C14.493 6.21147 14.6679 7.07814 14.6666 7.99992C14.6653 8.9217 14.4901 9.78836 14.1413 10.5999C13.7924 11.4115 13.3175 12.117 12.7166 12.7166C12.1157 13.3161 11.4101 13.7913 10.5999 14.1419C9.7897 14.4926 8.92303 14.6675 7.99992 14.6666ZM7.99992 13.3333C9.48881 13.3333 10.7499 12.8166 11.7833 11.7833C12.8166 10.7499 13.3333 9.48881 13.3333 7.99992C13.3333 6.51103 12.8166 5.24992 11.7833 4.21658C10.7499 3.18325 9.48881 2.66659 7.99992 2.66659C6.51103 2.66659 5.24992 3.18325 4.21659 4.21658C3.18325 5.24992 2.66659 6.51103 2.66659 7.99992C2.66659 9.48881 3.18325 10.7499 4.21659 11.7833C5.24992 12.8166 6.51103 13.3333 7.99992 13.3333Z" fill="#5B647E"/>
</svg>
