<svg width="25" height="24" viewBox="0 0 25 24" fill="currentColor" xmlns="http://www.w3.org/2000/svg">
<path d="M12.7 12.0003C11.369 12.0003 10.2295 11.5264 9.28171 10.5786C8.33388 9.63073 7.85996 8.49131 7.85996 7.16031C7.85996 5.82931 8.33388 4.6899 9.28171 3.74206C10.2295 2.79423 11.369 2.32031 12.7 2.32031C14.031 2.32031 15.1704 2.79423 16.1182 3.74206C17.066 4.6899 17.54 5.82931 17.54 7.16031C17.54 8.49131 17.066 9.63073 16.1182 10.5786C15.1704 11.5264 14.031 12.0003 12.7 12.0003ZM3.01996 19.2603V18.2923C3.01996 17.6066 3.19662 16.9766 3.54994 16.4023C3.90326 15.8279 4.37193 15.3891 4.95596 15.0858C6.20629 14.4606 7.47679 13.992 8.76746 13.6798C10.0581 13.3676 11.369 13.2111 12.7 13.2103C14.031 13.2095 15.3418 13.366 16.6325 13.6798C17.9231 13.9936 19.1936 14.4623 20.444 15.0858C21.0288 15.3883 21.4979 15.8271 21.8512 16.4023C22.2045 16.9774 22.3808 17.6075 22.38 18.2923V19.2603C22.38 19.9258 22.1432 20.4957 21.6697 20.97C21.1962 21.4444 20.6263 21.6811 19.96 21.6803H5.43996C4.77446 21.6803 4.20495 21.4436 3.73144 20.97C3.25792 20.4965 3.02077 19.9266 3.01996 19.2603Z"/>
</svg>
