<svg width="17" height="17" viewBox="0 0 17 17" fill="none" xmlns="http://www.w3.org/2000/svg">
<g clip-path="url(#clip0_429_3065)">
<path d="M10.7801 8.27979C10.1376 8.27979 9.5163 7.99291 9.03006 7.47229C8.55724 6.96447 8.26849 6.28729 8.21755 5.56604C8.16318 4.79666 8.39787 4.08916 8.87818 3.57354C9.35849 3.05791 10.0301 2.77979 10.7801 2.77979C11.5247 2.77979 12.1982 3.06291 12.6769 3.57729C13.1604 4.09666 13.3957 4.80291 13.3413 5.56572C13.2891 6.28791 13.0007 6.96479 12.5288 7.47197C12.0438 7.99291 11.4229 8.27979 10.7801 8.27979ZM14.8997 13.7798H6.66068C6.52821 13.7805 6.39735 13.7508 6.27816 13.693C6.15897 13.6352 6.05464 13.5508 5.97318 13.4463C5.88677 13.3331 5.82711 13.2018 5.79864 13.0622C5.77017 12.9226 5.77365 12.7784 5.8088 12.6404C6.07193 11.5838 6.7238 10.7076 7.6938 10.1067C8.55474 9.57353 9.65068 9.27979 10.7801 9.27979C11.9316 9.27979 12.9988 9.56103 13.8647 10.0938C14.8369 10.6917 15.4897 11.5729 15.7516 12.6423C15.7863 12.7804 15.7894 12.9246 15.7606 13.0641C15.7319 13.2036 15.6719 13.3348 15.5854 13.4479C15.504 13.5519 15.3999 13.6359 15.2811 13.6934C15.1622 13.7509 15.0318 13.7805 14.8997 13.7798ZM4.8738 8.40479C3.77412 8.40479 2.80724 7.38229 2.71755 6.12572C2.67318 5.48197 2.8738 4.88666 3.28005 4.4501C3.68193 4.01791 4.2488 3.77979 4.8738 3.77979C5.4988 3.77979 6.0613 4.01916 6.46537 4.45385C6.87474 4.89385 7.07474 5.48791 7.02787 6.12635C6.93818 7.3826 5.97162 8.40479 4.8738 8.40479ZM6.92568 9.3876C6.37599 9.11885 5.66255 8.98447 4.87412 8.98447C3.95349 8.98447 3.05943 9.22447 2.3563 9.6601C1.55912 10.1548 1.02287 10.8751 0.806305 11.7448C0.774613 11.8699 0.771615 12.0005 0.797536 12.1269C0.823458 12.2533 0.877627 12.3723 0.955992 12.4748C1.03035 12.5702 1.12561 12.6474 1.23445 12.7003C1.34329 12.7531 1.4628 12.7803 1.5838 12.7798H5.05255C5.1111 12.7798 5.16779 12.7592 5.21273 12.7217C5.25768 12.6842 5.28803 12.6321 5.29849 12.5745C5.30193 12.5548 5.3063 12.5351 5.3113 12.5157C5.5763 11.4513 6.19724 10.552 7.11474 9.89635C7.14849 9.87202 7.17563 9.83966 7.19371 9.8022C7.21179 9.76473 7.22023 9.72335 7.21828 9.68179C7.21632 9.64024 7.20403 9.59983 7.18251 9.56423C7.161 9.52863 7.13094 9.49896 7.09505 9.47791C7.04599 9.44916 6.98974 9.41885 6.92568 9.3876Z" fill="#5B647E"/>
</g>
<defs>
<clipPath id="clip0_429_3065">
<rect width="16" height="16" fill="white" transform="translate(0.280029 0.279785)"/>
</clipPath>
</defs>
</svg>
