<svg width="16" height="16" viewBox="0 0 16 16" fill="none" xmlns="http://www.w3.org/2000/svg">
<path d="M7.99998 1.33325C5.41998 1.33325 3.33331 3.41992 3.33331 5.99992C3.33331 9.49992 7.99998 14.6666 7.99998 14.6666C7.99998 14.6666 12.6666 9.49992 12.6666 5.99992C12.6666 3.41992 10.58 1.33325 7.99998 1.33325ZM7.99998 7.66658C7.55795 7.66658 7.13403 7.49099 6.82147 7.17843C6.50891 6.86587 6.33331 6.44195 6.33331 5.99992C6.33331 5.55789 6.50891 5.13397 6.82147 4.82141C7.13403 4.50885 7.55795 4.33325 7.99998 4.33325C8.44201 4.33325 8.86593 4.50885 9.17849 4.82141C9.49105 5.13397 9.66665 5.55789 9.66665 5.99992C9.66665 6.44195 9.49105 6.86587 9.17849 7.17843C8.86593 7.49099 8.44201 7.66658 7.99998 7.66658Z" fill="#5B647E"/>
</svg>
